<svg width="20" height="14" viewBox="0 0 20 14" fill="none" xmlns="http://www.w3.org/2000/svg">
<g clip-path="url(#clip0_4407_2280)">
<path d="M18.3071 9.51786C18.1107 9.51786 17.95 9.35714 17.95 9.16072C17.95 8.96429 18.1107 8.80357 18.3071 8.80357H19.9964C19.9786 8.50714 19.8393 8.22857 19.6143 8.03214C19.6143 8.03214 18.5 7.04286 18.4786 7.00357L16.7714 4.16429C16.5571 3.81071 16.1679 3.58929 15.75 3.58929H12.5607V1.44643C12.5589 0.646875 11.9103 0 11.1107 0H1.45C0.650446 0 0.00178571 0.646875 0 1.44643V11.0357C0 11.6929 0.535714 12.2321 1.19643 12.2321H1.62143C1.63571 9.35357 5.78125 9.36205 5.79286 12.2321H14.6464C14.5902 11.0808 15.5446 10.0536 16.7321 10.0607C17.9196 10.0536 18.8741 11.0813 18.8179 12.2321H19.6429C19.8393 12.2321 20 12.0714 20 11.875V9.51786H18.3071ZM4.58214 9.15714C4.25089 9.4817 3.74375 8.9817 4.07857 8.65L5.58929 7.14286L5.13929 6.69286C4.90714 6.82857 4.63571 6.89643 4.35714 6.89643C2.91071 6.96696 1.59554 4.91339 2.72857 3.77857C3.36429 3.14286 4.48571 3.23214 5.22857 3.975C5.86786 4.61429 6.025 5.53929 5.64286 6.18571L6.09286 6.63572L7.35 5.37857C6.94866 5.02679 6.91652 4.40134 7.29643 4.025L8.24643 3.075C8.57589 2.74821 9.07902 3.24688 8.75 3.57857L7.8 4.52857C7.69375 4.63795 7.74509 4.78929 7.85357 4.87143L8.95 3.77857C9.08884 3.63973 9.31384 3.63929 9.45312 3.77813C9.45312 3.77813 9.45312 3.77813 9.45357 3.77857C9.59241 3.91205 9.59688 4.13348 9.46339 4.27232C9.46027 4.27545 9.45714 4.27902 9.45357 4.28214L8.36071 5.37857C8.43929 5.48482 8.59598 5.52723 8.69643 5.425L9.64643 4.475C9.97321 4.14732 10.4857 4.64955 10.15 4.97857L9.20357 5.92857C8.84911 6.2875 8.27098 6.29152 7.91205 5.93705C7.90938 5.93438 7.90625 5.93125 7.90357 5.92857L7.85357 5.88214L6.59643 7.13929L8.10714 8.65C8.24643 8.78929 8.24643 9.01786 8.10714 9.15714C7.96741 9.29464 7.7433 9.29464 7.60357 9.15714L6.09286 7.64643L4.58214 9.15714ZM17.0357 7.62857C16.9714 7.73572 16.8571 7.8 16.7321 7.8H13.4321C13.2357 7.8 13.075 7.63929 13.075 7.44286V5.15C13.075 4.95357 13.2357 4.79286 13.4321 4.79286H15.5714C15.7071 4.79286 15.8286 4.86786 15.8893 4.98929L17.05 7.27857C17.1071 7.38929 17.1 7.52143 17.0357 7.62857Z" fill="#D3D3D3"/>
<path d="M3.70708 10.7753C1.89191 10.8315 1.88833 13.486 3.70708 13.5431C5.51958 13.4869 5.52762 10.8351 3.70708 10.7753ZM3.70708 12.7288C2.95887 12.7172 2.96199 11.6029 3.70708 11.5896C4.44726 11.6038 4.44994 12.7163 3.70708 12.7288ZM3.79994 4.06455C2.85039 4.06455 2.83566 5.24357 3.43208 5.77169C3.89637 6.23598 4.56423 6.32527 4.92137 5.96812C5.56958 5.32393 4.67494 4.0208 3.79994 4.06455ZM16.7321 10.7753C14.9107 10.836 14.9205 13.4869 16.7321 13.5431C18.5508 13.4833 18.5468 10.8337 16.7321 10.7753ZM16.7464 12.7288C15.9982 12.7172 16.0013 11.6029 16.7464 11.5896C17.4865 11.6038 17.4892 12.7163 16.7464 12.7288ZM13.7892 5.50741V7.08598H16.1499L15.3535 5.50741H13.7892Z" fill="#D3D3D3"/>
</g>
<defs>
<clipPath id="clip0_4407_2280">
<rect width="20" height="13.5429" fill="white"/>
</clipPath>
</defs>
</svg>
