<svg width="12" height="16" viewBox="0 0 12 16" fill="none" xmlns="http://www.w3.org/2000/svg">
<g clip-path="url(#clip0_4407_2388)">
<path d="M6 0C2.69187 0 0 2.71062 0 6.04344C0 10.7787 5.43594 15.6681 5.66719 15.8734C5.85656 16.0428 6.14281 16.0431 6.3325 15.8741C6.56375 15.6681 11.9997 10.7787 11.9997 6.04344C12 2.71062 9.30812 0 6 0ZM6 9.33344C4.16187 9.33344 2.66656 7.83813 2.66656 6C2.66656 4.16187 4.16187 2.66656 6 2.66656C7.83813 2.66656 9.33344 4.16187 9.33344 6C9.33344 7.83813 7.83813 9.33344 6 9.33344Z" fill="#D3D3D3"/>
</g>
<defs>
<clipPath id="clip0_4407_2388">
<rect width="12" height="16.0006" fill="white"/>
</clipPath>
</defs>
</svg>
