<?xml version="1.0" encoding="UTF-8"?><svg id="Layer_1" xmlns="http://www.w3.org/2000/svg" viewBox="0 0 459.1 143.07"><defs><style>.cls-1{fill:#fdbd10;}.cls-1,.cls-2,.cls-3,.cls-4{stroke-width:0px;}.cls-2{fill:#938984;}.cls-3{fill:#f7901e;}.cls-4{fill:#f15a29;}</style></defs><path class="cls-2" d="M1.6,113.51v-22.05h4.2v21.77c.06,8.19,4.38,12.79,11.6,12.79s11.37-4.22,11.43-12.51v-22.05h4.19v21.72c0,11.04-6.31,16.79-15.75,16.79s-15.68-5.75-15.68-16.47Z"/><path class="cls-2" d="M72.41,91.46v37.88h-3.34l-23.8-30.98v30.98h-4.18v-37.88h3.92l23.22,30.25v-30.25h4.18Z"/><path class="cls-2" d="M80.92,91.46h4.19v37.88h-4.19v-37.88Z"/><path class="cls-2" d="M228.56,91.46h4.19v37.88h-4.19v-37.88Z"/><path class="cls-2" d="M88.76,91.46h4.66l13.18,32.44,13.22-32.44h4.5l-15.92,37.88h-3.7l-15.93-37.88Z"/><path class="cls-2" d="M127.97,91.46h27.14v3.97h-22.95v12.88h20.2v3.96h-20.2v13.14h22.95v3.92h-27.14v-37.88Z"/><path class="cls-2" d="M217.82,119.52c0-3.51-1.86-5.53-9.63-7.21-8.51-1.89-12.43-4.71-12.43-10.95,0,0-.29-10.44,12.18-10.44,5.39,0,9.25,1.56,13.01,4.65l-2.44,3.31c-3.42-2.87-6.87-4.01-10.67-4.01-8.24,0-7.88,6.11-7.88,6.11,0,3.58,1.9,5.59,10.05,7.37,8.25,1.84,12.05,4.93,12.05,10.72,0,0,.59,10.88-12.64,10.88-5.88,0-10.69-2.05-15.13-6.12l2.59-3.14c3.86,3.57,7.57,5.3,12.69,5.3,8.65,0,8.26-6.5,8.26-6.5Z"/><path class="cls-2" d="M248.98,95.43h-11.76v-3.97h27.74v3.97h-11.76v33.9h-4.22v-33.9Z"/><path class="cls-2" d="M278.48,114.37l-13.8-22.91h5.08l10.89,18.97,11.01-18.97h4.87l-13.82,22.87v15.01h-4.23v-14.97Z"/><path class="cls-2" d="M186.38,129.33h4.99l-9.37-16.65c4.89-1.1,8.29-4.33,8.29-10.33,0-7.51-5.31-10.89-12.21-10.89h-16.03v37.88h4.19v-16.23h11.28l8.84,16.23ZM166.26,95.43h11.8c5.21,0,8.01,2.34,8.01,6.91s-2.8,6.8-8.01,6.8h-11.8v-13.71Z"/><path class="cls-2" d="M257.93,15.72v59.51h10.17v-12.77c.33-.37,4.34-4.74,5.42-5.97l11.1,18.73h11.92l-16.33-26.08,15.69-17.2h-12.52l-15.28,17.39V15.72h-10.17Z"/><path class="cls-2" d="M186.07,85.86c5.76,0,10.4-1.73,13.81-5.14,3.4-3.39,5.12-8.3,5.12-13.7V31.95h-9.4s-.46,1.98-.46,3.24c-2.75-2.51-6.18-3.77-10.32-3.77-4.55,0-8.17,1.3-10.77,3.85-3.32,3.27-5,7.41-5,15.77s1.68,12.5,4.99,15.77c2.65,2.61,6.23,3.94,10.67,3.94,4.06,0,7.42-1.3,10.12-3.73,0,1.58,0,1.29,0,1.29,0,2.87-.7,5.19-2.08,6.88-1.57,1.96-3.88,2.91-7.04,2.91-6.03,0-9.19-3.97-9.19-3.97l-5.7,5.8s4.15,5.92,15.25,5.92ZM193.5,57.94c-1.21,2.47-3.3,3.67-6.44,3.67s-5.23-1.2-6.43-3.67c-.95-1.83-1.41-2.98-1.41-6.91s.46-5.11,1.4-6.96c1.21-2.43,3.3-3.61,6.43-3.61s5.23,1.18,6.44,3.6c.88,1.85,1.33,3.04,1.33,6.97s-.45,5.09-1.33,6.91Z"/><path class="cls-2" d="M144.31,85.86c5.77,0,10.41-1.73,13.82-5.14,3.4-3.39,5.12-8.3,5.12-13.7V31.95h-9.4s-.45,1.98-.45,3.24c-2.76-2.51-6.19-3.77-10.32-3.77-4.55,0-8.17,1.3-10.77,3.85-3.32,3.27-5.01,7.41-5.01,15.77s1.68,12.5,4.99,15.77c2.65,2.61,6.24,3.94,10.66,3.94,4.06,0,7.42-1.3,10.12-3.73,0,1.58,0,1.29,0,1.29,0,2.87-.7,5.19-2.08,6.88-1.57,1.96-3.88,2.91-7.04,2.91-6.03,0-9.19-3.97-9.19-3.97l-5.7,5.8s4.14,5.92,15.25,5.92ZM151.74,57.94c-1.21,2.47-3.3,3.67-6.43,3.67s-5.23-1.2-6.43-3.67c-.95-1.83-1.41-2.98-1.41-6.91s.46-5.11,1.4-6.96c1.21-2.43,3.3-3.61,6.44-3.61s5.22,1.18,6.43,3.6c.88,1.85,1.33,3.04,1.33,6.97s-.45,5.09-1.33,6.91Z"/><path class="cls-2" d="M61.18,31.42c-5.39,0-9.87,1.77-13.31,5.26-3.43,3.48-5.16,9.15-5.16,16.84s1.73,13.44,5.16,16.94c3.44,3.48,7.91,5.25,13.31,5.25s9.95-1.77,13.39-5.25c3.42-3.5,5.16-9.19,5.16-16.94s-1.74-13.36-5.16-16.84c-3.44-3.49-7.94-5.26-13.39-5.26ZM66.87,64.43c-1.53,1.51-3.39,2.25-5.69,2.25s-4.09-.73-5.62-2.25c-1.78-1.76-2.68-5.43-2.68-10.91s.9-9.14,2.68-10.9c1.48-1.45,3.31-2.16,5.62-2.16s4.22.71,5.69,2.16c1.79,1.76,2.69,5.43,2.69,10.9s-.9,9.15-2.69,10.91Z"/><path class="cls-2" d="M239.27,31.95v26.2c0,2.85-.74,4.99-2.21,6.39-1.5,1.43-3.36,2.13-5.71,2.13s-4.07-.66-5.42-1.99c-1.5-1.48-2.26-3.68-2.26-6.53v-26.2h-10.17v27.42c0,5.29,1.5,9.45,4.47,12.33,2.74,2.66,6.41,4.01,10.92,4.01,4.11,0,7.56-1.37,10.38-3.78,0,1.18.45,3.3.45,3.3h9.73V31.95h-10.18Z"/><path class="cls-2" d="M105.99,31.42c-4.12,0-7.59,1.34-10.47,3.77,0-1.18-.44-3.24-.44-3.24h-9.53v43.28h9.97v-26.25c0-2.84.79-5.04,2.37-6.52,1.42-1.34,3.27-2,5.66-2s4.17.65,5.48,1.98c1.52,1.46,2.29,3.64,2.29,6.55v26.25h10.16v-27.46c0-5.29-1.51-9.45-4.5-12.34-2.76-2.67-6.45-4.01-11-4.01Z"/><path class="cls-2" d="M26.73,35.19c-2.68-2.37-6.67-3.77-10.87-3.77-4.55,0-8.19,1.33-10.85,3.93-3.36,3.32-5,9.26-5,18.17s1.62,14.94,4.97,18.25c2.64,2.61,6.3,3.94,10.87,3.94,4.15,0,8.14-1.27,10.89-3.78,0,1.25.44,3.3.44,3.3h9.73V15.72h-10.17v19.47ZM24.17,64.43c-1.53,1.51-3.39,2.25-5.7,2.25s-4.09-.73-5.62-2.25c-1.78-1.76-2.68-5.43-2.68-10.91s.9-9.14,2.68-10.9c1.48-1.45,3.32-2.16,5.62-2.16s4.22.71,5.7,2.16c1.79,1.76,2.69,5.43,2.69,10.9s-.9,9.15-2.69,10.91Z"/><path class="cls-3" d="M346.45,83.51l-36.42,10.67c-3.8,1.11-4.5,4.17-1.54,6.78l11.1,9.82c3.92,3.4,7.42,3.8,11.89,1.72l27.97-13.05v-3.32l-13-12.62Z"/><path class="cls-3" d="M359.45,68.09l-34.5-41.63c-2.6-3.11-5.46-2.59-6.68,1.3l-4.65,14.99c-1.16,3.75-.71,8.14,3.03,11.81l29.81,28.95,13-3.81v-11.61Z"/><polygon class="cls-4" points="359.45 79.7 346.45 83.51 359.45 96.14 359.45 79.7"/><path class="cls-4" d="M362.9,99.52l28.39,41.13c2.24,3.24,5.48,3.33,7.54-.36l5.84-10.5c2.56-4.71,1.93-8.15-1.27-11.62l-12.24-13.82-28.26-4.84Z"/><path class="cls-1" d="M391.17,104.37l44.12,7.57c5.18.87,8.54-.51,11.64-4.32l10.87-13.32c2.49-3.04,1.29-5.63-2.68-5.74l-66.04-1.82c-1.04,3.58-3,6.65-5.66,8.87l7.75,8.75Z"/><path class="cls-4" d="M446.47,64.92c3.75-1.41,4.18-4.27.84-6.5l-14.44-9.56-43.14,34.75c-.14,1.08-.36,2.12-.66,3.12l57.39-21.82Z"/><path class="cls-3" d="M432.87,48.87c-2.88-1.96-6.64-1.93-10.66.23l-36.03,19.52c2.39,3.24,3.74,7.41,3.74,12.03,0,1.02-.07,2.01-.19,2.97l43.14-34.75Z"/><path class="cls-1" d="M422.21,49.1c4.01-2.16,7.77-2.19,10.66-.23l10.67-8.61c4.07-3.27,5.05-6.44,3.87-11.42l-4.47-17.97c-.95-3.8-3.94-4.58-6.65-1.71l-53.09,56.35c1.11.91,2.11,1.95,2.97,3.12l36.03-19.52Z"/><path class="cls-4" d="M398.51,24.17c1.7-4.6.83-8.24-2.75-11.6l-11.73-11.03c-2.87-2.7-5.83-1.75-6.55,2.1l-3.02,15.99c3.36,1.87,4.49,5.18,4.24,9.34l-2.25,33.25c2.55.58,4.84,1.72,6.77,3.28l15.3-41.33Z"/><path class="cls-1" d="M360.5,11.99c-3.5-1.9-6.04-.17-5.64,3.72l4.58,46.05h7.05l7.96-42.14-13.96-7.63Z"/><path class="cls-3" d="M378.7,28.97c.25-4.16-.87-7.47-4.24-9.34l-7.96,42.14h5.84c1.43,0,2.8.16,4.1.46l2.25-33.25Z"/><path class="cls-3" d="M383.42,95.62c-2.93,2.46-6.72,3.91-11.07,3.91h-9.44l28.26,4.84-7.75-8.75Z"/></svg>