<svg width="123" height="42" viewBox="0 0 123 42" fill="none" xmlns="http://www.w3.org/2000/svg">
<path d="M0 40.864V0H40.975V40.864H0Z" fill="#95C51B"/>
<path d="M82.421 40.864V40.2793L81.9404 39.3399V0H40.975V40.864H55.7867V39.546H66.1578V40.864H82.421Z" fill="#006784"/>
<path d="M81.9404 0V18.5292L77.6632 27.8226L81.9404 37.2742L82.8632 39.546H93.3256V40.864H122.911V0H81.9404Z" fill="#37BEF0"/>
<path d="M64.5912 33.6796C64.5912 31.4653 61.8711 30.7943 60.2563 30.3294L60.0256 30.2623C55.3879 28.9299 52.9033 26.3753 52.6918 22.6656C52.5765 20.643 53.2637 18.8793 54.6478 17.403C56.3683 15.5578 59.0116 14.4986 61.8951 14.4986C64.7786 14.4986 67.494 15.3805 69.7527 16.5835C69.6566 16.78 67.5324 20.9689 67.4123 21.1942C66.0234 20.1685 64.3894 19.4879 62.8851 19.5023C60.7753 19.5167 59.4489 20.4561 59.4489 22.1049C59.4489 23.9932 61.5827 24.6882 62.8515 25.1004L64.6489 25.642C68.6954 26.8546 70.8389 29.0497 71.1032 32.5629C71.3002 35.2901 70.267 37.8063 68.3302 39.4646C66.4847 41.0415 63.8896 41.8084 61.006 41.8084C57.9687 41.8084 54.7728 40.7156 52.1007 38.9231C52.2016 38.7265 54.5277 34.3171 54.6574 34.0679C56.7336 35.7885 58.7665 36.7327 60.7561 36.7327C62.5968 36.7327 64.5912 35.8364 64.5912 33.6653V33.6796Z" fill="white"/>
<path d="M74.3328 28.3067C74.3328 20.758 80.417 14.6183 87.895 14.6183C92.129 14.6183 96.1707 16.6744 98.7275 20.1205C98.54 20.2643 93.9552 23.7008 93.7774 23.8398C92.3837 21.9753 90.197 20.8586 87.895 20.8586C83.8244 20.8586 80.6573 24.204 80.6573 28.3115C80.6573 32.419 83.8244 35.7692 87.895 35.7692C90.1345 35.7692 92.2924 34.7004 93.6909 32.9079C93.8639 33.0373 98.4439 36.4738 98.6458 36.6224C96.0842 39.9918 92.0809 42 87.8998 42C80.4218 42 74.3376 35.8555 74.3376 28.3067H74.3328Z" fill="white"/>
<path d="M116.855 15.1838V25.2393H108.998V15.1838H102.851V41.3912H108.998V30.4827H116.855V41.3912H123.002V15.1838H116.855Z" fill="white"/>
</svg>
