<?xml version="1.0" encoding="UTF-8"?><svg id="Layer_1" xmlns="http://www.w3.org/2000/svg" viewBox="0 0 362.83 349.45"><defs><style>.cls-1{fill:#25408f;stroke-width:0px;}</style></defs><path class="cls-1" d="M154,108.82v1.51c4.73,0,4.88,5.22,4.88,5.22v14.41h-15.82l-5.8-11.8,2.26-7.15h-15.8v1.64c2.89,0,5.84,1.71,4.56,6.42l-13.87,48h7.38l11.98-37.9,20.32,37.9h4.91v3.03h8.43v-61.29h-13.43ZM146.23,136.43h12.77v25.94l-12.77-25.94Z"/><path class="cls-1" d="M202.35,138.36v6.11h17.23v14.92h-33.06v3.72h38.74l-3.31,6.04h-43.98v-10.03s-.8-3.98-3.81-3.98v-1.11h36.86v-3.7h-32.92l-2.63-5.86h18.19v-6.11h-22.66l-3.29-5.76h17.44c-3.8-2.6-6.2-6.32-6.2-10.46,0-6.66,6.2-12.24,14.58-13.76v-.52s-.66-1.23-1.97-1.23v-.96h8.95s1.85.96,1.98,2.19c.02.17.02.33.04.49,8.49,1.47,14.81,7.08,14.81,13.8,0,4.13-2.4,7.86-6.22,10.46h17.19l-3.03,5.76h-22.92ZM198.12,131.68c5.76,0,10.42-4.27,10.42-9.54s-4.66-9.52-10.42-9.52-10.44,4.27-10.44,9.52,4.69,9.54,10.44,9.54Z"/><path class="cls-1" d="M154.26,178.51v1.82s5.24.73,5.24,4.03h-22.76c-.4-.13-.82-.26-1.25-.37-.38-1.47-.99-4.37-1.6-5.48h-9.84v1.45s3.34,0,3.34,3.48v.25c-9.25,1.63-16.3,9.92-16.3,19.91,0,11.17,8.79,20.23,19.62,20.23,7.71,0,14.38-4.59,17.58-11.24h11.19v30.63h8.62v-64.7h-13.87ZM159.5,206.76h-9.4c.17-1.04.25-2.09.25-3.17,0-5.13-1.85-9.8-4.92-13.37h14.07v16.54ZM120.4,203.42c0-7.3,4.78-13.22,10.69-13.22s10.68,5.92,10.68,13.22-4.79,13.22-10.68,13.22-10.69-5.92-10.69-13.22Z"/><path class="cls-1" d="M170.61,183.17v1.56s4.57-.19,4.57,5.67v34.08l25.44-7.16v18.61h8.69v-28.68h8.07v28.68h8.61v-56.43h-12.98v1.19s4.37,1.28,4.37,5.14v15.19h-8.24v-21.51h-12.47v1.19s3.95.55,3.95,6.22v23.46l-16.84,5.14v-26.03h10.55l3.68-6.32h-27.4Z"/><path class="cls-1" d="M134.52,17.19c2.99,0,5.42-2.43,5.42-5.43s-2.43-5.42-5.42-5.42-5.44,2.43-5.44,5.42,2.45,5.43,5.44,5.43Z"/><path class="cls-1" d="M144.41,51.72c2.99,0,5.44-2.42,5.44-5.42s-2.45-5.42-5.44-5.42-5.42,2.41-5.42,5.42,2.42,5.42,5.42,5.42Z"/><path class="cls-1" d="M235.1,30.14c-24.24,0-20.8,7.28-36.55,8.69-17.75,1.59-45.25-20.79-51.5-25.45,4.84.41,60.59,11.92,74.73,15.15v-2.22c-15.95-4.04-57.56-11.51-75.74-15.55C167.63.86,184.62-.2,197.14,5.3c8.27,3.63,16.75,13.12,21.4,16.75,2.59,2.04,9.28,3.84,14.94,4.04l-1.4-2.43c-3.84,0-8.29-1.01-10.51-2.42-5.04-3.23-13.53-13.94-23.83-18.18-19.96-8.22-49.27,2.02-56.74,7.68,3.82,4.23,11.91,10.91,15.96,13.73-2.23,3.43-10.51,11.72-15.16,14.14,11.51-.61,32.73,17.58,55.55,5.85,22.82-11.7,25.85-12.32,38.76-11.9l-1-2.43ZM159.37,26.3s6.66,4.24,10.28,6.27c-3.62.6-20.19,3.43-20.19,3.43,4.04-4.05,8.89-7.88,9.91-9.7ZM151.08,38.42c3.24-.41,17.78-2.62,22.01-3.85,6.05,2.23,14.53,7.48,24.05,7.08-17.19,9.09-30.11,2.23-46.06-3.22Z"/><path class="cls-1" d="M219.12,16.16c2.59,1.49,5.92.6,7.4-2,1.51-2.59.6-5.91-1.99-7.41-2.59-1.49-5.91-.61-7.41,1.98-1.5,2.6-.6,5.92,1.99,7.42Z"/><path class="cls-1" d="M210.43,51.02c2.61,1.5,5.93.61,7.43-1.99,1.49-2.59.6-5.91-2-7.4-2.61-1.5-5.92-.6-7.41,1.99-1.51,2.59-.6,5.9,1.98,7.4Z"/><path class="cls-1" d="M231.86,19.11c4,2.77,46.54,40.58,57.19,50.45l1.11-1.93c-11.81-11.47-44.13-38.73-57.85-51.3,23.65,2.21,38.89,9.79,46.99,20.79,5.34,7.29,7.96,19.74,10.16,25.22,1.25,3.05,6.14,7.97,10.94,10.96l-.02-2.81c-3.32-1.91-6.67-5.02-7.89-7.33-2.76-5.33-4.76-18.84-11.56-27.67-13.19-17.09-43.69-22.86-53-21.69,1.21,5.58,4.88,15.38,6.96,19.86-3.65,1.87-14.95,4.9-20.19,4.68,10.28,5.23,19.57,31.57,45.2,32.81,25.61,1.26,28.54,2.25,39.54,9.05l.33-2.61c-20.98-12.1-21.65-4.08-36-10.74-16.15-7.47-28.8-40.6-31.91-47.76ZM236.07,36.46s3.66,7.01,5.81,10.57c-3.44-1.3-19.21-7.12-19.21-7.12,5.51-1.47,11.62-2.39,13.4-3.45ZM222.86,42.82c3.01,1.27,16.7,6.6,21,7.67,4.14,4.95,8.85,13.74,17.28,18.13-19.41-.69-27.17-13.11-38.27-25.8Z"/><path class="cls-1" d="M292.93,57.52c1.5,2.6,4.81,3.48,7.41,1.97,2.59-1.49,3.48-4.81,1.98-7.41-1.51-2.59-4.82-3.48-7.42-1.98-2.6,1.49-3.48,4.82-1.97,7.42Z"/><path class="cls-1" d="M267.99,83.38c1.52,2.6,4.81,3.49,7.43,1.98,2.58-1.5,3.48-4.82,1.97-7.42-1.49-2.59-4.82-3.48-7.42-1.96-2.59,1.49-3.47,4.81-1.97,7.4Z"/><path class="cls-1" d="M336.8,105.16c-2.89-21.41-26.42-41.65-35.06-45.27-1.75,5.44-3.47,15.78-3.89,20.7-4.1-.2-15.41-3.22-19.82-6.04,6.27,9.66,1.17,37.13,22.75,51.02,9.83,6.32,15.61,10.25,19.56,13.73l3.25-.22c-6.47-6.83-10.69-5.91-17.31-15.3-10.26-14.56-4.67-49.58-3.78-57.33,2.08,4.4,21.01,56.38,25.31,70.24l1.91-1.12c-4.5-15.83-19.83-53.57-25.45-71.31,19.38,13.74,28.8,27.91,30.32,41.49.99,8.98-2.96,21.09-3.79,26.93-.22,1.54.07,3.88.72,6.43l2.06-.21c-.39-1.5-.6-2.9-.55-4.01.27-5.99,5.28-18.7,3.78-29.73ZM297.48,83.59s-.33,7.9-.26,12.06c-2.35-2.86-13.09-15.76-13.09-15.76,5.53,1.48,11.26,3.73,13.35,3.71ZM303.12,123.95c-16.47-10.3-17-24.92-20.28-41.46,1.97,2.6,11.17,14.07,14.35,17.13,1.11,6.35.83,16.33,5.93,24.33Z"/><path class="cls-1" d="M61.97,60.12c2.61-1.49,3.5-4.8,2-7.42-1.49-2.59-4.81-3.49-7.4-2-2.61,1.49-3.51,4.81-2.01,7.41,1.48,2.6,4.79,3.5,7.41,2Z"/><path class="cls-1" d="M87.75,85.14c2.58-1.49,3.48-4.81,2-7.41-1.5-2.61-4.82-3.49-7.41-2.02-2.6,1.5-3.5,4.82-2.01,7.41,1.5,2.61,4.8,3.5,7.41,2.02Z"/><path class="cls-1" d="M155.65,21.28c-21.02,12.06-14.43,16.65-27.38,25.73-14.6,10.21-49.6,4.48-57.34,3.56,4.41-2.07,58.49-19.83,72.36-24.06l-1.11-1.92c-15.85,4.44-55.65,18.66-73.43,24.2,13.82-19.32,28.01-28.69,41.6-30.15,9-.97,21.08,3.04,26.91,3.88,3.25.46,9.96-1.3,14.98-3.94l-2.43-1.4c-3.33,1.9-7.7,3.26-10.32,3.13-5.98-.29-18.67-5.35-29.72-3.9-21.42,2.8-41.74,26.28-45.4,34.92,5.45,1.76,15.76,3.52,20.69,3.95-.22,4.09-3.28,15.4-6.11,19.81,9.68-6.26,37.12-1.05,51.1-22.58,13.96-21.52,16.27-23.54,27.7-29.63l-2.09-1.6ZM88.04,55.66s7.89.36,12.05.3c-2.86,2.34-15.81,13.03-15.81,13.03,1.49-5.51,3.79-11.25,3.76-13.32ZM86.9,70.28c2.59-1.96,14.11-11.13,17.17-14.27,6.36-1.1,16.34-.77,24.37-5.85-10.36,16.44-24.99,16.91-41.54,20.12Z"/><path class="cls-1" d="M20.42,133.45c1.5-2.59.63-5.91-1.95-7.42-2.6-1.51-5.92-.65-7.44,1.95-1.51,2.59-.63,5.92,1.96,7.42,2.59,1.52,5.91.65,7.43-1.95Z"/><path class="cls-1" d="M55.22,142.33c1.52-2.59.64-5.92-1.95-7.42-2.59-1.51-5.91-.65-7.42,1.94-1.51,2.59-.66,5.92,1.94,7.42,2.59,1.51,5.91.65,7.42-1.94Z"/><path class="cls-1" d="M82.32,53.14c-12.22,20.92-4.21,21.63-10.94,35.95-7.58,16.12-40.78,28.57-47.95,31.64,2.79-3.99,40.86-46.31,50.77-56.89l-1.91-1.14c-11.54,11.75-38.98,43.91-51.64,57.57,2.37-23.65,10.01-38.84,21.07-46.87,7.31-5.31,19.8-7.86,25.27-10.03,3.06-1.21,8-6.08,11.03-10.87h-2.81c-1.94,3.31-5.06,6.66-7.39,7.85-5.33,2.72-18.86,4.66-27.72,11.41-17.18,13.09-23.11,43.57-22,52.87,5.61-1.16,15.44-4.79,19.91-6.84,1.83,3.64,4.82,14.97,4.58,20.2,5.27-10.24,31.66-19.38,33.06-44.99,1.4-25.63,2.4-28.55,9.27-39.5l-2.61-.35ZM44.19,130.04c-1.46-5.52-2.33-11.65-3.39-13.43,0,0,7.03-3.62,10.61-5.74-1.31,3.44-7.21,19.17-7.21,19.17ZM47.09,129.87c1.28-3,6.69-16.67,7.79-20.95,4.98-4.12,13.78-8.78,18.22-17.18-.8,19.41-13.26,27.09-26.01,38.12Z"/><path class="cls-1" d="M26.82,120.97s4.69,11.35-13.78,22.87c-16.63,10.36-10.91,20.29-2.74,27.41,3.8-11.5,11.06-24.37,18.49-45.14l1.96.15c-3.17,10.46-11.81,25.15-18.93,46.35,19.08-7.87,24.55-22.41,25.76-28.78-5.15-10.44-4.7-17.87-4.25-25.29l2.27-.76c-3.94,23.78,14.24,35.91,14.86,44.68.24,3.59-3.8,8.19-9.25,12.17-3.03-1.67-8.18-6.71-11.66-11.56-4.39,5-11.95,10.29-18.64,11.56-14.99-11.07-14.38-23.53.92-32.16,15.3-8.64,13.18-17.88,13.02-20.61l1.98-.91ZM40.29,171.72c-.29-3.19-3.03-12.27-4.84-16.06-.75,1.51-4.55,6.21-4.55,6.21,3.8,4.85,6.21,7.42,9.39,9.85ZM48.03,162.78c0-3.48-5.6-11.36-8.79-15.9,0,1.95-2.27,7.57-2.27,7.57,2.27,4.1,4.7,15.29,4.84,17.42.92-.91,6.23-5.6,6.23-9.09Z"/><path class="cls-1" d="M134.52,332.26c2.99,0,5.42,2.43,5.42,5.42s-2.43,5.42-5.42,5.42-5.44-2.42-5.44-5.42,2.45-5.42,5.44-5.42Z"/><path class="cls-1" d="M144.41,297.72c2.99,0,5.44,2.43,5.44,5.43s-2.45,5.43-5.44,5.43-5.42-2.44-5.42-5.43,2.42-5.43,5.42-5.43Z"/><path class="cls-1" d="M198.54,310.63c15.76,1.41,12.31,8.67,36.55,8.67l1-2.42c-12.91.4-15.94-.2-38.76-11.92-22.82-11.71-44.04,6.46-55.55,5.86,4.65,2.42,12.93,10.71,15.16,14.14-4.04,2.82-12.13,9.48-15.96,13.73,7.47,5.66,36.78,15.91,56.74,7.69,10.3-4.26,18.79-14.95,23.83-18.19,2.21-1.42,6.66-2.42,10.51-2.42l1.4-2.44c-5.66.22-12.35,2.03-14.94,4.05-4.65,3.64-13.13,13.13-21.4,16.76-12.52,5.5-29.5,4.45-51.11-5.46,18.18-4.03,59.79-11.51,75.74-15.55v-2.21c-14.14,3.23-69.88,14.73-74.73,15.15,6.25-4.64,33.75-27.05,51.5-25.45ZM159.37,323.13c-1.02-1.8-5.87-5.65-9.91-9.69,0,0,16.57,2.82,20.19,3.43-3.62,2.02-10.28,6.26-10.28,6.26ZM151.08,311.02c15.95-5.46,28.87-12.32,46.06-3.23-9.52-.4-17.99,4.84-24.05,7.07-4.23-1.21-18.77-3.45-22.01-3.84Z"/><path class="cls-1" d="M219.12,333.28c2.59-1.5,5.92-.59,7.4,2,1.51,2.59.6,5.91-1.99,7.41-2.59,1.49-5.91.62-7.41-1.99-1.5-2.59-.6-5.91,1.99-7.41Z"/><path class="cls-1" d="M210.43,298.43c2.61-1.5,5.93-.61,7.43,1.98,1.49,2.6.6,5.91-2,7.4-2.61,1.51-5.92.62-7.41-1.99-1.51-2.59-.6-5.91,1.98-7.4Z"/><path class="cls-1" d="M289.46,287.1c-2.2,5.47-4.82,17.92-10.16,25.21-8.09,11.01-23.34,18.57-46.99,20.82,13.72-12.59,46.03-39.84,57.85-51.32l-1.11-1.92c-10.64,9.86-53.18,47.68-57.19,50.44,3.12-7.14,15.76-40.28,31.91-47.76,14.35-6.64,15.02,1.37,36-10.74l-.33-2.6c-10.99,6.81-13.93,7.8-39.54,9.05-25.63,1.25-34.92,27.57-45.2,32.81,5.24-.22,16.54,2.82,20.19,4.67-2.09,4.46-5.76,14.28-6.96,19.88,9.31,1.18,39.8-4.59,53-21.7,6.8-8.83,8.81-22.34,11.56-27.66,1.22-2.33,4.58-5.44,7.89-7.35l.02-2.8c-4.8,3-9.69,7.92-10.94,10.96ZM261.13,280.82c-8.43,4.39-13.14,13.18-17.28,18.13-4.29,1.06-17.98,6.41-21,7.67,11.1-12.7,18.86-25.1,38.27-25.8ZM222.68,309.54s15.76-5.84,19.21-7.12c-2.14,3.57-5.81,10.57-5.81,10.57-1.78-1.07-7.89-1.96-13.4-3.45Z"/><path class="cls-1" d="M292.93,291.92c1.5-2.59,4.81-3.48,7.41-1.99,2.59,1.51,3.48,4.83,1.98,7.43-1.51,2.59-4.82,3.48-7.42,1.98-2.6-1.5-3.48-4.82-1.97-7.42Z"/><path class="cls-1" d="M267.99,266.06c1.52-2.59,4.81-3.49,7.43-1.98,2.58,1.5,3.48,4.82,1.97,7.4-1.49,2.6-4.82,3.49-7.42,1.99-2.59-1.51-3.47-4.82-1.97-7.41Z"/><path class="cls-1" d="M333.02,214.56c-.05-1.08.16-2.49.55-3.99l-2.06-.22c-.65,2.56-.94,4.88-.72,6.43.83,5.84,4.78,17.94,3.79,26.92-1.52,13.58-10.94,27.75-30.32,41.49,5.62-17.75,20.95-55.47,25.45-71.3l-1.91-1.12c-4.3,13.86-23.23,65.84-25.31,70.24-.89-7.74-6.47-42.76,3.78-57.33,6.62-9.39,10.84-8.47,17.31-15.3l-3.25-.22c-3.95,3.49-9.74,7.41-19.56,13.74-21.58,13.88-16.48,41.34-22.75,50.99,4.41-2.79,15.72-5.82,19.82-6.02.42,4.91,2.14,15.24,3.89,20.69,8.64-3.63,32.17-23.86,35.06-45.28,1.5-11.04-3.51-23.74-3.78-29.73ZM284.13,269.57s10.74-12.92,13.09-15.76c-.08,4.15.26,12.04.26,12.04-2.09-.03-7.82,2.24-13.35,3.72ZM297.19,249.83c-3.18,3.06-12.38,14.53-14.35,17.13,3.28-16.54,3.81-31.17,20.28-41.48-5.1,8.02-4.81,17.99-5.93,24.35Z"/><path class="cls-1" d="M61.97,289.33c2.61,1.49,3.5,4.8,2,7.41-1.49,2.6-4.81,3.5-7.4,2-2.61-1.49-3.51-4.82-2.01-7.42,1.48-2.59,4.79-3.5,7.41-2Z"/><path class="cls-1" d="M87.75,264.31c2.58,1.49,3.48,4.8,2,7.4-1.5,2.6-4.82,3.5-7.41,2-2.6-1.5-3.5-4.8-2.01-7.41,1.5-2.6,4.8-3.49,7.41-1.99Z"/><path class="cls-1" d="M128.27,302.44c12.96,9.07,6.36,13.66,27.38,25.74l2.09-1.61c-11.43-6.08-13.74-8.11-27.7-29.63-13.98-21.52-41.42-16.31-51.1-22.57,2.83,4.41,5.89,15.71,6.11,19.81-4.93.44-15.24,2.2-20.69,3.97,3.66,8.62,23.99,32.09,45.4,34.89,11.04,1.46,23.74-3.61,29.72-3.89,2.62-.13,6.99,1.21,10.32,3.12l2.43-1.39c-5.02-2.64-11.73-4.41-14.98-3.94-5.84.83-17.91,4.85-26.91,3.88-13.59-1.46-27.79-10.82-41.6-30.17,17.78,5.56,57.58,19.78,73.43,24.22l1.11-1.93c-13.87-4.23-67.94-22-72.36-24.05,7.74-.92,42.75-6.64,57.34,3.56ZM128.45,299.28c-8.04-5.06-18.01-4.75-24.37-5.84-3.06-3.16-14.58-12.32-17.17-14.29,16.55,3.23,31.18,3.71,41.54,20.13ZM88.04,293.79c.03-2.07-2.26-7.82-3.76-13.33,0,0,12.96,10.7,15.81,13.03-4.16-.05-12.05.3-12.05.3Z"/><path class="cls-1" d="M20.42,215.98c1.5,2.59.63,5.92-1.95,7.43-2.6,1.51-5.92.63-7.44-1.95-1.51-2.6-.63-5.91,1.96-7.42,2.59-1.51,5.91-.64,7.43,1.94Z"/><path class="cls-1" d="M55.22,207.11c1.52,2.59.64,5.92-1.95,7.43-2.59,1.52-5.91.63-7.42-1.95-1.51-2.59-.66-5.9,1.94-7.41,2.59-1.51,5.91-.66,7.42,1.93Z"/><path class="cls-1" d="M71.39,260.35c6.73,14.32-1.29,15.01,10.94,35.95l2.61-.35c-6.88-10.95-7.87-13.88-9.27-39.5-1.4-25.61-27.79-34.74-33.06-44.99.24,5.24-2.74,16.56-4.58,20.22-4.47-2.06-14.3-5.69-19.91-6.86-1.11,9.31,4.82,39.77,22,52.87,8.86,6.77,22.39,8.69,27.72,11.42,2.33,1.2,5.45,4.53,7.39,7.85h2.81c-3.03-4.79-7.98-9.66-11.03-10.88-5.47-2.18-17.96-4.71-25.27-10.03-11.05-8.03-18.69-23.22-21.07-46.86,12.66,13.66,40.1,45.8,51.64,57.55l1.91-1.13c-9.92-10.57-47.98-52.9-50.77-56.87,7.18,3.05,40.37,15.5,47.95,31.62ZM40.8,232.84c1.07-1.8,1.94-7.91,3.39-13.44,0,0,5.9,15.72,7.21,19.19-3.58-2.13-10.61-5.75-10.61-5.75ZM47.09,219.58c12.75,11.04,25.21,18.72,26.01,38.14-4.43-8.4-13.24-13.08-18.22-17.19-1.1-4.26-6.52-17.95-7.79-20.95Z"/><path class="cls-1" d="M24.84,227.55c.16-2.71,2.28-11.96-13.02-20.59-15.3-8.63-15.91-21.09-.92-32.15,6.68,1.25,14.24,6.56,18.64,11.55,3.48-4.84,8.64-9.88,11.66-11.55,5.45,4,9.49,8.57,9.25,12.16-.61,8.79-18.79,20.91-14.86,44.7l-2.27-.76c-.45-7.44-.9-14.85,4.25-25.31-1.21-6.35-6.68-20.9-25.76-28.77,7.11,21.2,15.75,35.91,18.93,46.36l-1.96.15c-7.43-20.75-14.69-33.62-18.49-45.14-8.17,7.12-13.89,17.06,2.74,27.41,18.47,11.52,13.78,22.87,13.78,22.87l-1.98-.91ZM30.9,187.57s3.8,4.69,4.55,6.22c1.81-3.78,4.55-12.87,4.84-16.06-3.18,2.43-5.59,5-9.39,9.84ZM41.8,177.57c-.14,2.13-2.56,13.33-4.84,17.41,0,0,2.27,5.63,2.27,7.58,3.19-4.56,8.79-12.41,8.79-15.9s-5.31-8.18-6.23-9.09Z"/><path class="cls-1" d="M339.15,132.39c1.51,2.61,4.82,3.49,7.42,1.98,2.61-1.5,3.47-4.82,1.98-7.41-1.5-2.6-4.82-3.48-7.43-1.97-2.59,1.5-3.48,4.83-1.97,7.4Z"/><path class="cls-1" d="M340.66,221.46c1.5,2.6,4.82,3.48,7.42,1.98,2.59-1.51,3.48-4.82,1.99-7.41-1.52-2.6-4.84-3.49-7.42-2-2.6,1.51-3.48,4.83-1.99,7.42Z"/><path class="cls-1" d="M280.54,186.1h12.11l-.15-2.11-1.97-1.21-16.06-35.13-4.09,3.02,1.21,4.24-11.82,27.73c-.76,1.97-3.17,1.97-3.17,1.97v1.5h9.85v-1.5c-1.06,0-3.34-1.52-3.34-1.52l2.9-6.5h13.82l3.27,8.02h-2.58v1.5ZM267.64,172.93l5.62-12.58,5.1,12.58h-10.73Z"/><path class="cls-1" d="M358,140.62l-4.04-3.84h-46.91c-2.53,0-6.82,7.07-6.82,7.07,0-2.72-3.78-7.07-5.14-7.07h-.71c.49,1.5.95,3.02,1.39,4.55h-.02c1.76,1.22,3.36,3.17,3.36,5.35v58.76c-.55-.75-1.24-1.56-2.08-2.33t0-.02s-.02,0-.02-.02c-.37-.35-.75-.67-1.15-1-.14-.11-.26-.19-.39-.3-.31-.23-.63-.48-.96-.7-.14-.09-.29-.18-.42-.28-.45-.28-.93-.57-1.44-.82,0,0,0,0-.04,0-.47-.25-.96-.45-1.45-.65-.16-.04-.31-.09-.47-.15-.39-.11-.78-.23-1.16-.32-.18-.05-.34-.07-.48-.1-.55-.09-1.1-.15-1.64-.15h-38.57v-58.57h14.29c-.46-1.1-.98-2.15-1.48-3.23h-14.63l-4.04,3.84h-4.84v68.06h25.21c.38-.94.8-1.87,1.15-2.83h-22.94v-62.2l5.05-3.43v60.18h39.18s6.21.25,10.28,6.46c.12.21.29.38.42.61h7.99c4.03-6.86,10.69-7.07,10.69-7.07h39.18v-60.18l5.06,3.43v62.2h-40.81c-8.27,0-6.46,7.07-11.51,7.07h-12.85c-.36,1.08-.75,2.15-1.15,3.23h17.03c3.62,0,1.62-7.47,12.12-7.47h40.59v-68.06h-4.84ZM352.13,198.59h-38.57c-4.85,0-9.49,3.83-11.71,6.85v-58.76c0-3.64,4.43-6.67,6.65-6.67h43.63v58.57Z"/><path class="cls-1" d="M317.19,182.32s-1.97,1.52-5.15,1.52v2.11h11.67v-2.41s-6.83-6.21-6.83-16.65,4.7-16.22,11.53-16.22,11.5,5.75,11.5,16.22-6.81,16.65-6.81,16.65v2.41h11.65v-2.11c-3.17,0-5.14-1.52-5.14-1.52,1.97-1.67,6.66-7.27,6.66-15.44,0-15.6-12.25-19.09-17.85-19.09s-17.88,3.5-17.88,19.09c0,8.17,4.69,13.78,6.66,15.44Z"/><path class="cls-1" d="M295.76,141.33h-.02c-.24-.19-.46-.32-.7-.45-.1-.06-.2-.1-.31-.15-.18-.1-.39-.2-.59-.28-.15-.07-.31-.13-.45-.18-.15-.05-.29-.09-.42-.13-.29-.07-.57-.11-.82-.11h-29.33c-.46-1.1-.98-2.15-1.48-3.23-14.39-31.42-46.06-53.28-82.9-53.28-50.38,0-91.21,40.84-91.21,91.22s40.83,91.24,91.21,91.24c38.37,0,71.11-23.74,84.6-57.29.38-.94.8-1.87,1.15-2.83h17.86c8.27,0,6.46,7.07,11.5,7.07h.38c-.36,1.08-.75,2.15-1.15,3.23-16.97,46.76-61.74,80.18-114.35,80.18-67.19,0-121.66-54.47-121.66-121.68s54.47-121.67,121.66-121.67c53.98,0,99.7,35.15,115.63,83.8.49,1.5.95,3.02,1.39,4.55ZM88.9,231.23c-2.62,1.99-3.65,6.13-.79,9.88,2.8,3.69,7.09,3.87,9.72,1.86,2.46-1.88,3.74-6,.81-9.86-2.95-3.86-7.27-3.77-9.74-1.88ZM96.5,234.73c1.47,1.93,1.21,4.17-.67,5.62-1.89,1.42-4.11,1.08-5.59-.87-1.49-1.94-1.22-4.18.67-5.62,1.87-1.43,4.09-1.08,5.59.87ZM64.78,169.39c-.11,4.63,3.13,7.44,6.44,7.52,3.1.06,6.66-2.36,6.77-7.21.11-4.86-3.32-7.47-6.44-7.52-3.28-.09-6.67,2.5-6.76,7.21ZM67.46,169.45c.05-2.46,1.66-4.04,4.01-3.98,2.35.05,3.9,1.7,3.83,4.16-.04,2.44-1.66,4.03-4.01,3.97-2.35-.06-3.88-1.7-3.83-4.16ZM92.38,123.41l-1.81-4.3c-.75-1.74-1.85-3.51-3.52-4.47-1.2-.69-2.77-.78-4.06-.28-1.22.47-2.24,1.6-2.88,2.7-1.5,2.64-1.3,5.82,1.52,7.45,2.12,1.23,4.89.9,6.18-1.37.34-.61.5-1.16.57-1.82l.04-.02,2.01,5.51,1.95-3.41ZM83.32,121.35c1.06.61,2.36.28,2.96-.76.6-1.04.25-2.39-.81-2.99-1.05-.61-2.37-.24-2.98.82-.6,1.05-.23,2.34.82,2.93ZM126.86,91.9l-12.1-15.25-3.48,2.78.3.36c1.24-.96,2.29.31,2.29.31l2.84,3.59-4.09,3.25-3.84-1.73-.82-2.25-4.11,3.25.32.42c.75-.61,1.85-.78,2.45.65l5.87,14.79,1.9-1.52-4.36-11.9,12.75,5.25,1.28-1.01.61.76,2.19-1.74ZM123.14,91.7l-8.43-3.82,3.31-2.64,5.12,6.46ZM147.28,79.66l-11.59,5.54-.5-1.07,9.88-4.73-2.05-4.26-5.15,2.46-.85-1.76,6.86-3.27.11-2.08-5.13,2.45c.78-1.28.99-2.7.41-3.88-.91-1.92-3.57-2.64-6.31-1.83-.01-.04-.05-.09-.07-.13-.22-.34-.89-.36-.89-.36l-2.69,1.28.14.28c.39-.18.76.07.76.07l.07.15c-2.3,1.63-3.4,4.11-2.48,6.03.58,1.19,1.8,1.9,3.3,2.11l-5.21,2.5,1.76,1.17,6.77-3.23.83,1.75-5.42,2.6,1.59,1.29,9.85-4.71.51,1.06-11.03,5.28.15.32c.92-.44,1.69.59,1.69.59l1.38,2.88,13.14-6.3.17-2.2ZM130.43,73.31c-.73-1.5.09-3.39,1.81-4.22,1.73-.82,3.7-.27,4.42,1.23.72,1.5-.08,3.39-1.81,4.22-1.72.82-3.7.27-4.42-1.24ZM220.44,263.91l5.9,11.46,2.86-1.47-2.41-4.66.84-.43c1.53-.78,3.12,1.19,5.61,2.99l3.14-1.59c-3.33-2.54-4.41-3.77-5.89-3.76.99-1.28,1.17-2.55.51-3.81-.87-1.72-3.08-2.58-5.43-1.37l-5.13,2.63ZM228.14,264.25c.49.98-.11,1.71-.9,2.12l-1.5.78-1.35-2.6,1.44-.73c1.08-.55,1.87-.41,2.31.44ZM227.93,83.33c2.73,1.82,6.16,1.46,7.68-.8.8-1.22.9-2.72.4-4.13l2.08,1.38,1.97-1.06-5.09-3.38,1-1.51-3.66-2.45-.37.45c1.44.96.62,1.88.62,1.88l-5.02-3.37-.28,2.21,2.17,1.45c-1.5.07-2.85.74-3.67,1.95-1.51,2.25-.54,5.58,2.18,7.39ZM229.07,81.74c-1.32-.88-1.63-2.73-.69-4.13.94-1.39,2.75-1.81,4.08-.92,1.32.89,1.64,2.73.69,4.14-.92,1.39-2.76,1.8-4.08.92ZM168.89,78.11l-3.87-18.88-4.49.92.12.57s1.74-.12,1.95.9l-7.39,1.53c-.14-.02-.27-.02-.42-.05-.23-.41-.61-1.27-.87-1.6l-3.19.66.1.45s1.07-.22,1.29.87c0,.03.02.04.02.07-2.9,1.11-4.65,4.16-4,7.27.71,3.47,4.14,5.71,7.65,4.98,2.51-.51,4.37-2.38,4.99-4.66l3.63-.75,1.71,8.29,2.79-.57ZM151.13,70.15c-.47-2.27.7-4.43,2.62-4.82,1.91-.4,3.85,1.12,4.31,3.39.47,2.27-.71,4.44-2.62,4.82-1.9.39-3.83-1.13-4.3-3.39ZM160.87,68.2c.06.34.1.66.11.99l3.05-.62-1.04-5.15-4.57.94c1.23.92,2.13,2.25,2.45,3.84ZM97.89,106.85c-1.99-1.39-4.76-1.31-6.27.83-.38.56-.59,1.11-.7,1.75h-.05s-1.54-5.65-1.54-5.65l-2.23,3.21,1.43,4.46c.56,1.8,1.53,3.69,3.11,4.77,1.12.79,2.67,1,4,.63,1.25-.37,2.37-1.39,3.1-2.45,1.74-2.48,1.83-5.68-.86-7.55ZM93.46,113.4c-.97-.68-1.2-2.04-.51-3.03.7-.99,2.01-1.18,2.98-.5,1.01.7,1.29,2.01.59,3.01-.68.98-2.05,1.23-3.05.52ZM71.32,147.47c4.33,1.2,5.55-5.26,7.43-4.74.61.17.82.99.51,2.1-.29,1.06-.89,2.05-2.19,3.63l2.42.66c1.11-1.37,1.75-2.54,2.14-3.93.8-2.88-.11-5.13-2.25-5.72-4.47-1.24-5.47,5.29-7.51,4.71-.73-.2-.97-.95-.65-2.13.38-1.37,1.09-2.34,2.79-3.8l-2.68-.73c-.97,1.05-1.84,1.97-2.45,4.14-.76,2.77.07,5.15,2.45,5.82ZM65.56,158.96l2.34.37.97-6.21,3.07.48-.93,5.81,2.33.37.93-5.8,2.67.43-.97,6.08,2.33.37,1.49-9.26-12.74-2.04-1.49,9.38ZM72.24,192.34l7.24-.96-.41-3.17-7.12.93c-2.28.3-3.37-1.14-3.59-2.83-.25-1.83.69-3.31,2.53-3.55l7.34-.97-.42-3.18-7.27.95c-3.96.51-5.33,3.42-4.83,7.13.45,3.5,2.3,6.19,6.53,5.64ZM72.39,205.74l-1.68-6.38,10.15-2.7-.81-3.1-12.46,3.3,2.51,9.49,2.29-.6ZM244.2,249.44l1.58,1.76,3.48-3.09,7.02,7.83,2.39-2.15-7.01-7.83,3.47-3.11-1.39-1.57,8.42.45,4.65,3.83,2.04-2.48-4.66-3.83-2.03-8.28-2.48,2.98,1.31,4.73-4.89-.41-2.41,2.94-.13-.14-9.35,8.35ZM240.55,252.43l7.33,10.6,2.62-1.81-7.31-10.61-2.64,1.83ZM232.76,261.41c2.57,3.84,7.59-.44,8.75,1.3.42.64.11,1.37-.9,2.03-1.18.8-2.37,1.07-4.59,1.08l1.55,2.31c1.44-.17,2.69-.3,4.56-1.55,2.38-1.59,3.3-3.95,1.93-5.99-2.5-3.74-7.64.37-8.73-1.26-.37-.54.02-1.28.98-1.92.92-.61,2.02-.97,4.04-1.31l-1.4-2.09c-1.73.32-2.98.8-4.18,1.59-2.47,1.67-3.27,3.96-2.02,5.82ZM209.75,268.03l4.52,12.06,8.91-3.32-.84-2.22-5.88,2.22-1.09-2.91,5.48-2.07-.81-2.2-5.52,2.05-.95-2.54,5.77-2.14-.83-2.23-8.78,3.29ZM195.68,271.65l9.12,11.21,1.36-.33,2.73-14.09-3.37.82-1.41,7.9-5.05-6.35-3.38.83ZM191.33,272.08l1.82,12.75,3.19-.44-1.83-12.76-3.18.46ZM175.8,273.05l.46,12.88,3.21-.13-.29-8.24,7.4,7.99,2.7-.09-.46-12.89-3.21.11.28,7.87-7.16-7.61-2.94.1ZM165.75,285.19c3.5.41,6.56-.73,7.04-4.97l.83-7.27-3.19-.35-.82,7.13c-.25,2.29-1.91,2.98-3.6,2.8-1.84-.21-3.05-1.47-2.83-3.31l.85-7.35-3.2-.37-.83,7.28c-.44,3.97,2.04,5.99,5.76,6.42ZM143.98,270.57c-1.34,4.44,5.16,5.59,4.53,7.62-.21.73-.97.94-2.15.59-1.35-.4-2.32-1.14-3.73-2.85l-.78,2.65c1.02,1.02,1.92,1.9,4.08,2.54,2.75.82,5.15.07,5.86-2.31,1.3-4.29-5.13-5.67-4.56-7.53.18-.61,1-.79,2.11-.47,1.04.32,2.02.95,3.58,2.29l.72-2.4c-1.35-1.13-2.51-1.82-3.9-2.22-2.85-.87-5.12,0-5.76,2.12ZM140.17,269.72l1.53.59,1.32-2.19.84-2.15-2.39-.9-.83,2.13-.48,2.52ZM127.58,259.22l-5.76,11.51,2.86,1.44,3.7-7.38,2.67,10.57,2.42,1.2,5.76-11.52-2.86-1.44-3.53,7.05-2.62-10.13-2.64-1.31ZM109.44,262.47l7.73,5.51,1.36-1.93-5.11-3.64,1.8-2.53,4.79,3.4,1.36-1.92-4.78-3.41,1.55-2.2,5.04,3.57,1.37-1.92-7.65-5.43-7.45,10.51ZM104.08,240.29l-8.88,9.32,2.33,2.22,5.55-5.82-.27,5.32.35.35,5.31-.54-5.55,5.83,2.32,2.22,8.88-9.34-2.03-1.93-6.29.61.3-6.31-2.03-1.92ZM80.26,216.68l4.99-5.93-1.55-3.04-9.09,10.96.62,1.22,9.31-.23-5.71,7.37.64,1.23,14.19-.86-1.53-3.02-7.72.51,4.86-6.17-1.17-2.31-7.86.26ZM88.06,131.34l-11.99-5.69-1.53,3.07,12.04,5.72,1.48-3.11ZM105.57,105.04l-10.04-8.66-2.31,2.48,10.09,8.8,2.25-2.61ZM193.25,65.97h-3.47v-6.87h-4.37v.47s1.56.47,1.56,1.22v14.69l-6.28-12.25.4-1.01h3.67l.92-1.92h-12.52l1.07,1.92h3.85l-5.02,15.29h2.4l4.06-10.96,5.59,10.96h1.86v.69h2.81v-10.3h2.19l1.29-1.93ZM220.79,66.98l-4.06-1.42-.11.36s1.24.86.82,2.01c-.4,1.15-1.59,4.56-1.59,4.56l-2.6-.9,2.28-6.46-3.9-1.36-.12.35s1.16.6.58,2.3c-.6,1.71-2.47,7.03-2.47,7.03l-6.91-.71,2.71-7.78,3.3,1.15,1.81-1.49-8.56-3-.16.45s1.44.46.83,2.22c-.61,1.75-3.58,10.2-3.58,10.2l9.82,1.06-2.29,6.56,2.71.94,3.35-9.57,2.54.88-3.35,9.58,2.67.95,6.28-17.9ZM236.76,90.22l-14.46-9.71-.17,2.3,11.15,7.47-2.2,3.32,2.37,1.57,3.31-4.95ZM239.15,86.59l1.82,1.21,2.14-.89-2.88-1.92,3.82-5.71-3.64-2.45-.27.39s1.04,1.26.65,1.89c-.33.47-3.54,5.26-6.11,9.08l2.36,1.57,2.12-3.18ZM252.63,106.78l11-10.16-12.08-11.43-.57,1.99,9.2,8.71-9.53,9.04-1.67-1.6,6.68-7.04-2.96-2.8-.29.32c.95.9.41,1.59.41,1.59l-5.78,6.09-1.86-1.76,6.7-7.09-2.88-2.72-.34.34c.99.93.38,1.63.38,1.63l-5.74,6.06-2.9-2.75-.67,2.17,13.09,12.37,2.09-.81-2.27-2.16ZM268.89,113.32c-2.07,0-3.75,1.68-3.75,3.75s1.67,3.76,3.75,3.76,3.76-1.69,3.76-3.76-1.68-3.75-3.76-3.75ZM272.93,221.05c-2.07,0-3.74,1.68-3.74,3.76s1.67,3.74,3.74,3.74,3.75-1.68,3.75-3.74-1.68-3.76-3.75-3.76Z"/></svg>