<svg width="48" height="48" viewBox="0 0 48 48" fill="none" xmlns="http://www.w3.org/2000/svg">
<g clip-path="url(#clip0_1628_17751)">
<path d="M10.9956 16.3587C10.9956 16.3587 9.44666 20.6212 4.89975 21.9761C0.353811 23.3309 -0.64743 23.0916 0.353811 24.7645C1.35409 26.4374 2.70798 28.2708 5.77608 28.1507C8.84418 28.0315 11.3944 31.7761 12.4302 29.9831C13.466 28.1901 12.4302 16.1992 12.4302 16.1992L10.9956 16.3587Z" fill="#444444"/>
<path d="M37.0048 16.3587C37.0048 16.3587 38.5538 20.6212 43.1007 21.9761C47.6466 23.3309 48.6479 23.0916 47.6466 24.7645C46.6463 26.4374 45.2925 28.2708 42.2244 28.1507C39.1563 28.0306 36.6061 31.7761 35.5702 29.9831C34.5344 28.1901 35.5702 16.1992 35.5702 16.1992L37.0048 16.3587Z" fill="#444444"/>
<path d="M20.7406 6.39423C20.7406 6.39423 17.1315 0.700992 11.0655 1.01232C4.9994 1.32364 5.24731 6.92368 6.49165 9.9101C7.736 12.8965 6.90003 13.8689 9.22921 16.3499C11.5584 18.8309 18.4691 16.4124 20.461 12.025L20.7406 6.39423Z" fill="#444444"/>
<path d="M27.2593 6.39423C27.2593 6.39423 30.8684 0.700992 36.9344 1.01232C43.0005 1.32364 42.7526 6.92368 41.5082 9.9101C40.2639 12.8965 41.0998 13.8689 38.7707 16.3499C36.4415 18.8309 29.5308 16.4124 27.5389 12.025L27.2593 6.39423Z" fill="#444444"/>
<path d="M27.882 6.66795C27.6773 6.06644 26.6847 5.41016 24 5.41016C21.3153 5.41016 20.3218 6.06644 20.1181 6.66795C19.9143 7.26947 19.5636 8.60894 19.6222 9.51121C19.6809 10.4135 19.8846 10.6595 21.3153 10.6595H26.6867C28.1174 10.6595 28.3211 10.4135 28.3797 9.51121C28.4383 8.60894 28.0876 7.26947 27.8839 6.66795H27.882Z" fill="#444444"/>
<path d="M38.817 33.048C35.7931 31.2838 36.1092 29.5686 36.7021 22.1573C37.2901 14.8075 31.8871 10.0742 24.0002 10.0742C16.1132 10.0742 10.7102 14.8075 11.2982 22.1573C11.8911 29.5686 12.2072 31.2838 9.18333 33.048C6.15943 34.8122 3.47183 37.1635 5.57137 40.4401C7.6709 43.7157 14.0377 46.0257 24.0002 46.0257C33.9626 46.0257 40.3285 43.7157 42.429 40.4401C44.5285 37.1644 41.8409 34.8122 38.817 33.048Z" fill="#444444"/>
<mask id="mask0_1628_17751" style="mask-type:luminance" maskUnits="userSpaceOnUse" x="4" y="10" width="40" height="37">
<path d="M38.817 33.048C35.7931 31.2838 36.1092 29.5686 36.7021 22.1573C37.2901 14.8075 31.8871 10.0742 24.0002 10.0742C16.1132 10.0742 10.7102 14.8075 11.2982 22.1573C11.8911 29.5686 12.2072 31.2838 9.18333 33.048C6.15943 34.8122 3.47183 37.1635 5.57137 40.4401C7.6709 43.7157 14.0377 46.0257 24.0002 46.0257C33.9626 46.0257 40.3285 43.7157 42.429 40.4401C44.5285 37.1644 41.8409 34.8122 38.817 33.048Z" fill="white"/>
</mask>
<g mask="url(#mask0_1628_17751)">
<path d="M10.6766 31.9192C10.6862 31.9077 10.691 31.901 10.691 31.901L9.1709 30.7249C9.45916 30.353 12.3207 27.0898 24.0002 27.0898C35.6798 27.0898 38.5422 30.353 38.8295 30.7249L37.3094 31.901C37.3094 31.901 37.3142 31.9077 37.3238 31.9192C37.2989 31.8904 34.716 29.0116 24.0002 29.0116C13.2844 29.0116 10.7006 31.8904 10.6766 31.9192Z" fill="#444444"/>
<path d="M10.8091 31.9499C10.7765 31.9788 10.7755 31.9893 10.7755 31.9961C10.7755 31.9989 10.7784 32.0009 10.7794 32.0028C10.7822 32.0057 10.7784 32.0028 10.7649 31.9912C10.739 31.9711 10.7198 31.9547 10.6929 31.9336C10.7188 31.9547 10.7448 31.9749 10.7697 31.9961C10.788 32.0105 10.7832 32.0066 10.7842 32.0066L10.788 32.0018L10.7947 31.9941C10.7947 31.9941 10.8024 31.9855 10.8053 31.9816C10.812 31.974 10.8187 31.9663 10.8216 31.9615C10.8293 31.9509 10.8303 31.9461 10.8274 31.9442C10.8226 31.9413 10.8053 31.9509 10.8082 31.9519L10.8091 31.9499Z" fill="#444444"/>
<path d="M12.0353 31.0892L12.0151 31.1094L12.1093 31.0479L12.2064 30.9922C12.1477 31.0229 12.0901 31.0546 12.0344 31.0902L12.0353 31.0892Z" fill="#444444"/>
<path d="M13.3411 30.5273C13.2046 30.5456 12.8616 30.7195 12.6233 30.806L12.582 30.8166L12.4897 30.8896C12.5599 30.8569 12.6329 30.8175 12.7098 30.7849C12.7876 30.7522 12.8664 30.7186 12.9423 30.6859C13.0951 30.6215 13.2383 30.5629 13.3411 30.5273Z" fill="#444444"/>
<path d="M14.0837 30.3562C14.0356 30.3581 14.2355 30.2937 13.9146 30.4081C13.9309 30.4042 13.9357 30.4033 13.9463 30.4013C13.9751 30.3917 14.0154 30.3783 14.0837 30.3562Z" fill="#444444"/>
<path d="M13.9465 30.4023C13.8053 30.4503 14.0426 30.3821 13.9465 30.4023V30.4023Z" fill="#444444"/>
<path d="M14.6068 30.1974L14.4204 30.2618C14.4627 30.2579 14.6318 30.2137 14.5703 30.2358C14.7634 30.1753 14.7212 30.1791 14.6068 30.1974Z" fill="#444444"/>
<path d="M14.7806 30.125L14.6836 30.1567C14.7019 30.1548 14.7278 30.149 14.7806 30.125Z" fill="#444444"/>
<path d="M14.4771 30.2245L14.6836 30.1562C14.6548 30.1582 14.649 30.1486 14.5885 30.186C14.6029 30.1716 14.5645 30.1928 14.4771 30.2235V30.2245Z" fill="#444444"/>
<path d="M14.3577 30.2528C14.2491 30.2749 14.1098 30.3085 14.2972 30.2441C14.1146 30.2941 14.0426 30.3335 14.057 30.3335C14.0723 30.3345 14.1752 30.3028 14.3577 30.2528Z" fill="#444444"/>
<path d="M13.3976 30.4688C13.3496 30.4803 13.3015 30.4957 13.2545 30.511L13.1392 30.5687C13.1968 30.5389 13.4092 30.4726 13.3976 30.4688Z" fill="#444444"/>
<path d="M15.8039 29.9207C15.8145 29.9111 15.7347 29.9159 15.7184 29.9102L15.5781 29.9505C15.6521 29.939 15.7924 29.9121 15.8039 29.9207Z" fill="#444444"/>
<path d="M15.7194 29.9101L15.9299 29.8496C15.7396 29.8909 15.706 29.9044 15.7194 29.9101Z" fill="#444444"/>
<path d="M14.8045 30.0769L14.4653 30.1989L14.8718 30.0586L14.8045 30.0769Z" fill="#444444"/>
<path d="M16.6216 29.7574L16.5024 29.7958L16.7148 29.7324L16.6216 29.7574Z" fill="#444444"/>
<path d="M17.1654 29.6592C17.078 29.689 17.2932 29.6611 17.1991 29.6861C17.3461 29.6563 17.471 29.6227 17.5844 29.5996C17.4633 29.6198 17.3345 29.6409 17.1654 29.6592Z" fill="#444444"/>
<path d="M17.7747 29.5586C17.7142 29.5701 17.6517 29.5845 17.5845 29.5999C17.6489 29.5884 17.7113 29.5749 17.7747 29.5586Z" fill="#444444"/>
<path d="M16.2939 29.7761C16.3112 29.7771 16.3458 29.7829 16.4669 29.7665L16.3785 29.7617C16.3526 29.7665 16.3237 29.7713 16.2939 29.7761Z" fill="#444444"/>
<path d="M16.3755 29.7612H16.3784C16.4706 29.7458 16.534 29.7343 16.5619 29.7305C16.5388 29.7343 16.4821 29.7439 16.3755 29.7612Z" fill="#444444"/>
<path d="M16.2729 29.7792C16.2806 29.7783 16.2864 29.7773 16.2941 29.7754C16.2854 29.7754 16.2806 29.7754 16.2729 29.7792Z" fill="#444444"/>
<path d="M15.3647 29.9552C15.4877 29.9158 15.7462 29.8447 15.4897 29.8851C15.4032 29.9187 15.5502 29.8966 15.3647 29.9552Z" fill="#444444"/>
<path d="M16.1621 29.7744L15.9344 29.8205C15.9401 29.8244 15.9824 29.8234 15.9219 29.8426L16.1621 29.7734V29.7744Z" fill="#444444"/>
<path d="M16.2736 29.748C16.2371 29.7577 16.1996 29.7644 16.1631 29.775C16.191 29.7682 16.2198 29.7653 16.2476 29.7605L16.2736 29.748Z" fill="#444444"/>
<path d="M17.378 29.5918C17.475 29.5659 17.5846 29.5534 17.7076 29.5352C17.575 29.5505 17.4376 29.5611 17.3098 29.5861C17.2925 29.5957 17.2377 29.6168 17.378 29.5918Z" fill="#444444"/>
<path d="M16.8906 29.6728C16.8973 29.6709 16.906 29.6689 16.9127 29.668C16.8992 29.668 16.8877 29.6699 16.8906 29.6728Z" fill="#444444"/>
<path d="M18.9181 29.3808C18.9113 29.3808 18.9056 29.3799 18.8979 29.3789C18.8969 29.3799 18.896 29.3818 18.894 29.3828L18.9181 29.3808Z" fill="#444444"/>
<path d="M17.2866 29.588C17.1876 29.6015 17.13 29.6168 17.0742 29.6332C17.1472 29.6178 17.2251 29.6034 17.3087 29.588C17.3164 29.5842 17.3173 29.5813 17.2866 29.588Z" fill="#444444"/>
<path d="M18.1109 29.5039C18.0591 29.5077 17.9995 29.5116 17.938 29.5154C17.9889 29.5154 18.0937 29.5116 18.1109 29.5039Z" fill="#444444"/>
<path d="M16.9465 29.668C16.9417 29.6689 16.9369 29.6699 16.9321 29.6718C16.9648 29.6709 16.961 29.6689 16.9465 29.668Z" fill="#444444"/>
<path d="M16.9462 29.6684C16.9962 29.6568 17.0356 29.6443 17.074 29.6328C17.0144 29.6453 16.9597 29.6568 16.9116 29.6684C16.9241 29.6684 16.9366 29.6684 16.9453 29.6684H16.9462Z" fill="#444444"/>
<path d="M19.2734 29.2165C19.2581 29.2377 18.9967 29.2771 18.768 29.28C18.548 29.3251 18.6998 29.3626 18.8977 29.3799C18.9035 29.3712 18.9025 29.3636 19.1303 29.3309C19.0486 29.3261 18.62 29.3559 18.8103 29.3184C19.113 29.2809 19.0601 29.3021 19.2081 29.2992C19.0803 29.2867 19.5915 29.23 19.5214 29.2012L19.2561 29.2377C19.2504 29.2329 19.3465 29.2156 19.2715 29.2175L19.2734 29.2165Z" fill="#444444"/>
<path d="M18.4638 29.4309L18.3706 29.4453C18.4782 29.4347 18.5551 29.4318 18.6973 29.428C18.852 29.3972 18.8837 29.3915 18.8943 29.3828C18.7396 29.3953 18.5858 29.4203 18.4321 29.4376L18.4638 29.4309Z" fill="#444444"/>
<path d="M17.9496 29.5008C18.0198 29.471 18.2437 29.4316 18.1034 29.4277C17.8286 29.4652 17.9131 29.47 17.7498 29.5008C18.1928 29.4373 17.6239 29.5286 17.9458 29.4979C17.8593 29.5133 17.7805 29.5248 17.7065 29.5354C17.7873 29.5277 17.8641 29.5209 17.9372 29.5142C17.9333 29.5142 17.9304 29.5142 17.9266 29.5142H17.9247C17.9054 29.5142 17.8987 29.5142 17.9208 29.5123C17.9227 29.5123 17.9275 29.5113 17.9304 29.5104C17.9333 29.5075 17.941 29.5036 17.9496 29.4998C18.0784 29.4873 17.9708 29.5027 17.9304 29.5104C17.9295 29.5113 17.9256 29.5133 17.9256 29.5142C17.9256 29.5142 17.9266 29.5142 17.9275 29.5142L18.3705 29.4441C18.2763 29.4537 18.1582 29.47 17.9496 29.4998V29.5008Z" fill="#444444"/>
<path d="M15.7134 29.7896C15.7278 29.7886 15.7268 29.7896 15.7288 29.7915C15.7566 29.7829 15.7672 29.779 15.7134 29.7896Z" fill="#444444"/>
<path d="M15.896 29.7612C15.8643 29.7708 15.8403 29.7853 15.7356 29.8064C15.6443 29.8208 15.7336 29.7968 15.7279 29.791C15.6664 29.8102 15.5126 29.8544 15.7106 29.8208L15.7413 29.8112C15.9191 29.7785 16.1507 29.7526 16.1209 29.7622C16.0661 29.7555 16.0181 29.7526 15.896 29.7612Z" fill="#444444"/>
<path d="M16.9331 29.6042L17.2992 29.5293L17.1089 29.5447L17.1205 29.5533C16.91 29.586 16.9581 29.5908 16.9331 29.6042Z" fill="#444444"/>
<path d="M18.9611 29.3873L18.9141 29.4132L19.1264 29.3633L18.9611 29.3873Z" fill="#444444"/>
<path d="M19.4446 29.3398L19.4282 29.361L19.5551 29.3379L19.4446 29.3398Z" fill="#444444"/>
<path d="M32.4514 27.9539L32.3428 27.9395C32.3937 27.9471 32.4273 27.9519 32.4514 27.9539Z" fill="#444444"/>
<path d="M33.2229 28.1359L33.2441 28.1311C33.2076 28.1273 33.1912 28.1282 33.2229 28.1359Z" fill="#444444"/>
<path d="M31.3281 29.7109C31.4819 29.7561 31.6519 29.8147 31.6375 29.7897L31.5933 29.7609C31.4828 29.7455 31.3992 29.7282 31.3281 29.7109Z" fill="#444444"/>
<path d="M38.6344 30.8691C38.6209 30.8768 38.6074 30.8845 38.593 30.8932C38.5661 30.922 38.5411 30.9499 38.519 30.9739C38.5536 30.9422 38.593 30.9066 38.6344 30.8691Z" fill="#444444"/>
<path d="M38.645 30.7527L38.6969 30.721C38.6969 30.721 38.7075 30.7152 38.7094 30.7123L38.7027 30.7008L38.6873 30.6777C38.6911 30.6883 38.7056 30.7018 38.7046 30.7152C38.6883 30.7258 38.6681 30.7383 38.645 30.7527Z" fill="#444444"/>
<path d="M28.1551 27.3848L28.0264 27.3934C28.2253 27.4126 28.1388 27.3934 28.1551 27.3848Z" fill="#444444"/>
<path d="M24.4116 29.133C24.55 29.1436 24.6595 29.1484 24.7556 29.1513C24.5894 29.1369 24.4558 29.1167 24.4116 29.133Z" fill="#444444"/>
<path d="M32.8036 27.8068C32.7373 27.7952 32.7076 27.7923 32.7085 27.7971C32.7767 27.8096 32.8161 27.8154 32.8036 27.8068Z" fill="#444444"/>
<path d="M25.1541 29.1581C25.1301 29.1562 25.1061 29.1543 25.0811 29.1523C24.9802 29.1543 24.8784 29.1552 24.7554 29.1523C24.8784 29.1629 25.0187 29.1716 25.1541 29.1591V29.1581Z" fill="#444444"/>
<path d="M12.5934 28.7949C12.5828 28.7978 12.5693 28.8016 12.5588 28.8045C12.5568 28.8084 12.5713 28.8036 12.5934 28.7949Z" fill="#444444"/>
<path d="M9.5957 31.169C9.55918 31.1412 9.50057 31.097 9.4458 31.0547C9.47174 31.0768 9.51691 31.1114 9.5957 31.169Z" fill="#444444"/>
<path d="M21.3933 29.2109C21.2905 29.2177 21.377 29.2138 21.3933 29.2109V29.2109Z" fill="#444444"/>
<path d="M20.8877 29.1551C20.9098 29.1512 20.9261 29.1474 20.9281 29.1426C20.9194 29.1483 20.906 29.1522 20.8877 29.1551Z" fill="#444444"/>
<path d="M26.1852 29.0548C26.1852 29.0548 26.191 29.0548 26.1939 29.0548C26.1631 29.049 26.1689 29.0499 26.1852 29.0548Z" fill="#444444"/>
<path d="M21.2586 29.2188C21.223 29.2197 21.1951 29.2207 21.1682 29.2216C21.1557 29.2255 21.1673 29.2274 21.2586 29.2188Z" fill="#444444"/>
<path d="M21.5364 29.2031C21.4777 29.207 21.423 29.2089 21.3701 29.2099C21.3903 29.2099 21.3989 29.2108 21.3932 29.2118C21.423 29.2099 21.4662 29.207 21.5364 29.2031Z" fill="#444444"/>
<path d="M20.8483 27.248C20.8416 27.248 20.8339 27.248 20.8262 27.248C20.7224 27.2625 20.7685 27.2586 20.8483 27.248Z" fill="#444444"/>
<path d="M33.9896 30.1259C33.9896 30.1259 33.9819 30.124 33.978 30.123C33.9828 30.125 33.9886 30.1269 33.9924 30.1288L33.9896 30.1259Z" fill="#444444"/>
<path d="M34.3487 30.2288C34.1892 30.2029 34.1056 30.1721 33.9922 30.1289L34.0912 30.225L34.3487 30.2288Z" fill="#444444"/>
<path d="M30.5765 27.6392L30.8311 27.694C30.5169 27.6815 30.294 27.6392 30.5313 27.6988C30.5544 27.669 30.8042 27.7017 31.054 27.7353C31.179 27.7497 31.3029 27.7747 31.398 27.7872C31.4941 27.8007 31.5614 27.8045 31.5729 27.7901L31.7382 27.8353C31.6901 27.8256 31.6815 27.8276 31.6344 27.8189C31.9554 27.9102 31.8862 27.818 32.3061 27.9054C32.4521 27.9381 32.5521 27.9659 32.4512 27.9554C32.5617 27.9679 32.6693 27.9938 32.7788 28.013C32.873 28.037 32.847 28.0418 32.7538 28.0188L33.2487 28.1312H33.2449C33.3179 28.1389 33.4812 28.162 33.561 28.1735C33.684 28.2129 33.4966 28.1648 33.5264 28.1812C33.6186 28.1994 33.7118 28.211 33.8031 28.235C33.856 28.259 33.8252 28.259 33.758 28.2456C33.6907 28.2321 33.586 28.2129 33.4918 28.1889C33.7311 28.3109 33.7234 28.2263 34.2547 28.4233L33.9982 28.3561C34.1519 28.4396 34.3528 28.4848 34.6324 28.5915C34.569 28.5598 34.0751 28.3666 34.372 28.4368C34.4527 28.4656 34.5603 28.5002 34.7227 28.5338C34.7179 28.553 34.8697 28.603 35.059 28.6683L35.0359 28.6924C35.2425 28.7567 35.232 28.7366 35.3569 28.7663C35.5827 28.8509 35.623 28.8874 35.6672 28.9287C36.0199 29.0834 35.4357 28.7894 35.8585 28.9624C36.1486 29.1017 36.3668 29.1651 36.7146 29.3275C36.9106 29.437 36.6714 29.3275 36.7396 29.3707L36.9289 29.438C36.9721 29.4601 36.9548 29.4601 36.9462 29.4601C37.0999 29.5283 36.975 29.4342 37.2085 29.56C37.2479 29.5629 37.3594 29.6427 37.4977 29.7368C37.5688 29.782 37.6399 29.8397 37.7139 29.8925C37.7879 29.9454 37.8638 29.9934 37.9369 30.0318C37.9984 30.0837 37.8936 30.0251 37.9071 30.0491C38.0954 30.1673 38.1694 30.2288 38.2415 30.2749C38.3145 30.3211 38.3712 30.3701 38.5191 30.4786C38.5566 30.5152 38.5874 30.5565 38.622 30.5959L38.646 30.6237L38.6614 30.643C38.671 30.6554 38.6796 30.6679 38.6873 30.6804C38.6566 30.6266 38.6642 30.618 38.719 30.6603C38.7325 30.6708 38.7478 30.6843 38.7661 30.7016L38.7795 30.7141C38.7795 30.7141 38.7949 30.7237 38.7872 30.7275C38.7795 30.7352 38.7709 30.7438 38.7632 30.7525C38.7277 30.7871 38.6854 30.8284 38.6354 30.8736C38.7056 30.8332 38.7747 30.7919 38.8228 30.7611L38.6498 30.9043L38.4874 31.034C38.4442 31.06 38.473 31.0292 38.5201 30.9793C38.499 30.9985 38.4788 31.0158 38.4634 31.0302C38.3404 31.1138 38.3904 31.0542 38.4634 30.9745C38.5076 30.9485 38.5509 30.9226 38.5941 30.8976C38.6287 30.8592 38.6652 30.8188 38.6758 30.7977C38.6892 30.7746 38.6883 30.7631 38.6739 30.7631C38.6614 30.7775 38.6469 30.7929 38.596 30.8342C38.6143 30.814 38.6248 30.7996 38.6133 30.8044C38.5999 30.8102 38.5701 30.8428 38.5211 30.8909L38.424 30.9226L38.4144 30.9476L37.9676 31.2666C37.7908 31.4299 37.6351 31.5846 37.4305 31.7701C37.3959 31.8027 37.3565 31.8383 37.3113 31.8787L37.32 31.8902L37.3238 31.8959C37.3238 31.8959 37.3209 31.8931 37.32 31.8921L37.3007 31.8748C37.2883 31.8623 37.2729 31.8517 37.2575 31.8383C37.195 31.7835 37.1095 31.723 37.0259 31.6576C37.1605 31.7345 37.0769 31.6461 37.1018 31.6279C37.1239 31.6538 37.1528 31.6817 37.1864 31.7105C37.2133 31.7336 37.2441 31.7595 37.2758 31.7864C37.2854 31.7941 37.2959 31.8018 37.3046 31.8104L37.318 31.8229L37.3219 31.8258C37.3219 31.8258 37.32 31.8229 37.32 31.822L37.3142 31.8133C37.3411 31.7893 37.369 31.7643 37.3978 31.7384C37.4555 31.6903 37.5169 31.6413 37.5804 31.5942C37.4449 31.6951 37.4641 31.6625 37.4948 31.6327L37.3853 31.7259L37.3161 31.7912L37.3209 31.7989L37.3238 31.8027L37.3209 31.7999L37.3094 31.7903C37.3017 31.7835 37.2921 31.7768 37.2835 31.7701L37.2537 31.7461L37.2383 31.7336L37.2152 31.7163C37.2402 31.7076 37.1326 31.6211 37.0154 31.5241C37.048 31.5769 36.9548 31.5202 36.829 31.4366C36.7021 31.354 36.5349 31.257 36.4321 31.2003C36.4283 31.1782 36.484 31.1935 36.7261 31.3482C36.6012 31.2502 36.5071 31.208 36.4129 31.1686C36.3168 31.134 36.2207 31.1003 36.0929 31.0139C36.1544 31.0465 36.1861 31.0667 36.214 31.0725C36.1381 31.0408 36.016 30.9735 35.9209 30.9235C35.8239 30.8755 35.7585 30.838 35.8037 30.8515L35.8671 30.8803C35.7624 30.8313 35.6307 30.7698 35.4904 30.7045C35.4213 30.6708 35.3473 30.641 35.2733 30.6132C35.1993 30.5853 35.1263 30.5574 35.0552 30.5305C34.9139 30.4777 34.7832 30.4306 34.6833 30.3989C34.5814 30.371 34.5113 30.3566 34.4911 30.3605C34.4882 30.3537 34.5641 30.3326 34.5939 30.3345C34.3182 30.2932 34.0462 30.2442 33.7724 30.2106C33.8521 30.1981 33.61 30.0376 33.9809 30.1298C33.879 30.0876 33.7484 30.0511 33.5226 29.9992C33.5937 30.0241 33.6878 30.0972 33.5889 30.0732C33.3294 29.9607 33.4072 30.0011 33.0825 29.8771C33.1882 29.9156 33.0556 29.9319 32.8845 29.8877C32.9134 29.8858 32.8836 29.832 32.9479 29.8406L32.5059 29.7964C32.6155 29.8108 32.5357 29.7561 32.4425 29.7195C32.4848 29.7397 32.0707 29.635 31.9554 29.6148L32.135 29.6677C32.014 29.6388 31.9227 29.6215 31.8458 29.6119C31.7689 29.6052 31.7065 29.6042 31.644 29.6033C31.5201 29.6014 31.3971 29.6004 31.1549 29.5562C31.2155 29.5562 31.3125 29.5139 31.0665 29.464C31.0079 29.4678 30.8763 29.4784 30.7072 29.4812C30.538 29.4822 30.3276 29.4928 30.1114 29.4736L30.0307 29.4467L29.6982 29.4207C29.8039 29.414 30.0038 29.4073 30.2181 29.4044C30.4324 29.4005 30.661 29.3986 30.8205 29.414C30.6389 29.3717 30.7735 29.3813 30.4967 29.3448C30.4016 29.3179 30.6514 29.34 30.7321 29.3573C30.5198 29.316 30.3046 29.292 30.0903 29.2574C30.1143 29.2929 29.5935 29.2247 29.6146 29.2545L30.318 29.3141C30.3411 29.3496 29.9019 29.3515 29.4474 29.2852C29.3331 29.2574 29.5406 29.2401 29.533 29.2276C29.5032 29.2295 29.3936 29.2199 29.2879 29.2093C29.1822 29.1968 29.0775 29.192 29.0564 29.1853C29.1217 29.1853 29.187 29.1853 29.2524 29.1872C28.9987 29.1497 28.8325 29.1911 28.5298 29.1324C28.4241 29.1209 28.2175 29.0623 28.1983 29.0796C28.3674 29.1324 28.3905 29.2487 28.2742 29.266C28.2377 29.2612 27.7246 29.1786 27.6054 29.1536C27.5199 29.1344 27.5862 29.1209 27.6554 29.1075C27.7246 29.0969 27.7976 29.0873 27.7246 29.0681C27.7179 29.0758 27.6208 29.0786 27.5804 29.0815C27.4699 29.0681 27.6285 29.0565 27.3863 29.0479C27.3441 29.0786 26.8953 29.0191 27.2701 29.069C27.0337 29.0661 27.0193 29.0489 26.7416 29.0354C26.829 29.0613 26.4889 29.094 26.2525 29.0911C26.2669 29.0834 26.2141 29.07 26.1891 29.0633C25.9479 29.046 25.7615 29.0402 25.5799 29.0335C25.3983 29.0267 25.2205 29.0191 24.9947 29.0152C24.9534 29.0066 24.7353 28.9931 24.8285 28.9806C24.7631 28.9854 24.7036 28.995 24.5642 28.9941C24.2952 28.9614 24.8746 28.9941 24.6699 28.9576C24.6517 28.9758 24.3086 28.9777 24.1107 28.9864C24.1712 29.0171 24.569 28.9998 24.7679 28.9912C24.7679 29.0325 24.422 29.0661 23.9502 29.0806C23.5755 29.0969 23.7878 29.0575 23.7225 29.0642C23.0182 29.069 23.1239 29.1449 22.5396 29.1257C22.3071 29.1036 22.5281 29.0748 22.4762 29.0565C22.7818 29.0412 22.9451 29.0652 23.1527 29.0604L22.8981 29.0527C22.9951 29.0421 23.1988 29.0325 23.3103 29.0383C23.2132 29.0287 22.9154 29.0325 22.5742 29.0373C22.4032 29.0402 22.2226 29.0431 22.0496 29.045C21.8766 29.0527 21.7133 29.0585 21.5768 29.0604C21.4808 29.0738 21.3145 29.0921 21.3943 29.0979L21.5663 29.0854C21.7248 29.0979 21.2444 29.1315 21.4625 29.1296C21.2328 29.1565 20.9763 29.193 20.6515 29.1978L20.5891 29.1718C20.5967 29.1805 20.8024 29.1786 20.8927 29.1642C20.7591 29.1863 20.393 29.1459 20.2479 29.2016C20.3239 29.2007 20.3998 29.2016 20.4757 29.2055C20.246 29.2324 19.9645 29.2958 19.6772 29.3112C19.8098 29.3285 19.7425 29.3016 19.9491 29.3169C19.8597 29.3035 20.0423 29.2881 20.2114 29.2727C20.3805 29.2554 20.5372 29.2506 20.394 29.2353C20.6054 29.2641 20.7572 29.2333 21.032 29.2526C21.0234 29.2429 20.934 29.2391 21.1752 29.2314C21.1858 29.2276 21.2117 29.2228 21.2271 29.2199C21.2348 29.2199 21.2367 29.2199 21.2434 29.2199C21.2386 29.2199 21.2348 29.2199 21.23 29.2199C21.2405 29.218 21.2415 29.218 21.2252 29.2199C21.1675 29.2189 21.1204 29.216 21.1022 29.2112C21.2204 29.1824 21.6037 29.1632 21.7325 29.1449C21.8757 29.1421 21.6729 29.1593 21.7517 29.1651L21.9449 29.1373C21.965 29.1565 22.3254 29.1555 21.99 29.1834C22.0909 29.1766 22.1918 29.1766 22.2927 29.1757C22.4714 29.1843 22.7174 29.1853 22.8683 29.1738C23.0114 29.1757 23.2296 29.144 23.1046 29.1632L23.5803 29.1421L23.5851 29.1478C24.054 29.1344 24.5517 29.118 25.0879 29.1622C25.2465 29.1593 25.4098 29.1555 25.6741 29.1661L25.725 29.1853C25.9287 29.1766 26.3323 29.2314 26.4207 29.2141C26.6369 29.2775 27.4027 29.2727 27.7572 29.3092L27.7726 29.2862C28.0167 29.3102 28.2521 29.3246 28.5557 29.3419L28.5394 29.3189C28.8027 29.3265 29.212 29.389 29.6223 29.4486C29.5935 29.4534 29.4888 29.437 29.4157 29.4226C29.6588 29.4793 29.9192 29.5053 30.1739 29.5283C30.3017 29.5399 30.4275 29.5514 30.5496 29.5648C30.6716 29.5802 30.7879 29.6052 30.8974 29.6331C31.0089 29.6446 31.0886 29.6619 31.1655 29.6811C31.1549 29.6792 31.1463 29.6782 31.1376 29.6773C31.1492 29.6792 31.1655 29.6821 31.1828 29.6859C31.2308 29.6984 31.2808 29.7109 31.3337 29.7244C31.2885 29.7109 31.2453 29.6994 31.2068 29.6898C31.2923 29.7042 31.4211 29.7243 31.5489 29.7416L31.5989 29.7743C31.6094 29.7762 31.6171 29.7772 31.6287 29.7791C31.7507 29.8099 31.7305 29.7858 31.668 29.757C31.7324 29.7647 31.792 29.7695 31.8381 29.7734C31.9304 29.832 32.1696 29.8349 32.2974 29.905C32.3858 29.9069 32.9316 30.028 33.0066 30.0126C33.0094 30.0193 33.045 30.0318 32.9787 30.0126C33.1161 30.0559 33.2525 30.0981 33.3794 30.1212L33.4303 30.1654L33.7426 30.2106C33.832 30.2432 33.8944 30.2711 33.9107 30.2855C33.9271 30.2999 33.8992 30.2961 33.806 30.2807C34.249 30.3874 34.1606 30.3835 34.5392 30.4729L34.5151 30.4844C34.6487 30.5228 34.8611 30.5853 34.9341 30.6295C35.0033 30.666 35.1263 30.7198 35.2839 30.7852C35.4395 30.8534 35.625 30.9447 35.8258 31.036C36.2198 31.2339 36.6608 31.4808 36.9596 31.7345C36.925 31.6836 36.9596 31.7047 37.0134 31.7537C37.0403 31.7787 37.073 31.8085 37.1057 31.8393L37.1307 31.8623C37.1412 31.8729 37.1528 31.8835 37.1633 31.894C37.1854 31.9152 37.2066 31.9363 37.2258 31.9546C37.2412 31.9488 37.2556 31.944 37.269 31.9392C37.2758 31.9363 37.2815 31.9344 37.2873 31.9325C37.2883 31.9325 37.2902 31.9315 37.2911 31.9315L37.294 31.9373L37.2988 31.9469C37.3113 31.9719 37.32 31.9872 37.3228 31.9882C37.3248 31.993 37.3267 31.9978 37.3296 32.0036L37.3334 32.0122V32.0141V31.9315H37.3325H37.3305L37.318 31.9286C37.367 31.944 37.4228 31.9844 37.318 31.9325C37.318 31.9325 37.3209 31.9325 37.3238 31.9325H37.318C37.3382 31.943 37.3574 31.9536 37.3767 31.9632L37.4045 31.9776C37.4045 31.9776 37.4093 31.9805 37.4112 31.9805L37.4189 31.9747L37.4333 31.9632C37.4526 31.9478 37.4708 31.9334 37.4891 31.919L37.5025 31.9084C37.5025 31.9084 37.5093 31.9075 37.5064 31.9008L37.4987 31.8815C37.4881 31.8566 37.4785 31.8316 37.4689 31.8066C37.7072 31.6432 37.8638 31.551 38.0474 31.4088C38.0906 31.3876 37.9811 31.4655 38.0176 31.4443C38.0445 31.4251 38.1213 31.3675 38.1598 31.3473C38.1973 31.3281 38.1137 31.3857 38.0618 31.4232C38.4115 31.1964 38.4269 31.1474 38.4327 31.1051C38.523 31.0494 38.5893 31.0062 38.6469 30.9639C38.6767 30.9408 38.6998 30.9235 38.7315 30.8957C38.7651 30.8649 38.7978 30.8342 38.8276 30.8025C38.8497 30.789 38.8747 30.7736 38.8958 30.7602C38.9016 30.7563 38.9064 30.7535 38.9112 30.7506C38.915 30.7477 38.9237 30.7448 38.9189 30.7419C38.916 30.7362 38.9141 30.7314 38.9141 30.7294C38.9141 30.7275 38.917 30.7285 38.9218 30.7333C38.9246 30.7371 38.9448 30.7467 38.9256 30.7563C38.9025 30.7765 38.8622 30.8121 38.7901 30.8688C38.8103 30.8534 38.841 30.8294 38.8795 30.8005C38.8987 30.7861 38.9198 30.7698 38.9419 30.7515L38.9458 30.7487C38.9458 30.7487 38.9439 30.7458 38.9429 30.7448L38.9362 30.7362L38.9218 30.7189C38.9121 30.7073 38.9025 30.6948 38.892 30.6833C38.8516 30.6343 38.8084 30.5786 38.7574 30.5286C38.7209 30.4911 38.6844 30.4517 38.6479 30.4133C38.5701 30.3432 38.4951 30.2759 38.4375 30.2279C38.3798 30.1798 38.3356 30.1558 38.3279 30.1587C38.2962 30.1241 38.1675 30.0299 38.1348 30.0088C38.0051 29.9069 37.9272 29.8627 37.8552 29.8099C37.8187 29.7849 37.7822 29.7599 37.7379 29.7301C37.6937 29.6994 37.6419 29.6648 37.5708 29.6263L37.6457 29.6753C37.516 29.6427 37.4103 29.5475 37.1835 29.4207H37.1922C36.9375 29.267 36.8741 29.2478 36.8174 29.2199C36.7588 29.1949 36.704 29.1661 36.4456 29.0258L36.4657 29.0594C36.3946 29.0844 35.9997 28.8278 35.6769 28.7164C35.7143 28.7327 35.7499 28.7548 35.7864 28.774C35.6096 28.7183 35.3213 28.5338 35.1474 28.4627C35.1099 28.4454 35.2108 28.4781 35.2656 28.4944C34.813 28.3022 35.1954 28.5011 34.8495 28.3858C34.79 28.3503 34.9456 28.3705 34.7112 28.2974C34.5968 28.2523 34.0136 28.1418 33.6984 28.0265C33.7666 28.0553 33.8348 28.0851 33.6676 28.0543C33.4149 27.9986 32.996 27.8458 32.7596 27.8295C32.7279 27.8189 32.7164 27.8122 32.7164 27.8093C32.6193 27.7882 32.4598 27.7641 32.3099 27.742C32.16 27.7199 32.0197 27.7007 31.9592 27.7007C31.8766 27.645 31.572 27.5979 31.2904 27.5556C31.0079 27.5201 30.7475 27.4999 30.7552 27.4624L30.1508 27.3827L30.1671 27.3779C29.975 27.349 29.8433 27.3337 29.7434 27.326C29.6435 27.3183 29.5733 27.3231 29.5051 27.325C29.4157 27.3116 29.482 27.3106 29.4897 27.3077C28.9247 27.2385 28.868 27.2366 28.3905 27.228L28.3434 27.1991C28.3107 27.1991 28.2435 27.1924 28.1522 27.1809C28.107 27.1751 28.0551 27.1684 27.9984 27.1617C27.9417 27.1569 27.8812 27.1511 27.8159 27.1453C27.5574 27.1232 27.2461 27.1002 26.9664 27.0992C26.9722 27.0973 26.9837 27.0925 27.0279 27.0915C26.7137 27.0896 26.3399 27.0483 26.0142 27.0271C25.6885 27.0118 25.4127 27.006 25.2964 27.0473L24.8823 27.0617C25.4175 27.0781 24.8016 27.0983 25.0216 27.1165C24.8112 27.1175 24.4778 27.081 24.7372 27.081L24.7775 27.0858C24.8736 27.0425 24.1126 27.0579 24.127 27.0271C23.6005 27.031 23.0797 27.0358 22.5685 27.0396C22.3129 27.0425 22.0582 27.0387 21.8065 27.0483C21.5547 27.0608 21.3059 27.0723 21.0589 27.0848L21.1742 27.1136L20.8302 27.1309C20.7399 27.128 20.7072 27.1098 20.9532 27.0983C20.8225 27.0858 20.5429 27.1377 20.5362 27.1453C20.0548 27.1578 20.7217 27.0944 20.5737 27.1011L20.3738 27.1146L20.419 27.1165C20.2575 27.1415 20.2441 27.153 19.9501 27.1732C19.7637 27.1838 19.853 27.1607 19.78 27.1665C19.78 27.1636 19.755 27.1655 19.6676 27.1761L19.2352 27.2145L19.411 27.2261C19.2208 27.2578 19.0046 27.2635 19.2073 27.276C19.0593 27.2664 18.6548 27.2981 18.2666 27.3394C17.8794 27.3932 17.5075 27.449 17.4172 27.4538C17.2855 27.4826 17.1529 27.5057 17.0136 27.5278C16.9435 27.5383 16.8724 27.5479 16.7974 27.5595C16.7234 27.5729 16.6456 27.5864 16.5649 27.6018C16.6465 27.5921 16.6994 27.6142 16.4198 27.6623C16.5111 27.5797 15.9038 27.7305 15.6684 27.7267C15.7721 27.7238 15.5732 27.7593 15.3907 27.8016C15.2091 27.8487 15.0419 27.8939 15.2033 27.8775C14.9717 27.9275 15.1841 27.8574 15.0054 27.8843C14.8689 27.9227 14.7257 27.9592 14.5749 27.9948C14.425 28.0332 14.2674 28.0591 14.1098 28.1062C13.7937 28.1946 13.4583 28.2792 13.1259 28.3887C13.1182 28.4003 13.2325 28.3733 13.0951 28.4358L12.7329 28.5194C12.6041 28.5694 12.6301 28.6078 12.3812 28.6655C12.4177 28.6597 12.4715 28.652 12.385 28.6856C12.2217 28.7366 12.0641 28.8086 11.9036 28.872L11.6634 28.972C11.5827 29.0046 11.5029 29.0383 11.4251 29.0796C11.2694 29.1584 11.1128 29.2372 10.9562 29.316C10.7996 29.3957 10.6516 29.4928 10.4988 29.5802C10.3441 29.6657 10.2019 29.7714 10.0549 29.8685C9.90499 29.9626 9.77046 30.0799 9.62825 30.1846C9.55811 30.2394 9.49373 30.3009 9.4255 30.3576C9.39187 30.3874 9.35728 30.4143 9.32653 30.4469L9.22372 30.5478C9.17856 30.592 9.13724 30.643 9.09304 30.692L9.06037 30.7294L9.04403 30.7487C9.03923 30.7525 9.04403 30.7544 9.04692 30.7573L9.05556 30.765L9.12859 30.8265L9.27753 30.9495L9.3765 31.034C9.23813 30.9062 9.33806 30.9812 9.45145 31.0686C9.38034 31.0081 9.46586 31.0533 9.45817 31.0331L9.8973 31.4126C10.0001 31.452 10.3902 31.7912 10.4565 31.8047L10.3076 31.697C10.5228 31.8181 10.0856 31.4251 10.1423 31.4107C10.0213 31.3434 9.88865 31.2204 9.73683 31.0869C9.66092 31.0196 9.58021 30.9504 9.49373 30.8822L9.42839 30.8322C9.40821 30.8178 9.37746 30.7948 9.36881 30.79C9.34095 30.7717 9.3102 30.7544 9.26984 30.7323C9.27272 30.7208 9.28618 30.716 9.28522 30.7179C9.28906 30.7179 9.28137 30.7246 9.28618 30.7304C9.30443 30.74 9.32365 30.7496 9.31885 30.739C9.31212 30.7352 9.29482 30.7314 9.29578 30.7256C9.29867 30.7189 9.30155 30.7121 9.30635 30.7045C9.315 30.69 9.32557 30.6708 9.34287 30.6526C9.35536 30.6382 9.38995 30.6016 9.42454 30.567C9.45817 30.5305 9.50045 30.495 9.5485 30.4556L9.5312 30.4777C9.59654 30.4191 9.65516 30.3624 9.71473 30.3134C9.77623 30.2663 9.83388 30.2211 9.88865 30.1788C9.99723 30.0904 10.1068 30.0213 10.2173 29.9511C10.4354 29.8031 10.6795 29.6753 11.0283 29.487L10.9648 29.4937C11.1195 29.4198 11.1551 29.4101 11.2291 29.3794C11.3896 29.2602 10.7976 29.5927 10.9399 29.4793C11.0523 29.4486 11.3233 29.3141 11.5856 29.1843C11.8556 29.0709 12.1179 28.9614 12.1986 28.9556C12.4417 28.8528 12.1169 28.9604 12.361 28.8596L12.4321 28.849L12.4888 28.8096C12.6531 28.7539 12.7415 28.7414 12.7511 28.751C12.7108 28.7635 12.6397 28.7942 12.5983 28.8106C12.8155 28.7519 13.1912 28.5924 13.2662 28.5732L13.024 28.6491C13.1086 28.6184 13.1941 28.5828 13.2844 28.555C13.3747 28.5281 13.467 28.5002 13.5602 28.4723C13.7466 28.4175 13.9378 28.3609 14.129 28.3042L14.2712 28.2619C14.3193 28.2504 14.3673 28.2379 14.4154 28.2263C14.5105 28.2023 14.6056 28.1792 14.6988 28.1562C14.8852 28.1091 15.0649 28.062 15.2331 28.0149L15.1793 28.0169C15.308 27.9813 15.3984 27.9573 15.4704 27.9409C15.5435 27.9275 15.5982 27.9188 15.654 27.9112C15.7664 27.8948 15.8855 27.8785 16.1719 27.8199L16.1517 27.8266C16.2651 27.7949 16.4179 27.7603 16.5754 27.7324C16.4323 27.7718 16.8531 27.7055 16.6648 27.7545C16.8051 27.7209 16.8945 27.7055 16.9531 27.695C17.0117 27.6834 17.0405 27.6767 17.0636 27.67C17.1087 27.6575 17.1299 27.645 17.3163 27.5989L17.4066 27.6046C17.5334 27.571 17.5431 27.5604 17.8323 27.5162C17.5969 27.5643 18.0206 27.5172 17.7573 27.5749C18.3685 27.522 18.6577 27.425 18.944 27.4538C19.2198 27.3779 18.4127 27.4768 18.5683 27.4519C18.4348 27.448 18.796 27.3932 18.9892 27.3798C19.1852 27.3625 19.3274 27.4105 19.8184 27.3635C19.7694 27.3683 19.7665 27.3721 19.7175 27.3759C19.8098 27.3731 19.8991 27.3606 19.9943 27.3481C20.0894 27.3366 20.1903 27.3308 20.3037 27.3337C20.4286 27.2972 20.5977 27.3193 20.6313 27.2789L20.1797 27.3125C20.4353 27.2885 20.6727 27.2309 21.0964 27.2289C21.0637 27.2385 20.9388 27.2558 20.8523 27.2654C20.9763 27.2703 21.0897 27.2453 21.2184 27.2491C21.1838 27.2895 20.6698 27.2875 20.3969 27.3317C20.5304 27.3404 20.9148 27.276 20.7793 27.3241C20.9744 27.2606 21.2646 27.3039 21.5961 27.2453L21.5749 27.2693C21.6278 27.2626 21.7364 27.2462 21.8334 27.2414L21.6585 27.2808C21.9276 27.2366 22.1803 27.2847 22.4388 27.2654C21.8959 27.276 22.3158 27.2405 22.0861 27.228C22.7558 27.1857 22.4733 27.2808 23.2228 27.2568C23.121 27.2616 22.8414 27.2501 22.9999 27.2366C23.1431 27.2385 23.3314 27.2443 23.4189 27.2549C23.9156 27.2414 23.342 27.2328 23.5534 27.2155C23.7225 27.2405 23.7974 27.1991 24.0156 27.1876L24.0175 27.2107C24.5834 27.2357 24.1683 27.1646 24.6776 27.1924L24.4614 27.2203L24.7276 27.2164L24.6728 27.2414C24.962 27.227 25.0524 27.2337 25.3358 27.2462C25.2705 27.2289 25.3743 27.2049 25.625 27.2088C25.7961 27.2251 25.529 27.2289 25.8845 27.2318C25.8038 27.2453 25.7154 27.2616 25.5607 27.2376C25.5443 27.2453 25.4809 27.251 25.4646 27.2578C25.6481 27.277 25.9277 27.2693 26.0565 27.2712C26.0065 27.2693 25.9479 27.2674 25.9172 27.2635C26.0892 27.253 26.2612 27.2558 26.4331 27.253C26.5139 27.2664 26.4495 27.2693 26.3851 27.2731C26.4898 27.276 26.5619 27.2693 26.7157 27.276C26.6753 27.2924 26.6839 27.3125 26.4668 27.3096L26.9578 27.3154C26.9905 27.325 27.2076 27.3519 27.1442 27.3548C27.2797 27.3683 27.4469 27.3683 27.6246 27.3692C27.8024 27.3702 27.9927 27.3692 28.1714 27.3981C28.1906 27.3961 28.2281 27.3961 28.305 27.4009C28.6422 27.4374 28.9382 27.4893 29.3408 27.5018L29.5637 27.5566C29.877 27.5806 29.262 27.4807 29.7838 27.5268C30.1527 27.5672 29.9173 27.5749 30.0451 27.6018C30.2296 27.6104 30.5525 27.62 30.8859 27.694C30.7735 27.6844 30.686 27.6681 30.5822 27.6556L30.5765 27.6392ZM34.3652 28.4329C34.2922 28.4166 34.1442 28.3887 34.0952 28.3599C34.1846 28.3589 34.2442 28.3897 34.3652 28.4329ZM38.1521 31.1868C38.1915 31.1465 38.2636 31.0965 38.3462 31.0427C38.2914 31.0878 38.227 31.1368 38.1521 31.1868ZM22.5204 29.1488C22.5204 29.1488 22.5262 29.1488 22.5281 29.1478C22.6963 29.1536 22.6367 29.1517 22.5204 29.1488ZM22.1716 29.144C22.137 29.1478 22.139 29.1507 22.1543 29.1536C22.1784 29.1469 22.2571 29.1459 22.3456 29.1459C22.3206 29.1401 22.2754 29.1373 22.1716 29.144ZM19.7367 27.1646H19.805C19.6522 27.1857 19.6945 27.1751 19.7367 27.1646Z" fill="#444444"/>
<path d="M38.647 30.7647C38.6595 30.7599 38.6672 30.7599 38.6739 30.7599C38.6854 30.7464 38.6787 30.7455 38.647 30.7647Z" fill="#444444"/>
<path d="M28.1793 27.3828H28.1678C28.161 27.3828 28.1572 27.3828 28.1553 27.3847L28.1793 27.3828Z" fill="#444444"/>
<path d="M27.5825 29.0371C27.6546 29.0438 27.694 29.0525 27.7199 29.0592C27.7238 29.0554 27.6921 29.0438 27.5825 29.0371Z" fill="#444444"/>
<path d="M20.3296 29.279C20.4036 29.2703 20.4776 29.2665 20.5516 29.2598C20.4439 29.2665 20.4045 29.2636 20.3507 29.2636C20.3565 29.2684 20.3988 29.2732 20.3296 29.279Z" fill="#444444"/>
<path d="M18.3866 29.329C18.3548 29.3357 18.3183 29.3386 18.2866 29.3453L18.2972 29.3549C18.4356 29.3357 18.5307 29.3146 18.3875 29.329H18.3866Z" fill="#444444"/>
<path d="M20.1184 29.2201C20.0992 29.2018 19.9599 29.222 19.8042 29.2393C19.8138 29.2393 19.8225 29.2374 19.8321 29.2364C19.7888 29.2681 19.9541 29.2441 20.1184 29.2201Z" fill="#444444"/>
<path d="M19.7687 29.2441C19.7206 29.2499 19.6716 29.2547 19.6245 29.2576C19.6073 29.2701 19.6832 29.2547 19.7687 29.2441Z" fill="#444444"/>
<path d="M21.7308 29.178C21.6568 29.177 21.6856 29.2049 21.6433 29.2001C21.5617 29.2289 22.1353 29.1443 21.7308 29.178Z" fill="#444444"/>
<path d="M19.9868 29.1688L20.0445 29.1871L20.1309 29.1602L19.9868 29.1688Z" fill="#444444"/>
<path d="M21.2224 29.1074L20.9716 29.1141C20.9716 29.1141 20.9437 29.1218 20.9053 29.1257C21.059 29.118 21.2281 29.1141 21.2224 29.1074Z" fill="#444444"/>
<path d="M20.9054 29.125C20.8247 29.1288 20.7488 29.1336 20.7046 29.1394C20.7478 29.1365 20.841 29.1308 20.9054 29.125Z" fill="#444444"/>
<path d="M20.3267 29.1307C20.3516 29.1298 20.3766 29.1307 20.4006 29.1307L20.5775 29.123C20.4939 29.1259 20.4103 29.1269 20.3267 29.1307Z" fill="#444444"/>
<path d="M23.9128 29.0352C24.0041 29.0304 24.0954 29.0314 24.1857 29.0304C24.2136 29.0227 24.1396 29.016 24.0377 29.0179C23.9724 29.0227 23.8705 29.0294 23.9128 29.0352Z" fill="#444444"/>
<path d="M23.0854 28.9842C23.1594 28.988 23.1642 28.9928 23.2065 29.0005L23.2142 28.9707L23.0854 28.9842Z" fill="#444444"/>
<path d="M23.8829 28.9626C23.9098 28.952 24.2798 28.9385 23.9329 28.9395C23.905 28.9481 23.6312 28.9597 23.8829 28.9626Z" fill="#444444"/>
<path d="M27.9984 29.1542L27.9282 29.1484L27.9349 29.1974L27.9984 29.1542Z" fill="#444444"/>
<path d="M31.6191 29.51C31.301 29.4418 31.5374 29.5263 31.2511 29.461C31.1742 29.4591 31.4855 29.5148 31.4067 29.511C31.6018 29.5331 31.7027 29.558 31.6201 29.511L31.6191 29.51Z" fill="#444444"/>
<path d="M31.4056 29.5106C31.3739 29.5077 31.3412 29.5038 31.3057 29.5C31.3624 29.5067 31.3893 29.5096 31.4056 29.5106Z" fill="#444444"/>
<path d="M10.1826 31.6562L10.3412 31.7917L10.2451 31.6966L10.1826 31.6562Z" fill="#444444"/>
<path d="M10.522 31.8727L10.5422 31.9274L10.6373 31.9716L10.619 31.8496L10.6142 31.864C10.6142 31.864 10.62 31.8573 10.6229 31.8525L10.6402 31.9688C10.6017 31.9409 10.5441 31.8977 10.5229 31.8736L10.522 31.8727Z" fill="#444444"/>
<path d="M34.8946 28.6629L34.9119 28.661C34.884 28.6427 34.8389 28.6254 34.7485 28.5918L34.8946 28.6629Z" fill="#444444"/>
<path d="M32.1879 27.9369L32.2359 27.9465L32.1523 27.9023L32.1879 27.9369Z" fill="#444444"/>
<path d="M29.854 27.5995C29.9492 27.612 30.0616 27.6255 30.1577 27.638C29.9492 27.6139 29.8329 27.5611 29.854 27.5995Z" fill="#444444"/>
</g>
<path d="M24.0662 46.3605C33.6254 46.3605 41.3746 43.75 41.3746 40.5299C41.3746 37.3097 33.6254 34.6992 24.0662 34.6992C14.507 34.6992 6.75781 37.3097 6.75781 40.5299C6.75781 43.75 14.507 46.3605 24.0662 46.3605Z" fill="#444444"/>
<mask id="mask1_1628_17751" style="mask-type:luminance" maskUnits="userSpaceOnUse" x="6" y="34" width="36" height="13">
<path d="M24.0662 46.3605C33.6254 46.3605 41.3746 43.75 41.3746 40.5299C41.3746 37.3097 33.6254 34.6992 24.0662 34.6992C14.507 34.6992 6.75781 37.3097 6.75781 40.5299C6.75781 43.75 14.507 46.3605 24.0662 46.3605Z" fill="white"/>
</mask>
<g mask="url(#mask1_1628_17751)">
<path d="M24.9194 33.7578H23.2129V38.543H24.9194V33.7578Z" fill="#444444"/>
</g>
<path d="M24.0661 40.3139C25.3642 40.3139 26.4165 39.2616 26.4165 37.9636C26.4165 36.6656 25.3642 35.6133 24.0661 35.6133C22.7681 35.6133 21.7158 36.6656 21.7158 37.9636C21.7158 39.2616 22.7681 40.3139 24.0661 40.3139Z" fill="#444444"/>
</g>
<defs>
<clipPath id="clip0_1628_17751">
<rect width="48" height="45.3605" fill="white" transform="translate(0 1)"/>
</clipPath>
</defs>
</svg>
