<svg width="48" height="48" viewBox="0 0 48 48" fill="none" xmlns="http://www.w3.org/2000/svg">
<g clip-path="url(#clip0_1628_17710)">
<path d="M23.6283 48.0008V28.2762L2.60559 22.1836C2.60559 22.1836 2.3031 24.0225 3.20957 32.2819C4.11604 40.5414 4.77538 41.7769 4.77538 41.7769C4.77538 41.7769 5.37936 42.9571 10.2132 44.6577C15.047 46.3584 21.9913 48.0008 23.6283 48.0008Z" fill="#444444"/>
<mask id="mask0_1628_17710" style="mask-type:luminance" maskUnits="userSpaceOnUse" x="2" y="22" width="22" height="26">
<path d="M23.6283 48.0008V28.2762L2.60559 22.1836C2.60559 22.1836 2.3031 24.0225 3.20957 32.2819C4.11604 40.5414 4.77538 41.7769 4.77538 41.7769C4.77538 41.7769 5.37936 42.9571 10.2132 44.6577C15.047 46.3584 21.9913 48.0008 23.6283 48.0008Z" fill="white"/>
</mask>
<g mask="url(#mask0_1628_17710)">
<path d="M15.0441 46.6895C15.0441 46.6895 13.5672 42.7647 13.3468 35.6687C13.1264 28.5727 13.3468 25.7777 13.3468 25.7777L8.2866 24.5215C8.2866 24.5215 8.12942 32.6229 8.4754 36.9555C8.82138 41.2882 10.0471 45.9043 10.0471 45.9043L15.0441 46.6895Z" fill="#444444"/>
</g>
<path d="M23.6279 48.0008V28.2762L44.6507 22.1836C44.6507 22.1836 44.9531 24.0225 44.0467 32.2819C43.1402 40.5414 42.4809 41.7769 42.4809 41.7769C42.4809 41.7769 41.8769 42.9571 37.0431 44.6577C32.2092 46.3584 25.2649 48.0008 23.6279 48.0008Z" fill="#444444"/>
<path d="M23.6279 19.9761V9.72266C23.6279 9.72266 39.54 13.3492 45.0698 14.2054C45.0698 14.2054 42.381 19.7064 23.6279 19.9761Z" fill="#444444"/>
<mask id="mask1_1628_17710" style="mask-type:luminance" maskUnits="userSpaceOnUse" x="23" y="8" width="23" height="12">
<path d="M23.6279 18.9878V8.73438C23.6279 8.73438 39.54 13.3485 45.0698 14.2048C45.0698 14.2048 42.381 19.7058 23.6279 18.9878Z" fill="white"/>
</mask>
<g mask="url(#mask1_1628_17710)">
<path d="M23.6279 14.5502L34.3484 18.314L39.4017 17.0597C39.4017 17.0597 36.3007 13.4608 30.3548 11.8984H23.627V14.5502H23.6279Z" fill="#444444"/>
</g>
<mask id="mask2_1628_17710" style="mask-type:luminance" maskUnits="userSpaceOnUse" x="23" y="22" width="22" height="26">
<path d="M23.6279 48.0008V28.2762L44.6507 22.1836C44.6507 22.1836 44.9531 24.0225 44.0467 32.2819C43.1402 40.5414 42.4809 41.7769 42.4809 41.7769C42.4809 41.7769 41.8769 42.9571 37.0431 44.6577C32.2092 46.3584 25.2649 48.0008 23.6279 48.0008Z" fill="white"/>
</mask>
<g mask="url(#mask2_1628_17710)">
<path d="M32.2134 46.6895C32.2134 46.6895 33.6902 42.7647 33.9107 35.6687C34.1311 28.5727 33.9107 25.7777 33.9107 25.7777L38.9709 24.5215C38.9709 24.5215 39.128 32.6229 38.7821 36.9555C38.4361 41.2882 37.2103 45.9043 37.2103 45.9043L32.2134 46.6895Z" fill="#444444"/>
</g>
<path d="M23.6279 19.9761V9.72266C23.6279 9.72266 7.71676 13.3502 2.18701 14.2054C2.18701 14.2054 4.87577 19.7064 23.6289 19.9761H23.6279Z" fill="#444444"/>
<mask id="mask3_1628_17710" style="mask-type:luminance" maskUnits="userSpaceOnUse" x="2" y="8" width="22" height="12">
<path d="M23.6279 18.9878V8.73438C7.95006 13.2665 8.10921 13.2883 2.18604 14.2048C2.18604 14.2048 4.87479 19.7058 23.6279 18.9878Z" fill="white"/>
</mask>
<g mask="url(#mask3_1628_17710)">
<path d="M23.6277 14.5502L12.9073 18.314L7.854 17.0597C7.854 17.0597 10.955 13.4608 16.9009 11.8984H23.6287V14.5502H23.6277Z" fill="#444444"/>
</g>
<path d="M23.6279 19.9757C23.6279 19.9757 40.2429 18.0785 45.0698 14.2051C45.0698 14.2051 46.257 16.1023 46.257 19.2251C46.257 22.348 44.5953 23.1775 42.1033 24.0862C39.6112 24.9948 26.3187 28.2756 23.6289 28.2756V19.9757H23.6279Z" fill="#444444"/>
<mask id="mask4_1628_17710" style="mask-type:luminance" maskUnits="userSpaceOnUse" x="23" y="14" width="24" height="15">
<path d="M23.6279 19.9757C23.6279 19.9757 40.2429 18.0785 45.0698 14.2051C45.0698 14.2051 46.257 16.1023 46.257 19.2251C46.257 22.348 44.5953 23.1775 42.1033 24.0862C39.6112 24.9948 26.3187 28.2756 23.6289 28.2756V19.9757H23.6279Z" fill="white"/>
</mask>
<g mask="url(#mask4_1628_17710)">
<path d="M33.7642 18.1096C33.7642 18.1096 35.1896 19.4913 35.2548 21.6719C35.3201 23.8526 34.9435 26.3394 34.9435 26.3394L40.8222 25.1394C40.8222 25.1394 41.3461 24.3543 41.0189 21.0606C40.6917 17.7669 38.6711 16.5195 38.6711 16.5195L33.7651 18.1086L33.7642 18.1096Z" fill="#444444"/>
</g>
<path d="M23.6281 19.9757C23.6281 19.9757 7.01313 18.0785 2.18721 14.2051C2.18721 14.2051 1 16.1023 1 19.2251C1 22.348 2.66169 23.1775 5.15374 24.0862C7.64578 24.9948 20.9383 28.2756 23.6281 28.2756V19.9757Z" fill="#444444"/>
<mask id="mask5_1628_17710" style="mask-type:luminance" maskUnits="userSpaceOnUse" x="1" y="14" width="23" height="15">
<path d="M23.6281 19.9757C23.6281 19.9757 7.01313 18.0785 2.18721 14.2051C2.18721 14.2051 1 16.1023 1 19.2251C1 22.348 2.66169 23.1775 5.15374 24.0862C7.64578 24.9948 20.9383 28.2756 23.6281 28.2756V19.9757Z" fill="white"/>
</mask>
<g mask="url(#mask5_1628_17710)">
<path d="M13.4926 18.1096C13.4926 18.1096 12.0672 19.4913 12.0019 21.6719C11.9367 23.8526 12.3133 26.3394 12.3133 26.3394L6.43461 25.1394C6.43461 25.1394 5.9107 24.3543 6.2379 21.0606C6.56509 17.7669 8.58562 16.5195 8.58562 16.5195L13.4916 18.1086L13.4926 18.1096Z" fill="#444444"/>
</g>
<path d="M20.4541 6.21708C20.4541 6.21708 17.1445 0.128444 10.8961 0.02672C4.64775 -0.0750042 4.5143 5.68575 5.58387 8.83426C6.65344 11.9838 5.72819 12.923 7.94741 15.6281C10.1666 18.3331 17.4273 16.3322 19.776 11.9719L20.4541 6.21708Z" fill="#444444"/>
<path d="M26.7754 6.33132C26.7754 6.33132 29.997 0.195273 36.2434 0.00466402C42.4898 -0.186933 42.7063 5.57085 41.6812 8.73517C40.6561 11.8995 41.5962 12.8249 39.4155 15.5625C37.2358 18.3002 29.9465 16.403 27.5365 12.0773L26.7754 6.3323V6.33132Z" fill="#444444"/>
<path d="M27.6244 6.89067C27.4138 5.92874 26.3927 4.87891 23.6308 4.87891C20.8689 4.87891 19.8468 5.92874 19.6372 6.89067C19.4266 7.85261 19.0668 8.77998 19.1261 10.2229C19.1855 11.6658 19.397 13.2746 20.8679 13.2746H26.3937C27.8656 13.2746 28.0811 11.6431 28.1414 10.2002C28.2017 8.75727 27.8359 7.85162 27.6254 6.88969L27.6244 6.89067Z" fill="#444444"/>
</g>
<defs>
<clipPath id="clip0_1628_17710">
<rect width="45.2571" height="48" fill="white" transform="translate(1)"/>
</clipPath>
</defs>
</svg>
