<svg width="48" height="48" viewBox="0 0 48 48" fill="none" xmlns="http://www.w3.org/2000/svg">
<g clip-path="url(#clip0_1485_6895)">
<path d="M23.6281 48.0008V28.2762L2.60535 22.1836C2.60535 22.1836 2.30286 24.0225 3.20933 32.2819C4.1158 40.5414 4.77513 41.7769 4.77513 41.7769C4.77513 41.7769 5.37912 42.9571 10.213 44.6577C15.0468 46.3584 21.9911 48.0008 23.6281 48.0008Z" fill="#D43728"/>
<mask id="mask0_1485_6895" style="mask-type:luminance" maskUnits="userSpaceOnUse" x="2" y="22" width="22" height="26">
<path d="M23.6281 48.0008V28.2762L2.60535 22.1836C2.60535 22.1836 2.30286 24.0225 3.20933 32.2819C4.1158 40.5414 4.77513 41.7769 4.77513 41.7769C4.77513 41.7769 5.37912 42.9571 10.213 44.6577C15.0468 46.3584 21.9911 48.0008 23.6281 48.0008Z" fill="white"/>
</mask>
<g mask="url(#mask0_1485_6895)">
<path d="M15.0438 46.6895C15.0438 46.6895 13.567 42.7647 13.3466 35.6687C13.1261 28.5727 13.3466 25.7777 13.3466 25.7777L8.28635 24.5215C8.28635 24.5215 8.12918 32.6229 8.47516 36.9555C8.82114 41.2882 10.0469 45.9043 10.0469 45.9043L15.0438 46.6895Z" fill="#FAC129"/>
</g>
<path d="M23.6282 48.0008V28.2762L44.6509 22.1836C44.6509 22.1836 44.9534 24.0225 44.0469 32.2819C43.1405 40.5414 42.4811 41.7769 42.4811 41.7769C42.4811 41.7769 41.8771 42.9571 37.0433 44.6577C32.2095 46.3584 25.2652 48.0008 23.6282 48.0008Z" fill="#C62E26"/>
<path d="M23.6282 19.9761V9.72266C23.6282 9.72266 39.5403 13.3492 45.07 14.2054C45.07 14.2054 42.3813 19.7064 23.6282 19.9761Z" fill="#D34942"/>
<mask id="mask1_1485_6895" style="mask-type:luminance" maskUnits="userSpaceOnUse" x="23" y="8" width="23" height="12">
<path d="M23.6282 18.9878V8.73438C23.6282 8.73438 39.5403 13.3485 45.07 14.2048C45.07 14.2048 42.3813 19.7058 23.6282 18.9878Z" fill="white"/>
</mask>
<g mask="url(#mask1_1485_6895)">
<path d="M23.6282 14.5502L34.3486 18.314L39.4019 17.0597C39.4019 17.0597 36.3009 13.4608 30.355 11.8984H23.6272V14.5502H23.6282Z" fill="#FAC129"/>
</g>
<mask id="mask2_1485_6895" style="mask-type:luminance" maskUnits="userSpaceOnUse" x="23" y="22" width="22" height="26">
<path d="M23.6282 48.0008V28.2762L44.6509 22.1836C44.6509 22.1836 44.9534 24.0225 44.0469 32.2819C43.1405 40.5414 42.4811 41.7769 42.4811 41.7769C42.4811 41.7769 41.8771 42.9571 37.0433 44.6577C32.2095 46.3584 25.2652 48.0008 23.6282 48.0008Z" fill="white"/>
</mask>
<g mask="url(#mask2_1485_6895)">
<path d="M32.2134 46.6895C32.2134 46.6895 33.6902 42.7647 33.9107 35.6687C34.1311 28.5727 33.9107 25.7777 33.9107 25.7777L38.9709 24.5215C38.9709 24.5215 39.128 32.6229 38.7821 36.9555C38.4361 41.2882 37.2103 45.9043 37.2103 45.9043L32.2134 46.6895Z" fill="#FAC129"/>
</g>
<path d="M23.6281 19.9761V9.72266C23.6281 9.72266 7.717 13.3502 2.18726 14.2054C2.18726 14.2054 4.87601 19.7064 23.6291 19.9761H23.6281Z" fill="#D34942"/>
<mask id="mask3_1485_6895" style="mask-type:luminance" maskUnits="userSpaceOnUse" x="2" y="8" width="22" height="12">
<path d="M23.6281 18.9878V8.73438C7.9503 13.2665 8.10946 13.2883 2.18628 14.2048C2.18628 14.2048 4.87504 19.7058 23.6281 18.9878Z" fill="white"/>
</mask>
<g mask="url(#mask3_1485_6895)">
<path d="M23.6282 14.5502L12.9078 18.314L7.85449 17.0597C7.85449 17.0597 10.9555 13.4608 16.9014 11.8984H23.6292V14.5502H23.6282Z" fill="#FAC129"/>
</g>
<path d="M23.6282 19.9757C23.6282 19.9757 40.2431 18.0785 45.07 14.2051C45.07 14.2051 46.2572 16.1023 46.2572 19.2251C46.2572 22.348 44.5955 23.1775 42.1035 24.0862C39.6115 24.9948 26.3189 28.2756 23.6292 28.2756V19.9757H23.6282Z" fill="#B71C18"/>
<mask id="mask4_1485_6895" style="mask-type:luminance" maskUnits="userSpaceOnUse" x="23" y="14" width="24" height="15">
<path d="M23.6282 19.9757C23.6282 19.9757 40.2431 18.0785 45.07 14.2051C45.07 14.2051 46.2572 16.1023 46.2572 19.2251C46.2572 22.348 44.5955 23.1775 42.1035 24.0862C39.6115 24.9948 26.3189 28.2756 23.6292 28.2756V19.9757H23.6282Z" fill="white"/>
</mask>
<g mask="url(#mask4_1485_6895)">
<path d="M33.7644 18.1096C33.7644 18.1096 35.1898 19.4913 35.2551 21.6719C35.3203 23.8526 34.9437 26.3394 34.9437 26.3394L40.8224 25.1394C40.8224 25.1394 41.3463 24.3543 41.0191 21.0606C40.6919 17.7669 38.6714 16.5195 38.6714 16.5195L33.7654 18.1086L33.7644 18.1096Z" fill="#E79724"/>
</g>
<path d="M23.6281 19.9757C23.6281 19.9757 7.01313 18.0785 2.18721 14.2051C2.18721 14.2051 1 16.1023 1 19.2251C1 22.348 2.66169 23.1775 5.15374 24.0862C7.64578 24.9948 20.9383 28.2756 23.6281 28.2756V19.9757Z" fill="#C62E26"/>
<mask id="mask5_1485_6895" style="mask-type:luminance" maskUnits="userSpaceOnUse" x="1" y="14" width="23" height="15">
<path d="M23.6281 19.9757C23.6281 19.9757 7.01313 18.0785 2.18721 14.2051C2.18721 14.2051 1 16.1023 1 19.2251C1 22.348 2.66169 23.1775 5.15374 24.0862C7.64578 24.9948 20.9383 28.2756 23.6281 28.2756V19.9757Z" fill="white"/>
</mask>
<g mask="url(#mask5_1485_6895)">
<path d="M13.4928 18.1096C13.4928 18.1096 12.0674 19.4913 12.0022 21.6719C11.9369 23.8526 12.3135 26.3394 12.3135 26.3394L6.43485 25.1394C6.43485 25.1394 5.91094 24.3543 6.23814 21.0606C6.56534 17.7669 8.58586 16.5195 8.58586 16.5195L13.4919 18.1086L13.4928 18.1096Z" fill="#E79724"/>
</g>
<path d="M20.4538 6.21708C20.4538 6.21708 17.1443 0.128444 10.8959 0.02672C4.6475 -0.0750042 4.51405 5.68575 5.58362 8.83426C6.6532 11.9838 5.72795 12.923 7.94716 15.6281C10.1664 18.3331 17.427 16.3322 19.7757 11.9719L20.4538 6.21708Z" fill="#FACB42"/>
<path d="M26.7754 6.33132C26.7754 6.33132 29.997 0.195273 36.2434 0.00466402C42.4898 -0.186933 42.7063 5.57085 41.6812 8.73517C40.6561 11.8995 41.5962 12.8249 39.4155 15.5625C37.2358 18.3002 29.9465 16.403 27.5365 12.0773L26.7754 6.3323V6.33132Z" fill="#FACB42"/>
<path d="M27.6246 6.89067C27.4141 5.92874 26.393 4.87891 23.631 4.87891C20.8691 4.87891 19.847 5.92874 19.6374 6.89067C19.4269 7.85261 19.0671 8.77998 19.1264 10.2229C19.1857 11.6658 19.3972 13.2746 20.8681 13.2746H26.3939C27.8658 13.2746 28.0813 11.6431 28.1416 10.2002C28.2019 8.75727 27.8362 7.85162 27.6256 6.88969L27.6246 6.89067Z" fill="#EBAE39"/>
</g>
<defs>
<clipPath id="clip0_1485_6895">
<rect width="45.2571" height="48" fill="white" transform="translate(1)"/>
</clipPath>
</defs>
</svg>
