<svg width="58" height="58" viewBox="0 0 58 58" fill="none" xmlns="http://www.w3.org/2000/svg">
<g clip-path="url(#clip0_1628_17527)">
<path d="M42.034 43.5248C40.9948 41.1746 39.4211 39.0096 38.2377 37.4884C35.363 33.7923 35.8759 32.9191 36.0302 27.9394C36.1845 22.9598 37.6214 18.8007 37.6214 18.8007L18.3174 14.1797C18.656 18.2453 18.0363 24.0448 15.7271 30.3738C18.6193 32.5663 22.9651 37.3358 18.9178 44.3471C19.4432 44.8066 20.012 45.2903 20.6267 45.8057C23.699 48.3818 26.9232 51.1957 30.0739 53.0237C32.2623 43.6507 38.1835 42.9093 42.0323 43.5248H42.034Z" fill="#444444"/>
<path d="M15.728 30.373C15.5879 30.7575 15.442 31.1445 15.2893 31.5323C12.8658 37.6853 13.7432 39.8178 18.9196 44.3463C22.9669 37.3359 18.6202 32.5656 15.7288 30.373H15.728Z" fill="#444444"/>
<path d="M30.0757 53.024C33.771 55.1673 37.3655 55.9538 40.497 53.4043C43.9113 50.6247 43.5202 46.8851 42.034 43.525C38.1853 42.9087 32.2632 43.6501 30.0757 53.024Z" fill="#444444"/>
<path d="M30.4441 5.13467C35.528 5.7418 37.9307 5.42072 40.426 5.99366C42.9212 6.56661 44.108 7.46646 43.8628 10.2895C43.6176 13.1125 42.39 16.6719 41.6127 19.7401C40.8354 22.8083 34.6991 20.8034 30.6893 19.7401C26.6804 18.6768 17.1572 18.7535 16.1656 15.4851C15.2699 12.5262 17.0255 3.1298 19.8076 3.0072C22.5897 2.88461 23.9399 4.35741 30.4441 5.13467Z" fill="#444444"/>
<mask id="mask0_1628_17527" style="mask-type:luminance" maskUnits="userSpaceOnUse" x="15" y="14" width="28" height="40">
<path d="M42.034 43.5248C40.9948 41.1746 39.4211 39.0096 38.2377 37.4884C35.363 33.7923 35.8759 32.9191 36.0302 27.9394C36.1845 22.9598 37.6214 18.8007 37.6214 18.8007L18.3174 14.1797C18.656 18.2453 18.0363 24.0448 15.7271 30.3738C18.6193 32.5663 22.9651 37.3358 18.9178 44.3471C19.4432 44.8066 20.012 45.2903 20.6267 45.8057C23.699 48.3818 26.9232 51.1957 30.0739 53.0237C32.2623 43.6507 38.1835 42.9093 42.0323 43.5248H42.034Z" fill="white"/>
</mask>
<g mask="url(#mask0_1628_17527)">
<path d="M37.8457 27.1635C37.6772 27.1635 37.5088 27.1002 37.3787 26.9734L34.2688 23.9277L29.6902 25.5957C29.4601 25.6799 29.2032 25.6307 29.0197 25.4681L25.5829 22.4241L20.9794 24.0353C20.7267 24.1237 20.4456 24.0528 20.2655 23.8552L16.6419 19.8763C16.3934 19.6036 16.4134 19.1816 16.6861 18.9339C16.9588 18.6853 17.3808 18.7054 17.6285 18.9781L20.9552 22.6309L25.512 21.0363C25.7405 20.9563 25.9941 21.0063 26.175 21.1664L29.6077 24.2071L34.2079 22.5316C34.4489 22.4441 34.7199 22.5024 34.9034 22.6818L38.3135 26.021C38.5771 26.2787 38.5813 26.7015 38.3236 26.9642C38.1926 27.0976 38.02 27.1644 37.8465 27.1644L37.8457 27.1635Z" fill="#444444"/>
<path d="M37.9149 27.2118C37.8274 27.2168 37.859 27.2218 37.8457 27.2243C37.9199 27.2218 37.9358 27.2143 37.9341 27.2126C37.9324 27.2101 37.9133 27.2109 37.9149 27.2118Z" fill="#444444"/>
<path d="M38.4429 26.1365L38.4588 26.1565C38.4229 26.0965 38.3754 26.0447 38.3262 25.998C38.3687 26.0397 38.4112 26.0848 38.4429 26.1365Z" fill="#444444"/>
<path d="M37.5547 25.2344C37.6289 25.3286 37.8824 25.5521 38.0392 25.7122L38.0634 25.7406L38.1443 25.8031C37.9483 25.6138 37.6898 25.372 37.5555 25.2344H37.5547Z" fill="#444444"/>
<path d="M37.0976 24.7432C37.1234 24.7765 36.99 24.6448 37.2085 24.8541C37.1985 24.8432 37.1952 24.8399 37.1893 24.8332C37.1701 24.8141 37.1435 24.7882 37.0976 24.7432Z" fill="#444444"/>
<path d="M37.1885 24.8323C37.1301 24.7681 37.2835 24.9249 37.1885 24.8323V24.8323Z" fill="#444444"/>
<path d="M36.7491 24.4063L36.8775 24.5247C36.8542 24.4963 36.7433 24.3871 36.7866 24.4263C36.6565 24.3028 36.6807 24.3312 36.7491 24.4063Z" fill="#444444"/>
<path d="M36.623 24.2988L36.6889 24.3605C36.6789 24.348 36.6622 24.3314 36.623 24.2988Z" fill="#444444"/>
<path d="M36.83 24.4903L36.6899 24.3594C36.7066 24.3786 36.705 24.3844 36.7542 24.4194C36.74 24.4119 36.77 24.4353 36.83 24.4903Z" fill="#444444"/>
<path d="M36.9058 24.5684C36.9733 24.6392 37.0625 24.7293 36.9333 24.6101C37.1735 24.8427 37.1459 24.8002 36.9058 24.5684Z" fill="#444444"/>
<path d="M37.4981 25.2012L37.589 25.2962L37.6732 25.3721C37.6307 25.3346 37.4956 25.1928 37.4981 25.202V25.2012Z" fill="#444444"/>
<path d="M35.977 23.639C35.967 23.634 36.0129 23.6857 36.0195 23.6982L36.1146 23.7858C36.0687 23.7383 35.9803 23.6482 35.977 23.639Z" fill="#444444"/>
<path d="M36.0192 23.6993L35.8774 23.5684C36 23.6893 36.0242 23.7093 36.0192 23.6993Z" fill="#444444"/>
<path d="M36.5888 24.2886L36.824 24.5021L36.5454 24.2461L36.5888 24.2886Z" fill="#444444"/>
<path d="M35.4506 23.1231L35.534 23.1948L35.3872 23.0664L35.4506 23.1231Z" fill="#444444"/>
<path d="M35.1001 22.7811C35.1619 22.8337 35.0284 22.6961 35.0918 22.7536C35.0443 22.7077 34.9992 22.6652 34.9559 22.6268C34.9083 22.5835 34.8583 22.5493 34.8091 22.5234C34.8608 22.5526 34.9125 22.591 34.9584 22.6377C35.0009 22.6811 35.0476 22.7286 35.1001 22.782V22.7811Z" fill="#444444"/>
<path d="M34.6343 22.4551C34.6918 22.4701 34.7502 22.4909 34.8094 22.5226C34.7535 22.4918 34.6952 22.4684 34.6343 22.4551Z" fill="#444444"/>
<path d="M35.6441 23.3372C35.6349 23.3255 35.6174 23.3013 35.5415 23.2246L35.5899 23.2838C35.6066 23.2997 35.6249 23.3188 35.6441 23.3372Z" fill="#444444"/>
<path d="M35.5916 23.2847L35.5899 23.2831C35.5315 23.2255 35.4907 23.1855 35.4731 23.168C35.4882 23.183 35.524 23.218 35.5916 23.2856V23.2847Z" fill="#444444"/>
<path d="M35.6574 23.3493C35.6524 23.3443 35.649 23.3409 35.644 23.3359C35.649 23.3418 35.6515 23.3451 35.6574 23.3493Z" fill="#444444"/>
<path d="M36.2336 23.9291C36.1493 23.8532 35.9767 23.6914 36.1343 23.8574C36.1969 23.9099 36.106 23.8148 36.2336 23.9291Z" fill="#444444"/>
<path d="M35.7173 23.4238L35.8624 23.5689C35.8616 23.5648 35.8374 23.5364 35.8791 23.5739L35.7173 23.4247V23.4238Z" fill="#444444"/>
<path d="M35.6431 23.3555L35.7173 23.423L35.6631 23.3696L35.6431 23.3555Z" fill="#444444"/>
<path d="M34.9537 22.6559C34.8861 22.5925 34.7986 22.5291 34.6885 22.4883C34.7469 22.5108 34.8036 22.5425 34.8553 22.58C34.9078 22.6175 34.9503 22.6634 34.9912 22.7026C35.0046 22.7118 35.0446 22.7435 34.9545 22.6559H34.9537Z" fill="#444444"/>
<path d="M35.2627 22.9626C35.2585 22.9584 35.2527 22.9534 35.2485 22.9492C35.2569 22.9584 35.2635 22.9651 35.2627 22.9626Z" fill="#444444"/>
<path d="M33.6226 22.6903C33.6284 22.6886 33.6334 22.6878 33.6392 22.6861L33.6426 22.6836L33.6226 22.6911V22.6903Z" fill="#444444"/>
<path d="M35.0026 22.7176C35.0643 22.7801 35.1035 22.816 35.141 22.8493C35.0935 22.8035 35.0434 22.7551 34.9892 22.7034C34.9834 22.6992 34.9817 22.6992 35.0018 22.7184L35.0026 22.7176Z" fill="#444444"/>
<path d="M34.3086 22.4443C34.3578 22.4368 34.4145 22.4343 34.4737 22.4393C34.4253 22.4318 34.3253 22.4368 34.3086 22.4443Z" fill="#444444"/>
<path d="M35.2289 22.927C35.2289 22.927 35.2347 22.9328 35.2389 22.9362C35.2197 22.9145 35.2214 22.9178 35.2289 22.927Z" fill="#444444"/>
<path d="M35.2287 22.9272C35.1953 22.8971 35.1686 22.873 35.1411 22.8496C35.1803 22.8863 35.2162 22.9205 35.2479 22.9497C35.2412 22.9413 35.2337 22.933 35.2287 22.9272Z" fill="#444444"/>
<path d="M33.3357 22.8561C33.3474 22.8427 33.5626 22.7568 33.7536 22.696C33.9362 22.6226 33.8061 22.6409 33.6393 22.6859C33.6351 22.6918 33.636 22.6943 33.4475 22.7685C33.5159 22.7485 33.8737 22.6242 33.7152 22.6901C33.4642 22.786 33.5075 22.7627 33.3833 22.8035C33.4909 22.7752 33.0672 22.9345 33.1281 22.9286L33.3474 22.8427C33.3524 22.8427 33.2732 22.8761 33.3357 22.8561Z" fill="#444444"/>
<path d="M34.0022 22.5565L34.0806 22.5273C33.9905 22.5582 33.9254 22.579 33.8062 22.6157C33.6769 22.6666 33.6511 22.68 33.6436 22.6858L34.0297 22.5465L34.003 22.5574L34.0022 22.5565Z" fill="#444444"/>
<path d="M34.4607 22.4433C34.4257 22.445 34.3548 22.4525 34.3114 22.465C34.2672 22.4767 34.2489 22.485 34.3123 22.4767C34.3748 22.465 34.4182 22.465 34.449 22.4642C34.4799 22.4642 34.4991 22.4642 34.5149 22.4659C34.5466 22.4675 34.5666 22.4659 34.6417 22.485C34.5416 22.4558 34.4957 22.4583 34.4832 22.4558C34.4699 22.455 34.4891 22.4542 34.5108 22.4558C34.5333 22.4558 34.5591 22.46 34.5608 22.4592C34.5608 22.4592 34.5566 22.4567 34.5416 22.4533C34.5266 22.4508 34.5024 22.4458 34.4641 22.4442C34.5474 22.4458 34.6217 22.4625 34.6876 22.4867C34.6167 22.4583 34.5433 22.4433 34.4741 22.4375C34.4782 22.4375 34.4807 22.4375 34.4841 22.4383H34.4857C34.5041 22.4408 34.5099 22.4425 34.4891 22.44C34.4874 22.44 34.4824 22.44 34.4799 22.44C34.4766 22.4408 34.4691 22.4417 34.4607 22.4425C34.3381 22.4425 34.4415 22.4375 34.4799 22.44C34.4816 22.44 34.4849 22.44 34.4849 22.4392H34.4832C34.4123 22.435 34.3406 22.4417 34.2722 22.4583C34.2013 22.4759 34.1413 22.5026 34.0796 22.5251C34.1205 22.5117 34.1613 22.495 34.2222 22.475C34.2831 22.4567 34.3606 22.4383 34.4607 22.4425V22.4433Z" fill="#444444"/>
<path d="M35.9701 23.7233C35.9617 23.7142 35.9626 23.7142 35.9626 23.7133C35.9434 23.6958 35.9359 23.69 35.9701 23.7233Z" fill="#444444"/>
<path d="M35.8576 23.6056C35.8793 23.6248 35.8985 23.639 35.9652 23.7048C36.0211 23.7632 35.9619 23.7073 35.9627 23.7123C36.0044 23.7499 36.1078 23.8458 35.9852 23.719L35.9644 23.7007C35.8526 23.5873 35.7142 23.4363 35.735 23.4547C35.7625 23.493 35.7876 23.5255 35.8576 23.6056Z" fill="#444444"/>
<path d="M35.2112 22.9464L34.9727 22.7188L35.0869 22.8413L35.0844 22.8322C35.217 22.9648 35.192 22.9322 35.2112 22.9456V22.9464Z" fill="#444444"/>
<path d="M33.586 22.7L33.6235 22.6758L33.4492 22.7533L33.586 22.7Z" fill="#444444"/>
<path d="M33.1839 22.8473L33.1956 22.834L33.0913 22.8774L33.1839 22.8473Z" fill="#444444"/>
<path d="M18.811 22.1855L18.8778 22.2556C18.8461 22.2222 18.826 22.2014 18.811 22.1855Z" fill="#444444"/>
<path d="M18.3399 21.6682L18.3257 21.6582C18.349 21.6807 18.359 21.6891 18.3399 21.6682Z" fill="#444444"/>
<path d="M24.1812 21.4473C24.0452 21.4865 23.8926 21.5273 23.9118 21.5307L23.956 21.5248C24.0486 21.4906 24.1203 21.4664 24.1812 21.4473Z" fill="#444444"/>
<path d="M18.4199 19.8516C18.4283 19.8624 18.4366 19.8732 18.4458 19.8841C18.4708 19.9074 18.495 19.9291 18.5167 19.9483C18.4875 19.9191 18.4549 19.8858 18.4208 19.8516H18.4199Z" fill="#444444"/>
<path d="M18.325 19.8031L18.2041 19.6621C18.2316 19.6946 18.27 19.7397 18.325 19.8031Z" fill="#444444"/>
<path d="M21.7448 23.706L21.8482 23.6602C21.6814 23.7185 21.7565 23.6969 21.7448 23.706Z" fill="#444444"/>
<path d="M29.2225 23.8009C29.1341 23.7175 29.0624 23.6524 28.999 23.5957C29.1049 23.6966 29.1883 23.7808 29.2225 23.8009Z" fill="#444444"/>
<path d="M18.5543 22.0455C18.5952 22.0881 18.6135 22.1056 18.6144 22.1031C18.5718 22.0589 18.5476 22.0347 18.5543 22.0455Z" fill="#444444"/>
<path d="M28.7363 23.3633C28.7522 23.3783 28.7672 23.3925 28.783 23.4075C28.8506 23.465 28.9181 23.5234 28.999 23.596C28.9206 23.5209 28.8297 23.4375 28.7363 23.3633Z" fill="#444444"/>
<path d="M33.9233 23.9989C33.9333 23.9956 33.9442 23.9923 33.9534 23.9889C33.9559 23.9864 33.9425 23.9914 33.9233 23.9989Z" fill="#444444"/>
<path d="M36.881 26.5417C36.8526 26.5142 36.8059 26.4683 36.7617 26.4258C36.7826 26.4475 36.8184 26.4817 36.881 26.5417Z" fill="#444444"/>
<path d="M31.5645 23.4334C31.5778 23.4276 31.6495 23.4018 31.5645 23.4334V23.4334Z" fill="#444444"/>
<path d="M31.991 23.3164C31.9735 23.3239 31.9602 23.3306 31.9585 23.3331C31.9652 23.3281 31.976 23.3231 31.991 23.3164Z" fill="#444444"/>
<path d="M28.0215 22.8038C28.0215 22.8038 28.0181 22.8005 28.0156 22.7988C28.0348 22.818 28.0315 22.8147 28.0215 22.8038Z" fill="#444444"/>
<path d="M31.6946 23.3906C31.662 23.4015 31.6253 23.414 31.5845 23.4282C31.602 23.4223 31.6362 23.4106 31.6946 23.3906Z" fill="#444444"/>
<path d="M31.6753 23.392C31.7045 23.382 31.7278 23.3737 31.7504 23.3653C31.7604 23.3603 31.7504 23.3628 31.6753 23.392Z" fill="#444444"/>
<path d="M31.4458 23.4769C31.495 23.4594 31.54 23.4436 31.5842 23.4277C31.5676 23.4336 31.5601 23.4352 31.5642 23.4336C31.5392 23.4427 31.5042 23.4561 31.4458 23.4769Z" fill="#444444"/>
<path d="M27.395 23.9941C27.3992 23.9983 27.4042 24.0033 27.4092 24.0075C27.4801 24.065 27.4501 24.0392 27.395 23.9941Z" fill="#444444"/>
<path d="M21.9818 22.3163C21.9818 22.3163 21.9872 22.314 21.991 22.3125C21.9872 22.314 21.9826 22.3156 21.9795 22.3163H21.9826H21.9818Z" fill="#444444"/>
<path d="M21.6768 22.4298C21.8044 22.3731 21.8794 22.3489 21.9795 22.3164L21.8694 22.3272L21.6776 22.4298H21.6768Z" fill="#444444"/>
<path d="M19.9428 23.4241L19.7943 23.249C19.9903 23.4441 20.1212 23.5951 19.9853 23.4283C19.9428 23.4233 19.384 22.7719 19.3415 22.7678L19.2439 22.6518C19.2731 22.6835 19.2781 22.6885 19.3073 22.7194C19.1196 22.4934 19.1455 22.5718 18.8936 22.2899C18.8069 22.1907 18.7477 22.1206 18.8102 22.184L18.6076 21.9713C18.5509 21.9079 18.5684 21.9196 18.6251 21.983L18.3215 21.6536L18.324 21.6552C18.2782 21.6094 18.1756 21.5076 18.1255 21.4584C18.0522 21.3717 18.1664 21.4985 18.1489 21.4751L17.9771 21.2966C17.9146 21.2174 18.058 21.3642 18.1731 21.4918C18.038 21.3016 18.0296 21.3442 17.7052 20.9639L17.8653 21.1348C17.7753 21.0122 17.6485 20.8813 17.4775 20.6787C17.5159 20.7287 17.8161 21.0873 17.6293 20.893C17.5801 20.8354 17.5134 20.7612 17.4117 20.657C17.4183 20.6495 17.3208 20.5461 17.2007 20.4151H17.219C17.0872 20.2758 17.0923 20.2917 17.0114 20.2125C16.8687 20.0532 16.8462 20.014 16.8187 19.9706C16.5894 19.7162 16.9655 20.1566 16.6911 19.8589C16.601 19.7579 16.551 19.6562 16.5277 19.5386C16.5043 19.4235 16.5085 19.2901 16.5752 19.1441C16.6736 18.9857 16.5643 19.175 16.6019 19.12C16.6269 19.0724 16.6561 19.0249 16.6936 18.984C16.722 18.9557 16.7153 18.9673 16.712 18.9732C16.7628 18.9265 16.7637 18.9223 16.7728 18.9131C16.7828 18.9048 16.7962 18.8823 16.8979 18.8356C16.9221 18.8172 17.0372 18.7797 17.1782 18.7947C17.3208 18.8055 17.4742 18.8823 17.576 18.9748C17.621 19.0249 17.5468 18.9582 17.5584 18.9757C17.8328 19.2534 17.7936 19.22 18.0238 19.4494L18.2048 19.6612C18.0747 19.5036 18.259 19.6887 18.4199 19.8505C18.3741 19.7938 18.3357 19.7454 18.3099 19.7129L18.5609 19.9781C18.5892 20.0123 18.5609 19.9881 18.5167 19.9473C18.5342 19.9648 18.5509 19.9815 18.5642 19.9948C18.6484 20.0949 18.5976 20.0498 18.5284 19.9856C18.5008 19.9506 18.4725 19.9164 18.4458 19.883C18.3791 19.8222 18.3157 19.7655 18.3224 19.7846C18.3399 19.8013 18.3716 19.8338 18.4058 19.8705C18.3882 19.8547 18.3766 19.8447 18.3832 19.8539C18.3908 19.8639 18.4183 19.8897 18.4608 19.9322L18.5058 20.004L18.5234 20.0148L18.8378 20.3743C19.0788 20.6169 19.2948 20.8213 19.6642 21.2182C19.5658 21.1265 19.6317 21.2091 19.6175 21.2124C19.5283 21.094 19.3306 20.9063 19.1438 20.6962C19.2414 20.8054 19.2156 20.7854 19.1889 20.7596L19.535 21.1215C19.52 21.1207 19.6008 21.2057 19.6859 21.305C19.635 21.2174 19.9478 21.5718 20.0896 21.7178C20.0929 21.732 20.0545 21.7003 19.8886 21.516C20.062 21.7295 20.1454 21.7612 20.3172 21.9696C20.2764 21.9246 20.2547 21.8996 20.2363 21.8846C20.3364 21.9855 20.5666 22.2449 20.5065 22.189L20.4657 22.1439C20.5916 22.2824 20.7768 22.485 20.9452 22.6702C21.0228 22.6418 21.0978 22.6151 21.1679 22.5901C21.2313 22.5668 21.2896 22.5451 21.3397 22.5259C21.4406 22.4875 21.5098 22.46 21.5232 22.4492C21.5273 22.4492 21.4806 22.4867 21.4589 22.4984L22.1178 22.2048C22.0627 22.2399 22.3046 22.194 21.9919 22.3124C22.0828 22.2824 22.1962 22.2457 22.3855 22.174C22.3229 22.1932 22.2245 22.2073 22.3079 22.1765C22.5456 22.1114 22.4722 22.1289 22.7624 22.0422C22.669 22.0714 22.7641 22.013 22.9101 21.9621C22.8884 21.9738 22.9301 21.9805 22.8775 22.0013L23.2345 21.8521C23.1452 21.8879 23.2253 21.8762 23.3087 21.8546C23.2695 21.8637 23.6239 21.7445 23.7199 21.7086L23.5639 21.7578C23.9767 21.6169 23.9592 21.5844 24.3678 21.4426C24.3203 21.4643 24.2553 21.5135 24.4646 21.4434C24.5555 21.3984 24.8666 21.2416 25.2243 21.1065L25.2961 21.089L25.4337 21.0364C25.4787 21.0198 25.5246 20.9997 25.5754 20.9872C25.5287 21.0014 25.4687 21.0314 25.397 21.0623C25.3244 21.094 25.2419 21.1298 25.1568 21.1674C24.9858 21.2416 24.8032 21.32 24.6731 21.3725C24.829 21.3242 24.719 21.365 24.9491 21.2841C25.0325 21.2616 24.8265 21.3375 24.759 21.3617L25.2969 21.1774C25.2827 21.1749 25.3845 21.1357 25.4862 21.0965C25.5855 21.0523 25.6847 21.0431 25.6747 21.0381C25.6263 21.0439 25.5788 21.0548 25.5329 21.0715L25.3886 21.1257L25.0992 21.2349C25.0851 21.2324 25.166 21.1932 25.2986 21.139C25.4312 21.0906 25.6105 20.9872 25.8115 21.0181C25.8607 21.0281 25.8406 21.0314 25.8115 21.0331C25.7814 21.0356 25.7414 21.0406 25.7447 21.0431C25.7689 21.0398 25.8598 21.0439 25.9441 21.074C26.0291 21.1015 26.1 21.1532 26.1125 21.1657C26.0683 21.1348 26.02 21.1107 25.9699 21.0923C26.0675 21.1357 26.1309 21.1849 26.2076 21.2499C26.2827 21.3116 26.3619 21.3775 26.4578 21.4726C26.527 21.5351 26.6538 21.6703 26.6713 21.6744C26.5687 21.5618 26.5787 21.5051 26.6629 21.5635C26.6863 21.586 27.0182 21.8988 27.0924 21.9755C27.1992 22.0864 26.9006 21.8454 26.9907 21.9396C26.9974 21.9405 27.0641 21.993 27.0916 22.0155C27.1625 22.0831 27.0532 21.9972 27.2134 22.1373C27.2492 22.1498 27.5361 22.4242 27.2968 22.1948C27.4552 22.3291 27.4602 22.3433 27.6429 22.5042C27.5912 22.4458 27.8272 22.626 27.9856 22.7611C27.974 22.7553 28.0056 22.7903 28.0215 22.807C28.3376 23.0913 28.5085 23.2448 28.8029 23.51C28.8279 23.5367 28.9689 23.6668 28.9038 23.6176C28.948 23.6534 28.9906 23.6851 29.0823 23.766C29.2516 23.932 28.8763 23.5867 29.0022 23.7177C29.0189 23.7218 29.2466 23.9195 29.3809 24.0312C29.3492 23.9862 29.0806 23.7619 28.9464 23.6501C28.9572 23.6368 29.1974 23.8244 29.5135 24.0929C29.561 24.1346 29.5919 24.1622 29.6119 24.1797C29.6461 24.168 29.6544 24.168 29.6486 24.173C29.6436 24.1772 29.6319 24.183 29.6502 24.1755C30.2332 23.9662 30.1356 23.9662 30.6235 23.8019C30.8195 23.7427 30.6402 23.8194 30.6852 23.8119C30.4342 23.9078 30.2949 23.9462 30.1239 24.0087L30.3366 23.937C30.2574 23.9695 30.0898 24.0337 29.9972 24.0638C30.1615 24.0146 30.9813 23.7077 31.4333 23.5525C31.5117 23.52 31.6484 23.4658 31.5817 23.4858L31.44 23.5392C31.3065 23.5784 31.7027 23.4299 31.5217 23.4917C31.7102 23.4166 31.9203 23.329 32.1905 23.2365L32.2456 23.2298C32.2389 23.2281 32.0679 23.2865 31.9937 23.3174C32.1038 23.2715 32.4107 23.1839 32.5275 23.123L32.3365 23.1831C32.5258 23.1072 32.7576 23.0088 32.997 22.9254C32.8844 22.9529 32.9428 22.9471 32.7685 22.9946C32.9211 22.9587 32.1597 23.2156 32.4015 23.1481C32.2222 23.1948 32.0988 23.2506 31.867 23.319C31.8753 23.3207 31.9503 23.2973 31.7494 23.3682C31.7402 23.3724 31.7193 23.3816 31.7068 23.3874C31.701 23.3891 31.6985 23.3899 31.6935 23.3924C31.6977 23.3907 31.701 23.3899 31.7043 23.3891C31.696 23.3924 31.6952 23.3932 31.7085 23.3874C31.7569 23.3716 31.7961 23.3599 31.8127 23.3565C31.7168 23.4016 31.3991 23.5167 31.294 23.5609C31.1748 23.6017 31.3415 23.5384 31.2757 23.5575L31.118 23.6226C31.0989 23.6193 30.7978 23.7227 31.0755 23.6159L30.8245 23.7068C30.6752 23.756 30.4709 23.8277 30.3466 23.877C30.2274 23.9178 30.0506 23.9954 30.1515 23.9512L29.7595 24.1005H29.7553C29.7103 24.1163 29.6644 24.133 29.6177 24.1497C29.4885 24.0379 29.3559 23.9228 29.2199 23.8044C29.0765 23.6785 28.9297 23.5475 28.7829 23.4074C28.677 23.3165 28.5677 23.2239 28.3951 23.0672L28.3668 23.0313C28.2308 22.9145 27.9706 22.6694 27.9072 22.6243C27.7771 22.48 27.2609 22.0455 27.0282 21.8337H27.0124C26.8506 21.6894 26.6938 21.5543 26.4895 21.3792L26.4953 21.3975C26.4052 21.3233 26.2985 21.2241 26.1709 21.1115C26.0358 20.9997 25.8365 20.933 25.6413 20.9597C25.6672 20.9514 25.7681 20.9464 25.8373 20.9614C25.7231 20.9389 25.5963 20.9497 25.4829 20.9914C25.377 21.0306 25.2694 21.069 25.1635 21.1082C24.9516 21.1874 24.7456 21.2649 24.5555 21.3233C24.4629 21.3592 24.3954 21.3817 24.3287 21.4025C24.337 21.3992 24.3453 21.3967 24.352 21.3942C24.3428 21.3975 24.3278 21.4025 24.3136 21.4076C24.2719 21.4209 24.2286 21.4342 24.1827 21.4484C24.2227 21.4359 24.2611 21.4251 24.2936 21.4151C24.2219 21.4409 24.1135 21.4809 24.0067 21.5193L23.9575 21.526C23.9492 21.5293 23.9417 21.5318 23.9325 21.5351C23.8266 21.5685 23.8499 21.5693 23.9083 21.5568C23.8558 21.5777 23.8074 21.5969 23.7691 21.6119C23.6782 21.6261 23.4897 21.7153 23.3679 21.7395C23.2987 21.7728 22.8317 21.9338 22.7808 21.9705C22.7766 21.9696 22.7441 21.9797 22.8025 21.9588C22.6824 21.9988 22.5623 22.0389 22.4572 22.0806L22.4022 22.0864L22.147 22.194C21.986 22.2424 21.9193 22.2607 22.0728 22.1965C21.6983 22.3433 21.7667 22.3099 21.4489 22.4367L21.4623 22.4233C21.3472 22.4642 21.1662 22.5393 21.0945 22.5568C21.0628 22.5668 21.0194 22.5801 20.9652 22.5968C20.9352 22.5634 20.901 22.5251 20.8635 22.4825C20.8201 22.435 20.7734 22.3825 20.7234 22.3266C20.6225 22.2157 20.5099 22.0914 20.3923 21.9621C20.1579 21.7044 19.9069 21.4276 19.7076 21.1991C19.781 21.3158 19.4958 20.9505 19.4632 20.943C19.4399 20.9088 19.3765 20.8346 19.4566 20.9155C19.2114 20.6545 19.1013 20.511 18.9228 20.3392C18.8995 20.305 18.9804 20.3901 18.9587 20.3609C18.9387 20.3409 18.8786 20.28 18.8561 20.25C18.8344 20.2208 18.8953 20.2859 18.9353 20.3259C18.6885 20.0557 18.6501 20.0407 18.6201 20.0323C18.5008 19.8897 18.4383 19.8222 18.3399 19.7304C18.3007 19.6787 18.2323 19.5953 18.3866 19.7621C18.3007 19.667 17.8662 19.1792 17.8478 19.1783C17.8236 19.1466 17.7286 19.0457 17.7044 19.0215C17.611 18.9131 17.5426 18.8598 17.4725 18.8214C17.4017 18.7839 17.3266 18.7488 17.1798 18.7363C17.2065 18.7397 17.234 18.7413 17.2599 18.7488C17.2015 18.7463 17.1423 18.7422 17.0672 18.7488C16.993 18.7555 16.9021 18.773 16.7995 18.8306L16.8045 18.8264C16.6853 18.8889 16.6302 18.9557 16.5952 18.9974C16.5602 19.0407 16.5468 19.0666 16.5327 19.0916C16.5193 19.1175 16.506 19.1425 16.4868 19.1933C16.4701 19.2442 16.4409 19.3226 16.4409 19.4569L16.4509 19.4277C16.4601 19.4519 16.4568 19.5703 16.5135 19.7096C16.541 19.778 16.5869 19.8497 16.6419 19.9114C16.6953 19.9723 16.7495 20.0332 16.8012 20.0865L16.7328 20.0031C16.8479 20.1182 17.018 20.3592 17.1256 20.4827C17.1481 20.5102 17.0856 20.4426 17.0506 20.4068C17.3299 20.732 17.0973 20.4393 17.3149 20.6728C17.3491 20.7212 17.2507 20.6286 17.3942 20.7887C17.4617 20.8721 17.8303 21.2341 18.018 21.4601C17.9788 21.4084 17.9396 21.3575 18.0421 21.4643C18.1964 21.6311 18.4408 21.9321 18.5917 22.0722C18.6101 22.0947 18.6168 22.1039 18.6159 22.1056C18.736 22.2307 19.0012 22.5184 19.0788 22.5893C19.1613 22.7311 19.8185 23.3766 19.7918 23.3949L20.1529 23.7885L20.1413 23.7802C20.1988 23.8428 20.2447 23.8978 20.2947 23.9412C20.3448 23.9829 20.3906 24.0121 20.4323 24.0321C20.5157 24.0729 20.5799 24.0846 20.6416 24.0921C20.7225 24.1055 20.6633 24.1005 20.6558 24.1013C20.7859 24.1221 20.8902 24.1046 20.9711 24.0796C21.0511 24.0538 21.1112 24.0312 21.1712 24.0104C21.2905 23.967 21.3997 23.9245 21.5949 23.8478L21.6391 23.8428C21.7442 23.7994 22.3254 23.6201 22.7833 23.4466C22.7791 23.4491 22.77 23.455 22.7341 23.4691C23.2495 23.2757 23.9884 23.0605 24.166 22.9587L24.5063 22.8303C24.0618 22.9829 24.5672 22.7919 24.382 22.8495C24.5555 22.7861 24.8374 22.7019 24.623 22.7794L24.5889 22.7894C24.5163 22.8353 25.1426 22.6026 25.1351 22.6201C25.2827 22.5684 25.4295 22.5176 25.5754 22.4667C26.1342 22.9662 26.6788 23.4533 27.2059 23.9245L27.1416 23.8469L27.3677 24.0479C27.4244 24.103 27.4394 24.1271 27.2784 23.9837C27.3176 24.0246 27.3868 24.0829 27.4469 24.1313C27.5069 24.1797 27.5578 24.2189 27.5611 24.2189C27.873 24.5033 27.426 24.123 27.5228 24.2089L27.6554 24.3248L27.627 24.2973C27.7379 24.3873 27.7513 24.3907 27.9456 24.5633C28.0665 24.6742 28.0023 24.6259 28.0507 24.6692C28.0507 24.6692 28.054 24.6734 28.0649 24.6834C28.0765 24.6934 28.0949 24.7093 28.1241 24.7351L28.4085 24.9886L28.3025 24.8786C28.4326 24.9861 28.5702 25.1162 28.4477 24.9895C28.4927 25.0362 28.5811 25.1187 28.6903 25.218C28.7454 25.2672 28.8054 25.3214 28.8671 25.3773C28.9314 25.4323 28.9897 25.4915 29.064 25.5457C29.2116 25.65 29.3959 25.6842 29.5368 25.6667C29.6077 25.6592 29.6686 25.6416 29.7145 25.625C29.7595 25.6091 29.7929 25.5983 29.8112 25.5916C30.0305 25.5024 30.2499 25.4223 30.5217 25.3247C30.4534 25.3472 30.4083 25.3489 30.6435 25.2655C30.5676 25.3231 31.0763 25.1204 31.2732 25.0704C31.0997 25.1196 31.9378 24.8243 31.666 24.9036C31.8619 24.8344 31.6818 24.9094 31.8319 24.861C32.2931 24.6817 32.8594 24.4941 33.434 24.2814C33.4415 24.2748 33.3431 24.3048 33.4648 24.2547L33.7751 24.1613C33.8877 24.118 33.8727 24.103 34.0845 24.0396C34.0545 24.0471 34.0086 24.0588 34.0845 24.0304C34.1445 24.0096 34.2037 23.9887 34.2646 23.9679C34.4623 24.1622 34.6608 24.3582 34.8609 24.5558C35.0669 24.7568 35.2746 24.9586 35.4814 25.1604C35.8959 25.5649 36.3104 25.9719 36.709 26.3847C36.5964 26.2646 36.6748 26.3405 36.7657 26.4289C36.7082 26.3705 36.7732 26.4239 36.7657 26.4089L37.1202 26.7758C37.1585 26.8034 37.2561 26.8993 37.3503 26.991C37.4462 27.0911 37.5722 27.1453 37.6005 27.147C37.548 27.1278 37.4979 27.1011 37.4512 27.0702C37.5505 27.1228 37.4838 27.0786 37.4137 27.0085C37.3478 26.9351 37.2694 26.8426 37.2878 26.8467C37.1035 26.6908 36.8533 26.3847 36.5539 26.127C36.4947 26.0628 36.6114 26.1746 36.5814 26.1387C36.5038 26.0745 36.4163 25.9919 36.2595 25.8326L36.2787 25.8485C35.8283 25.4098 35.6415 25.2155 35.1411 24.7176L35.172 24.761C35.0644 24.6542 35.0436 24.6292 34.9952 24.5775C34.8601 24.4666 35.2988 24.8761 35.1745 24.7768C35.1094 24.6992 34.9185 24.5116 34.7333 24.3298C34.6416 24.2389 34.5507 24.1488 34.4765 24.0754C34.4406 24.0379 34.4089 24.0054 34.3831 23.9787C34.358 23.9512 34.3414 23.9328 34.3188 23.9061C34.3047 23.892 34.2913 23.8795 34.2871 23.8753C34.2546 23.8878 34.2321 23.8961 34.2171 23.902C34.2037 23.907 34.2021 23.9086 34.1996 23.9103C34.1962 23.9128 34.2054 23.9103 34.2129 23.9103C34.2238 23.9078 34.2329 23.9061 34.2196 23.912C34.2079 23.917 34.1862 23.9253 34.1337 23.9445L34.0736 23.9595L34.0211 23.987C33.8768 24.0379 33.8018 24.0571 33.7943 24.0546C33.8293 24.0412 33.8927 24.0171 33.9302 24.0029C33.7409 24.0638 33.4048 24.1964 33.3406 24.218L33.5524 24.1447C32.9561 24.3682 32.2222 24.6267 31.6476 24.8494L31.6935 24.8377C31.2548 25.007 31.3382 24.962 30.8545 25.1421L30.872 25.1346C30.7769 25.1746 30.6477 25.2238 30.5151 25.2714C30.636 25.2213 30.2807 25.3456 30.4392 25.2814C29.9638 25.4648 30.2048 25.3748 29.8946 25.5057L29.8187 25.5249C29.7662 25.5474 29.737 25.5607 29.6928 25.5799C29.6486 25.5966 29.586 25.6225 29.4601 25.6241C29.5627 25.6183 29.5218 25.6158 29.486 25.615C29.4493 25.6099 29.4176 25.6116 29.5285 25.6016C29.4009 25.6099 29.29 25.5816 29.2016 25.5399C29.1115 25.499 29.0481 25.4415 28.9847 25.3873C28.8596 25.2805 28.7629 25.198 28.6778 25.1062C28.4777 24.9578 29.0206 25.4256 28.913 25.3364C28.9956 25.419 28.7487 25.2121 28.6236 25.0979C28.4944 24.9828 28.4218 24.8827 28.0965 24.595C28.1291 24.6234 28.1316 24.625 28.1641 24.6534C28.0457 24.5416 27.9206 24.4474 27.7771 24.3089C27.6846 24.2447 27.5837 24.1363 27.5486 24.128L27.8497 24.3898C27.6779 24.2431 27.5061 24.1171 27.2334 23.8636C27.2576 23.8803 27.3435 23.9503 27.4018 23.9995C27.3235 23.9237 27.2426 23.8628 27.1617 23.7844C27.1967 23.7936 27.5269 24.103 27.7163 24.2539C27.6337 24.1713 27.3652 23.9595 27.4686 24.0262C27.3226 23.927 27.15 23.7402 26.9181 23.5584L26.939 23.5642C26.9031 23.5342 26.8281 23.4741 26.7639 23.4166L26.8881 23.51C26.7021 23.3599 26.5504 23.1981 26.3752 23.0513C26.7338 23.3682 26.4478 23.1314 26.5946 23.2707C26.1442 22.8895 26.3577 23.0263 25.8598 22.5918C25.9274 22.6502 26.1075 22.8186 25.9999 22.7294C25.9074 22.6443 25.7856 22.5317 25.7306 22.4767C25.6688 22.4233 25.6272 22.3866 25.6021 22.365C25.4704 22.4125 25.5346 22.3925 25.6005 22.3725C25.6272 22.3983 25.6622 22.4308 25.663 22.4333C25.6663 22.4383 25.6697 22.4433 25.618 22.3991C25.6113 22.3925 25.6046 22.3858 25.5988 22.38C25.5729 22.3883 25.5496 22.3958 25.5271 22.4025C25.5121 22.4075 25.4987 22.4125 25.4854 22.4167C25.4587 22.4267 25.4328 22.4367 25.407 22.4475C25.3544 22.4692 25.2961 22.4951 25.2093 22.5267L25.2043 22.5176C24.7315 22.676 25.0867 22.581 24.6597 22.7219L24.834 22.646L24.6139 22.7269L24.6556 22.7002C24.4179 22.7928 24.342 22.8161 24.106 22.8962C24.1627 22.8837 24.081 22.9246 23.8725 22.9971C23.7282 23.0413 23.9492 22.9604 23.654 23.0647C23.719 23.0355 23.7891 23.0021 23.9208 22.9662C23.9325 22.9587 23.9842 22.9371 23.9967 22.9296C23.8416 22.9771 23.6114 23.063 23.5039 23.1005C23.5455 23.0863 23.5948 23.0697 23.6206 23.0622L23.1969 23.2256C23.1286 23.2456 23.1811 23.2239 23.2328 23.2031C23.1461 23.2348 23.0877 23.2598 22.9601 23.3057C22.9901 23.2865 22.9801 23.2815 23.1594 23.2139L22.7541 23.3657C22.7258 23.3716 22.5414 23.4299 22.5932 23.4083C22.3655 23.4833 22.0427 23.6176 21.7408 23.7168C21.7258 23.7235 21.695 23.736 21.6316 23.7594C21.4898 23.8069 21.3564 23.8519 21.2163 23.8995C21.1462 23.9237 21.0753 23.9487 21.0003 23.9745C20.926 24.002 20.8576 24.0221 20.7743 24.0254C20.7125 24.0212 20.6525 24.0087 20.5958 23.987C20.5357 23.9695 20.5216 23.962 20.5249 23.9662C20.5282 23.9704 20.5516 23.9812 20.5699 23.9912C20.5891 23.9995 20.6033 24.0062 20.5866 24.0037C20.5708 24.0004 20.5207 23.9929 20.4282 23.937C20.3639 23.8961 20.3314 23.8628 20.3139 23.8436C20.2964 23.8244 20.2914 23.8152 20.2914 23.8127C20.2914 23.8069 20.3106 23.8202 20.2739 23.776C20.1588 23.661 19.957 23.4616 19.7643 23.2315C19.8335 23.3032 19.8844 23.3624 19.9478 23.4299L19.9428 23.4241ZM17.6335 20.8988C17.6794 20.9464 17.7736 21.0398 17.802 21.0798C17.7428 21.0314 17.7077 20.9847 17.6335 20.8988ZM18.7444 20.2366C18.7085 20.2025 18.6585 20.1449 18.6034 20.079C18.6459 20.1249 18.6935 20.1774 18.7444 20.2366ZM30.6327 23.781C30.6327 23.781 30.6285 23.7827 30.626 23.7835C30.4859 23.8302 30.5359 23.8136 30.6327 23.781ZM30.9221 23.6801C30.9504 23.6685 30.9479 23.6676 30.9354 23.671C30.9162 23.681 30.8512 23.7043 30.7778 23.731C30.7995 23.726 30.837 23.7143 30.9229 23.681L30.9221 23.6801ZM28.0757 24.6876L28.0323 24.6459C28.1349 24.7334 28.1049 24.7101 28.0757 24.6876Z" fill="#444444"/>
<path d="M18.3375 19.8098C18.3259 19.7948 18.3242 19.7898 18.3225 19.7848C18.3033 19.7665 18.3017 19.7673 18.3375 19.8098Z" fill="#444444"/>
<path d="M21.7256 23.7134L21.7356 23.7101C21.7406 23.7076 21.7431 23.7059 21.7448 23.7051L21.7256 23.7134Z" fill="#444444"/>
<path d="M27.0793 22.0226C27.0326 21.9792 27.0076 21.955 26.9917 21.9375C26.9876 21.9375 27.0076 21.9575 27.0793 22.0226Z" fill="#444444"/>
<path d="M32.4455 23.1074L32.2612 23.1775C32.3505 23.1441 32.383 23.1349 32.4289 23.1199C32.4239 23.1199 32.3872 23.1291 32.4455 23.1074Z" fill="#444444"/>
<path d="M34.0711 22.5822C34.0986 22.5722 34.1278 22.5605 34.1545 22.5505L34.1453 22.5488C34.0302 22.5914 33.951 22.6239 34.0711 22.5822Z" fill="#444444"/>
<path d="M32.6284 23.0772C32.6459 23.0797 32.761 23.0347 32.8895 22.9863C32.8819 22.9888 32.8744 22.9922 32.8669 22.9947C32.9011 22.9696 32.7644 23.0239 32.6284 23.0772Z" fill="#444444"/>
<path d="M32.9194 22.9741C32.9595 22.9591 33.0003 22.9449 33.0387 22.9299C33.052 22.9199 32.9895 22.9466 32.9194 22.9741Z" fill="#444444"/>
<path d="M31.2864 23.5415C31.3481 23.5215 31.3215 23.5173 31.3573 23.5082C31.4224 23.4731 30.9528 23.6691 31.2864 23.5415Z" fill="#444444"/>
<path d="M32.7427 23.0645L32.6926 23.0711L32.6226 23.1053L32.7427 23.0645Z" fill="#444444"/>
<path d="M31.7175 23.4299L31.9251 23.3573C31.9251 23.3573 31.9476 23.3465 31.9793 23.334C31.8517 23.3799 31.7116 23.4291 31.7175 23.4299Z" fill="#444444"/>
<path d="M31.9795 23.334C32.0462 23.3098 32.1088 23.2865 32.1455 23.2715C32.1096 23.2848 32.0329 23.314 31.9795 23.334Z" fill="#444444"/>
<path d="M32.4609 23.1699L32.3992 23.1899L32.2524 23.2425L32.4609 23.1699Z" fill="#444444"/>
<path d="M29.5251 24.122L29.3433 23.9653C29.3225 23.9519 29.37 23.9969 29.4384 24.0553C29.4834 24.0912 29.551 24.1496 29.5251 24.1229V24.122Z" fill="#444444"/>
<path d="M30.1856 24.0156C30.1239 24.0356 30.1189 24.0348 30.0831 24.0448L30.0806 24.0598L30.1856 24.0165V24.0156Z" fill="#444444"/>
<path d="M29.5236 24.1618C29.5036 24.1485 29.2559 23.9383 29.4844 24.1393C29.4952 24.1443 29.7146 24.3344 29.5236 24.1618Z" fill="#444444"/>
<path d="M26.8237 21.75L26.8696 21.7909L26.8771 21.7692L26.8237 21.75Z" fill="#444444"/>
<path d="M24.0107 21.6203C24.2809 21.5311 24.0699 21.5853 24.3151 21.5069C24.3768 21.4802 24.115 21.5711 24.1784 21.5444C24.0182 21.6062 23.9315 21.6328 24.0107 21.6203Z" fill="#444444"/>
<path d="M24.1777 21.5454C24.2036 21.5354 24.2303 21.5245 24.2595 21.5137C24.2136 21.532 24.1911 21.5404 24.1777 21.5454Z" fill="#444444"/>
<path d="M37.3529 27.0195C37.3996 27.0662 37.453 27.1054 37.5105 27.138C37.4738 27.1163 37.4396 27.0913 37.4071 27.0629C37.3879 27.0496 37.3696 27.0354 37.3521 27.0195H37.3529Z" fill="#444444"/>
<path d="M37.6855 27.1816C37.6997 27.1891 37.7131 27.1967 37.7281 27.2042C37.7673 27.2067 37.8065 27.2058 37.8457 27.2017C37.8023 27.2033 37.7172 27.1942 37.6855 27.1816Z" fill="#444444"/>
<path d="M17.3115 20.5044L17.2998 20.4961C17.3165 20.5194 17.3448 20.5511 17.4024 20.6154L17.3115 20.5044Z" fill="#444444"/>
<path d="M18.9761 22.3481L18.9478 22.3164L18.992 22.384L18.9761 22.3481Z" fill="#444444"/>
<path d="M20.3881 23.8648C20.3331 23.8206 20.2664 23.7422 20.208 23.6797C20.2706 23.7464 20.3198 23.8073 20.3464 23.8356C20.3765 23.8657 20.3915 23.8773 20.3881 23.8648Z" fill="#444444"/>
<path d="M37.2026 30.546C37.0342 30.546 36.8657 30.4826 36.7356 30.3559L33.6257 27.3102L29.0472 28.9781C28.817 29.0615 28.5593 29.0132 28.3767 28.8505L24.9399 25.8065L20.3363 27.4178C20.0836 27.5062 19.8026 27.4353 19.6224 27.2376L15.9988 23.2587C15.7503 22.986 15.7703 22.564 16.043 22.3164C16.3157 22.0687 16.7377 22.0878 16.9854 22.3606L20.3121 26.0134L24.869 24.4188C25.0975 24.3387 25.351 24.3888 25.532 24.5489L28.9646 27.5896L33.5648 25.9141C33.8058 25.8266 34.0769 25.8849 34.2604 26.0642L37.6705 29.4035C37.934 29.6612 37.9382 30.084 37.6805 30.3467C37.5496 30.4801 37.3769 30.5468 37.2035 30.5468L37.2026 30.546Z" fill="#444444"/>
<path d="M37.2719 30.5926C37.1843 30.5976 37.216 30.6026 37.2026 30.6051C37.2769 30.6026 37.2927 30.5951 37.291 30.5935C37.2894 30.591 37.2702 30.5918 37.2719 30.5926Z" fill="#444444"/>
<path d="M37.7989 29.5173L37.8147 29.5374C37.7789 29.4773 37.7313 29.4256 37.6821 29.3789C37.7247 29.4206 37.7672 29.4656 37.7989 29.5173Z" fill="#444444"/>
<path d="M36.9116 28.6152C36.9858 28.7095 37.2394 28.933 37.3962 29.0931L37.4203 29.1215L37.5012 29.184C37.3053 28.9947 37.0467 28.7528 36.9125 28.6152H36.9116Z" fill="#444444"/>
<path d="M36.4535 28.124C36.4794 28.1574 36.346 28.0256 36.5645 28.2349C36.5545 28.2241 36.5511 28.2208 36.5453 28.2141C36.5261 28.1949 36.4994 28.1691 36.4535 28.124Z" fill="#444444"/>
<path d="M36.5454 28.2132C36.487 28.149 36.6405 28.3058 36.5454 28.2132V28.2132Z" fill="#444444"/>
<path d="M36.1051 27.7871L36.2335 27.9055C36.2101 27.8772 36.0992 27.7679 36.1426 27.8071C36.0125 27.6837 36.0367 27.7121 36.1051 27.7871Z" fill="#444444"/>
<path d="M35.979 27.6797L36.0449 27.7414C36.0349 27.7289 36.0182 27.7122 35.979 27.6797Z" fill="#444444"/>
<path d="M36.186 27.8712L36.0459 27.7402C36.0626 27.7594 36.0609 27.7653 36.1101 27.8003C36.0959 27.7928 36.126 27.8161 36.186 27.8712Z" fill="#444444"/>
<path d="M36.2617 27.9492C36.3293 28.0201 36.4185 28.1102 36.2892 27.9909C36.5294 28.2236 36.5019 28.1811 36.2617 27.9492Z" fill="#444444"/>
<path d="M36.855 28.582L36.9459 28.6771L37.0301 28.753C36.9876 28.7155 36.8525 28.5737 36.855 28.5829V28.582Z" fill="#444444"/>
<path d="M35.3339 27.0199C35.3239 27.0149 35.3698 27.0666 35.3765 27.0791L35.4715 27.1667C35.4257 27.1191 35.3373 27.029 35.3339 27.0199Z" fill="#444444"/>
<path d="M35.3762 27.0802L35.2344 26.9492C35.357 27.0701 35.3812 27.0902 35.3762 27.0802Z" fill="#444444"/>
<path d="M35.9461 27.6695L36.1804 27.883L35.9019 27.627L35.9461 27.6695Z" fill="#444444"/>
<path d="M34.8074 26.5048L34.8899 26.5757L34.7432 26.4473L34.8074 26.5048Z" fill="#444444"/>
<path d="M34.4571 26.1628C34.5188 26.2154 34.3854 26.0778 34.4487 26.1353C34.4012 26.0894 34.3562 26.0469 34.3128 26.0085C34.2653 25.9652 34.2152 25.931 34.166 25.9043C34.2177 25.9335 34.2694 25.9718 34.3153 26.0186C34.3578 26.0619 34.4045 26.1095 34.4571 26.1628Z" fill="#444444"/>
<path d="M33.9902 25.8359C34.0478 25.8509 34.1062 25.8718 34.1654 25.9035C34.1095 25.8726 34.0511 25.8493 33.9902 25.8359Z" fill="#444444"/>
<path d="M35 26.7181C34.9909 26.7064 34.9734 26.6822 34.8975 26.6055L34.9458 26.6647C34.9625 26.6805 34.9809 26.6997 35 26.7181Z" fill="#444444"/>
<path d="M34.9485 26.6656L34.9468 26.6639C34.8885 26.6064 34.8476 26.5663 34.8301 26.5488C34.8451 26.5638 34.881 26.5989 34.9485 26.6664V26.6656Z" fill="#444444"/>
<path d="M35.0143 26.7301C35.0093 26.7251 35.006 26.7218 35.001 26.7168C35.006 26.7226 35.0085 26.726 35.0143 26.7301Z" fill="#444444"/>
<path d="M35.5895 27.3099C35.5053 27.234 35.3327 27.0723 35.4903 27.2382C35.5528 27.2908 35.4619 27.1957 35.5895 27.3099Z" fill="#444444"/>
<path d="M35.0737 26.8047L35.2188 26.9498C35.218 26.9456 35.1938 26.9173 35.2355 26.9548L35.0737 26.8055V26.8047Z" fill="#444444"/>
<path d="M35 26.7363L35.0734 26.8039L35.02 26.7505L35 26.7363Z" fill="#444444"/>
<path d="M34.3096 26.0368C34.2421 25.9734 34.1545 25.91 34.0444 25.8691C34.1028 25.8917 34.1595 25.9233 34.2112 25.9609C34.2638 25.9984 34.3063 26.0443 34.3472 26.0835C34.3605 26.0926 34.4005 26.1243 34.3105 26.0368H34.3096Z" fill="#444444"/>
<path d="M34.6192 26.3434C34.615 26.3393 34.6092 26.3342 34.605 26.3301C34.6133 26.3393 34.62 26.3459 34.6192 26.3434Z" fill="#444444"/>
<path d="M32.9785 26.0711C32.9844 26.0695 32.9894 26.0686 32.9952 26.067L32.9985 26.0645L32.9785 26.072V26.0711Z" fill="#444444"/>
<path d="M34.3595 26.0984C34.4212 26.161 34.4604 26.1968 34.498 26.2302C34.4504 26.1843 34.4004 26.136 34.3462 26.0843C34.3403 26.0801 34.3387 26.0801 34.3587 26.0993L34.3595 26.0984Z" fill="#444444"/>
<path d="M33.6655 25.8251C33.7147 25.8176 33.7714 25.8151 33.8307 25.8201C33.7823 25.8126 33.6822 25.8176 33.6655 25.8251Z" fill="#444444"/>
<path d="M34.5858 26.3079C34.5858 26.3079 34.5917 26.3137 34.5958 26.317C34.5766 26.2954 34.5783 26.2987 34.5858 26.3079Z" fill="#444444"/>
<path d="M34.5856 26.308C34.5523 26.278 34.5256 26.2538 34.498 26.2305C34.5372 26.2672 34.5731 26.3014 34.6048 26.3305C34.5981 26.3222 34.5906 26.3139 34.5856 26.308Z" fill="#444444"/>
<path d="M32.6917 26.2369C32.7034 26.2236 32.9185 26.1377 33.1095 26.0768C33.2922 26.0034 33.1621 26.0218 32.9953 26.0668C32.9911 26.0726 32.9919 26.0751 32.8035 26.1494C32.8718 26.1294 33.2296 26.0051 33.0712 26.071C32.8201 26.1669 32.8635 26.1435 32.7392 26.1844C32.8468 26.156 32.4232 26.3153 32.484 26.3095L32.7034 26.2236C32.7084 26.2236 32.6292 26.2569 32.6917 26.2369Z" fill="#444444"/>
<path d="M33.3591 25.9374L33.4375 25.9082C33.3474 25.9391 33.2824 25.9599 33.1631 25.9966C33.0338 26.0475 33.008 26.0608 33.0005 26.0667L33.3866 25.9274L33.3599 25.9382L33.3591 25.9374Z" fill="#444444"/>
<path d="M33.8177 25.8242C33.7826 25.8259 33.7117 25.8334 33.6684 25.8459C33.6242 25.8576 33.6058 25.8659 33.6692 25.8576C33.7318 25.8459 33.7751 25.8459 33.806 25.845C33.8368 25.845 33.856 25.845 33.8719 25.8467C33.9035 25.8484 33.9236 25.8467 33.9986 25.8659C33.8985 25.8367 33.8527 25.8392 33.8402 25.8367C33.8268 25.8359 33.846 25.835 33.8677 25.8367C33.8902 25.8367 33.9161 25.8409 33.9177 25.84C33.9186 25.84 33.9136 25.8375 33.8985 25.8342C33.8835 25.8317 33.8593 25.8267 33.821 25.825C33.9044 25.8267 33.9786 25.8425 34.0445 25.8676C33.9736 25.8392 33.9002 25.8242 33.831 25.8184C33.8352 25.8184 33.8377 25.8184 33.841 25.8192H33.8427C33.861 25.8217 33.8669 25.8234 33.846 25.8209C33.8443 25.8209 33.8393 25.8209 33.8368 25.8209C33.8335 25.8217 33.826 25.8225 33.8177 25.8234C33.6951 25.8234 33.7985 25.8184 33.8368 25.8209C33.8385 25.8209 33.8418 25.8209 33.8418 25.82H33.8402C33.7693 25.8159 33.6976 25.8225 33.6292 25.84C33.5583 25.8576 33.4982 25.8842 33.4365 25.9068C33.4774 25.8934 33.5183 25.8767 33.5791 25.8567C33.64 25.8384 33.7176 25.82 33.8168 25.8242H33.8177Z" fill="#444444"/>
<path d="M35.327 27.1042C35.3187 27.095 35.3195 27.095 35.3195 27.0942C35.3003 27.0767 35.2928 27.0708 35.327 27.1042Z" fill="#444444"/>
<path d="M35.2145 26.9865C35.2362 27.0056 35.2554 27.0198 35.3221 27.0857C35.378 27.1441 35.3188 27.0882 35.3196 27.0932C35.3613 27.1307 35.4647 27.2266 35.3421 27.0999L35.3213 27.0815C35.2095 26.9681 35.0711 26.8172 35.0919 26.8355C35.1195 26.8739 35.1445 26.9064 35.2145 26.9865Z" fill="#444444"/>
<path d="M34.5671 26.3273L34.3286 26.0996L34.4429 26.2222L34.4404 26.213C34.573 26.3456 34.5479 26.3131 34.5671 26.3265V26.3273Z" fill="#444444"/>
<path d="M32.9421 26.0808L32.9805 26.0566L32.8062 26.1342L32.9421 26.0808Z" fill="#444444"/>
<path d="M32.54 26.2282L32.5525 26.2148L32.4482 26.2582L32.54 26.2282Z" fill="#444444"/>
<path d="M18.167 25.5664L18.2337 25.6365C18.202 25.6031 18.182 25.5823 18.167 25.5664Z" fill="#444444"/>
<path d="M17.6958 25.0491L17.6816 25.0391C17.705 25.0616 17.715 25.0699 17.6958 25.0491Z" fill="#444444"/>
<path d="M23.5371 24.8281C23.4012 24.8673 23.2486 24.9082 23.2678 24.9115L23.312 24.9057C23.4045 24.8715 23.4762 24.8473 23.5371 24.8281Z" fill="#444444"/>
<path d="M17.7759 23.2324C17.7842 23.2433 17.7926 23.2541 17.8017 23.2649C17.8268 23.2883 17.8509 23.31 17.8726 23.3292C17.8434 23.3 17.8109 23.2666 17.7767 23.2324H17.7759Z" fill="#444444"/>
<path d="M17.682 23.1839L17.561 23.043C17.5886 23.0755 17.6269 23.1205 17.682 23.1839Z" fill="#444444"/>
<path d="M21.1017 27.0869L21.2051 27.041C21.0383 27.0994 21.1134 27.0777 21.1017 27.0869Z" fill="#444444"/>
<path d="M28.5795 27.1817C28.4911 27.0983 28.4193 27.0333 28.356 26.9766C28.4619 27.0775 28.5453 27.1617 28.5795 27.1817Z" fill="#444444"/>
<path d="M17.9113 25.4264C17.9521 25.4689 17.9705 25.4864 17.9713 25.4839C17.9288 25.4397 17.9046 25.4156 17.9113 25.4264Z" fill="#444444"/>
<path d="M28.0923 26.7441C28.1081 26.7592 28.1231 26.7733 28.139 26.7883C28.2065 26.8459 28.2741 26.9043 28.355 26.9768C28.2766 26.9018 28.1857 26.8184 28.0923 26.7441Z" fill="#444444"/>
<path d="M33.2803 27.3798C33.2903 27.3765 33.3011 27.3731 33.3103 27.3698C33.3128 27.3673 33.2995 27.3723 33.2803 27.3798Z" fill="#444444"/>
<path d="M36.2369 29.9226C36.2086 29.895 36.1619 29.8492 36.1177 29.8066C36.1385 29.8283 36.1744 29.8625 36.2369 29.9226Z" fill="#444444"/>
<path d="M30.9214 26.8143C30.9347 26.8085 31.0065 26.7826 30.9214 26.8143V26.8143Z" fill="#444444"/>
<path d="M31.348 26.6973C31.3304 26.7048 31.3171 26.7114 31.3154 26.7139C31.3221 26.7089 31.3329 26.7039 31.348 26.6973Z" fill="#444444"/>
<path d="M27.3784 26.1847C27.3784 26.1847 27.3751 26.1814 27.3726 26.1797C27.3917 26.1989 27.3884 26.1955 27.3784 26.1847Z" fill="#444444"/>
<path d="M31.0505 26.7715C31.018 26.7823 30.9813 26.7948 30.9404 26.809C30.9579 26.8032 30.9921 26.7915 31.0505 26.7715Z" fill="#444444"/>
<path d="M31.0322 26.7729C31.0614 26.7629 31.0848 26.7545 31.1073 26.7462C31.1173 26.7412 31.1073 26.7437 31.0322 26.7729Z" fill="#444444"/>
<path d="M30.8018 26.8578C30.851 26.8403 30.896 26.8244 30.9402 26.8086C30.9235 26.8144 30.916 26.8161 30.9202 26.8144C30.8952 26.8236 30.8601 26.8369 30.8018 26.8578Z" fill="#444444"/>
<path d="M26.7515 27.375C26.7556 27.3792 26.7606 27.3842 26.7656 27.3883C26.8365 27.4459 26.8065 27.42 26.7515 27.375Z" fill="#444444"/>
<path d="M21.3387 25.6972C21.3387 25.6972 21.3441 25.6949 21.348 25.6934C21.3441 25.6949 21.3395 25.6964 21.3364 25.6972H21.3395H21.3387Z" fill="#444444"/>
<path d="M21.0337 25.8107C21.1613 25.754 21.2363 25.7298 21.3364 25.6973L21.2263 25.7081L21.0345 25.8107H21.0337Z" fill="#444444"/>
<path d="M19.2989 26.805L19.1504 26.6298C19.3464 26.825 19.4773 26.9759 19.3414 26.8091C19.2989 26.8041 18.7401 26.1528 18.6976 26.1486L18.6 26.0327C18.6292 26.0644 18.6342 26.0694 18.6634 26.1003C18.4757 25.8742 18.5016 25.9526 18.2497 25.6708C18.163 25.5715 18.1038 25.5015 18.1663 25.5648L17.9637 25.3522C17.907 25.2888 17.9245 25.3005 17.9812 25.3639L17.6776 25.0344L17.6801 25.0361C17.6343 24.9902 17.5317 24.8885 17.4816 24.8393C17.4083 24.7525 17.5225 24.8793 17.505 24.856L17.3332 24.6775C17.2707 24.5983 17.4141 24.745 17.5292 24.8726C17.3941 24.6825 17.3857 24.725 17.0613 24.3447L17.2214 24.5157C17.1314 24.3931 17.0046 24.2622 16.8336 24.0595C16.872 24.1096 17.1722 24.4682 16.9854 24.2738C16.9362 24.2163 16.8695 24.1421 16.7678 24.0378C16.7744 24.0303 16.6769 23.9269 16.5568 23.796H16.5751C16.4433 23.6567 16.4484 23.6726 16.3675 23.5933C16.2248 23.434 16.2023 23.3948 16.1748 23.3515C15.9455 23.0971 16.3216 23.5374 16.0472 23.2397C15.9571 23.1388 15.9071 23.0371 15.8838 22.9195C15.8604 22.8044 15.8646 22.6709 15.9313 22.525C16.0297 22.3665 15.9204 22.5559 15.958 22.5008C15.983 22.4533 16.0122 22.4057 16.0497 22.3649C16.0781 22.3365 16.0714 22.3482 16.0681 22.354C16.1189 22.3073 16.1198 22.3032 16.1289 22.294C16.1389 22.2856 16.1523 22.2631 16.254 22.2164C16.2782 22.1981 16.3933 22.1606 16.5343 22.1756C16.6769 22.1864 16.8303 22.2631 16.9321 22.3557C16.9771 22.4057 16.9029 22.339 16.9145 22.3565C17.1889 22.6343 17.1497 22.6009 17.3799 22.8302L17.5609 23.0421C17.4308 22.8844 17.6151 23.0696 17.776 23.2314C17.7302 23.1747 17.6918 23.1263 17.666 23.0938L17.917 23.359C17.9453 23.3932 17.917 23.369 17.8728 23.3281C17.8903 23.3456 17.907 23.3623 17.9203 23.3757C18.0045 23.4757 17.9537 23.4307 17.8845 23.3665C17.8569 23.3315 17.8286 23.2973 17.8019 23.2639C17.7352 23.203 17.6718 23.1463 17.6785 23.1655C17.696 23.1822 17.7277 23.2147 17.7619 23.2514C17.7443 23.2355 17.7327 23.2255 17.7393 23.2347C17.7469 23.2447 17.7744 23.2706 17.8169 23.3131L17.8619 23.3848L17.8795 23.3957L18.1939 23.7551C18.4349 23.9978 18.6509 24.2021 19.0203 24.5991C18.9219 24.5074 18.9878 24.5899 18.9736 24.5933C18.8844 24.4748 18.6867 24.2872 18.4999 24.077C18.5975 24.1863 18.5717 24.1663 18.545 24.1404L18.8911 24.5024C18.8761 24.5015 18.9569 24.5866 19.042 24.6858C18.9911 24.5983 19.3039 24.9527 19.4457 25.0986C19.449 25.1128 19.4106 25.0811 19.2447 24.8968C19.4181 25.1103 19.5015 25.142 19.6733 25.3505C19.6325 25.3055 19.6108 25.2805 19.5924 25.2654C19.6925 25.3664 19.9227 25.6257 19.8626 25.5698L19.8218 25.5248C19.9477 25.6632 20.1329 25.8659 20.3013 26.051C20.3789 26.0227 20.4539 25.996 20.524 25.971C20.5874 25.9476 20.6457 25.9259 20.6958 25.9068C20.7967 25.8684 20.8651 25.8409 20.8793 25.83C20.8834 25.83 20.8367 25.8676 20.815 25.8792L21.4739 25.5857C21.4188 25.6207 21.6607 25.5748 21.348 25.6933C21.4389 25.6632 21.5523 25.6266 21.7416 25.5548C21.679 25.574 21.5806 25.5882 21.664 25.5573C21.9017 25.4923 21.8283 25.5098 22.1185 25.4231C22.0251 25.4523 22.1202 25.3939 22.2662 25.343C22.2445 25.3547 22.2862 25.3613 22.2336 25.3822L22.5906 25.2329C22.5013 25.2688 22.5814 25.2571 22.6648 25.2354C22.6256 25.2446 22.98 25.1253 23.076 25.0895L22.92 25.1387C23.3328 24.9977 23.3153 24.9652 23.7239 24.8234C23.6764 24.8451 23.6114 24.8943 23.8207 24.8243C23.9116 24.7792 24.2227 24.6224 24.5804 24.4873L24.6522 24.4698L24.7898 24.4173C24.8348 24.4006 24.8807 24.3806 24.9315 24.3681C24.8848 24.3823 24.8248 24.4123 24.7531 24.4431C24.6805 24.4748 24.598 24.5107 24.5129 24.5482C24.3419 24.6224 24.1593 24.7008 24.0292 24.7534C24.1851 24.705 24.0751 24.7459 24.3052 24.665C24.3886 24.6425 24.1826 24.7184 24.1151 24.7425L24.653 24.5582C24.6388 24.5557 24.7406 24.5165 24.8423 24.4773C24.9416 24.4331 25.0408 24.424 25.0308 24.419C24.9824 24.4248 24.9349 24.4356 24.889 24.4523L24.7447 24.5065L24.4553 24.6158C24.4412 24.6133 24.5221 24.5741 24.6547 24.5199C24.7873 24.4715 24.9666 24.3681 25.1676 24.3989C25.2168 24.409 25.1967 24.4123 25.1676 24.414C25.1375 24.4165 25.0975 24.4215 25.1008 24.424C25.125 24.4206 25.2159 24.4248 25.3002 24.4548C25.3852 24.4823 25.4561 24.534 25.4686 24.5466C25.4244 24.5157 25.3761 24.4915 25.326 24.4732C25.4236 24.5165 25.487 24.5657 25.5637 24.6308C25.6388 24.6925 25.718 24.7584 25.8139 24.8535C25.8831 24.916 26.0099 25.0511 26.0274 25.0553C25.9248 24.9427 25.9348 24.886 26.019 24.9444C26.0424 24.9669 26.3743 25.2796 26.4485 25.3563C26.5553 25.4673 26.2567 25.2262 26.3468 25.3205C26.3535 25.3213 26.4202 25.3739 26.4477 25.3964C26.5186 25.4639 26.4093 25.378 26.5695 25.5181C26.6053 25.5306 26.8922 25.805 26.6529 25.5757C26.8113 25.7099 26.8163 25.7241 26.999 25.8851C26.9473 25.8267 27.1833 26.0068 27.3417 26.1419C27.3301 26.1361 27.3617 26.1711 27.3776 26.1878C27.6937 26.4722 27.8646 26.6257 28.159 26.8909C28.184 26.9175 28.325 27.0476 28.2599 26.9984C28.3041 27.0343 28.3467 27.066 28.4384 27.1469C28.6077 27.3128 28.2324 26.9676 28.3583 27.0985C28.375 27.1027 28.6027 27.3003 28.737 27.4121C28.7053 27.3671 28.4367 27.1427 28.3025 27.031C28.3133 27.0176 28.5535 27.2053 28.8696 27.4738C28.9171 27.5155 28.948 27.543 28.968 27.5605C29.0022 27.5489 29.0105 27.5489 29.0047 27.5539C28.9997 27.558 28.988 27.5639 29.0063 27.5564C29.5893 27.347 29.4917 27.347 29.9796 27.1828C30.1756 27.1235 29.9963 27.2003 30.0413 27.1928C29.7903 27.2887 29.651 27.327 29.48 27.3896L29.6927 27.3179C29.6135 27.3504 29.4459 27.4146 29.3533 27.4446C29.5176 27.3954 30.3374 27.0885 30.7894 26.9334C30.8678 26.9009 31.0045 26.8467 30.9378 26.8667L30.7961 26.92C30.6626 26.9592 31.0588 26.8108 30.8778 26.8725C31.0663 26.7975 31.2764 26.7099 31.5466 26.6173L31.6017 26.6106C31.595 26.609 31.424 26.6674 31.3498 26.6982C31.4599 26.6523 31.7668 26.5648 31.8836 26.5039L31.6926 26.5639C31.8819 26.488 32.1137 26.3896 32.3531 26.3062C32.2405 26.3338 32.2989 26.3279 32.1246 26.3755C32.2772 26.3396 31.5158 26.5965 31.7576 26.5289C31.5783 26.5756 31.4549 26.6315 31.2231 26.6999C31.2314 26.7015 31.3064 26.6782 31.1055 26.7491C31.0963 26.7533 31.0754 26.7624 31.0629 26.7683C31.0571 26.7699 31.0546 26.7708 31.0496 26.7733C31.0538 26.7716 31.0571 26.7708 31.0604 26.7699C31.0521 26.7733 31.0513 26.7741 31.0646 26.7683C31.113 26.7524 31.1522 26.7407 31.1688 26.7374C31.0729 26.7824 30.7552 26.8984 30.6501 26.9417C30.5309 26.9826 30.6976 26.9192 30.6318 26.9384L30.4741 27.0034C30.455 27.0001 30.1539 27.1035 30.4316 26.9968L30.1806 27.0877C30.0313 27.1369 29.827 27.2086 29.7027 27.2578C29.5835 27.2987 29.4067 27.3762 29.5076 27.332L29.1156 27.4813H29.1114C29.0664 27.4972 29.0205 27.5138 28.9747 27.5305C28.8454 27.4188 28.7128 27.3037 28.5768 27.1853C28.4334 27.0593 28.2866 26.9284 28.1398 26.7883C28.0339 26.6974 27.9247 26.6048 27.752 26.448L27.7237 26.4122C27.5878 26.2954 27.3276 26.0502 27.2642 26.0052C27.1341 25.8609 26.6178 25.4264 26.3852 25.2146H26.3693C26.2075 25.0703 26.0507 24.9352 25.8464 24.7601L25.8523 24.7784C25.7622 24.7042 25.6554 24.6049 25.5278 24.4923C25.3927 24.3806 25.1934 24.3139 24.9983 24.3406C25.0241 24.3322 25.125 24.3272 25.1942 24.3422C25.08 24.3197 24.9532 24.3306 24.8398 24.3723C24.7339 24.4115 24.6263 24.4498 24.5204 24.489C24.3086 24.5682 24.1026 24.6458 23.9124 24.7042C23.8199 24.74 23.7523 24.7626 23.6856 24.7834C23.6939 24.7801 23.7023 24.7776 23.7089 24.7751C23.6998 24.7784 23.6848 24.7834 23.6706 24.7884C23.6289 24.8018 23.5855 24.8151 23.5396 24.8293C23.5797 24.8168 23.618 24.8059 23.6506 24.7959C23.5788 24.8218 23.4704 24.8618 23.3637 24.9002L23.3145 24.9068C23.3061 24.9102 23.2986 24.9127 23.2894 24.916C23.1835 24.9494 23.2069 24.9502 23.2653 24.9377C23.2127 24.9585 23.1644 24.9777 23.126 24.9927C23.0351 25.0069 22.8466 25.0961 22.7248 25.1203C22.6556 25.1537 22.1886 25.3146 22.1377 25.3513C22.1336 25.3505 22.101 25.3605 22.1594 25.3397C22.0393 25.3797 21.9192 25.4197 21.8141 25.4614L21.7591 25.4673L21.5039 25.5748C21.343 25.6232 21.2762 25.6416 21.4297 25.5773C21.0552 25.7241 21.1236 25.6908 20.8059 25.8175L20.8192 25.8042C20.7041 25.8451 20.5232 25.9201 20.4514 25.9376C20.4197 25.9476 20.3764 25.961 20.3222 25.9777C20.2921 25.9443 20.2579 25.9059 20.2204 25.8634C20.1771 25.8159 20.1304 25.7633 20.0803 25.7074C19.9794 25.5965 19.8668 25.4723 19.7492 25.343C19.5149 25.0853 19.2639 24.8084 19.0645 24.5799C19.1379 24.6967 18.8527 24.3314 18.8202 24.3239C18.7968 24.2897 18.7334 24.2155 18.8135 24.2964C18.5683 24.0353 18.4582 23.8919 18.2798 23.7201C18.2564 23.6859 18.3373 23.771 18.3156 23.7418C18.2956 23.7218 18.2356 23.6609 18.213 23.6309C18.1914 23.6017 18.2522 23.6667 18.2923 23.7067C18.0454 23.4365 18.0071 23.4215 17.977 23.4132C17.8578 23.2706 17.7952 23.203 17.6968 23.1113C17.6576 23.0596 17.5892 22.9762 17.7435 23.143C17.6576 23.0479 17.2231 22.56 17.2048 22.5592C17.1806 22.5275 17.0855 22.4266 17.0613 22.4024C16.9679 22.294 16.8995 22.2406 16.8295 22.2023C16.7586 22.1647 16.6835 22.1297 16.5368 22.1172C16.5634 22.1205 16.591 22.1222 16.6168 22.1297C16.5584 22.1272 16.4992 22.123 16.4242 22.1297C16.3499 22.1364 16.259 22.1539 16.1565 22.2114L16.1615 22.2073C16.0422 22.2698 15.9872 22.3365 15.9521 22.3782C15.9171 22.4216 15.9038 22.4474 15.8896 22.4725C15.8762 22.4983 15.8629 22.5233 15.8437 22.5742C15.827 22.6251 15.7979 22.7035 15.7979 22.8377L15.8079 22.8086C15.817 22.8327 15.8137 22.9512 15.8704 23.0904C15.8979 23.1588 15.9438 23.2305 15.9988 23.2923C16.0522 23.3531 16.1064 23.414 16.1581 23.4674L16.0897 23.384C16.2048 23.4991 16.375 23.7401 16.4825 23.8635C16.5051 23.8911 16.4425 23.8235 16.4075 23.7876C16.6869 24.1129 16.4542 23.8202 16.6719 24.0537C16.7061 24.102 16.6076 24.0095 16.7511 24.1696C16.8186 24.253 17.1873 24.6149 17.3749 24.8409C17.3357 24.7892 17.2965 24.7384 17.3991 24.8451C17.5534 25.0119 17.7977 25.313 17.9487 25.4531C17.967 25.4756 17.9737 25.4848 17.9729 25.4864C18.093 25.6115 18.3582 25.8993 18.4357 25.9702C18.5183 26.1119 19.1754 26.7574 19.1488 26.7758L19.5099 27.1694L19.4982 27.1611C19.5557 27.2236 19.6016 27.2787 19.6516 27.322C19.7017 27.3637 19.7476 27.3929 19.7893 27.4129C19.8727 27.4538 19.9369 27.4655 19.9986 27.473C20.0795 27.4863 20.0203 27.4813 20.0128 27.4821C20.1429 27.503 20.2471 27.4855 20.328 27.4605C20.4081 27.4346 20.4681 27.4121 20.5282 27.3912C20.6474 27.3479 20.7567 27.3053 20.9518 27.2286L20.996 27.2236C21.1011 27.1802 21.6824 27.0009 22.1402 26.8275C22.1361 26.83 22.1269 26.8358 22.091 26.85C22.6064 26.6565 23.3453 26.4413 23.523 26.3396L23.8632 26.2112C23.4187 26.3638 23.9241 26.1728 23.739 26.2304C23.9124 26.167 24.1943 26.0827 23.98 26.1603L23.9458 26.1703C23.8732 26.2162 24.4995 25.9835 24.492 26.001C24.6397 25.9493 24.7864 25.8984 24.9324 25.8476C25.4903 26.3471 26.0357 26.8341 26.5628 27.3053L26.4986 27.2278L26.7246 27.4288C26.7813 27.4838 26.7963 27.508 26.6354 27.3646C26.6746 27.4054 26.7438 27.4638 26.8038 27.5122C26.8639 27.5605 26.9147 27.5997 26.9181 27.5997C27.23 27.8841 26.783 27.5038 26.8797 27.5897L27.0123 27.7057L26.984 27.6781C27.0949 27.7682 27.1082 27.7715 27.3025 27.9442C27.4235 28.0551 27.3592 28.0067 27.4076 28.0501C27.4076 28.0501 27.411 28.0543 27.4218 28.0643C27.4335 28.0743 27.4518 28.0901 27.481 28.116L27.7654 28.3695L27.6595 28.2594C27.7896 28.367 27.9272 28.4971 27.8046 28.3703C27.8496 28.417 27.938 28.4996 28.0473 28.5988C28.1023 28.648 28.1624 28.7023 28.2241 28.7581C28.2883 28.8132 28.3467 28.8724 28.4209 28.9266C28.5685 29.0308 28.7528 29.065 28.8938 29.0475C28.9646 29.04 29.0255 29.0225 29.0714 29.0058C29.1164 28.99 29.1498 28.9791 29.1681 28.9725C29.3875 28.8832 29.6068 28.8032 29.8787 28.7056C29.8103 28.7281 29.7653 28.7298 30.0004 28.6464C29.9246 28.7039 30.4333 28.5013 30.6301 28.4512C30.4566 28.5004 31.2948 28.2052 31.0229 28.2844C31.2189 28.2152 31.0387 28.2903 31.1889 28.2419C31.65 28.0626 32.2163 27.8749 32.7909 27.6623C32.7984 27.6556 32.7 27.6856 32.8218 27.6356L33.132 27.5422C33.2446 27.4988 33.2296 27.4838 33.4414 27.4204C33.4114 27.4279 33.3655 27.4396 33.4414 27.4113C33.5015 27.3904 33.5607 27.3696 33.6216 27.3487C33.8192 27.543 34.0177 27.739 34.2179 27.9367C34.4238 28.1377 34.6315 28.3395 34.8383 28.5413C35.2528 28.9458 35.6673 29.3528 36.0659 29.7656C35.9534 29.6455 36.0317 29.7214 36.1227 29.8098C36.0651 29.7514 36.1302 29.8048 36.1227 29.7898L36.4771 30.1567C36.5155 30.1842 36.613 30.2801 36.7073 30.3719C36.8032 30.4719 36.9291 30.5262 36.9575 30.5278C36.9049 30.5086 36.8549 30.482 36.8082 30.4511C36.9074 30.5036 36.8407 30.4594 36.7707 30.3894C36.7048 30.316 36.6264 30.2234 36.6447 30.2276C36.4604 30.0716 36.2102 29.7656 35.9108 29.5079C35.8516 29.4437 35.9684 29.5554 35.9383 29.5195C35.8608 29.4553 35.7732 29.3728 35.6164 29.2135L35.6356 29.2293C35.1853 28.7907 34.9985 28.5963 34.4972 28.0985L34.5281 28.1418C34.4205 28.0351 34.3997 28.0101 34.3513 27.9583C34.2162 27.8474 34.6549 28.2569 34.5306 28.1577C34.4655 28.0801 34.2746 27.8925 34.0894 27.7107C33.9977 27.6198 33.9068 27.5297 33.8326 27.4563C33.7967 27.4188 33.765 27.3862 33.7392 27.3596C33.7141 27.332 33.6975 27.3137 33.6749 27.287C33.6608 27.2728 33.6474 27.2603 33.6432 27.2561C33.6107 27.2686 33.5882 27.277 33.5732 27.2828C33.5598 27.2878 33.5582 27.2895 33.5557 27.2912C33.5523 27.2937 33.5615 27.2912 33.569 27.2912C33.5799 27.2887 33.589 27.287 33.5757 27.2928C33.564 27.2978 33.5423 27.3062 33.4898 27.3254L33.4297 27.3404L33.3772 27.3679C33.2329 27.4188 33.1579 27.4379 33.1504 27.4354C33.1854 27.4221 33.2488 27.3979 33.2863 27.3837C33.097 27.4446 32.7609 27.5772 32.6967 27.5989L32.9085 27.5255C32.3122 27.749 31.5783 28.0076 31.0037 28.2302L31.0496 28.2185C30.6109 28.3878 30.6943 28.3428 30.2106 28.5229L30.2281 28.5154C30.133 28.5555 30.0038 28.6047 29.8712 28.6522C29.9921 28.6022 29.6368 28.7264 29.7953 28.6622C29.3199 28.8457 29.5609 28.7556 29.2507 28.8866L29.1748 28.9057C29.1223 28.9283 29.0931 28.9416 29.0489 28.9608C29.0047 28.9775 28.9421 29.0033 28.8162 29.005C28.9188 28.9991 28.8779 28.9966 28.8421 28.9958C28.8054 28.9908 28.7737 28.9925 28.8846 28.9825C28.757 28.9908 28.6461 28.9625 28.5577 28.9208C28.4676 28.8799 28.4042 28.8223 28.3408 28.7681C28.2157 28.6614 28.119 28.5788 28.0339 28.4871C27.8338 28.3386 28.3767 28.8065 28.2691 28.7173C28.3517 28.7998 28.1048 28.593 27.9797 28.4787C27.8505 28.3637 27.7779 28.2636 27.4527 27.9759C27.4852 28.0042 27.4877 28.0059 27.5202 28.0342C27.4018 27.9225 27.2767 27.8282 27.1332 27.6898C27.0407 27.6256 26.9398 27.5172 26.9047 27.5088L27.2058 27.7707C27.034 27.6239 26.8622 27.498 26.5895 27.2445C26.6137 27.2611 26.6996 27.3312 26.7579 27.3804C26.6796 27.3045 26.5987 27.2436 26.5178 27.1652C26.5528 27.1744 26.883 27.4838 27.0724 27.6348C26.9898 27.5522 26.7213 27.3404 26.8247 27.4071C26.6787 27.3078 26.5061 27.121 26.2742 26.9392L26.2951 26.9451C26.2592 26.915 26.1842 26.855 26.12 26.7975L26.2442 26.8909C26.0582 26.7407 25.9065 26.579 25.7313 26.4322C26.0899 26.7491 25.8039 26.5122 25.9507 26.6515C25.5003 26.2704 25.7138 26.4072 25.2159 25.9727C25.2835 26.031 25.4636 26.1995 25.356 26.1103C25.2635 26.0252 25.1417 25.9126 25.0867 25.8576C25.025 25.8042 24.9833 25.7675 24.9582 25.7458C24.8265 25.7933 24.8907 25.7733 24.9566 25.7533C24.9833 25.7792 25.0183 25.8117 25.0191 25.8142C25.0224 25.8192 25.0258 25.8242 24.9741 25.78C24.9674 25.7733 24.9607 25.7667 24.9549 25.7608C24.929 25.7692 24.9057 25.7767 24.8832 25.7833C24.8682 25.7883 24.8548 25.7933 24.8415 25.7975C24.8148 25.8075 24.7889 25.8175 24.7631 25.8284C24.7105 25.8501 24.6522 25.8759 24.5654 25.9076L24.5604 25.8984C24.0876 26.0569 24.4428 25.9618 24.0158 26.1028L24.1901 26.0269L23.97 26.1078L24.0117 26.0811C23.774 26.1736 23.6981 26.197 23.4621 26.2771C23.5188 26.2645 23.4371 26.3054 23.2286 26.378C23.0843 26.4222 23.3053 26.3413 23.0101 26.4455C23.0751 26.4163 23.1452 26.383 23.2769 26.3471C23.2886 26.3396 23.3403 26.3179 23.3528 26.3104C23.1977 26.3579 22.9675 26.4438 22.86 26.4814C22.9016 26.4672 22.9509 26.4505 22.9767 26.443L22.553 26.6065C22.4847 26.6265 22.5372 26.6048 22.5889 26.584C22.5022 26.6156 22.4438 26.6407 22.3162 26.6865C22.3462 26.6674 22.3362 26.6623 22.5155 26.5948L22.1102 26.7466C22.0819 26.7524 21.8975 26.8108 21.9493 26.7891C21.7216 26.8642 21.3988 26.9984 21.0969 27.0977C21.0819 27.1044 21.0511 27.1169 20.9877 27.1402C20.8459 27.1878 20.7125 27.2328 20.5724 27.2803C20.5023 27.3045 20.4314 27.3295 20.3564 27.3554C20.2821 27.3829 20.2137 27.4029 20.1304 27.4063C20.0686 27.4021 20.0086 27.3896 19.9519 27.3679C19.8918 27.3504 19.8777 27.3429 19.881 27.347C19.8843 27.3512 19.9077 27.3621 19.926 27.3721C19.9452 27.3804 19.9594 27.3871 19.9427 27.3846C19.9269 27.3812 19.8768 27.3737 19.7843 27.3179C19.72 27.277 19.6875 27.2436 19.67 27.2236C19.6525 27.2044 19.6475 27.1953 19.6475 27.1928C19.6475 27.1869 19.6667 27.2003 19.63 27.1561C19.5149 27.041 19.3131 26.8417 19.1204 26.6115C19.1896 26.6832 19.2405 26.7424 19.3039 26.81L19.2989 26.805ZM16.9904 24.2797C17.0363 24.3272 17.1305 24.4206 17.1589 24.4607C17.0997 24.4123 17.0647 24.3656 16.9904 24.2797ZM18.1013 23.6175C18.0654 23.5833 18.0154 23.5258 17.9603 23.4599C18.0029 23.5058 18.0504 23.5583 18.1013 23.6175ZM29.9888 27.1627C29.9888 27.1627 29.9846 27.1644 29.9821 27.1652C29.842 27.2119 29.892 27.1953 29.9888 27.1627ZM30.279 27.0618C30.3073 27.0501 30.3048 27.0493 30.2923 27.0527C30.2732 27.0627 30.2081 27.086 30.1347 27.1127C30.1564 27.1077 30.1939 27.096 30.2798 27.0627L30.279 27.0618ZM27.4326 28.0684L27.3893 28.0267C27.4918 28.1143 27.4618 28.0909 27.4326 28.0684Z" fill="#444444"/>
<path d="M17.6945 23.1907C17.6828 23.1757 17.6811 23.1707 17.6795 23.1657C17.6603 23.1473 17.6586 23.1482 17.6945 23.1907Z" fill="#444444"/>
<path d="M21.0825 27.0943L21.0925 27.0909C21.0975 27.0884 21.1 27.0868 21.1017 27.0859L21.0825 27.0943Z" fill="#444444"/>
<path d="M26.4353 25.4034C26.3886 25.3601 26.3635 25.3359 26.3477 25.3184C26.3435 25.3184 26.3635 25.3384 26.4353 25.4034Z" fill="#444444"/>
<path d="M31.802 26.4883L31.6177 26.5583C31.7069 26.525 31.7394 26.5158 31.7853 26.5008C31.7803 26.5008 31.7436 26.51 31.802 26.4883Z" fill="#444444"/>
<path d="M33.428 25.963C33.4555 25.953 33.4847 25.9414 33.5114 25.9314L33.5022 25.9297C33.3872 25.9722 33.3079 26.0047 33.428 25.963Z" fill="#444444"/>
<path d="M31.9844 26.4581C32.0019 26.4606 32.117 26.4156 32.2454 26.3672C32.2379 26.3697 32.2304 26.373 32.2229 26.3755C32.2571 26.3505 32.1203 26.4047 31.9844 26.4581Z" fill="#444444"/>
<path d="M32.2764 26.3549C32.3164 26.3399 32.3573 26.3258 32.3956 26.3107C32.409 26.3007 32.3464 26.3274 32.2764 26.3549Z" fill="#444444"/>
<path d="M30.6434 26.9224C30.7051 26.9024 30.6784 26.8982 30.7143 26.889C30.7793 26.854 30.3098 27.05 30.6434 26.9224Z" fill="#444444"/>
<path d="M32.0988 26.4453L32.0487 26.452L31.9795 26.487L32.0988 26.4453Z" fill="#444444"/>
<path d="M31.0739 26.8108L31.2816 26.7382C31.2816 26.7382 31.3041 26.7274 31.3358 26.7148C31.2082 26.7607 31.0681 26.8099 31.0739 26.8108Z" fill="#444444"/>
<path d="M31.3364 26.7149C31.4031 26.6907 31.4657 26.6674 31.5024 26.6523C31.4665 26.6657 31.3898 26.6949 31.3364 26.7149Z" fill="#444444"/>
<path d="M31.8179 26.5508L31.7553 26.5708L31.6094 26.6233L31.8179 26.5508Z" fill="#444444"/>
<path d="M28.8821 27.5029L28.7003 27.3461C28.6794 27.3328 28.727 27.3778 28.7953 27.4362C28.8404 27.472 28.9079 27.5304 28.8821 27.5037V27.5029Z" fill="#444444"/>
<path d="M29.5426 27.3965C29.4809 27.4165 29.4759 27.4157 29.44 27.4257L29.4375 27.4407L29.5426 27.3973V27.3965Z" fill="#444444"/>
<path d="M28.8805 27.5427C28.8605 27.5293 28.6128 27.3192 28.8413 27.5202C28.8522 27.5252 29.0715 27.7153 28.8805 27.5427Z" fill="#444444"/>
<path d="M26.1807 25.1309L26.2265 25.1717L26.234 25.15L26.1807 25.1309Z" fill="#444444"/>
<path d="M23.3672 25.0012C23.6374 24.912 23.4264 24.9662 23.6716 24.8878C23.7333 24.8611 23.4714 24.952 23.5348 24.9253C23.3747 24.987 23.2879 25.0137 23.3672 25.0012Z" fill="#444444"/>
<path d="M23.5347 24.9262C23.5605 24.9162 23.5872 24.9054 23.6164 24.8945C23.5705 24.9129 23.548 24.9212 23.5347 24.9262Z" fill="#444444"/>
<path d="M36.7098 30.4004C36.7565 30.4471 36.8099 30.4863 36.8674 30.5188C36.8307 30.4971 36.7966 30.4721 36.764 30.4438C36.7448 30.4304 36.7265 30.4162 36.709 30.4004H36.7098Z" fill="#444444"/>
<path d="M37.0425 30.5625C37.0567 30.57 37.07 30.5775 37.085 30.585C37.1242 30.5875 37.1634 30.5867 37.2026 30.5825C37.1592 30.5842 37.0742 30.575 37.0425 30.5625Z" fill="#444444"/>
<path d="M16.6679 23.8853L16.6562 23.877C16.6729 23.9003 16.7013 23.932 16.7588 23.9962L16.6679 23.8853Z" fill="#444444"/>
<path d="M18.3321 25.729L18.3037 25.6973L18.3487 25.7648L18.3321 25.729Z" fill="#444444"/>
<path d="M19.7441 27.2457C19.6891 27.2015 19.6223 27.1231 19.564 27.0605C19.6265 27.1273 19.6757 27.1881 19.7024 27.2165C19.7324 27.2465 19.7474 27.2582 19.7441 27.2457Z" fill="#444444"/>
</g>
</g>
<defs>
<clipPath id="clip0_1628_17527">
<rect width="29.8955" height="52" fill="white" transform="translate(14 3)"/>
</clipPath>
</defs>
</svg>
