<svg width="48" height="48" viewBox="0 0 48 48" fill="none" xmlns="http://www.w3.org/2000/svg">
<g clip-path="url(#clip0_1512_24664)">
<path d="M36.0274 37.4081C35.0682 35.2387 33.6156 33.2403 32.5232 31.8361C29.8696 28.4242 30.3431 27.6182 30.4855 23.0216C30.6279 18.425 31.9543 14.5859 31.9543 14.5859L14.1352 10.3203C14.4478 14.0732 13.8758 19.4265 11.7441 25.2687C14.4139 27.2926 18.4254 31.6952 14.6895 38.1671C15.1745 38.5913 15.6995 39.0378 16.2669 39.5135C19.1029 41.8915 22.079 44.4889 24.9874 46.1764C27.0074 37.5243 32.4732 36.8399 36.0259 37.4081H36.0274Z" fill="#D43728"/>
<path d="M11.745 25.2676C11.6157 25.6225 11.481 25.9797 11.3401 26.3376C9.103 32.0174 9.91285 33.9858 14.6911 38.166C18.4271 31.6948 14.4148 27.2914 11.7458 25.2676H11.745Z" fill="#B71C18"/>
<path d="M24.989 46.1754C28.4001 48.1539 31.718 48.8798 34.6087 46.5265C37.7604 43.9606 37.3993 40.5087 36.0275 37.4071C32.4748 36.8382 27.0083 37.5226 24.989 46.1754Z" fill="#B71C18"/>
<path d="M25.3294 1.97047C30.0222 2.5309 32.2401 2.23451 34.5434 2.76338C36.8467 3.29225 37.9421 4.12289 37.7158 6.72874C37.4895 9.33459 36.3563 12.6202 35.6388 15.4524C34.9214 18.2846 29.257 16.4339 25.5557 15.4524C21.8552 14.4708 13.0646 14.5417 12.1492 11.5247C11.3224 8.79341 12.9429 0.119811 15.5111 0.00664706C18.0792 -0.106517 19.3255 1.25299 25.3294 1.97047Z" fill="#FFF3F4"/>
<mask id="mask0_1512_24664" style="mask-type:luminance" maskUnits="userSpaceOnUse" x="11" y="10" width="26" height="37">
<path d="M36.0274 37.4081C35.0682 35.2387 33.6156 33.2403 32.5232 31.8361C29.8696 28.4242 30.3431 27.6182 30.4855 23.0216C30.6279 18.425 31.9543 14.5859 31.9543 14.5859L14.1352 10.3203C14.4478 14.0732 13.8758 19.4265 11.7441 25.2687C14.4139 27.2926 18.4254 31.6952 14.6895 38.1671C15.1745 38.5913 15.6995 39.0378 16.2669 39.5135C19.1029 41.8915 22.079 44.4889 24.9874 46.1764C27.0074 37.5243 32.4732 36.8399 36.0259 37.4081H36.0274Z" fill="white"/>
</mask>
<g mask="url(#mask0_1512_24664)">
<path d="M32.1614 22.3062C32.0059 22.3062 31.8504 22.2476 31.7303 22.1306L28.8597 19.3192L24.6333 20.8589C24.4209 20.9366 24.1838 20.8912 24.0144 20.7411L20.842 17.9312L16.5925 19.4185C16.3593 19.5001 16.0999 19.4347 15.9336 19.2523L12.5887 15.5794C12.3593 15.3277 12.3778 14.9382 12.6295 14.7095C12.8812 14.4801 13.2708 14.4986 13.4994 14.7503L16.5702 18.1222L20.7765 16.6503C20.9875 16.5764 21.2215 16.6225 21.3885 16.7704L24.5571 19.5771L28.8035 18.0306C29.0259 17.9497 29.2761 18.0036 29.4455 18.1691L32.5933 21.2515C32.8366 21.4894 32.8404 21.8797 32.6025 22.1222C32.4817 22.2453 32.3223 22.3069 32.1622 22.3069L32.1614 22.3062Z" fill="#EFD5D8"/>
<path d="M32.2253 22.3484C32.1444 22.353 32.1737 22.3577 32.1614 22.36C32.2299 22.3577 32.2445 22.3507 32.243 22.3492C32.2414 22.3469 32.2237 22.3477 32.2253 22.3484Z" fill="#F1D9DC"/>
<path d="M32.7125 21.3563L32.7271 21.3748C32.694 21.3194 32.6502 21.2716 32.6047 21.2285C32.644 21.267 32.6833 21.3086 32.7125 21.3563Z" fill="#F1D9DC"/>
<path d="M31.8926 20.5234C31.9611 20.6104 32.1951 20.8167 32.3398 20.9645L32.3622 20.9907L32.4368 21.0485C32.2559 20.8737 32.0173 20.6505 31.8933 20.5234H31.8926Z" fill="#F1D9DC"/>
<path d="M31.4708 20.0705C31.4947 20.1013 31.3715 19.9796 31.5732 20.1729C31.5639 20.1628 31.5609 20.1598 31.5555 20.1536C31.5378 20.1359 31.5131 20.112 31.4708 20.0705Z" fill="#F1D9DC"/>
<path d="M31.5546 20.1514C31.6424 20.2369 31.5007 20.0922 31.5546 20.1514Z" fill="#F1D9DC"/>
<path d="M31.1491 19.7587L31.2677 19.868C31.2461 19.8419 31.1437 19.741 31.1838 19.7772C31.0637 19.6633 31.086 19.6894 31.1491 19.7587Z" fill="#F1D9DC"/>
<path d="M31.0327 19.6602L31.0935 19.7171C31.0843 19.7056 31.0689 19.6902 31.0327 19.6602Z" fill="#F1D9DC"/>
<path d="M31.2238 19.8377L31.0945 19.7168C31.1099 19.7345 31.1083 19.7399 31.1538 19.7722C31.1407 19.7653 31.1684 19.7869 31.2238 19.8377Z" fill="#F1D9DC"/>
<path d="M31.2937 19.9082C31.3561 19.9736 31.4384 20.0568 31.3191 19.9467C31.5408 20.1615 31.5154 20.1222 31.2937 19.9082Z" fill="#F1D9DC"/>
<path d="M31.8404 20.4922L31.9243 20.5799L32.002 20.65C31.9628 20.6154 31.8381 20.4845 31.8404 20.493V20.4922Z" fill="#F1D9DC"/>
<path d="M30.4361 19.0511C30.4269 19.0465 30.4692 19.0942 30.4754 19.1058L30.5631 19.1866C30.5208 19.1427 30.4392 19.0596 30.4361 19.0511Z" fill="#F1D9DC"/>
<path d="M30.4754 19.1052L30.3445 18.9844C30.4576 19.096 30.48 19.1145 30.4754 19.1052Z" fill="#F1D9DC"/>
<path d="M31.0012 19.6506L31.2183 19.8477L30.9612 19.6113L31.0012 19.6506Z" fill="#F1D9DC"/>
<path d="M29.9504 18.5738L30.0273 18.64L29.8918 18.5215L29.9504 18.5738Z" fill="#F1D9DC"/>
<path d="M29.6271 18.2594C29.684 18.3079 29.5609 18.1808 29.6194 18.234C29.5755 18.1916 29.5339 18.1524 29.4939 18.1169C29.45 18.0769 29.4038 18.0453 29.3584 18.0215C29.4061 18.0484 29.4539 18.0838 29.4962 18.1269C29.5355 18.167 29.5786 18.2109 29.6271 18.2601V18.2594Z" fill="#F1D9DC"/>
<path d="M29.1968 17.959C29.2499 17.9728 29.3038 17.9921 29.3584 18.0213C29.3069 17.9929 29.253 17.9713 29.1968 17.959Z" fill="#F1D9DC"/>
<path d="M30.1291 18.7719C30.1206 18.7611 30.1045 18.7388 30.0344 18.668L30.0791 18.7226C30.0945 18.7373 30.1114 18.755 30.1291 18.7719Z" fill="#F1D9DC"/>
<path d="M30.0805 18.725L30.079 18.7234C30.0251 18.6703 29.9874 18.6334 29.9712 18.6172C29.985 18.631 30.0181 18.6634 30.0805 18.7257V18.725Z" fill="#F1D9DC"/>
<path d="M30.1412 18.7838C30.1366 18.7792 30.1335 18.7761 30.1289 18.7715C30.1335 18.7769 30.1358 18.78 30.1412 18.7838Z" fill="#F1D9DC"/>
<path d="M30.6732 19.3184C30.5954 19.2483 30.4361 19.099 30.5816 19.2522C30.6393 19.3007 30.5554 19.2129 30.6732 19.3184Z" fill="#F1D9DC"/>
<path d="M30.1968 18.8516L30.3307 18.9855C30.33 18.9817 30.3076 18.9555 30.3461 18.9901L30.1968 18.8523V18.8516Z" fill="#F1D9DC"/>
<path d="M30.1282 18.7891L30.1967 18.8514L30.1467 18.8021L30.1282 18.7891Z" fill="#F1D9DC"/>
<path d="M29.4916 18.143C29.4293 18.0845 29.3484 18.026 29.2468 17.9883C29.3007 18.0091 29.3531 18.0383 29.4008 18.073C29.4493 18.1076 29.4885 18.1499 29.5263 18.1861C29.5386 18.1946 29.5755 18.2238 29.4924 18.143H29.4916Z" fill="#F1D9DC"/>
<path d="M29.7772 18.4264C29.7734 18.4225 29.768 18.4179 29.7642 18.4141C29.7719 18.4225 29.778 18.4287 29.7772 18.4264Z" fill="#F1D9DC"/>
<path d="M28.2629 18.1762C28.2684 18.1746 28.2731 18.1738 28.2786 18.1723L28.2818 18.1699L28.2629 18.177V18.1762Z" fill="#F1D9DC"/>
<path d="M29.5369 18.2007C29.5939 18.2584 29.6301 18.2915 29.6647 18.3223C29.6208 18.28 29.5746 18.2353 29.5246 18.1876C29.5192 18.1838 29.5177 18.1838 29.5361 18.2015L29.5369 18.2007Z" fill="#F1D9DC"/>
<path d="M28.8965 17.9475C28.9419 17.9406 28.9943 17.9383 29.0489 17.9429C29.0043 17.936 28.9119 17.9406 28.8965 17.9475Z" fill="#F1D9DC"/>
<path d="M29.7456 18.3933C29.7456 18.3933 29.751 18.3987 29.7548 18.4017C29.7371 18.3817 29.7386 18.3848 29.7456 18.3933Z" fill="#F1D9DC"/>
<path d="M29.7456 18.3939C29.7148 18.3661 29.6902 18.3438 29.6648 18.3223C29.701 18.3561 29.7341 18.3877 29.7633 18.4146C29.7572 18.4069 29.7502 18.3992 29.7456 18.3939Z" fill="#F1D9DC"/>
<path d="M27.9983 18.3282C28.009 18.3159 28.2077 18.2366 28.3839 18.1804C28.5525 18.1127 28.4324 18.1296 28.2785 18.1712C28.2746 18.1766 28.2754 18.1789 28.1014 18.2474C28.1645 18.2289 28.4948 18.1142 28.3485 18.175C28.1168 18.2636 28.1568 18.242 28.0421 18.2797C28.1415 18.2536 27.7504 18.4006 27.8066 18.3952L28.009 18.3159C28.0137 18.3159 27.9405 18.3467 27.9983 18.3282Z" fill="#F1D9DC"/>
<path d="M28.6133 18.0504L28.6856 18.0234C28.6025 18.0519 28.5424 18.0712 28.4323 18.105C28.313 18.152 28.2892 18.1643 28.2822 18.1697L28.6387 18.0411L28.614 18.0512L28.6133 18.0504Z" fill="#F1D9DC"/>
<path d="M29.0366 17.9468C29.0043 17.9483 28.9389 17.9553 28.8988 17.9668C28.858 17.9776 28.8411 17.9853 28.8996 17.9776C28.9573 17.9668 28.9974 17.9668 29.0258 17.966C29.0543 17.966 29.072 17.966 29.0867 17.9676C29.1159 17.9691 29.1344 17.9676 29.2037 17.9853C29.1113 17.9583 29.069 17.9607 29.0574 17.9583C29.0451 17.9576 29.0628 17.9568 29.0828 17.9583C29.1036 17.9583 29.1275 17.9622 29.129 17.9614C29.129 17.9614 29.1252 17.9591 29.1113 17.956C29.0974 17.9537 29.0751 17.9491 29.0397 17.9476C29.1167 17.9491 29.1852 17.9645 29.246 17.9868C29.1806 17.9607 29.1128 17.9468 29.0489 17.9414C29.0528 17.9414 29.0551 17.9414 29.0582 17.9422H29.0597C29.0767 17.9445 29.082 17.946 29.0628 17.9437C29.0613 17.9437 29.0566 17.9437 29.0543 17.9437C29.0513 17.9445 29.0443 17.9453 29.0366 17.946C28.9235 17.946 29.0189 17.9414 29.0543 17.9437C29.0559 17.9437 29.0589 17.9437 29.0589 17.9429H29.0574C28.992 17.9391 28.9258 17.9453 28.8626 17.9607C28.7972 17.9768 28.7418 18.0015 28.6848 18.0222C28.7225 18.0099 28.7603 17.9945 28.8165 17.976C28.8727 17.9591 28.9442 17.9422 29.0366 17.946V17.9468Z" fill="#F1D9DC"/>
<path d="M30.4303 19.1281C30.4225 19.1195 30.4232 19.1195 30.4232 19.1187C30.4052 19.1023 30.3982 19.0968 30.4303 19.1281Z" fill="#F1D9DC"/>
<path d="M30.326 19.0197C30.3461 19.0374 30.3638 19.0504 30.4253 19.1113C30.4769 19.1651 30.4223 19.1136 30.423 19.1182C30.4615 19.1528 30.557 19.2414 30.4438 19.1243L30.4246 19.1074C30.3214 19.0027 30.1936 18.8634 30.2129 18.8803C30.2383 18.9157 30.2614 18.9457 30.326 19.0197Z" fill="#F1D9DC"/>
<path d="M29.7294 18.4113L29.5093 18.2012L29.6147 18.3143L29.6124 18.3059C29.7348 18.4283 29.7117 18.3982 29.7294 18.4106V18.4113Z" fill="#F1D9DC"/>
<path d="M28.229 18.1844L28.2637 18.1621L28.1028 18.2337L28.229 18.1844Z" fill="#F1D9DC"/>
<path d="M27.8582 18.3209L27.8689 18.3086L27.7727 18.3486L27.8582 18.3209Z" fill="#F1D9DC"/>
<path d="M14.5908 17.709L14.6524 17.7737C14.6232 17.7429 14.6047 17.7236 14.5908 17.709Z" fill="#F1D9DC"/>
<path d="M14.1562 17.2321L14.1428 17.2227C14.1648 17.2438 14.1742 17.2517 14.1562 17.2321Z" fill="#F1D9DC"/>
<path d="M19.5478 17.0273C19.4223 17.0635 19.2814 17.1012 19.2991 17.1043L19.3399 17.0989C19.4254 17.0674 19.4916 17.045 19.5478 17.0273Z" fill="#F1D9DC"/>
<path d="M14.23 15.5547C14.2377 15.5647 14.2454 15.5747 14.2538 15.5847C14.2769 15.6063 14.2993 15.6263 14.3193 15.644C14.2923 15.617 14.2623 15.5863 14.2308 15.5547H14.23Z" fill="#F1D9DC"/>
<path d="M14.1421 15.511L14.0305 15.3809C14.0559 15.4109 14.0913 15.4525 14.1421 15.511Z" fill="#F1D9DC"/>
<path d="M17.2992 19.1127L17.3946 19.0703C17.2407 19.1242 17.31 19.1042 17.2992 19.1127Z" fill="#F1D9DC"/>
<path d="M24.2014 19.1991C24.1198 19.1222 24.0536 19.0621 23.9951 19.0098C24.0929 19.1029 24.1699 19.1807 24.2014 19.1991Z" fill="#F1D9DC"/>
<path d="M14.3538 17.5805C14.3915 17.6198 14.4085 17.6359 14.4092 17.6336C14.37 17.5928 14.3476 17.5705 14.3538 17.5805Z" fill="#F1D9DC"/>
<path d="M23.7527 18.7949C23.7673 18.8088 23.7812 18.8219 23.7958 18.8357C23.8582 18.8888 23.9205 18.9427 23.9952 19.0097C23.9228 18.9404 23.8389 18.8634 23.7527 18.7949Z" fill="#F1D9DC"/>
<path d="M28.5408 19.3829C28.55 19.3798 28.56 19.3767 28.5685 19.3736C28.5708 19.3713 28.5585 19.376 28.5408 19.3829Z" fill="#F1D9DC"/>
<path d="M31.2707 21.7301C31.2446 21.7046 31.2014 21.6623 31.1606 21.623C31.1799 21.6431 31.213 21.6746 31.2707 21.7301Z" fill="#F1D9DC"/>
<path d="M26.363 18.8619C26.4416 18.8327 26.3754 18.8566 26.363 18.8619Z" fill="#F1D9DC"/>
<path d="M26.7571 18.752C26.7409 18.7589 26.7286 18.765 26.7271 18.7673C26.7332 18.7627 26.7432 18.7581 26.7571 18.752Z" fill="#F1D9DC"/>
<path d="M23.0928 18.28C23.0928 18.28 23.0897 18.2769 23.0874 18.2754C23.1051 18.2931 23.102 18.29 23.0928 18.28Z" fill="#F1D9DC"/>
<path d="M26.4832 18.8223C26.4532 18.8323 26.4193 18.8438 26.3816 18.8569C26.3978 18.8515 26.4293 18.8407 26.4832 18.8223Z" fill="#F1D9DC"/>
<path d="M26.4653 18.8234C26.4923 18.8142 26.5138 18.8065 26.5346 18.7988C26.5439 18.7941 26.5346 18.7965 26.4653 18.8234Z" fill="#F1D9DC"/>
<path d="M26.2537 18.9009C26.2991 18.8847 26.3407 18.8701 26.3815 18.8555C26.3661 18.8609 26.3591 18.8624 26.363 18.8609C26.3399 18.8693 26.3075 18.8816 26.2537 18.9009Z" fill="#F1D9DC"/>
<path d="M22.5146 19.3789C22.5186 19.3828 22.5233 19.3875 22.528 19.3915C22.5946 19.4455 22.5664 19.4212 22.5146 19.3789Z" fill="#F1D9DC"/>
<path d="M17.5177 17.83C17.5177 17.83 17.5231 17.8277 17.5269 17.8262C17.5231 17.8277 17.5185 17.8293 17.5154 17.83H17.5185H17.5177Z" fill="#F1D9DC"/>
<path d="M17.2361 17.9348C17.3539 17.8824 17.4232 17.8601 17.5155 17.8301L17.4139 17.8401L17.2369 17.9348H17.2361Z" fill="#F1D9DC"/>
<path d="M15.6356 18.8526L15.4985 18.6909C15.6794 18.871 15.8003 19.0104 15.6748 18.8564C15.6356 18.8518 15.1198 18.2506 15.0805 18.2467L14.9905 18.1397C15.0174 18.169 15.022 18.1736 15.049 18.2021C14.8757 17.9934 14.8996 18.0658 14.6671 17.8056C14.5871 17.714 14.5324 17.6493 14.5901 17.7078L14.4031 17.5115C14.3507 17.453 14.3669 17.4638 14.4192 17.5223L14.139 17.2182L14.1413 17.2198C14.099 17.1774 14.0043 17.0835 13.9581 17.0381C13.8904 16.958 13.9958 17.075 13.9797 17.0535L13.8211 16.8887C13.7634 16.8156 13.8958 16.9511 14.002 17.0689C13.8773 16.8934 13.8696 16.9326 13.5701 16.5816L13.7179 16.7394C13.6348 16.6262 13.5178 16.5054 13.36 16.3183C13.3954 16.3645 13.6725 16.6955 13.5001 16.5162C13.4547 16.463 13.3931 16.3945 13.2991 16.2983C13.3053 16.2914 13.2152 16.1959 13.1044 16.075H13.1213C12.9997 15.9465 13.0043 15.9611 12.9296 15.888C12.798 15.7409 12.7772 15.7048 12.7518 15.6647C12.5401 15.4299 12.8873 15.8364 12.634 15.5616C12.5509 15.4684 12.5047 15.3745 12.4831 15.266C12.4616 15.1597 12.4654 15.0366 12.527 14.9018C12.6179 14.7556 12.517 14.9303 12.5517 14.8795C12.5747 14.8356 12.6017 14.7917 12.6363 14.754C12.6625 14.7279 12.6563 14.7386 12.6533 14.744C12.7002 14.7009 12.701 14.6971 12.7095 14.6886C12.7187 14.6809 12.731 14.6601 12.8249 14.617C12.8473 14.6001 12.9535 14.5654 13.0836 14.5793C13.2152 14.5893 13.3569 14.6601 13.4508 14.7456C13.4924 14.7917 13.4239 14.7302 13.4346 14.7463C13.6879 15.0027 13.6517 14.9719 13.8642 15.1836L14.0313 15.3791C13.9112 15.2336 14.0813 15.4045 14.2299 15.5539C14.1875 15.5015 14.1521 15.4569 14.1282 15.4269L14.36 15.6717C14.3861 15.7032 14.36 15.6809 14.3192 15.6432C14.3353 15.6593 14.3507 15.6747 14.363 15.6871C14.4408 15.7794 14.3938 15.7379 14.3299 15.6786C14.3045 15.6463 14.2784 15.6147 14.2537 15.5839C14.1921 15.5277 14.1336 15.4754 14.1398 15.4931C14.156 15.5085 14.1852 15.5385 14.2168 15.5724C14.2006 15.5577 14.1898 15.5485 14.196 15.557C14.2029 15.5662 14.2283 15.5901 14.2676 15.6293L14.3092 15.6955L14.3253 15.7055L14.6155 16.0373C14.838 16.2613 15.0374 16.4499 15.3784 16.8164C15.2876 16.7317 15.3484 16.8079 15.3353 16.811C15.253 16.7017 15.0705 16.5285 14.8981 16.3345C14.9881 16.4353 14.9643 16.4168 14.9396 16.393L15.2591 16.7271C15.2453 16.7263 15.3199 16.8048 15.3985 16.8964C15.3515 16.8156 15.6402 17.1428 15.7711 17.2775C15.7741 17.2906 15.7387 17.2613 15.5855 17.0912C15.7456 17.2883 15.8226 17.3175 15.9812 17.51C15.9435 17.4684 15.9235 17.4453 15.9065 17.4315C15.9989 17.5246 16.2114 17.764 16.156 17.7125L16.1182 17.6709C16.2345 17.7987 16.4054 17.9857 16.5609 18.1566C16.6325 18.1305 16.7018 18.1058 16.7664 18.0827C16.8249 18.0612 16.8788 18.0412 16.925 18.0235C17.0182 17.9881 17.0821 17.9627 17.0944 17.9526C17.0982 17.9526 17.0551 17.9873 17.0351 17.9981L17.6433 17.7271C17.5925 17.7594 17.8157 17.7171 17.527 17.8264C17.6109 17.7987 17.7156 17.7648 17.8904 17.6986C17.8326 17.7163 17.7418 17.7294 17.8188 17.7009C18.0382 17.6409 17.9704 17.657 18.2383 17.577C18.1521 17.6039 18.2399 17.55 18.3746 17.5031C18.3546 17.5138 18.3931 17.52 18.3446 17.5392L18.6741 17.4014C18.5917 17.4346 18.6656 17.4238 18.7426 17.4038C18.7064 17.4122 19.0336 17.3021 19.1221 17.269L18.9781 17.3145C19.3592 17.1844 19.343 17.1543 19.7202 17.0235C19.6764 17.0435 19.6163 17.0889 19.8095 17.0242C19.8935 16.9827 20.1806 16.8379 20.5109 16.7132L20.5771 16.6971L20.7041 16.6486C20.7456 16.6332 20.788 16.6147 20.8349 16.6031C20.7918 16.6162 20.7364 16.6439 20.6702 16.6724C20.6032 16.7017 20.527 16.7348 20.4485 16.7694C20.2907 16.8379 20.1221 16.9103 20.002 16.9588C20.146 16.9142 20.0443 16.9519 20.2568 16.8772C20.3338 16.8564 20.1436 16.9265 20.0813 16.9488L20.5778 16.7787C20.5647 16.7764 20.6587 16.7402 20.7526 16.704C20.8442 16.6632 20.9358 16.6547 20.9266 16.6501C20.8819 16.6555 20.838 16.6655 20.7957 16.6809L20.6625 16.7309L20.3954 16.8318C20.3823 16.8295 20.457 16.7933 20.5794 16.7433C20.7018 16.6986 20.8673 16.6031 21.0528 16.6316C21.0982 16.6409 21.0798 16.6439 21.0528 16.6455C21.0251 16.6478 20.9881 16.6524 20.9912 16.6547C21.0135 16.6516 21.0975 16.6555 21.1752 16.6832C21.2537 16.7086 21.3192 16.7563 21.3307 16.7679C21.2899 16.7394 21.2453 16.7171 21.1991 16.7001C21.2891 16.7402 21.3476 16.7856 21.4185 16.8456C21.4878 16.9026 21.5609 16.9634 21.6494 17.0512C21.7133 17.1089 21.8303 17.2336 21.8465 17.2375C21.7518 17.1336 21.761 17.0812 21.8388 17.1351C21.8603 17.1559 22.1667 17.4446 22.2353 17.5154C22.3338 17.6178 22.0582 17.3953 22.1413 17.4823C22.1475 17.4831 22.2091 17.5315 22.2345 17.5523C22.2999 17.6147 22.1991 17.5354 22.3469 17.6647C22.38 17.6763 22.6448 17.9295 22.4239 17.7178C22.5701 17.8418 22.5747 17.8549 22.7433 18.0035C22.6956 17.9496 22.9135 18.1158 23.0597 18.2406C23.049 18.2352 23.0782 18.2675 23.0928 18.2829C23.3846 18.5454 23.5424 18.6871 23.8142 18.9319C23.8373 18.9565 23.9674 19.0766 23.9073 19.0312C23.9481 19.0643 23.9874 19.0935 24.0721 19.1682C24.2283 19.3214 23.8819 19.0027 23.9981 19.1235C24.0135 19.1274 24.2237 19.3098 24.3476 19.413C24.3184 19.3714 24.0705 19.1643 23.9466 19.0612C23.9566 19.0489 24.1783 19.2221 24.4701 19.47C24.5139 19.5085 24.5424 19.5339 24.5609 19.55C24.5925 19.5392 24.6001 19.5392 24.5948 19.5439C24.5901 19.5477 24.5794 19.5531 24.5963 19.5462C25.1344 19.353 25.0443 19.353 25.4947 19.2013C25.6756 19.1466 25.5101 19.2175 25.5517 19.2105C25.3199 19.2991 25.1914 19.3345 25.0336 19.3922L25.2299 19.326C25.1567 19.356 25.002 19.4153 24.9165 19.443C25.0682 19.3976 25.8249 19.1143 26.2422 18.9711C26.3145 18.9411 26.4408 18.8911 26.3792 18.9095L26.2483 18.9588C26.1252 18.995 26.4908 18.858 26.3238 18.9149C26.4978 18.8456 26.6918 18.7648 26.9412 18.6794L26.992 18.6732C26.9858 18.6717 26.828 18.7255 26.7595 18.754C26.8611 18.7117 27.1444 18.6309 27.2522 18.5747L27.0759 18.6301C27.2506 18.56 27.4647 18.4692 27.6856 18.3922C27.5817 18.4176 27.6356 18.4122 27.4747 18.4561C27.6155 18.423 26.9127 18.6601 27.1359 18.5978C26.9704 18.6409 26.8565 18.6924 26.6425 18.7556C26.6502 18.7571 26.7195 18.7356 26.5339 18.801C26.5255 18.8048 26.5062 18.8133 26.4947 18.8187C26.4893 18.8202 26.487 18.821 26.4824 18.8233C26.4862 18.8218 26.4893 18.821 26.4924 18.8202C26.4847 18.8233 26.4839 18.8241 26.4962 18.8187C26.5409 18.8041 26.5771 18.7933 26.5925 18.7902C26.5039 18.8318 26.2106 18.938 26.1136 18.9788C26.0035 19.0165 26.1575 18.958 26.0967 18.9757L25.9512 19.0358C25.9335 19.0327 25.6556 19.1282 25.9119 19.0296L25.6802 19.1135C25.5424 19.159 25.3538 19.2252 25.2391 19.2706C25.129 19.3083 24.9658 19.3799 25.059 19.3391L24.6971 19.4769H24.6933C24.6517 19.4915 24.6094 19.5069 24.5663 19.5223C24.447 19.4192 24.3246 19.3129 24.1991 19.2036C24.0667 19.0874 23.9312 18.9665 23.7957 18.8372C23.6979 18.7533 23.5971 18.6678 23.4377 18.5231L23.4115 18.49C23.2861 18.3822 23.0459 18.1559 22.9874 18.1143C22.8673 17.9811 22.3908 17.58 22.176 17.3845H22.1614C22.012 17.2513 21.8673 17.1266 21.6787 16.965L21.6841 16.9819C21.6009 16.9134 21.5024 16.8218 21.3846 16.7178C21.2599 16.6147 21.0759 16.5531 20.8958 16.5777C20.9196 16.57 21.0128 16.5654 21.0767 16.5793C20.9712 16.5585 20.8542 16.5685 20.7495 16.607C20.6517 16.6432 20.5524 16.6786 20.4547 16.7148C20.2591 16.7879 20.069 16.8595 19.8935 16.9134C19.808 16.9465 19.7456 16.9673 19.6841 16.9865C19.6918 16.9834 19.6995 16.9811 19.7056 16.9788C19.6971 16.9819 19.6833 16.9865 19.6702 16.9911C19.6317 17.0035 19.5917 17.0158 19.5493 17.0289C19.5863 17.0173 19.6217 17.0073 19.6517 16.9981C19.5855 17.0219 19.4854 17.0589 19.3869 17.0943L19.3415 17.1004C19.3338 17.1035 19.3269 17.1058 19.3184 17.1089C19.2206 17.1397 19.2422 17.1405 19.2961 17.1289C19.2476 17.1482 19.2029 17.1659 19.1675 17.1797C19.0836 17.1928 18.9096 17.2752 18.7972 17.2975C18.7333 17.3283 18.3022 17.4769 18.2553 17.5108C18.2514 17.51 18.2214 17.5192 18.2753 17.5C18.1644 17.5369 18.0536 17.5739 17.9566 17.6124L17.9058 17.6178L17.6702 17.7171C17.5216 17.7617 17.46 17.7787 17.6017 17.7194C17.256 17.8549 17.3192 17.8241 17.0259 17.9411L17.0382 17.9288C16.9319 17.9665 16.7649 18.0358 16.6987 18.052C16.6694 18.0612 16.6294 18.0735 16.5794 18.0889C16.5517 18.0581 16.5201 18.0227 16.4854 17.9834C16.4454 17.9396 16.4023 17.8911 16.3561 17.8395C16.263 17.7371 16.159 17.6224 16.0505 17.5031C15.8342 17.2652 15.6025 17.0096 15.4185 16.7987C15.4862 16.9065 15.2229 16.5693 15.1929 16.5623C15.1714 16.5308 15.1129 16.4623 15.1868 16.5369C14.9604 16.296 14.8588 16.1636 14.6941 16.005C14.6725 15.9734 14.7472 16.052 14.7272 16.025C14.7087 16.0065 14.6533 15.9503 14.6325 15.9226C14.6125 15.8957 14.6687 15.9557 14.7056 15.9927C14.4777 15.7433 14.4423 15.7294 14.4146 15.7217C14.3045 15.5901 14.2468 15.5277 14.156 15.443C14.1198 15.3953 14.0567 15.3183 14.1991 15.4723C14.1198 15.3845 13.7187 14.9342 13.7018 14.9334C13.6794 14.9041 13.5917 14.811 13.5694 14.7887C13.4831 14.6886 13.42 14.6393 13.3553 14.6039C13.2899 14.5693 13.2206 14.5369 13.0851 14.5254C13.1098 14.5285 13.1352 14.53 13.159 14.5369C13.1052 14.5346 13.0505 14.5308 12.9812 14.5369C12.9127 14.5431 12.8288 14.5593 12.7341 14.6124L12.7387 14.6085C12.6286 14.6663 12.5778 14.7279 12.5455 14.7663C12.5132 14.8064 12.5008 14.8302 12.4878 14.8533C12.4754 14.8772 12.4631 14.9003 12.4454 14.9473C12.43 14.9942 12.4031 15.0666 12.4031 15.1905L12.4123 15.1636C12.4208 15.1859 12.4177 15.2952 12.4701 15.4238C12.4955 15.4869 12.5378 15.5531 12.5886 15.6101C12.6379 15.6663 12.6879 15.7225 12.7356 15.7717L12.6725 15.6948C12.7787 15.801 12.9358 16.0235 13.0351 16.1374C13.0559 16.1628 12.9981 16.1004 12.9658 16.0673C13.2237 16.3676 13.0089 16.0974 13.2099 16.3129C13.2414 16.3576 13.1506 16.2721 13.283 16.4199C13.3453 16.4969 13.6856 16.831 13.8588 17.0396C13.8226 16.9919 13.7864 16.9449 13.8811 17.0435C14.0236 17.1974 14.2491 17.4754 14.3884 17.6047C14.4054 17.6255 14.4115 17.6339 14.4108 17.6355C14.5216 17.7509 14.7664 18.0165 14.838 18.082C14.9142 18.2128 15.5209 18.8087 15.4962 18.8256L15.8296 19.189L15.8188 19.1813C15.8719 19.239 15.9142 19.2898 15.9604 19.3299C16.0066 19.3683 16.049 19.3953 16.0874 19.4138C16.1644 19.4515 16.2237 19.4623 16.2807 19.4692C16.3553 19.4815 16.3007 19.4769 16.2938 19.4777C16.4139 19.4969 16.5101 19.4807 16.5848 19.4576C16.6587 19.4338 16.7141 19.413 16.7695 19.3938C16.8796 19.3537 16.9804 19.3145 17.1606 19.2436L17.2014 19.239C17.2984 19.199 17.8349 19.0335 18.2576 18.8734C18.2537 18.8757 18.2453 18.881 18.2122 18.8941C18.6879 18.7155 19.37 18.5169 19.5339 18.423L19.848 18.3045C19.4377 18.4453 19.9042 18.269 19.7333 18.3222C19.8935 18.2637 20.1537 18.1859 19.9558 18.2575L19.9242 18.2667C19.8573 18.3091 20.4354 18.0943 20.4285 18.1105C20.5647 18.0627 20.7002 18.0158 20.8349 17.9688C21.3507 18.4299 21.8534 18.8795 22.34 19.3145L22.2807 19.2429L22.4893 19.4284C22.5416 19.4792 22.5555 19.5015 22.4069 19.3691C22.4431 19.4068 22.507 19.4607 22.5624 19.5054C22.6179 19.55 22.6648 19.5862 22.6679 19.5862C22.9558 19.8487 22.5432 19.4977 22.6325 19.577L22.7549 19.684L22.7287 19.6586C22.8311 19.7417 22.8434 19.7448 23.0228 19.9041C23.1344 20.0065 23.0751 19.9619 23.1198 20.0019C23.1198 20.0019 23.1229 20.0058 23.1329 20.015C23.1436 20.0242 23.1606 20.0389 23.1875 20.0627L23.45 20.2968L23.3523 20.1951C23.4724 20.2944 23.5994 20.4145 23.4862 20.2975C23.5278 20.3406 23.6094 20.4168 23.7102 20.5085C23.761 20.5539 23.8165 20.6039 23.8734 20.6555C23.9327 20.7063 23.9866 20.761 24.0551 20.811C24.1914 20.9072 24.3615 20.9388 24.4916 20.9226C24.557 20.9157 24.6132 20.8995 24.6556 20.8841C24.6971 20.8695 24.7279 20.8595 24.7449 20.8533C24.9473 20.771 25.1498 20.6971 25.4008 20.607C25.3376 20.6278 25.2961 20.6293 25.5132 20.5523C25.4431 20.6055 25.9127 20.4184 26.0944 20.3722C25.9343 20.4176 26.7079 20.1451 26.457 20.2182C26.6379 20.1543 26.4716 20.2236 26.6102 20.179C27.0359 20.0135 27.5586 19.8402 28.089 19.6439C28.0959 19.6378 28.0051 19.6655 28.1175 19.6193L28.4038 19.5331C28.5078 19.4931 28.4939 19.4792 28.6894 19.4207C28.6617 19.4276 28.6194 19.4384 28.6894 19.4122C28.7449 19.393 28.7995 19.3737 28.8557 19.3545C29.0382 19.5339 29.2214 19.7148 29.4062 19.8972C29.5963 20.0827 29.788 20.269 29.9789 20.4553C30.3615 20.8287 30.7441 21.2044 31.1121 21.5854C31.0082 21.4746 31.0805 21.5446 31.1644 21.6262C31.1113 21.5724 31.1714 21.6216 31.1644 21.6078L31.4916 21.9465C31.527 21.9719 31.6171 22.0604 31.7041 22.1451C31.7926 22.2375 31.9088 22.2875 31.935 22.2891C31.8865 22.2713 31.8403 22.2467 31.7972 22.2182C31.8888 22.2667 31.8272 22.2259 31.7626 22.1613C31.7018 22.0935 31.6294 22.0081 31.6463 22.0119C31.4762 21.868 31.2453 21.5854 30.9689 21.3476C30.9142 21.2883 31.022 21.3914 30.9943 21.3583C30.9227 21.2991 30.8419 21.2228 30.6971 21.0758L30.7149 21.0904C30.2991 20.6855 30.1267 20.5061 29.6648 20.0466L29.6933 20.0866C29.594 19.9881 29.5747 19.965 29.5301 19.9172C29.4054 19.8148 29.8103 20.1928 29.6956 20.1012C29.6356 20.0296 29.4593 19.8564 29.2884 19.6886C29.2037 19.6047 29.1198 19.5215 29.0513 19.4538C29.0182 19.4192 28.9889 19.3891 28.965 19.3645C28.942 19.3391 28.9266 19.3222 28.9058 19.2975C28.8927 19.2844 28.8804 19.2729 28.8765 19.269C28.8465 19.2806 28.8257 19.2883 28.8119 19.2937C28.7995 19.2983 28.798 19.2998 28.7957 19.3014C28.7926 19.3037 28.8011 19.3014 28.808 19.3014C28.818 19.2991 28.8265 19.2975 28.8142 19.3029C28.8034 19.3075 28.7834 19.3152 28.7349 19.3329L28.6794 19.3468L28.6309 19.3722C28.4978 19.4192 28.4285 19.4369 28.4216 19.4346C28.4539 19.4222 28.5124 19.3999 28.547 19.3868C28.3723 19.443 28.062 19.5654 28.0028 19.5854L28.1983 19.5177C27.6479 19.724 26.9704 19.9627 26.44 20.1682L26.4824 20.1574C26.0774 20.3137 26.1544 20.2721 25.7079 20.4384L25.7241 20.4315C25.6363 20.4684 25.517 20.5138 25.3946 20.5577C25.5062 20.5115 25.1783 20.6262 25.3246 20.567C24.8858 20.7363 25.1082 20.6532 24.8219 20.774L24.7518 20.7917C24.7033 20.8125 24.6764 20.8249 24.6356 20.8426C24.5948 20.858 24.537 20.8818 24.4208 20.8834C24.5155 20.878 24.4777 20.8757 24.4446 20.8749C24.4108 20.8703 24.3815 20.8718 24.4839 20.8626C24.3661 20.8703 24.2637 20.8441 24.1821 20.8056C24.099 20.7679 24.0405 20.7148 23.982 20.6647C23.8665 20.5662 23.7772 20.49 23.6987 20.4053C23.5139 20.2683 24.0151 20.7001 23.9158 20.6178C23.992 20.694 23.7641 20.5031 23.6486 20.3976C23.5293 20.2914 23.4624 20.199 23.1621 19.9334C23.1921 19.9596 23.1945 19.9611 23.2245 19.9873C23.1152 19.8841 22.9997 19.7971 22.8673 19.6693C22.7818 19.6101 22.6887 19.51 22.6563 19.5023L22.9343 19.744C22.7757 19.6085 22.6171 19.4923 22.3654 19.2583C22.3877 19.2737 22.467 19.3383 22.5209 19.3837C22.4485 19.3137 22.3738 19.2575 22.2991 19.1851C22.3315 19.1936 22.6363 19.4792 22.8111 19.6185C22.7349 19.5423 22.487 19.3468 22.5824 19.4084C22.4477 19.3168 22.2884 19.1443 22.0744 18.9765L22.0936 18.9819C22.0605 18.9542 21.9912 18.8988 21.9319 18.8456L22.0466 18.9319C21.875 18.7933 21.7349 18.6439 21.5732 18.5085C21.9042 18.801 21.6402 18.5824 21.7757 18.7109C21.36 18.3591 21.557 18.4854 21.0975 18.0843C21.1598 18.1382 21.3261 18.2937 21.2268 18.2113C21.1413 18.1328 21.0289 18.0289 20.9781 17.978C20.9212 17.9288 20.8827 17.8949 20.8596 17.8749C20.7379 17.9188 20.7972 17.9003 20.858 17.8818C20.8827 17.9057 20.915 17.9357 20.9158 17.938C20.9189 17.9426 20.9219 17.9473 20.8742 17.9065C20.868 17.9003 20.8619 17.8941 20.8565 17.8887C20.8326 17.8964 20.8111 17.9034 20.7903 17.9095C20.7764 17.9142 20.7641 17.9188 20.7518 17.9226C20.7272 17.9319 20.7033 17.9411 20.6794 17.9511C20.6309 17.9711 20.5771 17.995 20.497 18.0242L20.4924 18.0158C20.0559 18.162 20.3838 18.0743 19.9897 18.2044L20.1506 18.1343L19.9473 18.209L19.9858 18.1844C19.7664 18.2698 19.6964 18.2914 19.4785 18.3653C19.5309 18.3537 19.4554 18.3914 19.263 18.4584C19.1298 18.4992 19.3338 18.4245 19.0613 18.5208C19.1213 18.4938 19.186 18.463 19.3076 18.4299C19.3184 18.423 19.3661 18.403 19.3777 18.3961C19.2345 18.4399 19.022 18.5192 18.9227 18.5539C18.9612 18.5408 19.0066 18.5254 19.0305 18.5185L18.6394 18.6693C18.5763 18.6878 18.6248 18.6678 18.6725 18.6486C18.5925 18.6778 18.5386 18.7009 18.4208 18.7433C18.4485 18.7255 18.4393 18.7209 18.6048 18.6586L18.2306 18.7987C18.2045 18.8041 18.0343 18.858 18.0821 18.8379C17.8719 18.9072 17.574 19.0312 17.2953 19.1228C17.2814 19.1289 17.253 19.1405 17.1945 19.162C17.0636 19.2059 16.9404 19.2475 16.8111 19.2914C16.7464 19.3137 16.681 19.3368 16.6117 19.3606C16.5432 19.3861 16.4801 19.4045 16.4031 19.4076C16.3461 19.4038 16.2907 19.3922 16.2383 19.3722C16.1829 19.356 16.1698 19.3491 16.1729 19.353C16.176 19.3568 16.1975 19.3668 16.2145 19.376C16.2322 19.3837 16.2453 19.3899 16.2299 19.3876C16.2152 19.3845 16.169 19.3776 16.0836 19.326C16.0243 19.2883 15.9943 19.2575 15.9781 19.2398C15.962 19.2221 15.9573 19.2136 15.9573 19.2113C15.9573 19.2059 15.9751 19.2182 15.9412 19.1774C15.8349 19.0712 15.6486 18.8872 15.4708 18.6747C15.5347 18.7409 15.5817 18.7956 15.6402 18.858L15.6356 18.8526ZM13.5039 16.5215C13.5463 16.5654 13.6333 16.6516 13.6594 16.6886C13.6048 16.6439 13.5724 16.6008 13.5039 16.5215ZM14.5293 15.9103C14.4962 15.8787 14.45 15.8256 14.3992 15.7648C14.4385 15.8071 14.4824 15.8556 14.5293 15.9103ZM25.5032 19.182C25.5032 19.182 25.4993 19.1836 25.497 19.1844C25.3677 19.2275 25.4139 19.2121 25.5032 19.182ZM25.7703 19.0889C25.7965 19.0781 25.7941 19.0774 25.7826 19.0804C25.7649 19.0897 25.7048 19.1112 25.6371 19.1359C25.6571 19.1312 25.6918 19.1205 25.7711 19.0897L25.7703 19.0889ZM23.1429 20.0188L23.1028 19.9804C23.1975 20.0612 23.1698 20.0396 23.1429 20.0188Z" fill="#F1D9DC"/>
<path d="M14.1537 15.516C14.1429 15.5022 14.1414 15.4975 14.1399 15.4929C14.1221 15.476 14.1206 15.4768 14.1537 15.516Z" fill="#F1D9DC"/>
<path d="M17.2815 19.1192L17.2909 19.116C17.2956 19.1137 17.298 19.1121 17.2995 19.1113L17.2815 19.1192Z" fill="#F1D9DC"/>
<path d="M22.2229 17.559C22.1798 17.519 22.1567 17.4966 22.1421 17.4805C22.1382 17.4805 22.1567 17.4989 22.2229 17.559Z" fill="#F1D9DC"/>
<path d="M27.1767 18.5605L27.0066 18.6252C27.089 18.5944 27.119 18.586 27.1613 18.5721C27.1567 18.5721 27.1228 18.5806 27.1767 18.5605Z" fill="#F1D9DC"/>
<path d="M28.6771 18.0757C28.7025 18.0665 28.7294 18.0557 28.7541 18.0465L28.7456 18.0449C28.6394 18.0842 28.5662 18.1142 28.6771 18.0757Z" fill="#F1D9DC"/>
<path d="M27.3455 18.5312C27.3616 18.5335 27.4679 18.4919 27.5864 18.4473C27.5795 18.4496 27.5726 18.4527 27.5656 18.455C27.5972 18.4319 27.4709 18.4819 27.3455 18.5312Z" fill="#F1D9DC"/>
<path d="M27.614 18.4373C27.651 18.4235 27.6887 18.4104 27.7241 18.3965C27.7364 18.3873 27.6787 18.4119 27.614 18.4373Z" fill="#F1D9DC"/>
<path d="M26.1067 18.9605C26.1637 18.942 26.1391 18.9382 26.1722 18.9297C26.2322 18.8974 25.7988 19.0783 26.1067 18.9605Z" fill="#F1D9DC"/>
<path d="M27.4507 18.5215L27.4045 18.5276L27.3398 18.5592L27.4507 18.5215Z" fill="#F1D9DC"/>
<path d="M26.5048 18.8581L26.6965 18.7911C26.6965 18.7911 26.7173 18.7811 26.7465 18.7695C26.6287 18.8119 26.4994 18.8573 26.5048 18.8581Z" fill="#F1D9DC"/>
<path d="M26.7463 18.7687C26.8079 18.7463 26.8657 18.7248 26.8995 18.7109C26.8664 18.7233 26.7956 18.7502 26.7463 18.7687Z" fill="#F1D9DC"/>
<path d="M27.1905 18.6191L27.1335 18.6376L26.998 18.6861L27.1905 18.6191Z" fill="#F1D9DC"/>
<path d="M24.4807 19.4965L24.3129 19.3518C24.2937 19.3395 24.3376 19.381 24.4007 19.4349C24.4422 19.468 24.5046 19.5219 24.4807 19.4973V19.4965Z" fill="#F1D9DC"/>
<path d="M25.0906 19.3984C25.0337 19.4169 25.0291 19.4161 24.996 19.4254L24.9937 19.4392L25.0906 19.3992V19.3984Z" fill="#F1D9DC"/>
<path d="M24.4792 19.5343C24.4608 19.522 24.2321 19.328 24.443 19.5135C24.4531 19.5181 24.6555 19.6936 24.4792 19.5343Z" fill="#F1D9DC"/>
<path d="M21.9873 17.3066L22.0304 17.3451L22.0375 17.3247L21.9873 17.3066Z" fill="#F1D9DC"/>
<path d="M19.3908 17.1874C19.6402 17.105 19.4454 17.1551 19.6717 17.0827C19.7287 17.0581 19.487 17.142 19.5455 17.1173C19.3977 17.1743 19.3176 17.1989 19.3908 17.1874Z" fill="#F1D9DC"/>
<path d="M19.5447 17.1191C19.5685 17.1099 19.5932 17.0999 19.6201 17.0898C19.5778 17.1068 19.557 17.1145 19.5447 17.1191Z" fill="#F1D9DC"/>
<path d="M31.7063 22.1719C31.7494 22.215 31.7987 22.2512 31.8518 22.2812C31.818 22.2612 31.7864 22.2381 31.7564 22.2119C31.7387 22.1996 31.7217 22.1865 31.7056 22.1719H31.7063Z" fill="#F1D9DC"/>
<path d="M32.0134 22.3203C32.0265 22.3272 32.0388 22.3342 32.0527 22.3411C32.0889 22.3434 32.1251 22.3426 32.1612 22.3388C32.1212 22.3403 32.0427 22.3319 32.0134 22.3203Z" fill="#F1D9DC"/>
<path d="M13.2068 16.1581L13.196 16.1504C13.2114 16.1719 13.2376 16.2012 13.2907 16.2605L13.2068 16.1581Z" fill="#F1D9DC"/>
<path d="M14.7435 17.8593L14.7173 17.8301L14.7581 17.8924L14.7435 17.8593Z" fill="#F1D9DC"/>
<path d="M16.0467 19.2588C15.9958 19.218 15.9343 19.1456 15.8804 19.0879C15.9381 19.1495 15.9835 19.2057 16.0082 19.2318C16.0359 19.2596 16.0497 19.2703 16.0467 19.2588Z" fill="#F1D9DC"/>
<path d="M31.5679 25.425C31.4124 25.425 31.2569 25.3665 31.1368 25.2495L28.2662 22.4381L24.0398 23.9777C23.8274 24.0547 23.5895 24.0101 23.4209 23.8599L20.2485 21.0501L15.999 22.5374C15.7658 22.619 15.5063 22.5535 15.3401 22.3711L11.9952 18.6983C11.7658 18.4465 11.7843 18.057 12.036 17.8284C12.2877 17.5997 12.6772 17.6174 12.9059 17.8692L15.9767 21.241L20.183 19.7691C20.394 19.6952 20.628 19.7414 20.795 19.8892L23.9636 22.696L28.21 21.1494C28.4324 21.0686 28.6826 21.1224 28.852 21.288L31.9998 24.3703C32.2431 24.6082 32.2469 24.9985 32.009 25.241C31.8882 25.3642 31.7288 25.4258 31.5687 25.4258L31.5679 25.425Z" fill="#EFD5D8"/>
<path d="M31.6318 25.4676C31.5509 25.4722 31.5802 25.4768 31.5679 25.4791C31.6364 25.4768 31.651 25.4699 31.6495 25.4683C31.6479 25.466 31.6302 25.4668 31.6318 25.4676Z" fill="#F1D9DC"/>
<path d="M32.1183 24.4754L32.1329 24.4939C32.0998 24.4385 32.0559 24.3908 32.0105 24.3477C32.0498 24.3861 32.089 24.4277 32.1183 24.4754Z" fill="#F1D9DC"/>
<path d="M31.2991 23.6426C31.3676 23.7296 31.6016 23.9359 31.7463 24.0837L31.7687 24.1099L31.8433 24.1676C31.6624 23.9928 31.4238 23.7696 31.2998 23.6426H31.2991Z" fill="#F1D9DC"/>
<path d="M30.8765 23.1896C30.9004 23.2204 30.7772 23.0988 30.9789 23.292C30.9697 23.282 30.9666 23.2789 30.9612 23.2727C30.9435 23.255 30.9189 23.2312 30.8765 23.1896Z" fill="#F1D9DC"/>
<path d="M30.9611 23.2706C31.0489 23.356 30.9072 23.2113 30.9611 23.2706Z" fill="#F1D9DC"/>
<path d="M30.5546 22.8779L30.6732 22.9872C30.6516 22.961 30.5492 22.8602 30.5893 22.8963C30.4692 22.7824 30.4915 22.8086 30.5546 22.8779Z" fill="#F1D9DC"/>
<path d="M30.4385 22.7793L30.4993 22.8363C30.4901 22.8247 30.4747 22.8093 30.4385 22.7793Z" fill="#F1D9DC"/>
<path d="M30.6293 22.9568L30.5 22.8359C30.5154 22.8536 30.5139 22.859 30.5593 22.8914C30.5462 22.8844 30.5739 22.906 30.6293 22.9568Z" fill="#F1D9DC"/>
<path d="M30.6995 23.0273C30.7618 23.0928 30.8442 23.1759 30.7249 23.0658C30.9466 23.2806 30.9212 23.2414 30.6995 23.0273Z" fill="#F1D9DC"/>
<path d="M31.2469 23.6113L31.3308 23.6991L31.4085 23.7691C31.3693 23.7345 31.2445 23.6036 31.2469 23.6121V23.6113Z" fill="#F1D9DC"/>
<path d="M29.8426 22.1702C29.8334 22.1656 29.8757 22.2133 29.8819 22.2249L29.9696 22.3057C29.9273 22.2618 29.8457 22.1787 29.8426 22.1702Z" fill="#F1D9DC"/>
<path d="M29.8818 22.2244L29.751 22.1035C29.8641 22.2151 29.8865 22.2336 29.8818 22.2244Z" fill="#F1D9DC"/>
<path d="M30.4077 22.7697L30.6241 22.9668L30.3669 22.7305L30.4077 22.7697Z" fill="#F1D9DC"/>
<path d="M29.3569 21.6937L29.4331 21.7592L29.2976 21.6406L29.3569 21.6937Z" fill="#F1D9DC"/>
<path d="M29.0336 21.3793C29.0905 21.4278 28.9674 21.3007 29.0259 21.3539C28.982 21.3115 28.9404 21.2723 28.9004 21.2369C28.8565 21.1968 28.8103 21.1653 28.7649 21.1406C28.8126 21.1676 28.8604 21.203 28.9027 21.2461C28.942 21.2861 28.9851 21.33 29.0336 21.3793Z" fill="#F1D9DC"/>
<path d="M28.6025 21.0781C28.6557 21.092 28.7095 21.1112 28.7642 21.1405C28.7126 21.112 28.6587 21.0904 28.6025 21.0781Z" fill="#F1D9DC"/>
<path d="M29.5346 21.891C29.5262 21.8803 29.51 21.8579 29.4399 21.7871L29.4846 21.8418C29.5 21.8564 29.5169 21.8741 29.5346 21.891Z" fill="#F1D9DC"/>
<path d="M29.487 21.8441L29.4855 21.8426C29.4316 21.7894 29.3939 21.7525 29.3777 21.7363C29.3915 21.7502 29.4246 21.7825 29.487 21.8449V21.8441Z" fill="#F1D9DC"/>
<path d="M29.5477 21.9029C29.5431 21.8983 29.54 21.8952 29.5354 21.8906C29.54 21.896 29.5423 21.8991 29.5477 21.9029Z" fill="#F1D9DC"/>
<path d="M30.0789 22.4375C30.0012 22.3675 29.8418 22.2181 29.9873 22.3713C30.0451 22.4198 29.9611 22.3321 30.0789 22.4375Z" fill="#F1D9DC"/>
<path d="M29.6025 21.9707L29.7365 22.1047C29.7357 22.1008 29.7134 22.0746 29.7519 22.1093L29.6025 21.9715V21.9707Z" fill="#F1D9DC"/>
<path d="M29.5347 21.9082L29.6024 21.9706L29.5531 21.9213L29.5347 21.9082Z" fill="#F1D9DC"/>
<path d="M28.8974 21.2622C28.835 21.2037 28.7542 21.1451 28.6526 21.1074C28.7065 21.1282 28.7588 21.1575 28.8066 21.1921C28.8551 21.2267 28.8943 21.2691 28.932 21.3053C28.9443 21.3137 28.9813 21.343 28.8982 21.2622H28.8974Z" fill="#F1D9DC"/>
<path d="M29.183 21.5455C29.1792 21.5417 29.1738 21.5371 29.1699 21.5332C29.1776 21.5417 29.1838 21.5478 29.183 21.5455Z" fill="#F1D9DC"/>
<path d="M27.6687 21.2953C27.6742 21.2938 27.6789 21.293 27.6844 21.2914L27.6875 21.2891L27.6687 21.2961V21.2953Z" fill="#F1D9DC"/>
<path d="M28.9436 21.3198C29.0006 21.3776 29.0368 21.4107 29.0714 21.4415C29.0276 21.3991 28.9814 21.3545 28.9313 21.3067C28.9259 21.3029 28.9244 21.3029 28.9429 21.3206L28.9436 21.3198Z" fill="#F1D9DC"/>
<path d="M28.303 21.0666C28.3484 21.0597 28.4007 21.0574 28.4554 21.062C28.4108 21.0551 28.3184 21.0597 28.303 21.0666Z" fill="#F1D9DC"/>
<path d="M29.1521 21.5124C29.1521 21.5124 29.1575 21.5178 29.1613 21.5209C29.1436 21.5009 29.1451 21.5039 29.1521 21.5124Z" fill="#F1D9DC"/>
<path d="M29.1521 21.513C29.1213 21.4853 29.0967 21.463 29.0713 21.4414C29.1075 21.4753 29.1406 21.5068 29.1698 21.5338C29.1637 21.5261 29.1567 21.5184 29.1521 21.513Z" fill="#F1D9DC"/>
<path d="M27.4038 21.4474C27.4146 21.4351 27.6132 21.3558 27.7895 21.2996C27.9581 21.2318 27.838 21.2488 27.684 21.2903C27.6802 21.2957 27.6809 21.298 27.5069 21.3665C27.5701 21.3481 27.9003 21.2334 27.7541 21.2942C27.5223 21.3827 27.5624 21.3612 27.4477 21.3989C27.547 21.3727 27.1559 21.5197 27.2121 21.5143L27.4146 21.4351C27.4192 21.4351 27.346 21.4659 27.4038 21.4474Z" fill="#F1D9DC"/>
<path d="M28.0197 21.1695L28.0921 21.1426C28.009 21.1711 27.9489 21.1903 27.8388 21.2242C27.7195 21.2711 27.6956 21.2835 27.6887 21.2888L28.0451 21.1603L28.0205 21.1703L28.0197 21.1695Z" fill="#F1D9DC"/>
<path d="M28.4431 21.0659C28.4108 21.0675 28.3454 21.0744 28.3053 21.086C28.2645 21.0967 28.2476 21.1044 28.3061 21.0967C28.3638 21.086 28.4039 21.086 28.4323 21.0852C28.4608 21.0852 28.4785 21.0852 28.4932 21.0867C28.5224 21.0883 28.5409 21.0867 28.6102 21.1044C28.5178 21.0775 28.4754 21.0798 28.4639 21.0775C28.4516 21.0767 28.4693 21.0759 28.4893 21.0775C28.5101 21.0775 28.534 21.0813 28.5355 21.0806C28.5363 21.0806 28.5316 21.0783 28.5178 21.0752C28.5039 21.0729 28.4816 21.0682 28.4462 21.0667C28.5232 21.0682 28.5917 21.0829 28.6525 21.106C28.5871 21.0798 28.5193 21.0659 28.4554 21.0605C28.4593 21.0605 28.4616 21.0605 28.4647 21.0613H28.4662C28.4831 21.0636 28.4885 21.0652 28.4693 21.0629C28.4678 21.0629 28.4631 21.0629 28.4608 21.0629C28.4577 21.0636 28.4508 21.0644 28.4431 21.0652C28.33 21.0652 28.4254 21.0605 28.4608 21.0629C28.4624 21.0629 28.4654 21.0629 28.4654 21.0621H28.4639C28.3985 21.0582 28.3323 21.0644 28.2691 21.0806C28.2037 21.0967 28.1483 21.1214 28.0913 21.1421C28.129 21.1298 28.1668 21.1144 28.2229 21.096C28.2791 21.079 28.3507 21.0621 28.4423 21.0659H28.4431Z" fill="#F1D9DC"/>
<path d="M29.8368 22.2473C29.829 22.2387 29.8297 22.2387 29.8297 22.2379C29.8117 22.2214 29.8047 22.2159 29.8368 22.2473Z" fill="#F1D9DC"/>
<path d="M29.7325 22.1388C29.7526 22.1565 29.7703 22.1696 29.8318 22.2304C29.8834 22.2843 29.8288 22.2327 29.8295 22.2373C29.868 22.272 29.9635 22.3605 29.8503 22.2435L29.8311 22.2266C29.7279 22.1219 29.6001 21.9825 29.6194 21.9995C29.6448 22.0349 29.6679 22.0649 29.7325 22.1388Z" fill="#F1D9DC"/>
<path d="M29.1352 21.5305L28.915 21.3203L29.0205 21.4335L29.0182 21.425C29.1406 21.5474 29.1175 21.5174 29.1352 21.5297V21.5305Z" fill="#F1D9DC"/>
<path d="M27.6348 21.3036L27.6702 21.2812L27.5093 21.3528L27.6348 21.3036Z" fill="#F1D9DC"/>
<path d="M27.2639 21.4401L27.2754 21.4277L27.1792 21.4678L27.2639 21.4401Z" fill="#F1D9DC"/>
<path d="M13.9966 20.8281L14.0582 20.8928C14.0289 20.862 14.0104 20.8428 13.9966 20.8281Z" fill="#F1D9DC"/>
<path d="M13.5619 20.3512L13.5486 20.3418C13.5705 20.363 13.5799 20.3708 13.5619 20.3512Z" fill="#F1D9DC"/>
<path d="M18.9535 20.1465C18.8281 20.1827 18.6872 20.2204 18.7049 20.2235L18.7457 20.2181C18.8311 20.1865 18.8973 20.1642 18.9535 20.1465Z" fill="#F1D9DC"/>
<path d="M13.6355 18.6738C13.6432 18.6838 13.6509 18.6938 13.6594 18.7039C13.6825 18.7254 13.7048 18.7454 13.7248 18.7631C13.6979 18.7362 13.6678 18.7054 13.6363 18.6738H13.6355Z" fill="#F1D9DC"/>
<path d="M13.5486 18.6301L13.437 18.5C13.4624 18.53 13.4978 18.5716 13.5486 18.6301Z" fill="#F1D9DC"/>
<path d="M16.7057 22.2318L16.8011 22.1895C16.6472 22.2433 16.7164 22.2233 16.7057 22.2318Z" fill="#F1D9DC"/>
<path d="M23.6079 22.3183C23.5263 22.2413 23.4601 22.1813 23.4016 22.1289C23.4994 22.2221 23.5764 22.2998 23.6079 22.3183Z" fill="#F1D9DC"/>
<path d="M13.7603 20.6996C13.798 20.7389 13.8149 20.7551 13.8157 20.7528C13.7765 20.712 13.7541 20.6896 13.7603 20.6996Z" fill="#F1D9DC"/>
<path d="M23.1582 21.9141C23.1728 21.9279 23.1867 21.941 23.2013 21.9549C23.2637 22.008 23.326 22.0619 23.4007 22.1288C23.3283 22.0596 23.2444 21.9826 23.1582 21.9141Z" fill="#F1D9DC"/>
<path d="M27.9473 22.502C27.9565 22.4989 27.9665 22.4959 27.975 22.4928C27.9773 22.4905 27.965 22.4951 27.9473 22.502Z" fill="#F1D9DC"/>
<path d="M30.6765 24.8492C30.6503 24.8238 30.6072 24.7814 30.5664 24.7422C30.5857 24.7622 30.6188 24.7938 30.6765 24.8492Z" fill="#F1D9DC"/>
<path d="M25.7695 21.9811C25.8481 21.9518 25.7818 21.9757 25.7695 21.9811Z" fill="#F1D9DC"/>
<path d="M26.1636 21.8711C26.1474 21.878 26.1351 21.8842 26.1335 21.8865C26.1397 21.8819 26.1497 21.8773 26.1636 21.8711Z" fill="#F1D9DC"/>
<path d="M22.4993 21.3991C22.4993 21.3991 22.4962 21.3961 22.4939 21.3945C22.5116 21.4122 22.5085 21.4092 22.4993 21.3991Z" fill="#F1D9DC"/>
<path d="M25.889 21.9414C25.8589 21.9514 25.8251 21.963 25.7874 21.976C25.8035 21.9707 25.8351 21.9599 25.889 21.9414Z" fill="#F1D9DC"/>
<path d="M25.8718 21.9425C25.8988 21.9333 25.9203 21.9256 25.9411 21.9179C25.9503 21.9133 25.9411 21.9156 25.8718 21.9425Z" fill="#F1D9DC"/>
<path d="M25.6594 22.02C25.7048 22.0039 25.7464 21.9892 25.7872 21.9746C25.7718 21.98 25.7649 21.9815 25.7687 21.98C25.7456 21.9885 25.7133 22.0008 25.6594 22.02Z" fill="#F1D9DC"/>
<path d="M21.9204 22.498C21.9243 22.502 21.929 22.5067 21.9337 22.5106C22.0004 22.5647 21.9722 22.5404 21.9204 22.498Z" fill="#F1D9DC"/>
<path d="M16.9242 20.9492C16.9242 20.9492 16.9296 20.9469 16.9334 20.9453C16.9296 20.9469 16.925 20.9484 16.9219 20.9492H16.925H16.9242Z" fill="#F1D9DC"/>
<path d="M16.6426 21.0539C16.7604 21.0016 16.8296 20.9792 16.922 20.9492L16.8204 20.9592L16.6433 21.0539H16.6426Z" fill="#F1D9DC"/>
<path d="M15.0413 21.9717L14.9043 21.81C15.0852 21.9902 15.206 22.1295 15.0805 21.9756C15.0413 21.9709 14.5255 21.3697 14.4862 21.3659L14.3962 21.2588C14.4231 21.2881 14.4277 21.2927 14.4547 21.3212C14.2815 21.1126 14.3053 21.1849 14.0728 20.9247C13.9928 20.8331 13.9381 20.7685 13.9959 20.827L13.8088 20.6307C13.7565 20.5722 13.7726 20.5829 13.825 20.6415L13.5448 20.3374L13.5471 20.3389C13.5047 20.2966 13.41 20.2027 13.3638 20.1572C13.2961 20.0772 13.4016 20.1942 13.3854 20.1726L13.2268 20.0079C13.1691 19.9348 13.3015 20.0702 13.4077 20.188C13.283 20.0125 13.2753 20.0518 12.9759 19.7007L13.1237 19.8585C13.0405 19.7454 12.9235 19.6245 12.7657 19.4374C12.8011 19.4836 13.0782 19.8147 12.9058 19.6353C12.8604 19.5822 12.7988 19.5137 12.7049 19.4174C12.711 19.4105 12.621 19.315 12.5101 19.1942H12.527C12.4054 19.0656 12.41 19.0803 12.3354 19.0071C12.2037 18.8601 12.1829 18.8239 12.1575 18.7839C11.9458 18.5491 12.293 18.9555 12.0397 18.6807C11.9566 18.5876 11.9104 18.4936 11.8889 18.3851C11.8673 18.2789 11.8712 18.1557 11.9327 18.021C12.0236 17.8747 11.9227 18.0495 11.9574 17.9986C11.9805 17.9548 12.0074 17.9109 12.0421 17.8732C12.0682 17.847 12.0621 17.8578 12.059 17.8632C12.106 17.8201 12.1067 17.8162 12.1152 17.8077C12.1244 17.8 12.1367 17.7792 12.2307 17.7361C12.253 17.7192 12.3592 17.6846 12.4893 17.6984C12.621 17.7084 12.7626 17.7793 12.8565 17.8647C12.8981 17.9109 12.8296 17.8493 12.8404 17.8655C13.0936 18.1218 13.0575 18.091 13.2699 18.3027L13.437 18.4983C13.3169 18.3528 13.487 18.5237 13.6356 18.673C13.5933 18.6207 13.5578 18.576 13.534 18.546L13.7657 18.7908C13.7919 18.8224 13.7657 18.8 13.7249 18.7623C13.7411 18.7785 13.7565 18.7939 13.7688 18.8062C13.8465 18.8986 13.7996 18.857 13.7357 18.7977C13.7103 18.7654 13.6841 18.7338 13.6595 18.703C13.5979 18.6468 13.5394 18.5945 13.5455 18.6122C13.5617 18.6276 13.5909 18.6576 13.6225 18.6915C13.6063 18.6769 13.5956 18.6676 13.6017 18.6761C13.6086 18.6853 13.6341 18.7092 13.6733 18.7485L13.7149 18.8147L13.731 18.8247L14.0213 19.1565C14.2438 19.3805 14.4431 19.5691 14.7842 19.9355C14.6933 19.8508 14.7541 19.9271 14.7411 19.9301C14.6587 19.8208 14.4762 19.6476 14.3038 19.4536C14.3939 19.5545 14.37 19.536 14.3454 19.5121L14.6648 19.8462C14.651 19.8455 14.7257 19.924 14.8042 20.0156C14.7572 19.9348 15.0459 20.2619 15.1768 20.3966C15.1799 20.4097 15.1444 20.3805 14.9912 20.2104C15.1514 20.4074 15.2284 20.4367 15.3869 20.6291C15.3492 20.5876 15.3292 20.5645 15.3123 20.5506C15.4046 20.6438 15.6171 20.8832 15.5617 20.8316L15.524 20.79C15.6402 20.9178 15.8111 21.1049 15.9666 21.2758C16.0382 21.2496 16.1075 21.225 16.1722 21.2019C16.2307 21.1803 16.2846 21.1603 16.3307 21.1426C16.4239 21.1072 16.487 21.0818 16.5001 21.0718C16.504 21.0718 16.4608 21.1064 16.4408 21.1172L17.049 20.8462C16.9982 20.8786 17.2214 20.8362 16.9327 20.9455C17.0167 20.9178 17.1213 20.8839 17.2961 20.8177C17.2384 20.8354 17.1475 20.8485 17.2245 20.82C17.4439 20.76 17.3762 20.7762 17.6441 20.6961C17.5578 20.7231 17.6456 20.6692 17.7803 20.6222C17.7603 20.633 17.7988 20.6391 17.7503 20.6584L18.0798 20.5206C17.9974 20.5537 18.0713 20.5429 18.1483 20.5229C18.1121 20.5314 18.4393 20.4213 18.5278 20.3882L18.3839 20.4336C18.7649 20.3035 18.7488 20.2735 19.126 20.1426C19.0821 20.1626 19.022 20.208 19.2153 20.1434C19.2992 20.1018 19.5863 19.9571 19.9166 19.8324L19.9828 19.8162L20.1098 19.7677C20.1514 19.7523 20.1937 19.7338 20.2407 19.7223C20.1976 19.7354 20.1421 19.7631 20.0759 19.7916C20.009 19.8208 19.9327 19.8539 19.8542 19.8886C19.6964 19.9571 19.5278 20.0294 19.4077 20.0779C19.5517 20.0333 19.4501 20.071 19.6625 19.9963C19.7395 19.9756 19.5494 20.0456 19.487 20.0679L19.9836 19.8978C19.9705 19.8955 20.0644 19.8593 20.1583 19.8231C20.2499 19.7823 20.3415 19.7739 20.3323 19.7692C20.2876 19.7746 20.2438 19.7846 20.2014 19.8L20.0682 19.8501L19.8011 19.9509C19.788 19.9486 19.8627 19.9124 19.9851 19.8624C20.1075 19.8177 20.273 19.7223 20.4585 19.7508C20.504 19.76 20.4855 19.7631 20.4585 19.7646C20.4308 19.7669 20.3939 19.7716 20.3969 19.7739C20.4193 19.7708 20.5032 19.7746 20.5809 19.8023C20.6595 19.8277 20.7249 19.8755 20.7364 19.887C20.6956 19.8585 20.651 19.8362 20.6048 19.8193C20.6949 19.8593 20.7534 19.9047 20.8242 19.9648C20.8935 20.0217 20.9666 20.0826 21.0551 20.1703C21.119 20.2281 21.2361 20.3528 21.2522 20.3566C21.1575 20.2527 21.1668 20.2003 21.2445 20.2542C21.2661 20.275 21.5725 20.5637 21.641 20.6345C21.7395 20.7369 21.4639 20.5144 21.5471 20.6014C21.5532 20.6022 21.6148 20.6507 21.6402 20.6715C21.7056 20.7338 21.6048 20.6545 21.7526 20.7839C21.7857 20.7954 22.0505 21.0487 21.8296 20.837C21.9759 20.9609 21.9805 20.974 22.1491 21.1226C22.1013 21.0687 22.3192 21.235 22.4655 21.3597C22.4547 21.3543 22.4839 21.3866 22.4986 21.402C22.7903 21.6645 22.9481 21.8062 23.2199 22.051C23.243 22.0756 23.3731 22.1957 23.313 22.1503C23.3538 22.1834 23.3931 22.2127 23.4778 22.2873C23.6341 22.4405 23.2876 22.1218 23.4039 22.2427C23.4193 22.2465 23.6294 22.429 23.7534 22.5321C23.7241 22.4906 23.4762 22.2835 23.3523 22.1803C23.3623 22.168 23.584 22.3412 23.8758 22.5891C23.9197 22.6276 23.9481 22.653 23.9666 22.6692C23.9982 22.6584 24.0059 22.6584 24.0005 22.663C23.9959 22.6669 23.9851 22.6722 24.002 22.6653C24.5401 22.4721 24.4501 22.4721 24.9004 22.3204C25.0813 22.2658 24.9158 22.3366 24.9574 22.3297C24.7257 22.4182 24.5971 22.4536 24.4393 22.5114L24.6356 22.4451C24.5625 22.4752 24.4077 22.5344 24.3223 22.5622C24.4739 22.5167 25.2307 22.2334 25.6479 22.0903C25.7203 22.0602 25.8465 22.0102 25.7849 22.0287L25.6541 22.0779C25.5309 22.1141 25.8966 21.9771 25.7295 22.0341C25.9035 21.9648 26.0975 21.8839 26.3469 21.7985L26.3977 21.7923C26.3916 21.7908 26.2337 21.8447 26.1652 21.8732C26.2668 21.8308 26.5501 21.75 26.6579 21.6938L26.4816 21.7492C26.6564 21.6792 26.8704 21.5883 27.0913 21.5114C26.9874 21.5368 27.0413 21.5314 26.8804 21.5752C27.0213 21.5421 26.3184 21.7792 26.5417 21.7169C26.3762 21.76 26.2622 21.8116 26.0482 21.8747C26.0559 21.8762 26.1252 21.8547 25.9397 21.9201C25.9312 21.924 25.912 21.9324 25.9004 21.9378C25.895 21.9394 25.8927 21.9401 25.8881 21.9425C25.8919 21.9409 25.895 21.9401 25.8981 21.9394C25.8904 21.9425 25.8896 21.9432 25.9019 21.9378C25.9466 21.9232 25.9828 21.9124 25.9982 21.9093C25.9096 21.9509 25.6163 22.0579 25.5193 22.098C25.4093 22.1357 25.5632 22.0772 25.5024 22.0949L25.3569 22.1549C25.3392 22.1518 25.0613 22.2473 25.3177 22.1488L25.0859 22.2327C24.9481 22.2781 24.7595 22.3443 24.6448 22.3897C24.5347 22.4274 24.3715 22.499 24.4647 22.4582L24.1029 22.596H24.099C24.0575 22.6107 24.0151 22.6261 23.9728 22.6415C23.8535 22.5383 23.731 22.4321 23.6056 22.3227C23.4732 22.2065 23.3377 22.0856 23.2022 21.9563C23.1044 21.8724 23.0036 21.7869 22.8442 21.6422L22.818 21.6091C22.6926 21.5013 22.4524 21.275 22.3939 21.2334C22.2738 21.1003 21.7973 20.6992 21.5825 20.5037H21.5678C21.4185 20.3705 21.2738 20.2458 21.0852 20.0841L21.0906 20.101C21.0074 20.0325 20.9089 19.9409 20.7911 19.837C20.6664 19.7338 20.4824 19.6722 20.3023 19.6969C20.3261 19.6892 20.4193 19.6846 20.4832 19.6984C20.3777 19.6776 20.2607 19.6876 20.156 19.7261C20.0582 19.7623 19.9589 19.7977 19.8611 19.8339C19.6656 19.907 19.4755 19.9786 19.2999 20.0325C19.2145 20.0656 19.1521 20.0864 19.0906 20.1057C19.0983 20.1026 19.106 20.1003 19.1121 20.098C19.1036 20.101 19.0898 20.1057 19.0767 20.1103C19.0382 20.1226 18.9982 20.1349 18.9558 20.148C18.9928 20.1364 19.0282 20.1264 19.0582 20.1172C18.992 20.1411 18.8919 20.178 18.7934 20.2134L18.748 20.2196C18.7403 20.2227 18.7334 20.225 18.7249 20.2281C18.6271 20.2588 18.6487 20.2596 18.7026 20.2481C18.6541 20.2673 18.6094 20.285 18.574 20.2989C18.4901 20.312 18.3161 20.3943 18.2037 20.4167C18.1398 20.4475 17.7087 20.596 17.6618 20.6299C17.6579 20.6291 17.6279 20.6384 17.6818 20.6191C17.5709 20.6561 17.4601 20.693 17.3631 20.7315L17.3123 20.7369L17.0767 20.8362C16.9281 20.8809 16.8665 20.8978 17.0082 20.8385C16.6625 20.974 16.7257 20.9432 16.4324 21.0602L16.4447 21.0479C16.3384 21.0856 16.1714 21.1549 16.1052 21.1711C16.0759 21.1803 16.0359 21.1926 15.9859 21.208C15.9581 21.1772 15.9266 21.1418 15.8919 21.1026C15.8519 21.0587 15.8088 21.0102 15.7626 20.9586C15.6695 20.8562 15.5655 20.7415 15.457 20.6222C15.2407 20.3843 15.009 20.1287 14.825 19.9178C14.8927 20.0256 14.6294 19.6884 14.5994 19.6815C14.5779 19.6499 14.5193 19.5814 14.5933 19.6561C14.3669 19.4151 14.2653 19.2827 14.1006 19.1241C14.079 19.0926 14.1537 19.1711 14.1337 19.1441C14.1152 19.1257 14.0598 19.0695 14.039 19.0418C14.019 19.0148 14.0752 19.0749 14.1121 19.1118C13.8842 18.8624 13.8488 18.8485 13.8211 18.8408C13.711 18.7092 13.6533 18.6468 13.5625 18.5622C13.5263 18.5144 13.4632 18.4374 13.6056 18.5914C13.5263 18.5037 13.1252 18.0533 13.1083 18.0525C13.0859 18.0233 12.9982 17.9301 12.9759 17.9078C12.8896 17.8077 12.8265 17.7585 12.7618 17.7231C12.6964 17.6884 12.6271 17.6561 12.4916 17.6445C12.5163 17.6476 12.5417 17.6491 12.5655 17.6561C12.5116 17.6538 12.457 17.6499 12.3877 17.6561C12.3192 17.6622 12.2353 17.6784 12.1406 17.7315L12.1452 17.7277C12.0351 17.7854 11.9843 17.847 11.952 17.8855C11.9197 17.9255 11.9073 17.9494 11.8943 17.9725C11.8819 17.9963 11.8696 18.0194 11.8519 18.0664C11.8365 18.1134 11.8096 18.1857 11.8096 18.3097L11.8188 18.2827C11.8273 18.305 11.8242 18.4144 11.8765 18.5429C11.9019 18.606 11.9443 18.6722 11.9951 18.7292C12.0444 18.7854 12.0944 18.8416 12.1421 18.8909L12.079 18.8139C12.1852 18.9201 12.3423 19.1426 12.4416 19.2565C12.4624 19.2819 12.4046 19.2196 12.3723 19.1865C12.6302 19.4867 12.4154 19.2165 12.6163 19.4321C12.6479 19.4767 12.5571 19.3913 12.6895 19.5391C12.7518 19.616 13.0921 19.9501 13.2653 20.1588C13.2291 20.111 13.1929 20.0641 13.2876 20.1626C13.43 20.3166 13.6556 20.5945 13.7949 20.7238C13.8119 20.7446 13.818 20.7531 13.8173 20.7546C13.9281 20.8701 14.1729 21.1357 14.2445 21.2011C14.3207 21.332 14.9274 21.9278 14.9027 21.9448L15.2361 22.3081L15.2253 22.3004C15.2784 22.3582 15.3207 22.409 15.3669 22.449C15.4131 22.4875 15.4555 22.5144 15.4939 22.5329C15.5709 22.5706 15.6302 22.5814 15.6872 22.5883C15.7618 22.6006 15.7072 22.596 15.7003 22.5968C15.8203 22.616 15.9166 22.5999 15.9912 22.5768C16.0652 22.5529 16.1206 22.5321 16.176 22.5129C16.2861 22.4729 16.3869 22.4336 16.5671 22.3628L16.6079 22.3582C16.7049 22.3181 17.2414 22.1526 17.6641 21.9925C17.6602 21.9948 17.6518 22.0002 17.6187 22.0133C18.0944 21.8347 18.7765 21.6361 18.9404 21.5421L19.2545 21.4236C18.8442 21.5645 19.3107 21.3882 19.1398 21.4413C19.2999 21.3828 19.5601 21.305 19.3623 21.3766L19.3307 21.3859C19.2638 21.4282 19.8419 21.2134 19.835 21.2296C19.9712 21.1819 20.1067 21.1349 20.2414 21.0879C20.7565 21.5491 21.2599 21.9987 21.7464 22.4336L21.6872 22.362L21.8958 22.5475C21.9481 22.5983 21.962 22.6207 21.8134 22.4883C21.8496 22.526 21.9135 22.5799 21.9689 22.6245C22.0244 22.6692 22.0713 22.7053 22.0744 22.7053C22.3623 22.9679 21.9497 22.6168 22.039 22.6961L22.1614 22.8031L22.1352 22.7777C22.2376 22.8609 22.2499 22.8639 22.4293 23.0233C22.5409 23.1257 22.4816 23.081 22.5263 23.1211C22.5263 23.1211 22.5294 23.1249 22.5394 23.1341C22.5501 23.1434 22.5671 23.158 22.594 23.1819L22.8565 23.4159L22.7588 23.3143C22.8789 23.4136 23.0059 23.5337 22.8927 23.4167C22.9343 23.4598 23.0159 23.536 23.1167 23.6276C23.1675 23.673 23.223 23.7231 23.2799 23.7746C23.3392 23.8254 23.3931 23.8801 23.4616 23.9301C23.5979 24.0264 23.768 24.0579 23.8981 24.0418C23.9635 24.0348 24.0197 24.0187 24.0621 24.0033C24.1036 23.9886 24.1344 23.9786 24.1514 23.9725C24.3538 23.8901 24.5563 23.8162 24.8073 23.7261C24.7441 23.7469 24.7026 23.7485 24.9197 23.6715C24.8496 23.7246 25.3192 23.5375 25.5009 23.4913C25.3407 23.5368 26.1144 23.2642 25.8635 23.3374C26.0444 23.2735 25.8781 23.3428 26.0167 23.2981C26.4424 23.1326 26.9651 22.9594 27.4955 22.7631C27.5024 22.7569 27.4116 22.7846 27.524 22.7384L27.8103 22.6522C27.9143 22.6122 27.9004 22.5983 28.0959 22.5398C28.0682 22.5468 28.0259 22.5575 28.0959 22.5314C28.1514 22.5121 28.206 22.4929 28.2622 22.4736C28.4447 22.653 28.6279 22.8339 28.8126 23.0164C29.0028 23.2019 29.1945 23.3882 29.3854 23.5745C29.768 23.9478 30.1506 24.3235 30.5186 24.7046C30.4147 24.5937 30.487 24.6638 30.5709 24.7454C30.5178 24.6915 30.5779 24.7408 30.5709 24.7269L30.8981 25.0656C30.9335 25.091 31.0236 25.1796 31.1106 25.2642C31.1991 25.3566 31.3153 25.4067 31.3415 25.4082C31.293 25.3905 31.2468 25.3659 31.2037 25.3374C31.2953 25.3859 31.2337 25.3451 31.1691 25.2804C31.1083 25.2127 31.0359 25.1272 31.0528 25.1311C30.8827 24.9871 30.6518 24.7046 30.3754 24.4667C30.3207 24.4074 30.4285 24.5106 30.4008 24.4775C30.3292 24.4182 30.2484 24.342 30.1036 24.195L30.1213 24.2096C29.7056 23.8047 29.5332 23.6253 29.0705 23.1657L29.099 23.2057C28.9997 23.1072 28.9805 23.0841 28.9358 23.0364C28.8111 22.934 29.216 23.312 29.1013 23.2204C29.0413 23.1488 28.865 22.9756 28.6941 22.8077C28.6094 22.7238 28.5255 22.6407 28.457 22.5729C28.4239 22.5383 28.3946 22.5083 28.3708 22.4836C28.3477 22.4582 28.3323 22.4413 28.3115 22.4167C28.2984 22.4036 28.2861 22.392 28.2822 22.3882C28.2522 22.3997 28.2314 22.4074 28.2176 22.4128C28.2053 22.4174 28.2037 22.419 28.2014 22.4205C28.1983 22.4228 28.2068 22.4205 28.2137 22.4205C28.2237 22.4182 28.2322 22.4167 28.2199 22.4221C28.2091 22.4267 28.1891 22.4344 28.1406 22.4521L28.0852 22.4659L28.0367 22.4913C27.9035 22.5383 27.8342 22.556 27.8273 22.5537C27.8596 22.5414 27.9181 22.519 27.9528 22.506C27.778 22.5622 27.4678 22.6846 27.4085 22.7046L27.604 22.6368C27.0536 22.8431 26.3762 23.0818 25.8458 23.2873L25.8881 23.2766C25.4832 23.4328 25.5601 23.3913 25.1137 23.5575L25.1298 23.5506C25.0421 23.5876 24.9227 23.633 24.8003 23.6769C24.912 23.6307 24.584 23.7454 24.7303 23.6861C24.2915 23.8555 24.514 23.7723 24.2276 23.8932L24.1575 23.9109C24.109 23.9317 24.0821 23.944 24.0413 23.9617C24.0005 23.9771 23.9428 24.001 23.8265 24.0025C23.9212 23.9971 23.8835 23.9948 23.8504 23.994C23.8165 23.9894 23.7872 23.991 23.8896 23.9817C23.7718 23.9894 23.6695 23.9632 23.5879 23.9247C23.5047 23.887 23.4462 23.8339 23.3877 23.7839C23.2722 23.6853 23.1829 23.6091 23.1044 23.5244C22.9197 23.3874 23.4208 23.8193 23.3215 23.7369C23.3977 23.8131 23.1698 23.6222 23.0544 23.5167C22.9351 23.4105 22.8681 23.3181 22.5678 23.0525C22.5979 23.0787 22.6002 23.0803 22.6302 23.1064C22.5209 23.0033 22.4054 22.9163 22.273 22.7885C22.1876 22.7292 22.0944 22.6291 22.0621 22.6214L22.34 22.8632C22.1814 22.7277 22.0228 22.6114 21.7711 22.3774C21.7934 22.3928 21.8727 22.4575 21.9266 22.5029C21.8542 22.4328 21.7795 22.3766 21.7049 22.3043C21.7372 22.3127 22.0421 22.5983 22.2168 22.7377C22.1406 22.6615 21.8927 22.4659 21.9882 22.5275C21.8535 22.4359 21.6941 22.2635 21.4801 22.0956L21.4993 22.101C21.4662 22.0733 21.3969 22.0179 21.3377 21.9648L21.4524 22.051C21.2807 21.9124 21.1406 21.7631 20.9789 21.6276C21.31 21.9201 21.0459 21.7015 21.1814 21.8301C20.7657 21.4782 20.9628 21.6045 20.5032 21.2034C20.5655 21.2573 20.7318 21.4128 20.6325 21.3304C20.5471 21.2519 20.4347 21.148 20.3839 21.0972C20.3269 21.0479 20.2884 21.014 20.2653 20.994C20.1437 21.0379 20.203 21.0194 20.2638 21.001C20.2884 21.0248 20.3207 21.0548 20.3215 21.0572C20.3246 21.0618 20.3277 21.0664 20.2799 21.0256C20.2738 21.0194 20.2676 21.0133 20.2622 21.0079C20.2384 21.0156 20.2168 21.0225 20.196 21.0287C20.1822 21.0333 20.1698 21.0379 20.1575 21.0418C20.1329 21.051 20.109 21.0602 20.0852 21.0702C20.0367 21.0903 19.9828 21.1141 19.9027 21.1434L19.8981 21.1349C19.4616 21.2812 19.7896 21.1934 19.3954 21.3235L19.5563 21.2535L19.3531 21.3281L19.3916 21.3035C19.1722 21.3889 19.1021 21.4105 18.8842 21.4844C18.9366 21.4729 18.8611 21.5106 18.6687 21.5776C18.5355 21.6184 18.7395 21.5437 18.467 21.6399C18.527 21.613 18.5917 21.5822 18.7133 21.5491C18.7241 21.5421 18.7718 21.5221 18.7834 21.5152C18.6402 21.5591 18.4277 21.6384 18.3284 21.673C18.3669 21.6599 18.4123 21.6445 18.4362 21.6376L18.0451 21.7885C17.982 21.807 18.0305 21.7869 18.0782 21.7677C17.9982 21.797 17.9443 21.8201 17.8265 21.8624C17.8542 21.8447 17.845 21.8401 18.0105 21.7777L17.6364 21.9178C17.6102 21.9232 17.4401 21.9771 17.4878 21.9571C17.2776 22.0264 16.9797 22.1503 16.701 22.2419C16.6872 22.2481 16.6587 22.2596 16.6002 22.2812C16.4693 22.3251 16.3461 22.3666 16.2168 22.4105C16.1521 22.4328 16.0867 22.4559 16.0174 22.4798C15.9489 22.5052 15.8858 22.5237 15.8088 22.5267C15.7518 22.5229 15.6964 22.5114 15.6441 22.4913C15.5886 22.4752 15.5755 22.4682 15.5786 22.4721C15.5817 22.4759 15.6033 22.4859 15.6202 22.4952C15.6379 22.5029 15.651 22.509 15.6356 22.5067C15.621 22.5037 15.5748 22.4967 15.4893 22.4451C15.43 22.4074 15.4 22.3766 15.3839 22.3582C15.3677 22.3405 15.3631 22.332 15.3631 22.3297C15.3631 22.3243 15.3808 22.3366 15.3469 22.2958C15.2407 22.1896 15.0544 22.0056 14.8765 21.7931C14.9404 21.8593 14.9874 21.914 15.0459 21.9763L15.0413 21.9717ZM12.9104 19.6407C12.9528 19.6846 13.0397 19.7708 13.0659 19.8077C13.0113 19.7631 12.9789 19.72 12.9104 19.6407ZM13.9358 19.0294C13.9027 18.9979 13.8565 18.9448 13.8057 18.8839C13.845 18.9263 13.8889 18.9748 13.9358 19.0294ZM24.9089 22.302C24.9089 22.302 24.905 22.3035 24.9027 22.3043C24.7734 22.3474 24.8196 22.332 24.9089 22.302ZM25.1768 22.2088C25.203 22.198 25.2006 22.1973 25.1891 22.2003C25.1714 22.2096 25.1113 22.2311 25.0436 22.2558C25.0636 22.2511 25.0983 22.2404 25.1775 22.2096L25.1768 22.2088ZM22.5494 23.138L22.5093 23.0995C22.604 23.1803 22.5763 23.1588 22.5494 23.138Z" fill="#F1D9DC"/>
<path d="M13.5602 18.6352C13.5494 18.6213 13.5479 18.6167 13.5463 18.6121C13.5286 18.5951 13.5271 18.5959 13.5602 18.6352Z" fill="#F1D9DC"/>
<path d="M16.688 22.2403L16.6974 22.2371C16.7021 22.2348 16.7045 22.2332 16.706 22.2324L16.688 22.2403Z" fill="#F1D9DC"/>
<path d="M21.6287 20.6781C21.5856 20.6381 21.5625 20.6158 21.5478 20.5996C21.544 20.5996 21.5625 20.6181 21.6287 20.6781Z" fill="#F1D9DC"/>
<path d="M26.5825 21.6797L26.4124 21.7444C26.4947 21.7136 26.5247 21.7051 26.5671 21.6912C26.5625 21.6912 26.5286 21.6997 26.5825 21.6797Z" fill="#F1D9DC"/>
<path d="M28.0836 21.1949C28.109 21.1856 28.1359 21.1748 28.1606 21.1656L28.1521 21.1641C28.0459 21.2033 27.9727 21.2333 28.0836 21.1949Z" fill="#F1D9DC"/>
<path d="M26.751 21.6503C26.7671 21.6526 26.8734 21.6111 26.9919 21.5664C26.985 21.5687 26.9781 21.5718 26.9711 21.5741C27.0027 21.551 26.8765 21.601 26.751 21.6503Z" fill="#F1D9DC"/>
<path d="M27.0205 21.5565C27.0575 21.5426 27.0952 21.5295 27.1306 21.5157C27.1429 21.5064 27.0852 21.5311 27.0205 21.5565Z" fill="#F1D9DC"/>
<path d="M25.5132 22.0797C25.5702 22.0612 25.5455 22.0573 25.5787 22.0489C25.6387 22.0165 25.2053 22.1974 25.5132 22.0797Z" fill="#F1D9DC"/>
<path d="M26.8564 21.6406L26.8102 21.6468L26.7463 21.6791L26.8564 21.6406Z" fill="#F1D9DC"/>
<path d="M25.9103 21.9772L26.102 21.9102C26.102 21.9102 26.1228 21.9002 26.152 21.8887C26.0343 21.931 25.9049 21.9764 25.9103 21.9772Z" fill="#F1D9DC"/>
<path d="M26.1528 21.8878C26.2144 21.8655 26.2722 21.8439 26.306 21.8301C26.2729 21.8424 26.2021 21.8693 26.1528 21.8878Z" fill="#F1D9DC"/>
<path d="M26.597 21.7383L26.5393 21.7568L26.4045 21.8053L26.597 21.7383Z" fill="#F1D9DC"/>
<path d="M23.8872 22.6157L23.7194 22.4709C23.7002 22.4586 23.744 22.5002 23.8072 22.5541C23.8487 22.5872 23.9111 22.6411 23.8872 22.6164V22.6157Z" fill="#F1D9DC"/>
<path d="M24.4969 22.5176C24.4399 22.5361 24.4353 22.5353 24.4022 22.5445L24.3999 22.5584L24.4969 22.5183V22.5176Z" fill="#F1D9DC"/>
<path d="M23.8857 22.6534C23.8672 22.6411 23.6386 22.4471 23.8495 22.6326C23.8595 22.6373 24.062 22.8128 23.8857 22.6534Z" fill="#F1D9DC"/>
<path d="M21.3938 20.4258L21.4369 20.4642L21.444 20.4438L21.3938 20.4258Z" fill="#F1D9DC"/>
<path d="M18.7965 20.3065C19.0459 20.2242 18.8512 20.2742 19.0775 20.2018C19.1345 20.1772 18.8928 20.2611 18.9513 20.2365C18.8035 20.2935 18.7234 20.3181 18.7965 20.3065Z" fill="#F1D9DC"/>
<path d="M18.9512 20.2382C18.975 20.229 18.9997 20.219 19.0266 20.209C18.9843 20.2259 18.9635 20.2336 18.9512 20.2382Z" fill="#F1D9DC"/>
<path d="M31.1128 25.291C31.1559 25.3341 31.2052 25.3703 31.2583 25.4003C31.2245 25.3803 31.1929 25.3572 31.1629 25.331C31.1452 25.3187 31.1282 25.3056 31.1121 25.291H31.1128Z" fill="#F1D9DC"/>
<path d="M31.4199 25.4395C31.433 25.4464 31.4453 25.4533 31.4592 25.4602C31.4954 25.4625 31.5315 25.4618 31.5677 25.4579C31.5277 25.4595 31.4492 25.451 31.4199 25.4395Z" fill="#F1D9DC"/>
<path d="M12.6126 19.2772L12.6018 19.2695C12.6172 19.2911 12.6434 19.3203 12.6965 19.3796L12.6126 19.2772Z" fill="#F1D9DC"/>
<path d="M14.149 20.9785L14.1228 20.9492L14.1644 21.0116L14.149 20.9785Z" fill="#F1D9DC"/>
<path d="M15.4524 22.3779C15.4016 22.3371 15.34 22.2648 15.2861 22.207C15.3439 22.2686 15.3893 22.3248 15.4139 22.351C15.4416 22.3787 15.4555 22.3895 15.4524 22.3779Z" fill="#F1D9DC"/>
</g>
</g>
<defs>
<clipPath id="clip0_1512_24664">
<rect width="27.5958" height="48" fill="white" transform="translate(10.1499)"/>
</clipPath>
</defs>
</svg>
