<svg width="48" height="48" viewBox="0 0 48 48" fill="none" xmlns="http://www.w3.org/2000/svg">
<g clip-path="url(#clip0_1485_7018)">
<path d="M10.9954 16.3587C10.9954 16.3587 9.44641 20.6212 4.89951 21.9761C0.353566 23.3309 -0.647675 23.0916 0.353567 24.7645C1.35385 26.4374 2.70773 28.2708 5.77584 28.1507C8.84394 28.0315 11.3941 31.7761 12.43 29.9831C13.4658 28.1901 12.43 16.1992 12.43 16.1992L10.9954 16.3587Z" fill="#A5231C"/>
<path d="M37.0048 16.3587C37.0048 16.3587 38.5538 20.6212 43.1007 21.9761C47.6466 23.3309 48.6479 23.0916 47.6466 24.7645C46.6463 26.4374 45.2925 28.2708 42.2244 28.1507C39.1563 28.0306 36.6061 31.7761 35.5702 29.9831C34.5344 28.1901 35.5702 16.1992 35.5702 16.1992L37.0048 16.3587Z" fill="#A5231C"/>
<path d="M20.7406 6.39423C20.7406 6.39423 17.1315 0.700992 11.0655 1.01232C4.9994 1.32364 5.24731 6.92368 6.49165 9.9101C7.736 12.8965 6.90003 13.8689 9.22921 16.3499C11.5584 18.8309 18.4691 16.4124 20.461 12.025L20.7406 6.39423Z" fill="#D43728"/>
<path d="M27.2593 6.39423C27.2593 6.39423 30.8684 0.700992 36.9344 1.01232C43.0005 1.32364 42.7526 6.92368 41.5082 9.9101C40.2639 12.8965 41.0998 13.8689 38.7707 16.3499C36.4415 18.8309 29.5308 16.4124 27.5389 12.025L27.2593 6.39423Z" fill="#D43728"/>
<path d="M27.882 6.66795C27.6773 6.06644 26.6847 5.41016 24 5.41016C21.3153 5.41016 20.3218 6.06644 20.1181 6.66795C19.9143 7.26947 19.5636 8.60894 19.6222 9.51121C19.6809 10.4135 19.8846 10.6595 21.3153 10.6595H26.6867C28.1174 10.6595 28.3211 10.4135 28.3797 9.51121C28.4383 8.60894 28.0876 7.26947 27.8839 6.66795H27.882Z" fill="#B71C18"/>
<path d="M38.8167 33.048C35.7928 31.2838 36.109 29.5686 36.7018 22.1573C37.2899 14.8075 31.8869 10.0742 23.9999 10.0742C16.113 10.0742 10.7099 14.8075 11.298 22.1573C11.8909 29.5686 12.207 31.2838 9.18308 33.048C6.15918 34.8122 3.47159 37.1635 5.57112 40.4401C7.67065 43.7157 14.0375 46.0257 23.9999 46.0257C33.9624 46.0257 40.3282 43.7157 42.4287 40.4401C44.5282 37.1644 41.8406 34.8122 38.8167 33.048Z" fill="#FAC129"/>
<mask id="mask0_1485_7018" style="mask-type:luminance" maskUnits="userSpaceOnUse" x="4" y="10" width="40" height="37">
<path d="M38.8167 33.048C35.7928 31.2838 36.109 29.5686 36.7018 22.1573C37.2899 14.8075 31.8869 10.0742 23.9999 10.0742C16.113 10.0742 10.7099 14.8075 11.298 22.1573C11.8909 29.5686 12.207 31.2838 9.18308 33.048C6.15918 34.8122 3.47159 37.1635 5.57112 40.4401C7.67065 43.7157 14.0375 46.0257 23.9999 46.0257C33.9624 46.0257 40.3282 43.7157 42.4287 40.4401C44.5282 37.1644 41.8406 34.8122 38.8167 33.048Z" fill="white"/>
</mask>
<g mask="url(#mask0_1485_7018)">
<path d="M10.6764 31.9192C10.686 31.9077 10.6908 31.901 10.6908 31.901L9.17065 30.7249C9.45892 30.353 12.3204 27.0898 24 27.0898C35.6795 27.0898 38.542 30.353 38.8293 30.7249L37.3092 31.901C37.3092 31.901 37.314 31.9077 37.3236 31.9192C37.2986 31.8904 34.7158 29.0116 24 29.0116C13.2842 29.0116 10.7004 31.8904 10.6764 31.9192Z" fill="#FFF4B3"/>
<path d="M10.8089 31.9499C10.7762 31.9788 10.7753 31.9893 10.7753 31.9961C10.7753 31.9989 10.7781 32.0009 10.7791 32.0028C10.782 32.0057 10.7781 32.0028 10.7647 31.9912C10.7387 31.9711 10.7195 31.9547 10.6926 31.9336C10.7186 31.9547 10.7445 31.9749 10.7695 31.9961C10.7878 32.0105 10.783 32.0066 10.7839 32.0066L10.7878 32.0018L10.7945 31.9941C10.7945 31.9941 10.8022 31.9855 10.8051 31.9816C10.8118 31.974 10.8185 31.9663 10.8214 31.9615C10.8291 31.9509 10.83 31.9461 10.8272 31.9442C10.8223 31.9413 10.8051 31.9509 10.8079 31.9519L10.8089 31.9499Z" fill="#FFF5BB"/>
<path d="M12.0351 31.0892L12.0149 31.1094L12.1091 31.0479L12.2061 30.9922C12.1475 31.0229 12.0898 31.0546 12.0341 31.0902L12.0351 31.0892Z" fill="#FFF5BB"/>
<path d="M13.3408 30.5273C13.2044 30.5456 12.8614 30.7195 12.6231 30.806L12.5817 30.8166L12.4895 30.8896C12.5596 30.8569 12.6327 30.8175 12.7095 30.7849C12.7874 30.7522 12.8662 30.7186 12.9421 30.6859C13.0949 30.6215 13.238 30.5629 13.3408 30.5273Z" fill="#FFF5BB"/>
<path d="M14.0837 30.3562C14.0356 30.3581 14.2355 30.2937 13.9146 30.4081C13.9309 30.4042 13.9357 30.4033 13.9463 30.4013C13.9751 30.3917 14.0154 30.3783 14.0837 30.3562Z" fill="#FFF5BB"/>
<path d="M13.9463 30.4023C13.805 30.4503 14.0424 30.3821 13.9463 30.4023V30.4023Z" fill="#FFF5BB"/>
<path d="M14.6063 30.1974L14.4199 30.2618C14.4622 30.2579 14.6313 30.2137 14.5698 30.2358C14.763 30.1753 14.7207 30.1791 14.6063 30.1974Z" fill="#FFF5BB"/>
<path d="M14.7802 30.125L14.6831 30.1567C14.7014 30.1548 14.7273 30.149 14.7802 30.125Z" fill="#FFF5BB"/>
<path d="M14.4766 30.2245L14.6832 30.1562C14.6543 30.1582 14.6486 30.1486 14.588 30.186C14.6024 30.1716 14.564 30.1928 14.4766 30.2235V30.2245Z" fill="#FFF5BB"/>
<path d="M14.3575 30.2528C14.2489 30.2749 14.1096 30.3085 14.2969 30.2441C14.1144 30.2941 14.0423 30.3335 14.0567 30.3335C14.0721 30.3345 14.1749 30.3028 14.3575 30.2528Z" fill="#FFF5BB"/>
<path d="M13.3976 30.4688C13.3496 30.4803 13.3015 30.4957 13.2545 30.511L13.1392 30.5687C13.1968 30.5389 13.4092 30.4726 13.3976 30.4688Z" fill="#FFF5BB"/>
<path d="M15.8037 29.9207C15.8143 29.9111 15.7345 29.9159 15.7182 29.9102L15.5779 29.9505C15.6519 29.939 15.7922 29.9121 15.8037 29.9207Z" fill="#FFF5BB"/>
<path d="M15.7189 29.9101L15.9294 29.8496C15.7391 29.8909 15.7055 29.9044 15.7189 29.9101Z" fill="#FFF5BB"/>
<path d="M14.8043 30.0769L14.4651 30.1989L14.8715 30.0586L14.8043 30.0769Z" fill="#FFF5BB"/>
<path d="M16.6213 29.7574L16.5022 29.7958L16.7146 29.7324L16.6213 29.7574Z" fill="#FFF5BB"/>
<path d="M17.1652 29.6592C17.0777 29.689 17.293 29.6611 17.1988 29.6861C17.3458 29.6563 17.4707 29.6227 17.5841 29.5996C17.4631 29.6198 17.3343 29.6409 17.1652 29.6592Z" fill="#FFF5BB"/>
<path d="M17.7745 29.5586C17.7139 29.5701 17.6515 29.5845 17.5842 29.5999C17.6486 29.5884 17.7111 29.5749 17.7745 29.5586Z" fill="#FFF5BB"/>
<path d="M16.2937 29.7761C16.311 29.7771 16.3456 29.7829 16.4667 29.7665L16.3783 29.7617C16.3523 29.7665 16.3235 29.7713 16.2937 29.7761Z" fill="#FFF5BB"/>
<path d="M16.3752 29.7612H16.3781C16.4704 29.7458 16.5338 29.7343 16.5617 29.7305C16.5386 29.7343 16.4819 29.7439 16.3752 29.7612Z" fill="#FFF5BB"/>
<path d="M16.2725 29.7792C16.2801 29.7783 16.2859 29.7773 16.2936 29.7754C16.285 29.7754 16.2801 29.7754 16.2725 29.7792Z" fill="#FFF5BB"/>
<path d="M15.3645 29.9552C15.4875 29.9158 15.746 29.8447 15.4894 29.8851C15.4029 29.9187 15.55 29.8966 15.3645 29.9552Z" fill="#FFF5BB"/>
<path d="M16.1621 29.7744L15.9344 29.8205C15.9401 29.8244 15.9824 29.8234 15.9219 29.8426L16.1621 29.7734V29.7744Z" fill="#FFF5BB"/>
<path d="M16.2736 29.748C16.2371 29.7577 16.1996 29.7644 16.1631 29.775C16.191 29.7682 16.2198 29.7653 16.2476 29.7605L16.2736 29.748Z" fill="#FFF5BB"/>
<path d="M17.3775 29.5918C17.4745 29.5659 17.5841 29.5534 17.7071 29.5352C17.5745 29.5505 17.4371 29.5611 17.3093 29.5861C17.292 29.5957 17.2372 29.6168 17.3775 29.5918Z" fill="#FFF5BB"/>
<path d="M16.8903 29.6728C16.8971 29.6709 16.9057 29.6689 16.9124 29.668C16.899 29.668 16.8875 29.6699 16.8903 29.6728Z" fill="#FFF5BB"/>
<path d="M18.9178 29.3808C18.9111 29.3808 18.9053 29.3799 18.8976 29.3789C18.8967 29.3799 18.8957 29.3818 18.8938 29.3828L18.9178 29.3808Z" fill="#FFF5BB"/>
<path d="M17.2863 29.588C17.1874 29.6015 17.1297 29.6168 17.074 29.6332C17.147 29.6178 17.2248 29.6034 17.3084 29.588C17.3161 29.5842 17.3171 29.5813 17.2863 29.588Z" fill="#FFF5BB"/>
<path d="M18.1107 29.5039C18.0588 29.5077 17.9992 29.5116 17.9377 29.5154C17.9887 29.5154 18.0934 29.5116 18.1107 29.5039Z" fill="#FFF5BB"/>
<path d="M16.9461 29.668C16.9412 29.6689 16.9364 29.6699 16.9316 29.6718C16.9643 29.6709 16.9605 29.6689 16.9461 29.668Z" fill="#FFF5BB"/>
<path d="M16.9462 29.6684C16.9962 29.6568 17.0356 29.6443 17.074 29.6328C17.0144 29.6453 16.9597 29.6568 16.9116 29.6684C16.9241 29.6684 16.9366 29.6684 16.9453 29.6684H16.9462Z" fill="#FFF5BB"/>
<path d="M19.2734 29.2165C19.2581 29.2377 18.9967 29.2771 18.768 29.28C18.548 29.3251 18.6998 29.3626 18.8977 29.3799C18.9035 29.3712 18.9025 29.3636 19.1303 29.3309C19.0486 29.3261 18.62 29.3559 18.8103 29.3184C19.113 29.2809 19.0601 29.3021 19.2081 29.2992C19.0803 29.2867 19.5915 29.23 19.5214 29.2012L19.2561 29.2377C19.2504 29.2329 19.3465 29.2156 19.2715 29.2175L19.2734 29.2165Z" fill="#FFF5BB"/>
<path d="M18.4633 29.4309L18.3701 29.4453C18.4777 29.4347 18.5546 29.4318 18.6968 29.428C18.8515 29.3972 18.8832 29.3915 18.8938 29.3828C18.7391 29.3953 18.5854 29.4203 18.4316 29.4376L18.4633 29.4309Z" fill="#FFF5BB"/>
<path d="M17.9492 29.5008C18.0193 29.471 18.2432 29.4316 18.1029 29.4277C17.8281 29.4652 17.9126 29.47 17.7493 29.5008C18.1923 29.4373 17.6234 29.5286 17.9453 29.4979C17.8588 29.5133 17.78 29.5248 17.7061 29.5354C17.7868 29.5277 17.8636 29.5209 17.9367 29.5142C17.9328 29.5142 17.9299 29.5142 17.9261 29.5142H17.9242C17.905 29.5142 17.8982 29.5142 17.9203 29.5123C17.9223 29.5123 17.9271 29.5113 17.9299 29.5104C17.9328 29.5075 17.9405 29.5036 17.9492 29.4998C18.0779 29.4873 17.9703 29.5027 17.9299 29.5104C17.929 29.5113 17.9251 29.5133 17.9251 29.5142C17.9251 29.5142 17.9261 29.5142 17.9271 29.5142L18.37 29.4441C18.2759 29.4537 18.1577 29.47 17.9492 29.4998V29.5008Z" fill="#FFF5BB"/>
<path d="M15.7134 29.7896C15.7278 29.7886 15.7268 29.7896 15.7288 29.7915C15.7566 29.7829 15.7672 29.779 15.7134 29.7896Z" fill="#FFF5BB"/>
<path d="M15.8958 29.7612C15.8641 29.7708 15.84 29.7853 15.7353 29.8064C15.644 29.8208 15.7334 29.7968 15.7276 29.791C15.6661 29.8102 15.5124 29.8544 15.7103 29.8208L15.7411 29.8112C15.9188 29.7785 16.1504 29.7526 16.1206 29.7622C16.0659 29.7555 16.0178 29.7526 15.8958 29.7612Z" fill="#FFF5BB"/>
<path d="M16.9326 29.6042L17.2987 29.5293L17.1085 29.5447L17.12 29.5533C16.9096 29.586 16.9576 29.5908 16.9326 29.6042Z" fill="#FFF5BB"/>
<path d="M18.9611 29.3873L18.9141 29.4132L19.1264 29.3633L18.9611 29.3873Z" fill="#FFF5BB"/>
<path d="M19.4443 29.3398L19.428 29.361L19.5548 29.3379L19.4443 29.3398Z" fill="#FFF5BB"/>
<path d="M32.4509 27.9539L32.3423 27.9395C32.3932 27.9471 32.4268 27.9519 32.4509 27.9539Z" fill="#FFF5BB"/>
<path d="M33.2224 28.1359L33.2436 28.1311C33.2071 28.1273 33.1907 28.1282 33.2224 28.1359Z" fill="#FFF5BB"/>
<path d="M31.3276 29.7109C31.4814 29.7561 31.6515 29.8147 31.637 29.7897L31.5928 29.7609C31.4823 29.7455 31.3987 29.7282 31.3276 29.7109Z" fill="#FFF5BB"/>
<path d="M38.6344 30.8691C38.6209 30.8768 38.6074 30.8845 38.593 30.8932C38.5661 30.922 38.5411 30.9499 38.519 30.9739C38.5536 30.9422 38.593 30.9066 38.6344 30.8691Z" fill="#FFF5BB"/>
<path d="M38.645 30.7527L38.6969 30.721C38.6969 30.721 38.7075 30.7152 38.7094 30.7123L38.7027 30.7008L38.6873 30.6777C38.6911 30.6883 38.7056 30.7018 38.7046 30.7152C38.6883 30.7258 38.6681 30.7383 38.645 30.7527Z" fill="#FFF5BB"/>
<path d="M28.1549 27.3848L28.0261 27.3934C28.225 27.4126 28.1385 27.3934 28.1549 27.3848Z" fill="#FFF5BB"/>
<path d="M24.4111 29.133C24.5495 29.1436 24.659 29.1484 24.7551 29.1513C24.5889 29.1369 24.4553 29.1167 24.4111 29.133Z" fill="#FFF5BB"/>
<path d="M32.8036 27.8068C32.7373 27.7952 32.7076 27.7923 32.7085 27.7971C32.7767 27.8096 32.8161 27.8154 32.8036 27.8068Z" fill="#FFF5BB"/>
<path d="M25.1539 29.1581C25.1299 29.1562 25.1058 29.1543 25.0809 29.1523C24.98 29.1543 24.8781 29.1552 24.7551 29.1523C24.8781 29.1629 25.0184 29.1716 25.1539 29.1591V29.1581Z" fill="#FFF5BB"/>
<path d="M12.5934 28.7949C12.5828 28.7978 12.5693 28.8016 12.5588 28.8045C12.5568 28.8084 12.5713 28.8036 12.5934 28.7949Z" fill="#FFF5BB"/>
<path d="M9.59545 31.169C9.55894 31.1412 9.50033 31.097 9.44556 31.0547C9.4715 31.0768 9.51666 31.1114 9.59545 31.169Z" fill="#FFF5BB"/>
<path d="M21.3931 29.2109C21.2902 29.2177 21.3767 29.2138 21.3931 29.2109V29.2109Z" fill="#FFF5BB"/>
<path d="M20.8877 29.1551C20.9098 29.1512 20.9261 29.1474 20.9281 29.1426C20.9194 29.1483 20.906 29.1522 20.8877 29.1551Z" fill="#FFF5BB"/>
<path d="M26.185 29.0548C26.185 29.0548 26.1907 29.0548 26.1936 29.0548C26.1629 29.049 26.1686 29.0499 26.185 29.0548Z" fill="#FFF5BB"/>
<path d="M21.2586 29.2188C21.223 29.2197 21.1951 29.2207 21.1682 29.2216C21.1557 29.2255 21.1673 29.2274 21.2586 29.2188Z" fill="#FFF5BB"/>
<path d="M21.5364 29.2031C21.4777 29.207 21.423 29.2089 21.3701 29.2099C21.3903 29.2099 21.3989 29.2108 21.3932 29.2118C21.423 29.2099 21.4662 29.207 21.5364 29.2031Z" fill="#FFF5BB"/>
<path d="M20.8483 27.248C20.8416 27.248 20.8339 27.248 20.8262 27.248C20.7224 27.2625 20.7685 27.2586 20.8483 27.248Z" fill="#FFF5BB"/>
<path d="M33.9893 30.1259C33.9893 30.1259 33.9816 30.124 33.9778 30.123C33.9826 30.125 33.9884 30.1269 33.9922 30.1288L33.9893 30.1259Z" fill="#FFF5BB"/>
<path d="M34.3487 30.2288C34.1892 30.2029 34.1056 30.1721 33.9922 30.1289L34.0912 30.225L34.3487 30.2288Z" fill="#FFF5BB"/>
<path d="M30.5762 27.6392L30.8309 27.694C30.5167 27.6815 30.2937 27.6392 30.5311 27.6988C30.5541 27.669 30.804 27.7017 31.0538 27.7353C31.1787 27.7497 31.3027 27.7747 31.3978 27.7872C31.4939 27.8007 31.5611 27.8045 31.5727 27.7901L31.7379 27.8353C31.6899 27.8256 31.6813 27.8276 31.6342 27.8189C31.9551 27.9102 31.8859 27.818 32.3058 27.9054C32.4519 27.9381 32.5518 27.9659 32.4509 27.9554C32.5614 27.9679 32.669 27.9938 32.7786 28.013C32.8728 28.037 32.8468 28.0418 32.7536 28.0188L33.2485 28.1312H33.2446C33.3176 28.1389 33.481 28.162 33.5607 28.1735C33.6837 28.2129 33.4964 28.1648 33.5262 28.1812C33.6184 28.1994 33.7116 28.211 33.8029 28.235C33.8557 28.259 33.825 28.259 33.7577 28.2456C33.6905 28.2321 33.5857 28.2129 33.4916 28.1889C33.7308 28.3109 33.7231 28.2263 34.2545 28.4233L33.9979 28.3561C34.1517 28.4396 34.3525 28.4848 34.6321 28.5915C34.5687 28.5598 34.0748 28.3666 34.3717 28.4368C34.4524 28.4656 34.5601 28.5002 34.7225 28.5338C34.7176 28.553 34.8695 28.603 35.0588 28.6683L35.0357 28.6924C35.2423 28.7567 35.2317 28.7366 35.3566 28.7663C35.5824 28.8509 35.6228 28.8874 35.667 28.9287C36.0196 29.0834 35.4354 28.7894 35.8582 28.9624C36.1484 29.1017 36.3665 29.1651 36.7144 29.3275C36.9104 29.437 36.6711 29.3275 36.7393 29.3707L36.9286 29.438C36.9719 29.4601 36.9546 29.4601 36.9459 29.4601C37.0997 29.5283 36.9748 29.4342 37.2083 29.56C37.2477 29.5629 37.3591 29.6427 37.4975 29.7368C37.5686 29.782 37.6397 29.8397 37.7137 29.8925C37.7877 29.9454 37.8636 29.9934 37.9366 30.0318C37.9981 30.0837 37.8934 30.0251 37.9068 30.0491C38.0952 30.1673 38.1691 30.2288 38.2412 30.2749C38.3142 30.3211 38.3709 30.3701 38.5189 30.4786C38.5564 30.5152 38.5871 30.5565 38.6217 30.5959L38.6457 30.6237L38.6611 30.643C38.6707 30.6554 38.6794 30.6679 38.6871 30.6804C38.6563 30.6266 38.664 30.618 38.7188 30.6603C38.7322 30.6708 38.7476 30.6843 38.7659 30.7016L38.7793 30.7141C38.7793 30.7141 38.7947 30.7237 38.787 30.7275C38.7793 30.7352 38.7707 30.7438 38.763 30.7525C38.7274 30.7871 38.6851 30.8284 38.6352 30.8736C38.7053 30.8332 38.7745 30.7919 38.8225 30.7611L38.6496 30.9043L38.4872 31.034C38.444 31.06 38.4728 31.0292 38.5199 30.9793C38.4987 30.9985 38.4785 31.0158 38.4632 31.0302C38.3402 31.1138 38.3901 31.0542 38.4632 30.9745C38.5074 30.9485 38.5506 30.9226 38.5939 30.8976C38.6284 30.8592 38.665 30.8188 38.6755 30.7977C38.689 30.7746 38.688 30.7631 38.6736 30.7631C38.6611 30.7775 38.6467 30.7929 38.5958 30.8342C38.614 30.814 38.6246 30.7996 38.6131 30.8044C38.5996 30.8102 38.5698 30.8428 38.5208 30.8909L38.4238 30.9226L38.4142 30.9476L37.9674 31.2666C37.7906 31.4299 37.6349 31.5846 37.4302 31.7701C37.3956 31.8027 37.3562 31.8383 37.3111 31.8787L37.3197 31.8902L37.3236 31.8959C37.3236 31.8959 37.3207 31.8931 37.3197 31.8921L37.3005 31.8748C37.288 31.8623 37.2726 31.8517 37.2573 31.8383C37.1948 31.7835 37.1093 31.723 37.0257 31.6576C37.1602 31.7345 37.0766 31.6461 37.1016 31.6279C37.1237 31.6538 37.1525 31.6817 37.1862 31.7105C37.2131 31.7336 37.2438 31.7595 37.2755 31.7864C37.2851 31.7941 37.2957 31.8018 37.3043 31.8104L37.3178 31.8229L37.3216 31.8258C37.3216 31.8258 37.3197 31.8229 37.3197 31.822L37.314 31.8133C37.3409 31.7893 37.3687 31.7643 37.3976 31.7384C37.4552 31.6903 37.5167 31.6413 37.5801 31.5942C37.4446 31.6951 37.4639 31.6625 37.4946 31.6327L37.3851 31.7259L37.3159 31.7912L37.3207 31.7989L37.3236 31.8027L37.3207 31.7999L37.3092 31.7903C37.3015 31.7835 37.2919 31.7768 37.2832 31.7701L37.2534 31.7461L37.238 31.7336L37.215 31.7163C37.24 31.7076 37.1323 31.6211 37.0151 31.5241C37.0478 31.5769 36.9546 31.5202 36.8287 31.4366C36.7019 31.354 36.5347 31.257 36.4319 31.2003C36.428 31.1782 36.4838 31.1935 36.7259 31.3482C36.601 31.2502 36.5068 31.208 36.4126 31.1686C36.3166 31.134 36.2205 31.1003 36.0927 31.0139C36.1542 31.0465 36.1859 31.0667 36.2137 31.0725C36.1378 31.0408 36.0158 30.9735 35.9207 30.9235C35.8236 30.8755 35.7583 30.838 35.8034 30.8515L35.8669 30.8803C35.7621 30.8313 35.6305 30.7698 35.4902 30.7045C35.421 30.6708 35.347 30.641 35.273 30.6132C35.1991 30.5853 35.126 30.5574 35.0549 30.5305C34.9137 30.4777 34.783 30.4306 34.6831 30.3989C34.5812 30.371 34.5111 30.3566 34.4909 30.3605C34.488 30.3537 34.5639 30.3326 34.5937 30.3345C34.3179 30.2932 34.046 30.2442 33.7721 30.2106C33.8519 30.1981 33.6098 30.0376 33.9807 30.1298C33.8788 30.0876 33.7481 30.0511 33.5223 29.9992C33.5934 30.0241 33.6876 30.0972 33.5886 30.0732C33.3292 29.9607 33.407 30.0011 33.0822 29.8771C33.1879 29.9156 33.0553 29.9319 32.8843 29.8877C32.9131 29.8858 32.8833 29.832 32.9477 29.8406L32.5057 29.7964C32.6152 29.8108 32.5355 29.7561 32.4423 29.7195C32.4846 29.7397 32.0704 29.635 31.9551 29.6148L32.1348 29.6677C32.0137 29.6388 31.9224 29.6215 31.8456 29.6119C31.7687 29.6052 31.7062 29.6042 31.6438 29.6033C31.5198 29.6014 31.3968 29.6004 31.1547 29.5562C31.2152 29.5562 31.3123 29.5139 31.0663 29.464C31.0077 29.4678 30.876 29.4784 30.7069 29.4812C30.5378 29.4822 30.3274 29.4928 30.1112 29.4736L30.0305 29.4467L29.698 29.4207C29.8037 29.414 30.0036 29.4073 30.2178 29.4044C30.4321 29.4005 30.6608 29.3986 30.8203 29.414C30.6387 29.3717 30.7732 29.3813 30.4965 29.3448C30.4014 29.3179 30.6512 29.34 30.7319 29.3573C30.5195 29.316 30.3043 29.292 30.09 29.2574C30.1141 29.2929 29.5933 29.2247 29.6144 29.2545L30.3178 29.3141C30.3408 29.3496 29.9017 29.3515 29.4472 29.2852C29.3329 29.2574 29.5404 29.2401 29.5327 29.2276C29.5029 29.2295 29.3934 29.2199 29.2877 29.2093C29.182 29.1968 29.0773 29.192 29.0561 29.1853C29.1215 29.1853 29.1868 29.1853 29.2521 29.1872C28.9985 29.1497 28.8322 29.1911 28.5296 29.1324C28.4239 29.1209 28.2173 29.0623 28.198 29.0796C28.3672 29.1324 28.3902 29.2487 28.274 29.266C28.2374 29.2612 27.7243 29.1786 27.6052 29.1536C27.5197 29.1344 27.586 29.1209 27.6551 29.1075C27.7243 29.0969 27.7974 29.0873 27.7243 29.0681C27.7176 29.0758 27.6206 29.0786 27.5802 29.0815C27.4697 29.0681 27.6282 29.0565 27.3861 29.0479C27.3438 29.0786 26.8951 29.0191 27.2698 29.069C27.0335 29.0661 27.019 29.0489 26.7413 29.0354C26.8288 29.0613 26.4886 29.094 26.2523 29.0911C26.2667 29.0834 26.2138 29.07 26.1888 29.0633C25.9477 29.046 25.7612 29.0402 25.5796 29.0335C25.398 29.0267 25.2203 29.0191 24.9945 29.0152C24.9531 29.0066 24.735 28.9931 24.8282 28.9806C24.7629 28.9854 24.7033 28.995 24.564 28.9941C24.2949 28.9614 24.8744 28.9941 24.6697 28.9576C24.6514 28.9758 24.3084 28.9777 24.1104 28.9864C24.171 29.0171 24.5688 28.9998 24.7677 28.9912C24.7677 29.0325 24.4218 29.0661 23.95 29.0806C23.5752 29.0969 23.7876 29.0575 23.7223 29.0642C23.0179 29.069 23.1236 29.1449 22.5394 29.1257C22.3069 29.1036 22.5279 29.0748 22.476 29.0565C22.7815 29.0412 22.9449 29.0652 23.1524 29.0604L22.8978 29.0527C22.9949 29.0421 23.1986 29.0325 23.31 29.0383C23.213 29.0287 22.9151 29.0325 22.574 29.0373C22.403 29.0402 22.2223 29.0431 22.0494 29.045C21.8764 29.0527 21.713 29.0585 21.5766 29.0604C21.4805 29.0738 21.3143 29.0921 21.394 29.0979L21.566 29.0854C21.7246 29.0979 21.2441 29.1315 21.4623 29.1296C21.2326 29.1565 20.976 29.193 20.6513 29.1978L20.5888 29.1718C20.5965 29.1805 20.8021 29.1786 20.8924 29.1642C20.7589 29.1863 20.3928 29.1459 20.2477 29.2016C20.3236 29.2007 20.3995 29.2016 20.4754 29.2055C20.2458 29.2324 19.9642 29.2958 19.6769 29.3112C19.8095 29.3285 19.7423 29.3016 19.9489 29.3169C19.8595 29.3035 20.0421 29.2881 20.2112 29.2727C20.3803 29.2554 20.5369 29.2506 20.3938 29.2353C20.6051 29.2641 20.757 29.2333 21.0318 29.2526C21.0231 29.2429 20.9338 29.2391 21.1749 29.2314C21.1855 29.2276 21.2115 29.2228 21.2268 29.2199C21.2345 29.2199 21.2364 29.2199 21.2432 29.2199C21.2384 29.2199 21.2345 29.2199 21.2297 29.2199C21.2403 29.218 21.2413 29.218 21.2249 29.2199C21.1673 29.2189 21.1202 29.216 21.1019 29.2112C21.2201 29.1824 21.6035 29.1632 21.7323 29.1449C21.8754 29.1421 21.6727 29.1593 21.7515 29.1651L21.9446 29.1373C21.9648 29.1565 22.3251 29.1555 21.9898 29.1834C22.0907 29.1766 22.1916 29.1766 22.2925 29.1757C22.4712 29.1843 22.7172 29.1853 22.868 29.1738C23.0112 29.1757 23.2293 29.144 23.1044 29.1632L23.58 29.1421L23.5848 29.1478C24.0538 29.1344 24.5515 29.118 25.0877 29.1622C25.2462 29.1593 25.4096 29.1555 25.6738 29.1661L25.7247 29.1853C25.9284 29.1766 26.332 29.2314 26.4204 29.2141C26.6366 29.2775 27.4024 29.2727 27.757 29.3092L27.7724 29.2862C28.0164 29.3102 28.2519 29.3246 28.5555 29.3419L28.5392 29.3189C28.8024 29.3265 29.2118 29.389 29.6221 29.4486C29.5933 29.4534 29.4885 29.437 29.4155 29.4226C29.6586 29.4793 29.919 29.5053 30.1736 29.5283C30.3014 29.5399 30.4273 29.5514 30.5493 29.5648C30.6714 29.5802 30.7876 29.6052 30.8972 29.6331C31.0086 29.6446 31.0884 29.6619 31.1653 29.6811C31.1547 29.6792 31.146 29.6782 31.1374 29.6773C31.1489 29.6792 31.1653 29.6821 31.1826 29.6859C31.2306 29.6984 31.2806 29.7109 31.3334 29.7244C31.2883 29.7109 31.245 29.6994 31.2066 29.6898C31.2921 29.7042 31.4209 29.7243 31.5487 29.7416L31.5986 29.7743C31.6092 29.7762 31.6169 29.7772 31.6284 29.7791C31.7504 29.8099 31.7303 29.7858 31.6678 29.757C31.7322 29.7647 31.7918 29.7695 31.8379 29.7734C31.9301 29.832 32.1694 29.8349 32.2972 29.905C32.3856 29.9069 32.9314 30.028 33.0063 30.0126C33.0092 30.0193 33.0447 30.0318 32.9784 30.0126C33.1159 30.0559 33.2523 30.0981 33.3791 30.1212L33.4301 30.1654L33.7424 30.2106C33.8317 30.2432 33.8942 30.2711 33.9105 30.2855C33.9268 30.2999 33.899 30.2961 33.8058 30.2807C34.2487 30.3874 34.1603 30.3835 34.5389 30.4729L34.5149 30.4844C34.6485 30.5228 34.8608 30.5853 34.9338 30.6295C35.003 30.666 35.126 30.7198 35.2836 30.7852C35.4393 30.8534 35.6247 30.9447 35.8255 31.036C36.2195 31.2339 36.6606 31.4808 36.9594 31.7345C36.9248 31.6836 36.9594 31.7047 37.0132 31.7537C37.0401 31.7787 37.0728 31.8085 37.1054 31.8393L37.1304 31.8623C37.141 31.8729 37.1525 31.8835 37.1631 31.894C37.1852 31.9152 37.2063 31.9363 37.2256 31.9546C37.2409 31.9488 37.2553 31.944 37.2688 31.9392C37.2755 31.9363 37.2813 31.9344 37.2871 31.9325C37.288 31.9325 37.2899 31.9315 37.2909 31.9315L37.2938 31.9373L37.2986 31.9469C37.3111 31.9719 37.3197 31.9872 37.3226 31.9882C37.3245 31.993 37.3264 31.9978 37.3293 32.0036L37.3332 32.0122V32.0141V31.9315H37.3322H37.3303L37.3178 31.9286C37.3668 31.944 37.4225 31.9844 37.3178 31.9325C37.3178 31.9325 37.3207 31.9325 37.3236 31.9325H37.3178C37.338 31.943 37.3572 31.9536 37.3764 31.9632L37.4043 31.9776C37.4043 31.9776 37.4091 31.9805 37.411 31.9805L37.4187 31.9747L37.4331 31.9632C37.4523 31.9478 37.4706 31.9334 37.4888 31.919L37.5023 31.9084C37.5023 31.9084 37.509 31.9075 37.5061 31.9008L37.4984 31.8815C37.4879 31.8566 37.4783 31.8316 37.4687 31.8066C37.707 31.6432 37.8636 31.551 38.0471 31.4088C38.0903 31.3876 37.9808 31.4655 38.0173 31.4443C38.0442 31.4251 38.1211 31.3675 38.1595 31.3473C38.197 31.3281 38.1134 31.3857 38.0615 31.4232C38.4113 31.1964 38.4267 31.1474 38.4324 31.1051C38.5227 31.0494 38.5891 31.0062 38.6467 30.9639C38.6765 30.9408 38.6995 30.9235 38.7313 30.8957C38.7649 30.8649 38.7976 30.8342 38.8273 30.8025C38.8494 30.789 38.8744 30.7736 38.8956 30.7602C38.9013 30.7563 38.9061 30.7535 38.9109 30.7506C38.9148 30.7477 38.9234 30.7448 38.9186 30.7419C38.9157 30.7362 38.9138 30.7314 38.9138 30.7294C38.9138 30.7275 38.9167 30.7285 38.9215 30.7333C38.9244 30.7371 38.9446 30.7467 38.9254 30.7563C38.9023 30.7765 38.8619 30.8121 38.7899 30.8688C38.8101 30.8534 38.8408 30.8294 38.8792 30.8005C38.8985 30.7861 38.9196 30.7698 38.9417 30.7515L38.9455 30.7487C38.9455 30.7487 38.9436 30.7458 38.9427 30.7448L38.9359 30.7362L38.9215 30.7189C38.9119 30.7073 38.9023 30.6948 38.8917 30.6833C38.8514 30.6343 38.8081 30.5786 38.7572 30.5286C38.7207 30.4911 38.6842 30.4517 38.6477 30.4133C38.5698 30.3432 38.4949 30.2759 38.4372 30.2279C38.3796 30.1798 38.3354 30.1558 38.3277 30.1587C38.296 30.1241 38.1672 30.0299 38.1346 30.0088C38.0048 29.9069 37.927 29.8627 37.8549 29.8099C37.8184 29.7849 37.7819 29.7599 37.7377 29.7301C37.6935 29.6994 37.6416 29.6648 37.5705 29.6263L37.6455 29.6753C37.5157 29.6427 37.41 29.5475 37.1833 29.4207H37.1919C36.9373 29.267 36.8739 29.2478 36.8172 29.2199C36.7586 29.1949 36.7038 29.1661 36.4453 29.0258L36.4655 29.0594C36.3944 29.0844 35.9995 28.8278 35.6766 28.7164C35.7141 28.7327 35.7496 28.7548 35.7861 28.774C35.6093 28.7183 35.3211 28.5338 35.1472 28.4627C35.1097 28.4454 35.2106 28.4781 35.2654 28.4944C34.8128 28.3022 35.1952 28.5011 34.8493 28.3858C34.7897 28.3503 34.9454 28.3705 34.7109 28.2974C34.5966 28.2523 34.0133 28.1418 33.6982 28.0265C33.7664 28.0553 33.8346 28.0851 33.6674 28.0543C33.4147 27.9986 32.9957 27.8458 32.7594 27.8295C32.7277 27.8189 32.7161 27.8122 32.7161 27.8093C32.6191 27.7882 32.4596 27.7641 32.3097 27.742C32.1598 27.7199 32.0195 27.7007 31.959 27.7007C31.8763 27.645 31.5717 27.5979 31.2902 27.5556C31.0077 27.5201 30.7473 27.4999 30.755 27.4624L30.1506 27.3827L30.1669 27.3779C29.9747 27.349 29.8431 27.3337 29.7432 27.326C29.6432 27.3183 29.5731 27.3231 29.5049 27.325C29.4155 27.3116 29.4818 27.3106 29.4895 27.3077C28.9245 27.2385 28.8678 27.2366 28.3902 27.228L28.3431 27.1991C28.3105 27.1991 28.2432 27.1924 28.1519 27.1809C28.1068 27.1751 28.0549 27.1684 27.9982 27.1617C27.9415 27.1569 27.881 27.1511 27.8156 27.1453C27.5571 27.1232 27.2458 27.1002 26.9662 27.0992C26.972 27.0973 26.9835 27.0925 27.0277 27.0915C26.7135 27.0896 26.3397 27.0483 26.014 27.0271C25.6882 27.0118 25.4124 27.006 25.2962 27.0473L24.882 27.0617C25.4173 27.0781 24.8013 27.0983 25.0214 27.1165C24.8109 27.1175 24.4775 27.081 24.7369 27.081L24.7773 27.0858C24.8734 27.0425 24.1124 27.0579 24.1268 27.0271C23.6002 27.031 23.0794 27.0358 22.5682 27.0396C22.3126 27.0425 22.058 27.0387 21.8063 27.0483C21.5545 27.0608 21.3056 27.0723 21.0587 27.0848L21.174 27.1136L20.83 27.1309C20.7397 27.128 20.707 27.1098 20.953 27.0983C20.8223 27.0858 20.5427 27.1377 20.536 27.1453C20.0546 27.1578 20.7214 27.0944 20.5734 27.1011L20.3736 27.1146L20.4187 27.1165C20.2573 27.1415 20.2439 27.153 19.9498 27.1732C19.7634 27.1838 19.8528 27.1607 19.7797 27.1665C19.7797 27.1636 19.7548 27.1655 19.6673 27.1761L19.2349 27.2145L19.4108 27.2261C19.2205 27.2578 19.0043 27.2635 19.2071 27.276C19.0591 27.2664 18.6546 27.2981 18.2664 27.3394C17.8791 27.3932 17.5073 27.449 17.4169 27.4538C17.2853 27.4826 17.1527 27.5057 17.0134 27.5278C16.9432 27.5383 16.8721 27.5479 16.7972 27.5595C16.7232 27.5729 16.6453 27.5864 16.5646 27.6018C16.6463 27.5921 16.6992 27.6142 16.4195 27.6623C16.5108 27.5797 15.9035 27.7305 15.6681 27.7267C15.7719 27.7238 15.573 27.7593 15.3904 27.8016C15.2088 27.8487 15.0416 27.8939 15.2031 27.8775C14.9715 27.9275 15.1838 27.8574 15.0051 27.8843C14.8687 27.9227 14.7255 27.9592 14.5746 27.9948C14.4247 28.0332 14.2672 28.0591 14.1096 28.1062C13.7934 28.1946 13.4581 28.2792 13.1256 28.3887C13.1179 28.4003 13.2323 28.3733 13.0949 28.4358L12.7326 28.5194C12.6039 28.5694 12.6298 28.6078 12.3809 28.6655C12.4175 28.6597 12.4713 28.652 12.3848 28.6856C12.2214 28.7366 12.0638 28.8086 11.9034 28.872L11.6632 28.972C11.5824 29.0046 11.5027 29.0383 11.4249 29.0796C11.2692 29.1584 11.1126 29.2372 10.9559 29.316C10.7993 29.3957 10.6513 29.4928 10.4986 29.5802C10.3439 29.6657 10.2017 29.7714 10.0546 29.8685C9.90474 29.9626 9.77022 30.0799 9.62801 30.1846C9.55786 30.2394 9.49348 30.3009 9.42526 30.3576C9.39163 30.3874 9.35704 30.4143 9.32629 30.4469L9.22347 30.5478C9.17831 30.592 9.13699 30.643 9.09279 30.692L9.06012 30.7294L9.04379 30.7487C9.03899 30.7525 9.04379 30.7544 9.04667 30.7573L9.05532 30.765L9.12835 30.8265L9.27728 30.9495L9.37626 31.034C9.23789 30.9062 9.33782 30.9812 9.4512 31.0686C9.3801 31.0081 9.46562 31.0533 9.45793 31.0331L9.89705 31.4126C9.99987 31.452 10.39 31.7912 10.4563 31.8047L10.3074 31.697C10.5226 31.8181 10.0854 31.4251 10.1421 31.4107C10.021 31.3434 9.88841 31.2204 9.73659 31.0869C9.66068 31.0196 9.57996 30.9504 9.49348 30.8822L9.42814 30.8322C9.40796 30.8178 9.37722 30.7948 9.36857 30.79C9.3407 30.7717 9.30995 30.7544 9.2696 30.7323C9.27248 30.7208 9.28593 30.716 9.28497 30.7179C9.28881 30.7179 9.28113 30.7246 9.28593 30.7304C9.30419 30.74 9.32341 30.7496 9.3186 30.739C9.31188 30.7352 9.29458 30.7314 9.29554 30.7256C9.29842 30.7189 9.30131 30.7121 9.30611 30.7045C9.31476 30.69 9.32533 30.6708 9.34262 30.6526C9.35512 30.6382 9.38971 30.6016 9.4243 30.567C9.45793 30.5305 9.50021 30.495 9.54825 30.4556L9.53096 30.4777C9.5963 30.4191 9.65491 30.3624 9.71449 30.3134C9.77598 30.2663 9.83364 30.2211 9.88841 30.1788C9.99699 30.0904 10.1065 30.0213 10.217 29.9511C10.4351 29.8031 10.6792 29.6753 11.028 29.487L10.9646 29.4937C11.1193 29.4198 11.1549 29.4101 11.2288 29.3794C11.3893 29.2602 10.7974 29.5927 10.9396 29.4793C11.052 29.4486 11.323 29.3141 11.5853 29.1843C11.8553 29.0709 12.1177 28.9614 12.1984 28.9556C12.4415 28.8528 12.1167 28.9604 12.3608 28.8596L12.4319 28.849L12.4886 28.8096C12.6529 28.7539 12.7413 28.7414 12.7509 28.751C12.7105 28.7635 12.6394 28.7942 12.5981 28.8106C12.8153 28.7519 13.191 28.5924 13.2659 28.5732L13.0238 28.6491C13.1083 28.6184 13.1938 28.5828 13.2842 28.555C13.3745 28.5281 13.4667 28.5002 13.5599 28.4723C13.7464 28.4175 13.9376 28.3609 14.1288 28.3042L14.271 28.2619C14.319 28.2504 14.3671 28.2379 14.4151 28.2263C14.5103 28.2023 14.6054 28.1792 14.6986 28.1562C14.885 28.1091 15.0647 28.062 15.2328 28.0149L15.179 28.0169C15.3078 27.9813 15.3981 27.9573 15.4702 27.9409C15.5432 27.9275 15.598 27.9188 15.6537 27.9112C15.7661 27.8948 15.8853 27.8785 16.1716 27.8199L16.1514 27.8266C16.2648 27.7949 16.4176 27.7603 16.5752 27.7324C16.432 27.7718 16.8529 27.7055 16.6646 27.7545C16.8048 27.7209 16.8942 27.7055 16.9528 27.695C17.0114 27.6834 17.0403 27.6767 17.0633 27.67C17.1085 27.6575 17.1296 27.645 17.316 27.5989L17.4064 27.6046C17.5332 27.571 17.5428 27.5604 17.832 27.5162C17.5966 27.5643 18.0204 27.5172 17.7571 27.5749C18.3682 27.522 18.6574 27.425 18.9438 27.4538C19.2196 27.3779 18.4124 27.4768 18.5681 27.4519C18.4345 27.448 18.7958 27.3932 18.9889 27.3798C19.185 27.3625 19.3272 27.4105 19.8182 27.3635C19.7692 27.3683 19.7663 27.3721 19.7173 27.3759C19.8095 27.3731 19.8989 27.3606 19.994 27.3481C20.0892 27.3366 20.19 27.3308 20.3034 27.3337C20.4283 27.2972 20.5975 27.3193 20.6311 27.2789L20.1795 27.3125C20.4351 27.2885 20.6724 27.2309 21.0962 27.2289C21.0635 27.2385 20.9386 27.2558 20.8521 27.2654C20.976 27.2703 21.0894 27.2453 21.2182 27.2491C21.1836 27.2895 20.6695 27.2875 20.3966 27.3317C20.5302 27.3404 20.9145 27.276 20.7791 27.3241C20.9741 27.2606 21.2643 27.3039 21.5958 27.2453L21.5747 27.2693C21.6275 27.2626 21.7361 27.2462 21.8332 27.2414L21.6583 27.2808C21.9273 27.2366 22.18 27.2847 22.4385 27.2654C21.8956 27.276 22.3155 27.2405 22.0859 27.228C22.7556 27.1857 22.4731 27.2808 23.2226 27.2568C23.1207 27.2616 22.8411 27.2501 22.9997 27.2366C23.1428 27.2385 23.3312 27.2443 23.4186 27.2549C23.9154 27.2414 23.3417 27.2328 23.5531 27.2155C23.7223 27.2405 23.7972 27.1991 24.0153 27.1876L24.0172 27.2107C24.5832 27.2357 24.1681 27.1646 24.6774 27.1924L24.4612 27.2203L24.7273 27.2164L24.6726 27.2414C24.9618 27.227 25.0521 27.2337 25.3356 27.2462C25.2702 27.2289 25.374 27.2049 25.6248 27.2088C25.7958 27.2251 25.5287 27.2289 25.8842 27.2318C25.8035 27.2453 25.7151 27.2616 25.5604 27.2376C25.5441 27.2453 25.4807 27.251 25.4643 27.2578C25.6479 27.277 25.9275 27.2693 26.0562 27.2712C26.0063 27.2693 25.9477 27.2674 25.9169 27.2635C26.0889 27.253 26.2609 27.2558 26.4329 27.253C26.5136 27.2664 26.4492 27.2693 26.3849 27.2731C26.4896 27.276 26.5617 27.2693 26.7154 27.276C26.675 27.2924 26.6837 27.3125 26.4665 27.3096L26.9575 27.3154C26.9902 27.325 27.2074 27.3519 27.144 27.3548C27.2794 27.3683 27.4466 27.3683 27.6244 27.3692C27.8022 27.3702 27.9924 27.3692 28.1711 27.3981C28.1904 27.3961 28.2278 27.3961 28.3047 27.4009C28.642 27.4374 28.9379 27.4893 29.3405 27.5018L29.5635 27.5566C29.8767 27.5806 29.2617 27.4807 29.7835 27.5268C30.1525 27.5672 29.9171 27.5749 30.0449 27.6018C30.2294 27.6104 30.5522 27.62 30.8856 27.694C30.7732 27.6844 30.6858 27.6681 30.582 27.6556L30.5762 27.6392ZM34.365 28.4329C34.292 28.4166 34.144 28.3887 34.095 28.3599C34.1844 28.3589 34.2439 28.3897 34.365 28.4329ZM38.1518 31.1868C38.1912 31.1465 38.2633 31.0965 38.3459 31.0427C38.2912 31.0878 38.2268 31.1368 38.1518 31.1868ZM22.5202 29.1488C22.5202 29.1488 22.526 29.1488 22.5279 29.1478C22.696 29.1536 22.6365 29.1517 22.5202 29.1488ZM22.1714 29.144C22.1368 29.1478 22.1387 29.1507 22.1541 29.1536C22.1781 29.1469 22.2569 29.1459 22.3453 29.1459C22.3203 29.1401 22.2752 29.1373 22.1714 29.144ZM19.7365 27.1646H19.8047C19.6519 27.1857 19.6942 27.1751 19.7365 27.1646Z" fill="#FFF5BB"/>
<path d="M38.6465 30.7647C38.659 30.7599 38.6667 30.7599 38.6734 30.7599C38.6849 30.7464 38.6782 30.7455 38.6465 30.7647Z" fill="#FFF5BB"/>
<path d="M28.1788 27.3828H28.1673C28.1606 27.3828 28.1567 27.3828 28.1548 27.3847L28.1788 27.3828Z" fill="#FFF5BB"/>
<path d="M27.582 29.0371C27.6541 29.0438 27.6935 29.0525 27.7194 29.0592C27.7233 29.0554 27.6916 29.0438 27.582 29.0371Z" fill="#FFF5BB"/>
<path d="M20.3293 29.279C20.4033 29.2703 20.4773 29.2665 20.5513 29.2598C20.4437 29.2665 20.4043 29.2636 20.3505 29.2636C20.3562 29.2684 20.3985 29.2732 20.3293 29.279Z" fill="#FFF5BB"/>
<path d="M18.3866 29.329C18.3548 29.3357 18.3183 29.3386 18.2866 29.3453L18.2972 29.3549C18.4356 29.3357 18.5307 29.3146 18.3875 29.329H18.3866Z" fill="#FFF5BB"/>
<path d="M20.1179 29.2201C20.0987 29.2018 19.9594 29.222 19.8037 29.2393C19.8133 29.2393 19.822 29.2374 19.8316 29.2364C19.7883 29.2681 19.9536 29.2441 20.1179 29.2201Z" fill="#FFF5BB"/>
<path d="M19.7682 29.2441C19.7201 29.2499 19.6711 29.2547 19.6241 29.2576C19.6068 29.2701 19.6827 29.2547 19.7682 29.2441Z" fill="#FFF5BB"/>
<path d="M21.7303 29.178C21.6563 29.177 21.6851 29.2049 21.6429 29.2001C21.5612 29.2289 22.1348 29.1443 21.7303 29.178Z" fill="#FFF5BB"/>
<path d="M19.9863 29.1688L20.044 29.1871L20.1305 29.1602L19.9863 29.1688Z" fill="#FFF5BB"/>
<path d="M21.2221 29.1074L20.9713 29.1141C20.9713 29.1141 20.9435 29.1218 20.905 29.1257C21.0588 29.118 21.2279 29.1141 21.2221 29.1074Z" fill="#FFF5BB"/>
<path d="M20.9049 29.125C20.8242 29.1288 20.7483 29.1336 20.7041 29.1394C20.7473 29.1365 20.8405 29.1308 20.9049 29.125Z" fill="#FFF5BB"/>
<path d="M20.3264 29.1307C20.3514 29.1298 20.3764 29.1307 20.4004 29.1307L20.5772 29.123C20.4936 29.1259 20.41 29.1269 20.3264 29.1307Z" fill="#FFF5BB"/>
<path d="M23.9126 29.0352C24.0038 29.0304 24.0951 29.0314 24.1854 29.0304C24.2133 29.0227 24.1393 29.016 24.0375 29.0179C23.9721 29.0227 23.8703 29.0294 23.9126 29.0352Z" fill="#FFF5BB"/>
<path d="M23.0852 28.9842C23.1592 28.988 23.164 28.9928 23.2063 29.0005L23.214 28.9707L23.0852 28.9842Z" fill="#FFF5BB"/>
<path d="M23.8827 28.9626C23.9096 28.952 24.2795 28.9385 23.9326 28.9395C23.9048 28.9481 23.6309 28.9597 23.8827 28.9626Z" fill="#FFF5BB"/>
<path d="M27.9981 29.1542L27.928 29.1484L27.9347 29.1974L27.9981 29.1542Z" fill="#FFF5BB"/>
<path d="M31.6189 29.51C31.3008 29.4418 31.5372 29.5263 31.2508 29.461C31.174 29.4591 31.4853 29.5148 31.4065 29.511C31.6016 29.5331 31.7025 29.558 31.6198 29.511L31.6189 29.51Z" fill="#FFF5BB"/>
<path d="M31.4056 29.5106C31.3739 29.5077 31.3412 29.5038 31.3057 29.5C31.3624 29.5067 31.3893 29.5096 31.4056 29.5106Z" fill="#FFF5BB"/>
<path d="M10.1824 31.6562L10.3409 31.7917L10.2448 31.6966L10.1824 31.6562Z" fill="#FFF5BB"/>
<path d="M10.5217 31.8727L10.5419 31.9274L10.637 31.9716L10.6188 31.8496L10.614 31.864C10.614 31.864 10.6197 31.8573 10.6226 31.8525L10.6399 31.9688C10.6015 31.9409 10.5438 31.8977 10.5227 31.8736L10.5217 31.8727Z" fill="#FFF5BB"/>
<path d="M34.8943 28.6629L34.9116 28.661C34.8838 28.6427 34.8386 28.6254 34.7483 28.5918L34.8943 28.6629Z" fill="#FFF5BB"/>
<path d="M32.1877 27.9369L32.2357 27.9465L32.1521 27.9023L32.1877 27.9369Z" fill="#FFF5BB"/>
<path d="M29.8535 27.5995C29.9487 27.612 30.0611 27.6255 30.1572 27.638C29.9487 27.6139 29.8324 27.5611 29.8535 27.5995Z" fill="#FFF5BB"/>
</g>
<path d="M24.0662 46.3605C33.6254 46.3605 41.3746 43.75 41.3746 40.5299C41.3746 37.3097 33.6254 34.6992 24.0662 34.6992C14.507 34.6992 6.75781 37.3097 6.75781 40.5299C6.75781 43.75 14.507 46.3605 24.0662 46.3605Z" fill="#E79724"/>
<mask id="mask1_1485_7018" style="mask-type:luminance" maskUnits="userSpaceOnUse" x="6" y="34" width="36" height="13">
<path d="M24.0662 46.3605C33.6254 46.3605 41.3746 43.75 41.3746 40.5299C41.3746 37.3097 33.6254 34.6992 24.0662 34.6992C14.507 34.6992 6.75781 37.3097 6.75781 40.5299C6.75781 43.75 14.507 46.3605 24.0662 46.3605Z" fill="white"/>
</mask>
<g mask="url(#mask1_1485_7018)">
<path d="M24.9194 33.7578H23.2129V38.543H24.9194V33.7578Z" fill="#B27018"/>
</g>
<path d="M24.0664 40.3139C25.3644 40.3139 26.4167 39.2616 26.4167 37.9636C26.4167 36.6656 25.3644 35.6133 24.0664 35.6133C22.7683 35.6133 21.7161 36.6656 21.7161 37.9636C21.7161 39.2616 22.7683 40.3139 24.0664 40.3139Z" fill="#B27018"/>
</g>
<defs>
<clipPath id="clip0_1485_7018">
<rect width="48" height="45.3605" fill="white" transform="translate(0 1)"/>
</clipPath>
</defs>
</svg>
