<svg width="100" height="100" viewBox="0 0 100 100" fill="none" xmlns="http://www.w3.org/2000/svg">
<g clip-path="url(#clip0_4331_7727)">
<path d="M17.3287 19.7523C17.3287 8.84491 26.1713 0 37.081 0C47.9907 0 56.8333 8.84491 56.8333 19.7523C56.8333 30.6597 47.9884 39.5046 37.081 39.5046C26.1736 39.5046 17.3287 30.6597 17.3287 19.7523ZM45.6782 76.544C45.6644 67.456 49.6782 58.8287 56.6412 52.9884C56.9144 52.7106 57.0741 52.3403 57.0856 51.9514C57.0856 50.963 55.8403 50.5347 55.6042 50.4699C52.7662 49.7292 49.8449 49.3634 46.912 49.3843H27.1597C7.11111 49.3819 0 64.0486 0 76.6412C0 87.9005 5.97454 93.8264 17.2847 93.8264H48.3472C49.1782 93.838 49.8588 93.1759 49.8727 92.3449C49.8866 92.1181 49.8356 91.8935 49.7292 91.6921C47.0833 87.081 45.6875 81.8588 45.6806 76.5417L45.6782 76.544ZM100 76.544C100 89.4977 89.4977 100 76.544 100C63.5903 100 53.088 89.4977 53.088 76.544C53.088 63.5903 63.5903 53.088 76.544 53.088C89.4931 53.1042 99.9838 63.5972 100 76.544ZM62.9236 84.9375L84.9375 62.9236C77.4745 58.2292 67.6181 60.4745 62.9236 67.9375C59.6551 73.1343 59.6551 79.7431 62.9236 84.9375ZM92.5926 76.544C92.5856 73.5741 91.7431 70.6643 90.162 68.1481L68.1481 90.162C75.6204 94.8449 85.4722 92.5856 90.1551 85.1134C91.7639 82.5463 92.6111 79.5718 92.5926 76.5417V76.544Z" fill="#D3D3D3"/>
</g>
<defs>
<clipPath id="clip0_4331_7727">
<rect width="100" height="100" fill="white"/>
</clipPath>
</defs>
</svg>
