<svg width="14" height="14" viewBox="0 0 14 14" fill="none" xmlns="http://www.w3.org/2000/svg">
<g clip-path="url(#clip0_5495_3902)">
<path d="M0.274341 10.3527L4.86582 1.33113C5.28372 0.510152 6.10132 0 6.99959 0C7.89787 0 8.71547 0.510152 9.13337 1.33113L13.7247 10.3527C14.1149 11.1196 14.088 12.0566 13.6541 12.7977C13.2205 13.5392 12.4298 14 11.5909 14H2.40829C1.56952 14 0.778866 13.5394 0.345041 12.7979C-0.0887845 12.0566 -0.115734 11.1196 0.274516 10.3527H0.274341ZM1.54554 12.049C1.72702 12.3591 2.05759 12.5518 2.40829 12.5518H11.5909C11.9418 12.5518 12.2723 12.3591 12.4538 12.0488C12.6353 11.7389 12.6465 11.3471 12.4832 11.0266L7.89192 2.00483C7.71727 1.66147 7.37532 1.44823 6.99959 1.44823C6.62387 1.44823 6.28192 1.66147 6.10727 2.00483L1.51597 11.0264C1.35269 11.3471 1.36407 11.7387 1.54554 12.0488V12.049Z" fill="#FFAC0B"/>
<path d="M7.26638 9.49528H6.73368L6.21411 3.98535H7.78613L7.26638 9.49528Z" fill="#FFAC0B"/>
<path d="M7.00009 10.0071C7.41992 10.0071 7.75977 10.3582 7.75977 10.7917C7.75977 11.2253 7.41992 11.5762 7.00009 11.5762C6.58027 11.5762 6.24042 11.2247 6.24042 10.7917C6.24042 10.3582 6.58027 10.0071 7.00009 10.0071Z" fill="#FFAC0B"/>
</g>
<defs>
<clipPath id="clip0_5495_3902">
<rect width="14" height="14" fill="white" transform="matrix(-1 0 0 1 14 0)"/>
</clipPath>
</defs>
</svg>
