<svg width="14" height="14" viewBox="0 0 14 14" fill="none" xmlns="http://www.w3.org/2000/svg">
<g clip-path="url(#clip0_5474_4276)">
<path fill-rule="evenodd" clip-rule="evenodd" d="M1.55558 7C1.55558 5.77973 1.96385 4.6543 2.6453 3.745L10.255 11.3547C9.3457 12.036 8.22027 12.4444 7 12.4444C3.99858 12.4444 1.55558 10.0014 1.55558 7ZM12.4444 7C12.4444 8.22027 12.0362 9.3457 11.3547 10.255L3.745 2.6453C4.6543 1.96403 5.77973 1.55558 7 1.55558C10.0014 1.55558 12.4444 3.99858 12.4444 7ZM7 0C3.13373 0 0 3.13373 0 7C0 10.8663 3.13373 14 7 14C10.8663 14 14 10.8663 14 7C14 3.13373 10.8663 0 7 0Z" fill="#FF625D"/>
</g>
<defs>
<clipPath id="clip0_5474_4276">
<rect width="14" height="14" fill="white"/>
</clipPath>
</defs>
</svg>
