<svg width="100" height="100" viewBox="0 0 100 100" fill="none" xmlns="http://www.w3.org/2000/svg">
<g opacity="0.7" clip-path="url(#clip0_4253_7806)">
<path d="M100 40.6393C100 18.2564 77.5625 0 50 0C39.1875 0 29.125 2.81349 20.9375 7.6902L83.75 70.5248C93.75 63.1472 100 52.4559 100 40.6393ZM5.33789 0.91243C4.0957 -0.28721 2.11719 -0.252042 0.917969 0.990583C-0.251953 2.20195 -0.251953 4.12254 0.917969 5.33391L10.9375 15.3628C4.10547 22.2832 0 31.093 0 40.6393C0 52.9561 7 64.6477 18.75 72.3379V90.6569C18.75 92.8705 20.8945 94.4766 23.25 93.4704L47.75 81.2161C48.5 81.2786 49.25 81.2786 50 81.2786C58.0684 81.2786 65.6562 79.653 72.3945 76.8395L94.6699 99.1227C95.9121 100.322 97.8906 100.287 99.0879 99.0465C100.258 97.8352 100.258 95.9146 99.0879 94.7032L5.33789 0.91243Z" fill="#D3D3D3"/>
</g>
<defs>
<clipPath id="clip0_4253_7806">
<rect width="100" height="100" fill="white"/>
</clipPath>
</defs>
</svg>
