<svg width="100" height="100" viewBox="0 0 100 100" fill="none" xmlns="http://www.w3.org/2000/svg">
<g clip-path="url(#clip0_5147_3168)">
<path d="M49.9994 36.0913C51.9443 36.0913 53.5206 34.515 53.5206 32.57V9.33189C53.5206 7.38809 51.9443 5.81055 49.9994 5.81055C48.0544 5.81055 46.4782 7.38684 46.4782 9.33189V32.5725C46.4782 34.5163 48.0544 36.0926 49.9994 36.0926V36.0913Z" fill="#D3D3D3"/>
<path d="M95.6226 40.774C95.1238 40.899 83.2477 43.9278 71.2429 52.1818C65.8242 55.9069 61.2617 60.0995 57.588 64.6983C61.4455 50.8292 67.4292 40.9865 72.7904 34.4013C82.2527 22.776 91.8626 18.4622 92.0614 18.3734C93.8438 17.6046 94.6688 15.5371 93.9038 13.7533C93.1376 11.9658 91.0676 11.137 89.2801 11.9045C88.8339 12.0958 78.204 16.7471 67.6154 29.6062C61.4542 37.0876 56.5505 45.8404 53.0406 55.6193C51.5606 59.7432 50.3344 64.0571 49.3531 68.5397C49.0206 67.3421 48.6606 66.1309 48.2719 64.9096C41.2457 42.8278 28.1159 28.4649 10.2999 23.3748C8.43115 22.841 6.48117 23.9236 5.94743 25.7936C5.41369 27.6636 6.49617 29.6124 8.36615 30.1462C22.4947 34.1826 32.9683 44.6866 39.5583 61.4007C36.4546 58.0794 32.8508 54.9968 28.7571 52.1818C16.7523 43.9278 4.87744 40.899 4.37745 40.774C2.49247 40.3027 0.583749 41.449 0.110005 43.3328C-0.36374 45.2178 0.781246 47.1291 2.66497 47.6054C2.77622 47.6341 13.9686 50.513 24.9359 58.1019C37.8883 67.0659 45.0469 78.5112 46.2782 92.1653C46.2782 92.1653 46.2794 92.1653 46.2807 92.1653C46.4707 94.8366 46.4794 96.4341 46.4794 96.4804C46.4807 98.4242 48.0569 99.9992 50.0006 99.9992C51.9444 99.9992 53.5218 98.4229 53.5218 96.4779C53.5218 80.905 60.7692 67.9934 75.0641 58.1007C86.0314 50.5105 97.2238 47.6316 97.335 47.6041C99.22 47.1316 100.365 45.2203 99.8938 43.3353C99.4213 41.449 97.51 40.3002 95.6226 40.774Z" fill="#D3D3D3"/>
<path d="M3.52121 63.9092C2.59497 63.9092 1.68748 64.2854 1.03124 64.9405C0.376245 65.5955 0 66.5042 0 67.4305C0 68.3568 0.376245 69.2643 1.03124 69.9206C1.68623 70.5768 2.59497 70.9519 3.52121 70.9519C4.44744 70.9519 5.35493 70.5756 6.00992 69.9206C6.66867 69.2656 7.04241 68.3568 7.04241 67.4305C7.04241 66.5042 6.66867 65.5967 6.00992 64.9405C5.35493 64.2854 4.44994 63.9092 3.52121 63.9092Z" fill="#D3D3D3"/>
<path d="M38.3795 7.04268C39.3083 7.04268 40.2132 6.66642 40.8682 6.0114C41.527 5.35638 41.8995 4.44761 41.8995 3.52134C41.8995 2.59506 41.527 1.68754 40.8682 1.03128C40.2132 0.376259 39.3083 0 38.3795 0C37.4508 0 36.5458 0.376259 35.8895 1.03128C35.2346 1.68629 34.8583 2.59506 34.8583 3.52134C34.8583 4.44761 35.2346 5.35513 35.8895 6.0114C36.5445 6.66642 37.4533 7.04268 38.3795 7.04268Z" fill="#D3D3D3"/>
<path d="M61.618 7.04268C62.548 7.04268 63.4555 6.66642 64.1067 6.0114C64.7654 5.35638 65.1392 4.44761 65.1392 3.52134C65.1392 2.59506 64.7654 1.68754 64.1067 1.03128C63.4517 0.376259 62.5467 0 61.618 0C60.6892 0 59.7843 0.376259 59.1293 1.03128C58.4743 1.68629 58.098 2.59506 58.098 3.52134C58.098 4.44761 58.4743 5.35513 59.1293 6.0114C59.7843 6.66642 60.693 7.04268 61.618 7.04268Z" fill="#D3D3D3"/>
<path d="M30.0809 23.4407C30.7684 24.1282 31.6696 24.472 32.5709 24.472C33.4721 24.472 34.3733 24.1282 35.0608 23.4407C36.4358 22.0657 36.4358 19.8356 35.0608 18.4606L29.2509 12.6504C27.8759 11.2754 25.6459 11.2754 24.271 12.6504C22.896 14.0255 22.896 16.2555 24.271 17.6305L30.0809 23.4407Z" fill="#D3D3D3"/>
<path d="M29.2509 76.5596C27.8759 75.1846 25.6459 75.1846 24.271 76.5596C22.896 77.9346 22.896 80.1647 24.271 81.5397L30.0809 87.3499C30.7684 88.0374 31.6696 88.3811 32.5709 88.3811C33.4721 88.3811 34.3733 88.0374 35.0608 87.3499C36.4358 85.9748 36.4358 83.7448 35.0608 82.3697L29.2509 76.5596Z" fill="#D3D3D3"/>
<path d="M64.9392 17.6301C65.6267 18.3177 66.5279 18.6614 67.4292 18.6614C68.3304 18.6614 69.2316 18.3177 69.9191 17.6301L75.7291 11.82C77.104 10.445 77.104 8.2149 75.7291 6.83987C74.3541 5.46484 72.1241 5.46484 70.7491 6.83987L64.9392 12.65C63.5642 14.025 63.5642 16.2551 64.9392 17.6301Z" fill="#D3D3D3"/>
<path d="M70.7479 70.751L64.9379 76.5611C63.563 77.9362 63.563 80.1662 64.9379 81.5413C65.6254 82.2288 66.5267 82.5725 67.4279 82.5725C68.3292 82.5725 69.2304 82.2288 69.9179 81.5413L75.7278 75.7311C77.1028 74.3561 77.1028 72.126 75.7278 70.751C74.3516 69.376 72.1229 69.376 70.7479 70.751Z" fill="#D3D3D3"/>
<path d="M82.3665 35.8907C81.7115 36.5457 81.3352 37.4544 81.3352 38.3795C81.3352 39.3045 81.7115 40.2133 82.3665 40.8683C83.0215 41.5233 83.9302 41.8996 84.8564 41.8996C85.7827 41.8996 86.6914 41.5233 87.3452 40.8683C88.0039 40.2133 88.3777 39.3045 88.3777 38.3795C88.3777 37.4544 88.0039 36.5457 87.3452 35.8907C86.6902 35.2356 85.7852 34.8594 84.8564 34.8594C83.9277 34.8594 83.0215 35.2356 82.3665 35.8907Z" fill="#D3D3D3"/>
<path d="M92.9551 26.7606C92.9551 27.6869 93.3313 28.5944 93.9863 29.2494C94.6413 29.9044 95.5501 30.2807 96.4763 30.2807C97.4025 30.2807 98.31 29.9044 98.965 29.2494C99.6237 28.5944 99.9962 27.6856 99.9962 26.7606C99.9962 25.8356 99.6237 24.9268 98.965 24.2705C98.31 23.6155 97.4013 23.2393 96.4763 23.2393C95.5513 23.2393 94.6426 23.6155 93.9863 24.2705C93.3313 24.9255 92.9551 25.8343 92.9551 26.7606Z" fill="#D3D3D3"/>
<path d="M90.6664 63.9092C89.7401 63.9092 88.8314 64.2854 88.1764 64.9405C87.5214 65.5955 87.1452 66.5042 87.1452 67.4305C87.1452 68.3568 87.5214 69.2643 88.1764 69.9206C88.8314 70.5756 89.7401 70.9519 90.6664 70.9519C91.5926 70.9519 92.5001 70.5756 93.1551 69.9206C93.8138 69.2656 94.1863 68.3568 94.1863 67.4305C94.1863 66.5042 93.8126 65.5967 93.1551 64.9405C92.5001 64.2854 91.5951 63.9092 90.6664 63.9092Z" fill="#D3D3D3"/>
<path d="M49.9981 53.5212C50.9244 53.5212 51.8318 53.1437 52.4868 52.4887C53.1456 51.8336 53.5181 50.9249 53.5181 49.9999C53.5181 49.0748 53.1456 48.1661 52.4868 47.5098C51.8318 46.8548 50.9269 46.4785 49.9981 46.4785C49.0694 46.4785 48.1644 46.8548 47.5082 47.5098C46.8519 48.1648 46.4769 49.0736 46.4769 49.9999C46.4769 50.9261 46.8532 51.8336 47.5082 52.4887C48.1631 53.1437 49.0719 53.5212 49.9981 53.5212Z" fill="#D3D3D3"/>
</g>
<defs>
<clipPath id="clip0_5147_3168">
<rect width="100" height="100" fill="white"/>
</clipPath>
</defs>
</svg>
