<svg width="100" height="103" viewBox="0 0 100 103" fill="none" xmlns="http://www.w3.org/2000/svg">
<g clip-path="url(#clip0_5079_6624)">
<path d="M3.57676 103C4.49094 103 5.40512 102.647 6.10218 101.929L24.6943 82.7764H62.7814C63.8899 82.7764 64.964 82.2232 65.6382 81.305C66.3124 80.3868 66.5296 79.2097 66.2096 78.1032L65.604 75.8901C63.9241 69.8161 60.7474 64.5189 56.4964 60.3989C54.7595 58.6803 52.8283 57.1736 50.7942 55.8787L56.1765 50.3344C56.1765 50.3344 56.1536 50.3932 56.1422 50.4285C56.1422 50.4992 56.1765 50.6169 56.245 50.6875C58.1419 52.0059 59.9246 53.5244 61.5701 55.1724C66.6438 60.2106 70.4948 66.6142 72.4946 73.8654L73.1002 76.0785C73.7059 78.3268 73.603 80.6458 72.8146 82.7764H96.4233C97.5317 82.7764 98.6059 82.2232 99.2801 81.305C99.9543 80.3868 100.171 79.2097 99.8515 78.1032L99.3487 76.2315C96.8804 67.4029 90.6754 60.3754 82.7791 56.9146C85.6702 53.9011 87.4186 49.8164 87.4186 45.2844C87.4186 40.7524 85.6017 36.4558 82.5963 33.513C80.8594 31.7002 78.6996 30.3936 76.2999 29.6049L98.9373 6.28567C100.331 4.84956 100.331 2.51882 98.9373 1.0827C97.5432 -0.353413 95.2806 -0.353413 93.8864 1.0827L1.05133 96.7138C-0.342794 98.1499 -0.342794 100.481 1.05133 101.917C1.7484 102.635 2.66258 103 3.57676 103Z" fill="#D3D3D3"/>
<path d="M3.57675 82.765H4.50236L51.0342 34.8317C49.183 26.4505 41.8581 20.2234 33.1848 20.2234C23.0831 20.2234 14.8326 28.687 14.8326 39.093C14.8326 44.6491 17.2209 49.6166 20.9348 53.0774C11.3244 56.9738 3.69102 65.2491 0.754213 75.8905L0.148568 78.1035C-0.171395 79.21 0.0457228 80.3872 0.719931 81.3053C1.39414 82.2235 2.4683 82.7768 3.57675 82.7768V82.765Z" fill="#D3D3D3"/>
</g>
<defs>
<clipPath id="clip0_5079_6624">
<rect width="100" height="103" fill="white"/>
</clipPath>
</defs>
</svg>
