<svg width="29" height="28" viewBox="0 0 29 28" fill="none" xmlns="http://www.w3.org/2000/svg">
<g clip-path="url(#clip0_1541_8133)">
<path fill-rule="evenodd" clip-rule="evenodd" d="M13.6222 0.0114773C13.5328 0.021985 13.2279 0.0535083 12.9458 0.0815289C9.66355 0.40902 6.35679 2.10077 4.12075 4.59811C1.64813 7.3599 0.391666 10.7872 0.507323 14.4386C0.708848 20.745 5.04601 26.0847 11.1986 27.6048C14.8068 28.4962 18.7742 27.8605 21.918 25.8886C25.0548 23.9184 27.2505 20.8834 28.1285 17.3002C28.4299 16.0726 28.5 15.4474 28.5 13.9955C28.5 12.5437 28.4299 11.9185 28.1285 10.6909C26.7406 5.02543 22.0722 0.857351 16.263 0.0972906C15.7654 0.0324928 13.9551 -0.0252998 13.6222 0.0114773ZM16.0054 2.72248C17.9576 2.97466 19.7853 3.72597 21.4221 4.94837C21.9986 5.37919 23.1324 6.51227 23.5635 7.08845C24.5466 8.40367 25.2738 9.95006 25.6033 11.4299C25.9783 13.1199 25.9783 14.8712 25.6033 16.5612C24.8778 19.8203 22.5804 22.7135 19.5347 24.2021C18.4342 24.7397 17.2987 25.0917 16.0528 25.2809C15.3097 25.3947 13.7116 25.3947 12.9686 25.2809C9.5549 24.7625 6.67398 22.9009 4.86025 20.0392C4.48524 19.4491 3.99458 18.4193 3.74924 17.7065C3.32692 16.4859 3.14467 15.3633 3.14467 13.9955C3.14467 12.1759 3.4969 10.6243 4.27671 9.02187C4.87252 7.79947 5.47885 6.95535 6.47245 5.96237C7.46606 4.96938 8.31071 4.36344 9.53387 3.768C11.5544 2.78552 13.7519 2.43176 16.0054 2.72248ZM13.9955 7.49825C13.6029 7.62609 13.3804 7.85026 13.2717 8.22503C13.2086 8.43869 13.2016 8.9273 13.2121 11.922C13.2215 14.222 13.26 15.4363 13.3278 15.5647C13.4557 15.8046 13.7011 16.0218 13.9341 16.1041C14.1654 16.1847 14.8559 16.1847 15.0872 16.1041C15.3203 16.0218 15.5656 15.8046 15.6935 15.5647C15.7613 15.4374 15.7998 14.2232 15.8092 11.922C15.8185 9.40949 15.7338 8.0464 15.5551 7.83275C15.3378 7.57355 15.1047 7.48774 14.5807 7.47373C14.3231 7.46673 14.0603 7.47723 13.9955 7.49825ZM14.1356 18.4263C13.8044 18.5349 13.4767 18.8168 13.3173 19.1303C13.1946 19.3755 13.1736 19.8186 13.2735 20.1163C13.4382 20.6154 13.9797 21.0007 14.5107 21.0007C15.0416 21.0007 15.5831 20.6154 15.7478 20.1163C15.8477 19.8186 15.8267 19.3755 15.704 19.1303C15.5901 18.9062 15.3168 18.6295 15.0942 18.5139C14.8909 18.4088 14.3424 18.358 14.1356 18.4263Z" fill="#FF625D"/>
</g>
<defs>
<clipPath id="clip0_1541_8133">
<rect width="28" height="28" fill="white" transform="translate(0.5)"/>
</clipPath>
</defs>
</svg>
