<svg width="70" height="70" viewBox="0 0 70 70" fill="none" xmlns="http://www.w3.org/2000/svg">
<g id="_&#235;&#160;&#136;&#236;&#157;&#180;&#236;&#150;&#180;_1" clip-path="url(#clip0_1244_12719)">
<path id="Vector" d="M23.103 0.144708C19.3969 0.527617 15.0755 2.04558 11.9986 4.02851C1.91985 10.538 -2.46993 22.9278 1.38652 34.0459C2.42584 37.0818 2.6173 37.6835 2.87713 38.969C3.71133 43.1537 3.17799 47.5161 1.30446 51.8512C1.22241 52.029 1.34549 52.111 2.00191 52.2615C3.17799 52.5213 6.14554 52.4939 7.17119 52.1931C8.94898 51.6734 10.3986 50.9076 11.6567 49.8136C12.4635 49.1161 13.0653 48.8153 13.667 48.8153C13.8858 48.8153 14.802 49.1161 15.6909 49.4854C18.7269 50.7708 21.5303 51.3862 24.8808 51.5093C36.1082 51.9196 45.9545 45.4375 49.9887 34.9758C50.5494 33.5262 51.1785 31.0373 51.4246 29.2595C51.6981 27.2766 51.6434 23.5159 51.3015 21.6013C50.3579 16.3363 48.0605 11.7961 44.3955 7.96701C38.898 2.20969 30.9663 -0.703164 23.103 0.144708ZM13.626 22.5312C14.5012 22.9825 14.9935 23.4748 15.3901 24.2817C15.7183 24.9381 15.7456 25.1432 15.6909 26.0868C15.6226 27.2766 15.4037 27.7826 14.6653 28.5211C13.9542 29.2458 13.0926 29.5877 12.0259 29.5741C10.9729 29.5741 10.3575 29.3416 9.56437 28.6168C8.10111 27.3176 7.92333 25.1159 9.14044 23.5706C10.1661 22.2714 12.19 21.8065 13.626 22.5312ZM27.356 22.5176C29.7629 23.5843 30.2689 26.8527 28.2996 28.6168C27.5064 29.3416 26.891 29.5741 25.838 29.5741C24.2927 29.5877 22.8705 28.6441 22.3371 27.2766C21.9816 26.3193 22.1047 24.8287 22.6243 23.9808C23.0619 23.2834 24.0329 22.5176 24.7987 22.2851C25.4141 22.0936 26.6586 22.2167 27.356 22.5176ZM40.7305 22.3671C41.7561 22.668 42.8228 23.7347 43.1237 24.733C43.2468 25.1432 43.3425 25.6766 43.3425 25.9091C43.3425 26.6612 42.9596 27.6869 42.4399 28.2749C40.4843 30.5724 36.8604 29.7518 36.0125 26.839C35.3561 24.5962 37.1475 22.203 39.5271 22.162C39.7869 22.1483 40.3339 22.2441 40.7305 22.3671Z" fill="black" fill-opacity="0.1"/>
<path id="Vector_2" d="M55.9786 20.8087C56.3615 23.3934 56.4435 26.7165 56.1837 29.096C54.7067 42.6619 44.4502 53.5475 30.9663 55.845C28.8467 56.2142 25.9201 56.3646 23.9099 56.2005C22.8979 56.1322 22.0227 56.0638 21.968 56.0638C21.7765 56.0638 22.5013 57.2399 23.5543 58.6621C24.8124 60.3578 27.0552 62.6006 28.8056 63.8998C36.3544 69.4793 46.187 70.6143 54.7341 66.8536C56.4709 66.0878 57.0726 66.1425 58.317 67.1955C61.0521 69.5203 64.3342 70.4366 67.63 69.8075C68.2043 69.6981 68.7103 69.575 68.7513 69.534C68.7924 69.493 68.6966 69.1374 68.5325 68.7408C67.4111 66.0058 67.0009 64.1049 66.9052 61.1237C66.8231 58.2108 67.0693 56.4467 67.9992 53.5202C68.8197 50.9629 69.1206 49.8278 69.4488 48.1321C70.5838 42.238 69.9684 37.0961 67.5479 32.0225C65.7838 28.3439 63.4043 25.3763 60.2453 22.9011C59.0692 21.9985 56.2931 20.2344 56.0196 20.2344C55.9512 20.2344 55.9239 20.4669 55.9786 20.8087Z" fill="black" fill-opacity="0.1"/>
</g>
<defs>
<clipPath id="clip0_1244_12719">
<rect width="70" height="70" fill="white"/>
</clipPath>
</defs>
</svg>
