<svg width="23" height="26" viewBox="0 0 23 26" fill="none" xmlns="http://www.w3.org/2000/svg">
<g clip-path="url(#clip0_5007_6154)">
<path d="M17.3142 15.0993C16.8694 15.0993 16.5091 15.4629 16.5091 15.9118V19.0833C16.5091 19.6956 16.0155 20.1942 15.4081 20.1942H11.1865V7.5027C11.1865 6.49886 10.6924 5.63566 9.83098 5.13348L3.80952 1.62484H15.4081C16.015 1.62484 16.5091 2.12296 16.5091 2.73583V6.35313C16.5091 6.80199 16.8694 7.16555 17.3142 7.16555C17.759 7.16555 18.1192 6.80199 18.1192 6.35313V2.73583C18.1192 1.22726 16.9031 0 15.4081 0H2.71109C1.21617 0 0 1.22726 0 2.73583V19.8962C0 20.9 0.494115 21.7632 1.35555 22.2654L7.12089 25.6243C7.55161 25.8751 8.01402 26.0005 8.47644 26.0005C8.93885 26.0005 9.40127 25.8751 9.83198 25.6243C10.6934 25.1226 11.1875 24.2589 11.1875 23.255V21.8191H15.4091C16.9041 21.8191 18.1202 20.5918 18.1202 19.0833V15.9118C18.1202 15.4629 17.76 15.0993 17.3152 15.0993H17.3142ZM9.57688 23.2545C9.57688 23.6678 9.38165 24.0096 9.02641 24.2162C8.67167 24.4229 8.2807 24.4229 7.92546 24.2162L2.16012 20.8574C1.80538 20.6507 1.60965 20.309 1.60965 19.8952V2.73583C1.60965 2.57233 1.64487 2.41695 1.70777 2.27732L9.0259 6.541C9.38064 6.74766 9.57637 7.08939 9.57637 7.5027V23.255L9.57688 23.2545ZM22.764 11.4836L20.148 14.1234C19.991 14.2818 19.7847 14.3616 19.5789 14.3616C19.3731 14.3616 19.1668 14.2824 19.0098 14.1234C18.6954 13.8061 18.6954 13.2917 19.0098 12.9744L20.2517 11.7212H12.855C12.4102 11.7212 12.05 11.3576 12.05 10.9088C12.05 10.4599 12.4102 10.0964 12.855 10.0964H20.2517L19.0098 8.8432C18.6954 8.52585 18.6954 8.01148 19.0098 7.69413C19.3243 7.37678 19.834 7.37678 20.1485 7.69413L22.7645 10.334C23.079 10.6513 23.079 11.1657 22.7645 11.4831L22.764 11.4836Z" fill="#D9D9D9"/>
</g>
<defs>
<clipPath id="clip0_5007_6154">
<rect width="23" height="26" fill="white"/>
</clipPath>
</defs>
</svg>
