<svg width="24" height="24" viewBox="0 0 24 24" fill="none" xmlns="http://www.w3.org/2000/svg">
<path d="M9 15.7164V17.7761C9 19.5672 10.2086 21 11.6763 21H18.3237C19.7914 21 21 19.5672 21 17.7761V6.22388C21 4.43284 19.7914 3 18.3237 3H11.6763C10.2086 3 9 4.43284 9 6.22388V8.28358" stroke="white" stroke-width="2" stroke-miterlimit="10"/>
<path fill-rule="evenodd" clip-rule="evenodd" d="M2 12C2 11.4477 2.44772 11 3 11L14 11C14.5523 11 15 11.4477 15 12C15 12.5523 14.5523 13 14 13L3 13C2.44772 13 2 12.5523 2 12Z" fill="white"/>
<path fill-rule="evenodd" clip-rule="evenodd" d="M2.29289 11.2929C2.68342 10.9024 3.31658 10.9024 3.70711 11.2929L6.70711 14.2929C7.09763 14.6834 7.09763 15.3166 6.70711 15.7071C6.31658 16.0977 5.68342 16.0977 5.29289 15.7071L2.29289 12.7071C1.90237 12.3166 1.90237 11.6834 2.29289 11.2929Z" fill="white"/>
<path fill-rule="evenodd" clip-rule="evenodd" d="M2.29289 12.7071C1.90237 12.3166 1.90237 11.6834 2.29289 11.2929L5.29304 8.29289C5.68357 7.90237 6.31673 7.90237 6.70726 8.29289C7.09778 8.68342 7.09778 9.31658 6.70726 9.70711L3.70726 12.7071C3.31673 13.0976 2.68342 13.0977 2.29289 12.7071Z" fill="white"/>
</svg>
