<svg width="200" height="82" viewBox="0 0 200 82" fill="none" xmlns="http://www.w3.org/2000/svg">
<path d="M3.32617 71.3048V60.3204L25.0723 26.1056H42.959V60.2462H49.1934V71.3048H42.959V79.84H29.4512V71.3048H3.32617ZM17.2793 60.2462H29.748V40.8009H29.3027L17.2793 59.8751V60.2462Z" fill="#FF625D"/>
<g clip-path="url(#clip0_5046_2673)">
<path d="M61.5801 44.12C61.5801 59.52 74.3101 67.73 83.6301 75.07C86.9201 77.66 90.0801 80.1 93.2501 80.1C96.4201 80.1 99.5801 77.66 102.87 75.07C112.19 67.72 124.92 59.52 124.92 44.12C124.92 28.72 107.5 17.8 93.2501 32.6C79.0001 17.8 61.5801 28.72 61.5801 44.12Z" fill="#FF625D" stroke="#FF625D" stroke-width="3.17" stroke-miterlimit="12.67"/>
</g>
<path d="M137.826 71.3048V60.3204L159.572 26.1056H177.459V60.2462H183.693V71.3048H177.459V79.84H163.951V71.3048H137.826ZM151.779 60.2462H164.248V40.8009H163.803L151.779 59.8751V60.2462Z" fill="#FF625D"/>
<g opacity="0.7">
<path d="M182.997 32.0002V27.5005M182.997 6.49968V2M198 16.9966H193.501M172.5 16.9966H168M193.606 6.39422L190.421 9.57915M175.572 24.4211L172.387 27.606M172.394 6.39422L175.579 9.57915M190.421 24.4211L193.606 27.606" stroke="#FF625D" stroke-width="4" stroke-miterlimit="10.67" stroke-linecap="round"/>
</g>
<defs>
<clipPath id="clip0_5046_2673">
<rect width="66.5" height="57.68" fill="white" transform="translate(60 24)"/>
</clipPath>
</defs>
</svg>
