<svg width="16" height="16" viewBox="0 0 16 16" fill="none" xmlns="http://www.w3.org/2000/svg">
<path d="M0.617602 9.78306C0.80314 9.78306 0.986745 9.69745 1.10812 9.53343L1.37715 9.17179C1.77992 11.6437 3.45286 13.7587 5.82774 14.6116C6.55869 14.874 7.30896 15 8.04918 15C10.2656 15 12.3989 13.8683 13.676 11.8757C13.8646 11.5813 13.7866 11.1836 13.5021 10.9884C13.2164 10.792 12.8341 10.874 12.6443 11.1684C11.2536 13.3406 8.617 14.2599 6.23399 13.4023C4.25685 12.6918 2.87769 10.9104 2.58315 8.84176L3.1127 9.2634C3.38405 9.47782 3.77214 9.42662 3.97971 9.14619C4.18805 8.86576 4.13819 8.46451 3.86722 8.24889C3.86722 8.24889 2.40457 7.08316 2.4007 7.08076C2.0934 6.83554 1.65623 6.69792 1.37792 7.07356L0.128632 8.75335C-0.0797122 9.03378 -0.0298488 9.43502 0.241114 9.65064C0.35321 9.73945 0.486179 9.78306 0.617602 9.78306Z" fill="#D3D3D3"/>
<path d="M2.49803 5.01131C2.78175 5.20653 3.16597 5.12573 3.35576 4.83129C4.74652 2.65946 7.3858 1.74056 9.7661 2.59745C11.7432 3.30793 13.1224 5.08932 13.4169 7.15795L12.8874 6.7363C12.616 6.52108 12.228 6.57228 12.0204 6.85351C11.812 7.13394 11.8619 7.53519 12.1329 7.75081C12.1329 7.75081 13.5955 8.91574 13.5994 8.91894C13.9125 9.16776 14.3396 9.30738 14.6222 8.92614L15.8715 7.24716C16.0798 6.96673 16.0299 6.56548 15.759 6.34986C15.488 6.13424 15.0995 6.18664 14.892 6.46707L14.6229 6.82871C14.2202 4.35684 12.5472 2.24181 10.1724 1.38892C7.25322 0.340405 4.02717 1.46493 2.32409 4.12402C2.13546 4.41925 2.21354 4.81609 2.49803 5.01171V5.01131Z" fill="#D3D3D3"/>
</svg>
