<svg width="20" height="20" viewBox="0 0 20 20" fill="none" xmlns="http://www.w3.org/2000/svg">
<g clip-path="url(#clip0_308_4779)">
<path d="M20 18.4455L14.1873 12.6328C16.8078 9.15351 16.1119 4.20843 12.6326 1.58753C9.15326 -1.03338 4.20818 -0.336642 1.58767 3.14267C-1.03323 6.62199 -0.336895 11.5671 3.14242 14.188C5.95201 16.304 9.82339 16.304 12.633 14.188L18.4456 20.0006L20.0004 18.4459L20 18.4455ZM7.95602 13.5762C4.85288 13.5762 2.33684 11.0606 2.33684 7.95707C2.33684 4.85353 4.85288 2.33829 7.95602 2.33829C11.0592 2.33829 13.5744 4.85353 13.5752 7.95627C13.5716 11.0582 11.058 13.5723 7.95602 13.5762Z" fill="#D0D0D0"/>
</g>
<defs>
<clipPath id="clip0_308_4779">
<rect width="20" height="20" fill="white"/>
</clipPath>
</defs>
</svg>
