<svg width="24" height="24" viewBox="0 0 24 24" fill="none" xmlns="http://www.w3.org/2000/svg">
<path d="M11.71 8.53H11.72H11.71ZM13.89 13.98H13.9H13.89ZM10.62 18.33H10.63H10.62ZM20.42 21.6H3L7.36 16.16H4.09L8.45 10.72H5.18L11.71 2L18.24 10.71H14.97L19.33 16.15H16.06L20.42 21.59V21.6Z" fill="#158760"/>
<path d="M11.71 8.53H11.72M13.89 13.98H13.9M10.62 18.33H10.63M20.42 21.6H3L7.36 16.16H4.09L8.45 10.72H5.18L11.71 2L18.24 10.71H14.97L19.33 16.15H16.06L20.42 21.59V21.6Z" stroke="#158760" stroke-width="1.75" stroke-linecap="round" stroke-linejoin="round"/>
<circle cx="11.7" cy="8.55039" r="0.9" fill="white"/>
<circle cx="13.9" cy="13.9" r="0.9" fill="white"/>
<circle cx="10.6" cy="18.3297" r="0.9" fill="white"/>
</svg>
