<svg width="48" height="48" viewBox="0 0 48 48" fill="none" xmlns="http://www.w3.org/2000/svg">
<path d="M0 0H48V48H0V0Z" fill="url(#paint0_linear_4934_8398)"/>
<path d="M0 0H48V48H0V0Z" fill="url(#paint1_linear_4934_8398)"/>
<g clip-path="url(#clip0_4934_8398)">
<g filter="url(#filter0_d_4934_8398)">
<path d="M23.9769 7.64062C17.4501 7.64062 12.1406 12.9485 12.1406 19.4733C12.1406 27.5705 22.7328 39.4574 23.1835 39.9596C23.6073 40.4312 24.3465 40.4306 24.7697 39.9596C25.221 39.4574 35.8125 27.5705 35.8125 19.4733C35.8125 12.9492 30.503 7.64062 23.9762 7.64062H23.9769Z" fill="white"/>
</g>
<g filter="url(#filter1_i_4934_8398)">
<path d="M23.7401 27.1875C23.6683 27.1422 21.9691 26.0632 20.2459 24.4365C19.2242 23.4724 18.409 22.5167 17.8225 21.5948C17.0634 20.4022 16.6817 19.2549 16.6876 18.1855C16.6946 16.9405 17.1025 15.7697 17.8354 14.8892C18.5805 13.9935 19.5749 13.5 20.6357 13.5C21.9954 13.5 23.2377 14.3332 23.9531 15.6528C24.6685 14.3332 25.9114 13.5 27.2705 13.5C28.2724 13.5 29.2288 13.945 29.9629 14.7533C30.7688 15.64 31.2262 16.8933 31.2187 18.1913C31.2122 19.2594 30.8236 20.4047 30.0627 21.5954C29.4745 22.5167 28.6599 23.4724 27.6422 24.4358C25.9249 26.0619 24.2379 27.1415 24.1667 27.1869" fill="#FF625D"/>
</g>
</g>
<defs>
<filter id="filter0_d_4934_8398" x="-37.8594" y="-12.3594" width="123.672" height="132.672" filterUnits="userSpaceOnUse" color-interpolation-filters="sRGB">
<feFlood flood-opacity="0" result="BackgroundImageFix"/>
<feColorMatrix in="SourceAlpha" type="matrix" values="0 0 0 0 0 0 0 0 0 0 0 0 0 0 0 0 0 0 127 0" result="hardAlpha"/>
<feOffset dy="30"/>
<feGaussianBlur stdDeviation="25"/>
<feComposite in2="hardAlpha" operator="out"/>
<feColorMatrix type="matrix" values="0 0 0 0 0.651318 0 0 0 0 0.651318 0 0 0 0 0.651318 0 0 0 0.1 0"/>
<feBlend mode="normal" in2="BackgroundImageFix" result="effect1_dropShadow_4934_8398"/>
<feBlend mode="normal" in="SourceGraphic" in2="effect1_dropShadow_4934_8398" result="shape"/>
</filter>
<filter id="filter1_i_4934_8398" x="16.6875" y="13.5" width="14.5312" height="43.6875" filterUnits="userSpaceOnUse" color-interpolation-filters="sRGB">
<feFlood flood-opacity="0" result="BackgroundImageFix"/>
<feBlend mode="normal" in="SourceGraphic" in2="BackgroundImageFix" result="shape"/>
<feColorMatrix in="SourceAlpha" type="matrix" values="0 0 0 0 0 0 0 0 0 0 0 0 0 0 0 0 0 0 127 0" result="hardAlpha"/>
<feOffset dy="30"/>
<feGaussianBlur stdDeviation="25"/>
<feComposite in2="hardAlpha" operator="arithmetic" k2="-1" k3="1"/>
<feColorMatrix type="matrix" values="0 0 0 0 0.378044 0 0 0 0 0.378044 0 0 0 0 0.378044 0 0 0 0.2 0"/>
<feBlend mode="normal" in2="shape" result="effect1_innerShadow_4934_8398"/>
</filter>
<linearGradient id="paint0_linear_4934_8398" x1="5.15625" y1="2.20312" x2="43.4766" y2="46.1953" gradientUnits="userSpaceOnUse">
<stop stop-color="#FF6A65"/>
<stop offset="1" stop-color="#FF433D"/>
</linearGradient>
<linearGradient id="paint1_linear_4934_8398" x1="5.44752" y1="46.8688" x2="47.9758" y2="7.79422" gradientUnits="userSpaceOnUse">
<stop offset="0.0568127" stop-color="#FF3D37"/>
<stop offset="0.368703" stop-color="#FF645F" stop-opacity="0.830402"/>
<stop offset="0.682198" stop-color="#FF9995" stop-opacity="0.598241"/>
<stop offset="1" stop-color="#FFE8E7" stop-opacity="0.2"/>
</linearGradient>
<clipPath id="clip0_4934_8398">
<rect width="23.6719" height="32.6719" fill="white" transform="translate(12.1406 7.64062)"/>
</clipPath>
</defs>
</svg>
