<svg width="19" height="24" viewBox="0 0 19 24" fill="none" xmlns="http://www.w3.org/2000/svg">
<path d="M3.229 23.9478C2.16097 23.9478 1.35579 23.6794 0.813477 23.1426C0.271159 22.6058 0 21.8062 0 20.7437V9.89453C0 8.83203 0.271159 8.03516 0.813477 7.50391C1.35579 6.96712 2.16097 6.69873 3.229 6.69873H6.68213V8.16797H3.26221C2.68115 8.16797 2.23568 8.32015 1.92578 8.62451C1.62142 8.92887 1.46924 9.37712 1.46924 9.96924V20.6689C1.46924 21.2666 1.62142 21.7148 1.92578 22.0137C2.23568 22.318 2.68115 22.4702 3.26221 22.4702H15.5142C16.0841 22.4702 16.5241 22.318 16.834 22.0137C17.1494 21.7148 17.3071 21.2666 17.3071 20.6689V9.96924C17.3071 9.37712 17.1494 8.92887 16.834 8.62451C16.5241 8.32015 16.0841 8.16797 15.5142 8.16797H12.0942V6.69873H15.5474C16.6209 6.69873 17.4261 6.96712 17.9629 7.50391C18.5052 8.04069 18.7764 8.83757 18.7764 9.89453V20.7437C18.7764 21.8006 18.5052 22.5975 17.9629 23.1343C17.4261 23.6766 16.6209 23.9478 15.5474 23.9478H3.229ZM9.38818 15.647C9.18896 15.647 9.01742 15.5778 8.87354 15.4395C8.72966 15.2956 8.65771 15.1268 8.65771 14.9331V3.60254L8.71582 2.02539L7.84424 2.93018L6.09277 4.75635C5.95996 4.90576 5.79118 4.98047 5.58643 4.98047C5.39827 4.98047 5.24056 4.9196 5.11328 4.79785C4.99154 4.67611 4.93066 4.52116 4.93066 4.33301C4.93066 4.23893 4.94727 4.15316 4.98047 4.07568C5.01921 3.99821 5.07454 3.9235 5.14648 3.85156L8.85693 0.240723C8.95101 0.152181 9.03955 0.0913086 9.12256 0.0581055C9.20557 0.0193685 9.29411 0 9.38818 0C9.48226 0 9.5708 0.0193685 9.65381 0.0581055C9.73682 0.0913086 9.82536 0.152181 9.91943 0.240723L13.6299 3.85156C13.6963 3.9235 13.7489 3.99821 13.7876 4.07568C13.8263 4.15316 13.8457 4.23893 13.8457 4.33301C13.8457 4.52116 13.7793 4.67611 13.6465 4.79785C13.5192 4.9196 13.3615 4.98047 13.1733 4.98047C12.9741 4.98047 12.8081 4.90576 12.6753 4.75635L10.9321 2.93018L10.0605 2.02539L10.1187 3.60254V14.9331C10.1187 15.1268 10.0467 15.2956 9.90283 15.4395C9.75895 15.5778 9.5874 15.647 9.38818 15.647Z" fill="#007AFF"/>
</svg>
