<svg width="26" height="26" viewBox="0 0 26 26" fill="none" xmlns="http://www.w3.org/2000/svg">
<g clip-path="url(#clip0_384_325)">
<path fill-rule="evenodd" clip-rule="evenodd" d="M6.63544 6.63604C7.13757 6.13392 7.95167 6.13392 8.4538 6.63604L12.9994 11.1816L17.545 6.63604C18.0471 6.13392 18.8612 6.13392 19.3634 6.63604C19.8655 7.13816 19.8655 7.95227 19.3634 8.45439L14.8178 13L19.3634 17.5456C19.8655 18.0477 19.8655 18.8618 19.3634 19.364C18.8612 19.8661 18.0471 19.8661 17.545 19.364L12.9994 14.8184L8.4538 19.364C7.95167 19.8661 7.13757 19.8661 6.63544 19.364C6.13332 18.8618 6.13332 18.0477 6.63544 17.5456L11.1811 13L6.63544 8.45439C6.13332 7.95227 6.13332 7.13816 6.63544 6.63604Z" fill="#FF625D"/>
</g>
<defs>
<clipPath id="clip0_384_325">
<rect width="18" height="18" fill="white" transform="translate(0.271973 13) rotate(-45)"/>
</clipPath>
</defs>
</svg>
