<svg width="40" height="40" viewBox="0 0 40 40" fill="none" xmlns="http://www.w3.org/2000/svg">
<circle cx="20" cy="20" r="20" fill="#333333"/>
<path d="M15.7273 20C15.7273 19.548 16.0935 19.1818 16.5455 19.1818H23.9091V13.8636C23.9091 12.2273 22.1811 11 20.6364 11H12.8636C11.2829 11.0016 10.0016 12.2829 10 13.8636V26.1364C10.0016 27.7171 11.2829 28.9984 12.8636 29H21.0455C22.6262 28.9984 23.9075 27.7171 23.9091 26.1364V20.8182H16.5455C16.0935 20.8182 15.7273 20.452 15.7273 20Z" fill="white"/>
<path d="M31.0329 19.4067L26.942 15.3158C26.6144 15.0045 26.0967 15.0179 25.7854 15.3455C25.4853 15.6614 25.4853 16.1569 25.7854 16.4727L28.4792 19.1671H23.9092V20.8035H28.4792L25.7854 23.4979C25.4578 23.8091 25.4444 24.3269 25.7557 24.6545C26.0669 24.9821 26.5846 24.9955 26.9122 24.6843C26.9224 24.6748 26.9322 24.6646 26.942 24.6545L31.0329 20.5636C31.3523 20.2442 31.3523 19.7264 31.0329 19.407V19.4067Z" fill="white"/>
</svg>
