<svg width="40" height="40" viewBox="0 0 40 40" fill="none" xmlns="http://www.w3.org/2000/svg">
<circle cx="20" cy="20" r="20" fill="#D9D9D9"/>
<g clip-path="url(#clip0_131_5045)">
<path d="M31.1479 25.4817L27.754 17.5443C27.1359 16.0911 26.2143 15.2671 25.1623 15.2128C24.1213 15.1585 23.1129 15.8852 22.3429 17.273L20.2827 20.9707C19.8491 21.7514 19.231 22.2176 18.5586 22.2719C17.8755 22.337 17.1923 21.9791 16.6393 21.2742L16.4009 20.9707C15.6309 20.0055 14.6768 19.5393 13.7009 19.6369C12.7249 19.7345 11.8899 20.4069 11.3369 21.5019L9.46083 25.2429C8.78843 26.5985 8.85349 28.1706 9.64528 29.4501C10.4367 30.7295 11.8141 31.4995 13.3212 31.4995H27.1574C28.6105 31.4995 29.9657 30.7731 30.7683 29.5584C31.5923 28.344 31.7224 26.8151 31.1479 25.4814V25.4817Z" fill="url(#paint0_linear_131_5045)"/>
<path d="M14.8293 16.3301C16.8533 16.3301 18.4945 14.6892 18.4945 12.6649C18.4945 10.6405 16.8536 9 14.8293 9C12.8049 9 11.1641 10.6408 11.1641 12.6652C11.1641 14.6896 12.8049 16.3304 14.8293 16.3304V16.3301Z" fill="url(#paint1_linear_131_5045)"/>
</g>
<defs>
<linearGradient id="paint0_linear_131_5045" x1="20.25" y1="15.21" x2="20.25" y2="31.4995" gradientUnits="userSpaceOnUse">
<stop stop-color="#333333"/>
<stop offset="1" stop-color="#999999"/>
</linearGradient>
<linearGradient id="paint1_linear_131_5045" x1="14.8293" y1="9" x2="14.8293" y2="16.3304" gradientUnits="userSpaceOnUse">
<stop stop-color="#333333"/>
<stop offset="1" stop-color="#999999"/>
</linearGradient>
<clipPath id="clip0_131_5045">
<rect width="22.5" height="22.4993" fill="white" transform="translate(9 9)"/>
</clipPath>
</defs>
</svg>
