<svg width="18" height="18" viewBox="0 0 18 18" fill="none" xmlns="http://www.w3.org/2000/svg">
<g clip-path="url(#clip0_384_4013)">
<path fill-rule="evenodd" clip-rule="evenodd" d="M8.99951 0C9.70962 0 10.2853 0.575659 10.2853 1.28577V7.71423H16.7137C17.4239 7.71423 17.9995 8.28989 17.9995 9C17.9995 9.71011 17.4239 10.2858 16.7137 10.2858H10.2853V16.7142C10.2853 17.4243 9.70962 18 8.99951 18C8.2894 18 7.71374 17.4243 7.71374 16.7142V10.2858H1.28528C0.57517 10.2858 -0.000488281 9.71011 -0.000488281 9C-0.000488281 8.28989 0.57517 7.71423 1.28528 7.71423H7.71374V1.28577C7.71374 0.575659 8.2894 0 8.99951 0Z" fill="#DEDEDE"/>
</g>
<defs>
<clipPath id="clip0_384_4013">
<rect width="18" height="18" fill="white"/>
</clipPath>
</defs>
</svg>
