<svg width="40" height="40" viewBox="0 0 40 40" fill="none" xmlns="http://www.w3.org/2000/svg">
<circle cx="20" cy="20" r="20" fill="#F7F7F7"/>
<path d="M11.4666 31.2676C11.4666 31.6719 11.7693 32 12.1422 32H28.3578C28.7307 32 29.0334 31.6719 29.0334 31.2676V29.0215H11.4666V31.2676ZM20.25 12.8594C16.5245 12.8594 13.4935 16.145 13.4935 20.1836V27.5566H27.0065V20.1836C27.0065 16.145 23.9755 12.8594 20.25 12.8594ZM20.205 11.3945C20.5779 11.3945 20.8806 11.0664 20.8806 10.6621V7.73242C20.8806 7.32812 20.5779 7 20.205 7C19.832 7 19.5293 7.32812 19.5293 7.73242V10.6621C19.5293 11.0664 19.832 11.3945 20.205 11.3945ZM14.8854 12.4297C15.0723 12.7812 15.4862 12.8994 15.8083 12.6978C16.1317 12.4956 16.2421 12.0474 16.0556 11.6973L14.7043 9.16016C14.5178 8.81006 14.1043 8.68994 13.7813 8.89209C13.4579 9.09424 13.3476 9.54248 13.5341 9.89258L14.8854 12.4297ZM12.6012 16.21C12.7877 15.8599 12.6769 15.4116 12.3539 15.2095L10.0135 13.7446C9.69053 13.5425 9.27703 13.6626 9.09055 14.0127C8.90407 14.3628 9.01488 14.811 9.33784 15.0132L11.6783 16.478C11.9999 16.6792 12.4138 16.562 12.6012 16.21ZM24.6922 12.6978C25.0138 12.8989 25.4277 12.7812 25.6151 12.4297L26.9664 9.89258C27.1529 9.54248 27.0421 9.09424 26.7191 8.89209C26.3961 8.68994 25.9826 8.80957 25.7962 9.16016L24.4449 11.6973C24.2584 12.0474 24.3692 12.4956 24.6922 12.6978ZM31.4094 14.0127C31.223 13.6621 30.8095 13.5425 30.4865 13.7446L28.1461 15.2095C27.8231 15.4116 27.7123 15.8599 27.8988 16.21C28.0857 16.5615 28.4997 16.6797 28.8217 16.478L31.1622 15.0132C31.4851 14.811 31.5959 14.3628 31.4094 14.0127Z" fill="#FF625D"/>
</svg>
