<svg width="28" height="28" viewBox="0 0 28 28" fill="none" xmlns="http://www.w3.org/2000/svg">
<path d="M23.38 7.95676L16.66 3.25509C14.8283 1.97176 12.0167 2.04176 10.255 3.40676L4.40999 7.96842C3.24332 8.87842 2.32166 10.7451 2.32166 12.2151V20.2651C2.32166 23.2401 4.73665 25.6668 7.71166 25.6668H20.2883C23.2633 25.6668 25.6783 23.2518 25.6783 20.2768V12.3668C25.6783 10.7918 24.6633 8.85509 23.38 7.95676ZM14.875 21.0001C14.875 21.4784 14.4783 21.8751 14 21.8751C13.5217 21.8751 13.125 21.4784 13.125 21.0001V17.5001C13.125 17.0218 13.5217 16.6251 14 16.6251C14.4783 16.6251 14.875 17.0218 14.875 17.5001V21.0001Z" fill="#FF625D"/>
</svg>
