<svg width="28" height="28" viewBox="0 0 28 28" fill="none" xmlns="http://www.w3.org/2000/svg">
<path d="M4.78113 25.8451L4.83206 14.4603C4.83206 13.883 5.12747 13.3341 5.61643 12.9745L12.7471 7.81679C13.4805 7.28682 14.5094 7.28682 15.253 7.81679L22.3836 12.965C22.8828 13.3247 23.168 13.8735 23.168 14.4603V25.8451" fill="#FF625D"/>
<path d="M4.78113 25.8451L4.83206 14.4603C4.83206 13.883 5.12747 13.3341 5.61643 12.9745L12.7471 7.81679C13.4805 7.28682 14.5094 7.28682 15.253 7.81679L22.3836 12.965C22.8828 13.3247 23.168 13.8735 23.168 14.4603V25.8451" stroke="#FF625D" stroke-width="1.5" stroke-miterlimit="10" stroke-linejoin="round"/>
<path d="M14 2C15.6 2.55172 17.4 2.55172 19 2V4.58621C17.4 5.13793 15.6 5.13793 14 4.58621V2Z" fill="#FF625D" stroke="#FF625D" stroke-width="1.5" stroke-miterlimit="10" stroke-linecap="round" stroke-linejoin="round"/>
<path d="M14 4.16772V7.41934" stroke="#FF625D" stroke-width="1.5" stroke-miterlimit="10" stroke-linecap="round" stroke-linejoin="round"/>
<path d="M4.66663 25.8452C9.7519 24.2389 11.734 19.2884 12.7338 15.5677C13.4982 12.723 14.505 12.7218 15.2476 15.5723C16.2169 19.2924 18.1201 24.2395 23 25.8452H4.66663Z" fill="white"/>
<path d="M2 26L26 26" stroke="#FF625D" stroke-width="1.5" stroke-miterlimit="10" stroke-linecap="round" stroke-linejoin="round"/>
</svg>
