<svg width="28" height="28" viewBox="0 0 28 28" fill="none" xmlns="http://www.w3.org/2000/svg">
<path d="M13.9999 2.33337C10.9433 2.33337 8.45825 4.81837 8.45825 7.87504C8.45825 10.8734 10.8033 13.3 13.8599 13.405C13.9533 13.3934 14.0466 13.3934 14.1166 13.405C14.1399 13.405 14.1516 13.405 14.1749 13.405C14.1866 13.405 14.1866 13.405 14.1983 13.405C17.1849 13.3 19.5299 10.8734 19.5416 7.87504C19.5416 4.81837 17.0566 2.33337 13.9999 2.33337Z" fill="#FF625D"/>
<path d="M19.9266 16.5084C16.6716 14.3384 11.3633 14.3384 8.08495 16.5084C6.60329 17.5 5.78662 18.8417 5.78662 20.2767C5.78662 21.7117 6.60329 23.0417 8.07329 24.0217C9.70662 25.1184 11.8533 25.6667 14 25.6667C16.1466 25.6667 18.2933 25.1184 19.9266 24.0217C21.3966 23.03 22.2133 21.7 22.2133 20.2534C22.2016 18.8184 21.3966 17.4884 19.9266 16.5084Z" fill="#FF625D"/>
</svg>
