<svg width="28" height="28" viewBox="0 0 28 28" fill="none" xmlns="http://www.w3.org/2000/svg">
<path d="M21.5483 19.635L22.0033 23.3217C22.12 24.29 21.0817 24.9667 20.2533 24.465L16.2167 22.0617C15.9367 21.8984 15.8667 21.5484 16.0183 21.2684C16.6017 20.195 16.9167 18.9817 16.9167 17.7684C16.9167 13.4984 13.2533 10.0217 8.75 10.0217C7.82833 10.0217 6.93 10.1617 6.09 10.4417C5.65833 10.5817 5.23833 10.185 5.34333 9.74171C6.405 5.49504 10.4883 2.33337 15.365 2.33337C21.0583 2.33337 25.6667 6.63837 25.6667 11.9467C25.6667 15.0967 24.045 17.885 21.5483 19.635Z" fill="#FF625D"/>
<path d="M15.1666 17.7683C15.1666 19.1566 14.6533 20.4399 13.7899 21.4549C12.6349 22.8549 10.8033 23.7533 8.74992 23.7533L5.70492 25.5616C5.19159 25.8766 4.53825 25.4449 4.60825 24.8499L4.89992 22.5516C3.33659 21.4666 2.33325 19.7283 2.33325 17.7683C2.33325 15.7149 3.42992 13.9066 5.10992 12.8333C6.14825 12.1566 7.39658 11.7716 8.74992 11.7716C12.2966 11.7716 15.1666 14.4549 15.1666 17.7683Z" fill="#FF625D"/>
</svg>
