<svg width="28" height="28" viewBox="0 0 28 28" fill="none" xmlns="http://www.w3.org/2000/svg">
<path d="M21.5482 19.6351L22.0032 23.3217C22.1199 24.29 21.0816 24.9667 20.2532 24.465L15.3649 21.56C14.8282 21.56 14.3032 21.5251 13.7899 21.4551C14.6532 20.4401 15.1666 19.1567 15.1666 17.7684C15.1666 14.455 12.2966 11.7717 8.7499 11.7717C7.39657 11.7717 6.14824 12.1567 5.10991 12.8334C5.07491 12.5417 5.06323 12.25 5.06323 11.9467C5.06323 6.63836 9.67157 2.33337 15.3649 2.33337C21.0582 2.33337 25.6666 6.63836 25.6666 11.9467C25.6666 15.0967 24.0449 17.8851 21.5482 19.6351Z" stroke="#767676" stroke-width="1.5" stroke-linecap="round" stroke-linejoin="round"/>
<path d="M15.1666 17.7683C15.1666 19.1567 14.6533 20.44 13.7899 21.455C12.6349 22.855 10.8033 23.7533 8.74992 23.7533L5.70492 25.5617C5.19158 25.8767 4.53825 25.445 4.60825 24.85L4.89991 22.5517C3.33658 21.4667 2.33325 19.7283 2.33325 17.7683C2.33325 15.715 3.42992 13.9067 5.10992 12.8334C6.14826 12.1567 7.39659 11.7717 8.74992 11.7717C12.2966 11.7717 15.1666 14.455 15.1666 17.7683Z" stroke="#767676" stroke-width="1.5" stroke-linecap="round" stroke-linejoin="round"/>
</svg>
