<svg width="28" height="28" viewBox="0 0 28 28" fill="none" xmlns="http://www.w3.org/2000/svg">
<path d="M14.1867 12.6817C14.0701 12.67 13.9301 12.67 13.8017 12.6817C11.0251 12.5884 8.82007 10.3134 8.82007 7.51337C8.82007 4.65504 11.1301 2.33337 14.0001 2.33337C16.8584 2.33337 19.1801 4.65504 19.1801 7.51337C19.1684 10.3134 16.9634 12.5884 14.1867 12.6817Z" stroke="#767676" stroke-width="1.5" stroke-linecap="round" stroke-linejoin="round"/>
<path d="M8.35334 16.9866C5.53001 18.8766 5.53001 21.9566 8.35334 23.835C11.5617 25.9816 16.8233 25.9816 20.0317 23.835C22.855 21.945 22.855 18.865 20.0317 16.9866C16.835 14.8516 11.5733 14.8516 8.35334 16.9866Z" stroke="#767676" stroke-width="1.5" stroke-linecap="round" stroke-linejoin="round"/>
</svg>
