<svg width="28" height="28" viewBox="0 0 28 28" fill="none" xmlns="http://www.w3.org/2000/svg">
<path d="M2 26L26 26" stroke="#767676" stroke-width="1.5" stroke-miterlimit="10" stroke-linecap="round" stroke-linejoin="round"/>
<path d="M5 26L5.04986 14.8782C5.04986 14.3143 5.33906 13.7781 5.81773 13.4268L12.7983 8.38829C13.5163 7.87057 14.5236 7.87057 15.2515 8.38829L22.2321 13.4176C22.7208 13.7689 23 14.3051 23 14.8782V26" stroke="#767676" stroke-width="1.5" stroke-miterlimit="10" stroke-linejoin="round"/>
<path d="M14 2C15.6 2.55172 17.4 2.55172 19 2V4.58621C17.4 5.13793 15.6 5.13793 14 4.58621V2Z" stroke="#767676" stroke-width="1.5" stroke-miterlimit="10" stroke-linecap="round" stroke-linejoin="round"/>
<path d="M14 4V8" stroke="#767676" stroke-width="1.5" stroke-miterlimit="10" stroke-linecap="round" stroke-linejoin="round"/>
<path d="M14 11C14 17.2963 12.875 23.2222 5 26" stroke="#767676" stroke-width="1.5" stroke-linecap="round"/>
<path d="M14 11C14 17.2963 15.125 23.2222 23 26" stroke="#767676" stroke-width="1.5" stroke-linecap="round"/>
</svg>
